<?xml version="1.0" encoding="UTF-8"?>
<!-- Created with Inkscape (http://www.inkscape.org/) -->
<svg width="1920" height="1080" version="1.1" viewBox="0 0 508 285.75" xmlns="http://www.w3.org/2000/svg"><path d="m436.24 283.35c-0.0638-2.0334-0.2012-7.1539-0.30539-11.379-0.10418-4.2252-0.23071-9.1081-0.28118-10.851-0.23821-12.871-0.42931-12.198-0.46079-20.776-0.23569-9.5337-0.1675-3.7468-0.23569-9.5337 0.32696-5.9473-0.35479-10.78-0.43767-15.014-0.0573-3.0104-0.14759-6.1649-0.20062-7.0099-0.0531-0.84503-0.0418-2.058 0.0248-2.6956l-0.16978-8.0401c-0.14641-0.63089-0.30253-5.0491-0.50626-14.327-0.10322-4.7005-0.31372-12.651-0.46777-17.669-0.15404-5.0174-0.36691-12.536-0.47303-16.709-0.55279-21.735-1.192-44.012-1.3972-48.698-0.0373-0.85223-0.1804-1.7325-0.31792-1.9562-1.7484 0.04414-1.441-1.1937-1.9232-1.1966-0.59942 0.0041-0.66508 0.46167-0.92629 0.76527-0.12783 0.14858-0.23039 0.32194-0.30266 0.50414-0.17404 0.43873-0.19342 0.92406-0.30157 1.3835-0.0975 0.41401-0.22186 0.82154-0.31291 1.237-0.20534 0.93692-0.32653 1.8908-0.52574 2.829-0.0775 0.36526-0.1464 0.85998-0.26049 1.0895-0.11409 0.22953-0.15558 0.62721-0.0922 0.88374 0.0633 0.25653 0.0594 0.52309-9e-3 0.59235-0.0681 0.0693-0.13926 0.31975-0.15792 0.55665-0.0187 0.2369-0.12258 0.79853-0.23089 1.2481-0.12237 0.50791-0.12938 0.85975-0.0186 0.92935 0.10585 0.0665 0.0847 0.22679-0.0522 0.39424-0.20934 0.25622-0.3126 3.0806-0.34652 9.4782-4e-3 0.68658-0.18235 1.7602-0.26917 2.6407-0.0457 0.46397-0.10516 0.92696-0.13264 1.3924-0.0836 1.4164 0.0808 3.962-0.0977 4.2554-0.0762 0.1253-0.17072 1.2284-0.20997 2.4514-0.0392 1.223-0.0943 2.9186-0.12234 3.768l-0.39786 4.6012c-0.17539 0.84503-0.3217 2.2278-0.32513 3.0728-4e-3 0.84503-0.01 1.7525-0.0137 2.0165-0.0106 0.67693 0.01 2.3453 0.0326 2.6887 0.0106 0.15844-0.0205 1.4074-0.0689 2.7755-0.0486 1.3681 0.0945 1.7965 0.0816 2.6953-5e-3 0.33647-0.0441 0.67161-0.0595 1.0078-0.0133 0.29042-2e-3 0.58219-0.0284 0.8717-0.0548 0.59751-0.20904 1.1828-0.26963 1.7797-0.13594 1.3392-0.14208 2.6884-0.20975 4.0328-0.0636 1.263-0.20542 1.8546-0.18437 3.7893 0.0187 1.7146 0.0369 3.5496 0.0408 4.0777 4e-3 0.52815-0.0521 3.5098-0.12419 6.6258-3e-3 2.7789-0.93005 5.4794-1.4104 8.2165-0.0285 0.16255-0.0689 0.32333-0.0874 0.48732-0.0745 0.66114 0.0186 0.9588-0.0936 1.9938-0.29668 2.7393-0.52637 20.882-0.70219 55.464-0.0618 12.147-0.13948 22.542-0.17271 23.099 0.0925 7.8366 0.10857 7.8594 0.0383 14.495l-0.0973 9.3625h15.687l-0.1159-3.697zm-14.609-82.483c0.0479-0.18687 0.0903-0.0805 0.0941 0.2364 4e-3 0.3169-0.0354 0.46977-0.0872 0.33975-0.0518-0.13003-0.0549-0.38929-7e-3 -0.57615zm-61.239 82.675c0.35205-10.147 0.4988-15.005 0.67723-22.422 0.55873-19.397 0.23299-7.9252 0.55873-19.397 0.0972-3.116 0.22733-8.5175 0.28926-12.003 0.0619-3.4857 0.23435-10.918 0.38321-16.516 0.43534-16.373 0.43872-18.039 0.0375-18.49-0.61389-0.68903-2.002-0.37617-3.0704 0.692-0.64825 0.64816-1.0496 2.9581-1.0849 3.7584-0.0353 0.80023-0.25502 0.90158-0.32656 1.2678-0.0715 0.36625-0.0851 0.3841-0.18907 0.3841-0.10398 0-0.19095 0.19446-0.19324 0.43212-2e-3 0.23767-0.17709 0.81944-0.3885 1.2928-0.23887 0.53491-0.0994 0.62457-0.18493 0.92826-0.12103 0.42981-0.32227 0.83327-0.46227 1.2573-0.10525 0.31875-0.23586 0.63401-0.28361 0.96628-0.0848 0.59002 0.15365 1.2123 0 1.7882-0.0278 0.10432-0.12862 0.17798-0.16135 0.28087-0.40928 1.2867-0.26077 1.8498-0.38229 4.0325-0.24687 4.4346-0.0259 3.557-2.6274 10.435-1.8608 4.92-4.4224 11.396-5.5839 14.116-0.47356 1.1091-1.217 2.924-1.6521 4.0331-3.7167 9.2185-1.4347 3.0681-3.7167 9.2185-0.56757 1.3204-1.1857 2.8328-1.3736 3.3609-0.1879 0.52814-0.69756 1.7813-1.1325 2.7848-0.43499 1.0035-0.99062 2.343-1.2347 2.9768-0.24411 0.63378-1.0031 2.4487-1.6866 4.0331-1.5156 3.5134-1.598 4.5132-0.37194 4.5132 0.56173 0 1.0518-0.67281 1.7746-2.4364 0.67488-1.6466 1.889-4.3592 5.0128-11.199 0.69949-1.5316 1.379-3.0872 1.51-3.4569 0.13103-0.3697 0.80094-1.8685 1.4887-3.3307 0.68775-1.4622 1.2504-2.74 1.2504-2.8395 2.2383-4.6032 3.8105-9.5181 5.9435-14.283 0.23852-0.52814 0.62528-1.4572 0.85945-2.0646 0.52381-1.3585 0.85078-1.4486 0.69729-0.19206-0.0613 0.50175-0.19991 2.5111-0.30804 4.4652-0.10816 1.9541-0.29106 4.5181-0.40647 5.6976-0.11539 1.1796-0.15772 2.2303-0.094 2.335 0.0637 0.10464 0.0319 1.0126-0.0708 2.0178-0.10261 1.0051-0.27382 4.2756-0.38047 7.2676-0.10665 2.9921-0.27493 6.218-0.37393 7.1687s-0.22764 2.9384-0.28588 4.4172c-0.28358 7.2015-0.57006 13.225-0.76722 16.132-0.16598 2.4473-0.45735 8.243-0.46104 9.1705l-4e-3 0.91224h8.6538l0.12161-3.5049zm-91.51 3.0728c0.0476-0.23767 0.13417-0.99387 0.19244-1.6805 0.22264-2.6228 1.5475-16.904 2.2717-24.487 0.26227-2.7463 0.60555-6.3761 0.76284-8.0662 0.15729-1.69 0.45577-4.6717 0.66329-6.6258 0.2075-1.9541 0.42035-5.4543 0.47294-7.7781 0.10419-4.6006 0.18387-5.9776 0.37393-6.4605 0.10194-0.25902-0.07-0.34881-0.96914-0.50616-1.2626-0.22096-1.5784-0.14711-1.5784 0.36908 0 0.20417-0.16652 0.70276-0.37006 1.108-0.20351 0.40523-0.32498 0.78252-0.26995 0.83844 0.0551 0.056-0.11875 0.4538-0.38623 0.88418-0.26748 0.43042-0.48633 0.90968-0.48633 1.0651s-0.13126 0.78369-0.29169 1.3962c-0.16042 0.61252-0.3818 1.8483-0.49198 2.7461-0.11016 0.89785-0.23432 1.8053-0.27589 2.0166-0.52059 2.6451-0.93378 5.1129-1.2165 7.2658-0.10865 0.82732-0.28557 1.9508-0.39313 2.4967-0.38929 1.9755-2.3354 16.506-2.7952 20.87-0.0946 0.89785-0.34917 3.0584-0.56572 4.8013-0.21656 1.7429-0.58792 4.7461-0.82522 6.6738l-0.43148 3.505h3.2616c3.2308 0 3.2624-4e-3 3.3481-0.43211zm32.145-9.3034c0.31886-0.84402 0.0414-1.8265-1.4794-5.2387-6.5214-14.631-9.7464-21.908-10.514-23.724-1.4496-3.4288-3.317-7.0936-4.6391-9.1043-0.79869-1.2147-1.462-2.5172-1.8768-3.6852-0.83015-2.3376-2.2236-5.4522-2.6569-5.9385-0.41628-0.46724-1.4547-0.50595-1.8836-0.0702-0.39137 0.39756-0.52911 0.25422-0.37093-0.38597 0.21518-0.87089 1.3925-0.89455 2.3349-0.0469 0.25073 0.22552 0.39785 0.30732 0.32689 0.18178-0.071-0.12555 6e-3 -0.30483 0.17034-0.39841 0.27237-0.15483 0.27132-0.24128-0.0118-0.95991-0.17447-0.44292-0.40904-0.75157-0.53414-0.7028-0.20884 0.0814-0.62527-0.19477-1.8083-1.1992-0.6745-0.5727-0.37926-0.75988 0.59959-0.38015 0.44776 0.17369 0.90394 0.3158 1.0138 0.3158 0.25782 0 0.59805-0.76604 0.53313-1.2003-0.0276-0.18485 0.0234-0.3361 0.11356-0.3361 0.15267 0 0.45508-1.1825 0.37414-1.463-0.0201-0.0695 0.0369-0.17932 0.1267-0.24394 0.0897-0.0647 0.30405-0.46319 0.47625-0.88571 1.0815-2.6537 4.0638-10.602 6.1974-16.516 1.3717-3.8026 3.0914-8.5127 3.8216-10.467 1.7039-4.56 7.3036-19.402 8.4018-22.27 1.0002-2.6117 1.0318-3.3391 0.14836-3.4267-0.35625-0.0353-0.73532 0.0763-0.97786 0.28808-0.21786 0.19017-1.1604 2.1607-2.0946 4.3789-0.93417 2.2182-2.3137 5.4591-3.0657 7.202-0.75198 1.7429-1.6434 3.817-1.9808 4.6092-0.33747 0.79222-1.3043 2.9828-2.1486 4.8679-0.84421 1.8852-1.5349 3.4651-1.5349 3.5109 0 0.0458-1.2733 2.7395-2.8294 5.986-2.7788 5.7971-3.8839 8.6332-4.4678 11.466-0.66576 3.2303-1.4613 5.9804-2.6018 8.9937-0.67281 1.7777-1.2606 3.2701-1.3062 3.3164-0.0455 0.0463-0.96761-0.23128-2.049-0.61687-1.0813-0.38559-2.2213-0.73303-2.5333-0.77208-0.31197-0.039-1.6405-0.37331-2.9522-0.74279-1.3118-0.36947-2.5693-0.67178-2.7946-0.67178s-1.3008 0.22687-2.3902 0.50414c-1.7165 0.43689-2.0561 0.59145-2.5467 1.159-0.31136 0.36017-0.56607 0.72331-0.56607 0.80697 0 0.0836 0.87209-0.048 1.938-0.29263 2.1018-0.48232 2.7102-0.54153 2.8698-0.27924 0.16741 0.27514-1.1173 0.73722-2.5851 0.92981-0.38939 0.0511-0.67226 0.15158-0.62861 0.22331 0.0436 0.0717-0.14827 0.12752-0.42646 0.12397-0.49034-7e-3 -0.5057 0.027-0.50161 1.0861 2e-3 0.60093 0.0663 1.1556 0.14208 1.2326 0.11915 0.12103 0.91076-0.0231 2.3116-0.42091 1.5571-0.44215 1.8502-0.37503 4.9977 1.1447 1.962 0.94731 3.2632 1.4642 3.6858 1.4642 0.35927 0 0.71015 0.0936 0.77973 0.20794 0.19599 0.3221 1.7867 0.96753 2.7319 1.1084 0.77315 0.11525 0.85598 0.1793 0.90729 0.70158 0.12708 1.2932 1.0773 3.5335 2.4049 5.6697 0.25806 0.41525 0.46922 0.80596 0.46922 0.86827 0 0.0623 0.26117 0.49881 0.58038 0.97007 0.54415 0.80335 0.99763 1.6613 4.1009 7.7587 1.6851 3.3109 9.9845 20.171 11.203 22.758 3.5821 7.6073 4.1364 8.688 4.5072 8.7865 0.23484 0.0624 0.42334-8e-3 0.48893-0.18105zm-21.258-49.03c0-0.10437-0.33871-0.2448-0.75271-0.31204-0.80101-0.13011-1.3073-0.52153-0.95812-0.74075 0.10903-0.0684 0.19826 0.0103 0.19826 0.17495 0 0.18334 0.16493 0.29828 0.42541 0.29648 0.35379-2e-3 0.37765-0.0378 0.14181-0.21017-0.29928-0.21868-0.25689-0.20793 0.99263 0.25155 0.51982 0.19115 0.63096 0.36091 0.39388 0.60173-0.18742 0.1904-0.44116 0.15488-0.44116-0.0617zm-15.788-3.4044c-0.041-0.6592 0.1363-1.0042 0.52029-1.0121 0.078-9.6e-4 0.1418 0.12669 0.1418 0.28514 0 0.15844-0.0899 0.28808-0.19979 0.28808-0.11198 0-0.0704 0.18758 0.0945 0.42684 0.37674 0.54636 0.37041 0.68011-0.0365 0.77205-0.44852 0.10135-0.46852 0.0721-0.52029-0.75998zm1.1348 0.32929c0.0643-0.10563 0.23946-0.19205 0.38929-0.19205 0.14987 0 0.27246 0.0864 0.27246 0.19205 0 0.10563-0.1752 0.19205-0.38929 0.19205-0.21413 0-0.33672-0.0864-0.27246-0.19205zm-27.321 17.552c1.9701-0.62958 9.0909-2.762 10.399-3.1142l9.17-2.5296c4.2254-1.1962 5.5992-1.7797 8.7285-3.7073 1.9899-1.2258 2.8054-1.9625 2.9745-2.6872 0.11162-0.47861 0.0541-0.56571-0.5411-0.8183-0.63679-0.27026-0.74285-0.25214-2.4161 0.41305-14.055 3.5946-15.189 5.6074-25.757 9.3273-3.5021 1.2296-4.259 1.6828-4.259 2.5501 0 0.44786 0.33356 0.88572 0.6523 0.85624 0.10919-0.0101 0.58139-0.14072 1.0494-0.29025zm129.03-49.514c0.0723-0.78417 0.10784-1.8789 0.0789-2.4327-0.0439-0.83933 7e-3 -1.0279 0.30122-1.133 0.3401-0.12118 0.339-0.13673-0.0279-0.40009-0.20999-0.15072-0.44187-0.60209-0.5153-1.0031-0.094-0.51341-0.27162-0.79295-0.60047-0.94515-0.35798-0.16567-1.1566-1.6092-3.4218-6.1848-1.6252-3.2828-3.206-6.444-3.5129-7.025-0.30695-0.58095-0.94602-1.7909-1.4202-2.6887-0.47417-0.89784-1.7706-3.3177-2.8809-5.3775-2.1061-3.9072-3.2356-6.0616-9.2623-17.669-5.9447-11.449-5.4671-10.647-6.2712-10.53-0.50025 0.0732-1.2931 1.1747-1.2931 1.7965 0 0.23575 1.309 3.3558 2.909 6.9335 4.9646 11.101 7.6928 17.661 9.9635 23.956 1.7481 4.8465 2.8386 6.822 5.3328 9.6614 1.0903 1.2412 3.2465 4.2637 3.1277 4.3844-0.0404 0.041-1.2901-0.35285-2.7771-0.87526-1.487-0.5224-2.8758-0.94981-3.0861-0.94981-0.40181 0-5.5894 1.6438-5.932 1.8797-0.29488 0.20303-1.2186 1.4895-1.2186 1.6971 0 0.0988 1.255-0.23315 2.7888-0.7377 3.006-0.98879 3.4719-1.0672 3.8189-0.6425 0.26961 0.32999-0.22584 0.62928-1.9242 1.1624-0.59571 0.18699-1.0394 0.41185-0.98594 0.4997 0.0534 0.0878 0.32815 0.0664 0.61045-0.0476 0.28228-0.11406 0.78602-0.27364 1.1194-0.35463 0.60061-0.14593 0.60731-0.13954 0.7305 0.69483 0.0684 0.46315 0.20476 0.8421 0.30308 0.8421 0.47709 0-0.15154 0.39197-1.0578 0.65958-1.3107 0.38705-1.747 0.3973-1.4503 0.0342 0.16437-0.20118 0.16429-0.38588 0-0.75289-0.17454-0.38908-0.34197-0.47977-0.83731-0.45362-0.34056 0.018-0.58623 0.0876-0.54599 0.15473 0.0403 0.0671-0.30578 0.24875-0.76898 0.40364-0.59173 0.19788-0.86775 0.2187-0.92818 0.07-0.0474-0.11637-0.0907 4e-3 -0.0965 0.26855-0.0108 0.49895 0.26656 1.8909 0.40479 2.0313 0.0758 0.077 3.6121-1.0943 4.3971-1.4564 0.9514-0.43883 1.0889-0.38491 5.7201 2.2424 2.4956 1.4158 5.195 2.6546 7.2954 3.3479 1.7604 0.58112 1.7623 0.58011 1.9137-1.0613zm2.6544-1.0801c0.80734-0.32186 1.1501-0.42779 1.5655-0.48382 0.23709-0.0319 0.89648-0.15018 1.4653-0.26268 0.56885-0.1125 1.4809-0.28552 2.0269-0.38449 4.2476-0.77002 5.7599-1.0761 7.3265-1.483 0.98791-0.25655 2.3067-0.59577 2.9306-0.75384 2.0258-0.51321 2.441-0.62098 3.5924-0.93235 0.62395-0.16874 1.8576-0.48208 2.7416-0.6963 0.88391-0.21423 1.7773-0.43756 1.9852-0.49628 0.20798-0.0587 0.59085-0.13318 0.85082-0.16542 0.25997-0.0322 1.366-0.31208 2.4579-0.62184 1.0919-0.30976 2.6234-0.71534 3.4033-0.9013 0.77992-0.18598 2.1417-0.54558 3.0261-0.79915 0.88445-0.25356 2.1607-0.58329 2.8361-0.73274 1.4348-0.31748 4.786-1.1654 6.1439-1.5544 1.0804-0.3096 4.3287-1.1438 6.1448-1.578 0.67592-0.16163 1.5693-0.3977 1.9852-0.5246l0.75629-0.23074 0.0552-1.473c0.0456-1.2164 5e-3 -1.473-0.23306-1.473-0.24211 0-6.1383 1.1432-11.428 2.2157-0.76774 0.15567-2.0014 0.33253-2.7415 0.39302-0.74009 0.0605-1.5158 0.1843-1.7238 0.27513-0.20798 0.0908-0.67593 0.20588-1.0399 0.25565-0.36397 0.0498-1.8529 0.34666-3.3088 0.65972-1.4559 0.31307-4.221 0.8025-6.1448 1.0876-7.5049 1.1123-9.2115 1.6011-14.089 4.0351-3.4137 1.7036-7.1587 3.0951-10.112 3.7571-2.1316 0.47786-2.6477 0.85918-2.6477 1.9566 0 0.59156 0.0858 0.7741 0.42541 0.90552 0.29551 0.11432 0.52123 0.0788 0.73916-0.11624 0.27274-0.24413 0.33455-0.24464 0.47267-4e-3 0.10733 0.18694 0.28175 0.22789 0.53708 0.12609zm-17.657-4.1679c0.0115-0.0792 4e-3 -0.3482-0.0163-0.59773-0.0233-0.28428 0.0395-0.40554 0.16815-0.32475 0.11808 0.0741 0.20539-0.0146 0.20539-0.20888 0-0.26276-0.0504-0.28662-0.22689-0.10738-0.33291 0.33818-0.58888 0.28081-0.4451-0.0998 0.0687-0.18164 0.0564-0.26086-0.0271-0.17606-0.25172 0.25568-0.18021 1.6586 0.0846 1.6586 0.12998 0 0.24575-0.0649 0.25726-0.14404zm154.33-4.4982c0.56331-0.87472 0.91824-1.9943 0.91824-2.8965 0-0.99226 0.0537-0.91046-4.8852-7.4414-0.91861-1.2147-2.6937-3.5617-3.9447-5.2156-1.2509-1.6538-3.0117-3.9873-3.9127-5.1854-2.5507-3.3917-12.034-15.939-12.533-16.582-1.1797-1.5212-6.0762-8.0944-10.086-13.54-2.4501-3.3273-5.2208-7.0867-6.1571-8.3543-4.1646-5.6378-6.7817-8.194-12.888-12.588-2.8359-2.0407-5.9246-5.1407-9.6047-9.64-1.6758-2.0489-2.9592-3.4507-3.22-3.5172-0.23922-0.06099-0.8936 0.06707-1.4599 0.2857-0.56449 0.21793-1.0519 0.39628-1.083 0.39633-0.0312 5.2e-5 -0.0312-0.49684 0-1.1042l0.0567-1.1043 1.0133-0.05878c0.75245-0.04365 1.1056 0.02609 1.3719 0.2709 0.46009 0.42294 0.70686 0.19142 0.29213-0.27408-0.39133-0.43924-0.41324-0.74095-0.0304-0.41817 0.15599 0.1315 0.2836 0.16073 0.2836 0.06498 0-0.26035-1.9612-2.1775-2.2275-2.1775-0.12672 0-0.23039 0.13474-0.23039 0.29941s-0.085 0.246-0.18908 0.18072c-0.10398-0.06528-0.18907-0.28644-0.18907-0.49146 0-0.54364 0.77993-0.48037 1.3235 0.10736 0.51686 0.55884 0.97663 0.66168 0.48346 0.10813-0.18631-0.20911-0.26914-0.47439-0.18916-0.60583 0.0847-0.13932 0.0633-0.1843-0.0529-0.11129-0.10737 0.0674-0.57875-0.22039-1.0475-0.63952-0.6034-0.5395-0.88979-0.96498-0.98064-1.4569-0.0706-0.38214-0.0873-0.73641-0.0372-0.78728 0.1071-0.10878 2.1149 1.1572 2.7022 1.7038 0.22301 0.20755 0.4469 0.30605 0.49755 0.21889 0.0506-0.08717 0.32021-0.9363 0.59905-1.887 0.27884-0.95066 1.1742-3.8026 1.9897-6.3377s1.7816-5.5599 2.1467-6.7218c0.36519-1.1619 1.174-3.7114 1.7974-5.6655 1.2001-3.762 2.995-9.5056 3.7211-11.907 0.23952-0.79222 1.1179-3.6442 1.952-6.3377 1.4164-4.5741 3.0528-9.5628 3.5291-11.475l5.0523-20.287s1.041-7.2613-4e-3 -7.7881c-1.0448-0.52689-12.635 27.259-12.635 27.259l-2.0168 4.7533c-3.9999 9.4269-5.0586 12.936-6.4577 21.401-0.52214 3.1595-1.0585 5.6686-1.7328 8.1061-0.89511 3.2357-3.4966 11.064-3.6769 11.064-0.0993 0-1.1372-0.63917-2.3063-1.4204-1.1691-0.78121-3.5721-2.3082-5.3399-3.3932s-4.4204-2.7361-5.8947-3.669c-1.4743-0.93288-2.8622-1.6961-3.0842-1.6961-0.22201 0-2.0362 0.72711-4.0315 1.6158-6.8359 3.0446-6.261 2.7238-7.1267 3.9773-0.42869 0.62078-0.69835 1.1287-0.59924 1.1287 0.0991 0 1.1468-0.43978 2.3282-0.9773 4.6696-2.1246 7.7783-3.4399 8.13-3.4399 0.20301 0 0.5919 0.2263 0.86421 0.50289 0.47404 0.48153 0.47971 0.51142 0.13321 0.70378-0.19904 0.11049-0.40443 0.25372-0.45642 0.31828-0.052 0.06456-0.9879 0.4954-2.0798 0.95742-1.0919 0.46202-2.1129 0.96078-2.2689 1.1084-0.30527 0.28881 0.07 0.15007 2.4896-0.92041 1.2466-0.55153 2.076-0.75633 1.4809-0.36569-0.17094 0.11221-0.19403 0.18734-0.0582 0.18911 0.12402 0.0015 0.19271 0.17579 0.15266 0.38704-0.0401 0.21126 0.0286 0.38717 0.15266 0.39091 0.12402 0.0037 0.0128 0.13698-0.2472 0.29609-0.42225 0.25843-0.42826 0.27711-0.0562 0.17519 0.34373-0.09417 0.40341-0.04526 0.34173 0.28007-0.0411 0.21679 0.0105 0.39416 0.11464 0.39416 0.10416 0 0.1368 0.08642 0.0725 0.19205-0.0643 0.10563-0.0267 0.19205 0.0834 0.19205 0.32147 0 0.23426 0.25472-0.2801 0.81818-0.52923 0.57974-1.0578 0.742-0.62999 0.1934 0.24615-0.31567 0.2331-0.31567-0.25379 0-0.28232 0.18303-0.55131 0.33278-0.59776 0.33278-0.19315 0 0.0242-0.62037 0.27353-0.78063 0.41097-0.26417 0.11218-0.21329-0.65196 0.11102-0.7319 0.31062-0.9144 0.50257-0.33034 0.34743 0.28558-0.07586 0.35379 0.01165 0.35078 0.4501-2e-3 0.29935-0.041 0.43623-0.0867 0.3042-0.12683-0.36717-0.38967-0.28618-0.53014 0.16337-0.0883 0.2827-0.18568 0.34287-0.32531 0.20104-0.13895-0.14114-0.31107-0.14161-0.56872-0.0015-0.47861 0.26018-0.96239-0.12952-0.51637-0.41594 0.23179-0.14885 0.21466-0.18216-0.0961-0.187-0.20798-0.0033-0.29306-0.06937-0.18906-0.14698 0.33506-0.25005 0.30525-0.64214-0.0443-0.58233-0.22152 0.0379-0.35359-0.08358-0.39248-0.36104-0.0914-0.65236-0.53916-0.94286-0.93755-0.60834-0.46896 0.39376-1.7042 0.78697-1.9626 0.62476-0.12756-0.08008-0.1686-0.05426-0.098 0.06171 0.0667 0.10969-0.13001 0.30519-0.4372 0.43444-0.3072 0.12925-0.65425 0.35214-0.77123 0.49531-0.17754 0.21729-0.29232 0.2073-0.6947-0.06052l-0.48203-0.32082 0.13765 1.1441c0.15653 1.3011 0.59504 3.3386 0.75311 3.4991 0.0582 0.05902 0.26177-0.03618 0.45257-0.21158 0.19082-0.17541 0.48549-0.31892 0.65483-0.31892 0.16935 0 1.0865-0.36231 2.0382-0.80513l1.7303-0.80513-0.0889-0.9396c-0.0521-0.55113-0.0228-0.83362 0.0711-0.68327 0.088 0.14098 0.16126 0.44568 0.16285 0.67711 4e-3 0.57755 0.22105 0.66463 0.84162 0.3376 0.2904-0.15304 0.63548-0.27825 0.76685-0.27825 0.13136 0 0.34398-0.12868 0.47249-0.28596 0.1285-0.15728 0.30223-0.24291 0.38605-0.19029 0.0838 0.05262 0.28081-0.03475 0.43775-0.19417 0.15694-0.15941 0.46718-0.28984 0.68942-0.28984 0.22225 0 0.57208-0.09133 0.7774-0.20294 0.52284-0.28423 0.99927 0.04481 6.2055 4.2857 2.4361 1.9844 4.7759 3.8438 5.1995 4.1319 0.42356 0.28807 1.8478 1.2808 3.1649 2.206 1.3171 0.92524 3.0401 1.9935 3.8287 2.3739 0.78864 0.38043 1.4339 0.80683 1.4339 0.94756 0 0.14072-0.19017 0.39116-0.42259 0.55652-0.362 0.25755-0.38911 0.35511-0.18907 0.68047 0.12843 0.20889 0.23539 0.53222 0.23766 0.7185 0.0105 0.85753 1.5118 3.2356 3.6772 5.8249 0.31504 0.37669 0.87057 1.0602 1.2345 1.5188 1.0254 1.2922 2.1165 2.5779 2.3673 2.7897 0.603 0.50911 3.1102 3.7909 3.0153 3.9469-0.0595 0.0978 0.0238 0.12638 0.18521 0.0635 0.16138-0.063 0.29343-0.0236 0.29343 0.0872 0 0.11091 0.50798 0.79969 1.1288 1.5306 0.62086 0.73093 1.0676 1.3912 0.99262 1.4673-0.0749 0.076-0.0435 0.10957 0.0697 0.0743 0.11324-0.0352 0.45214 0.23846 0.7531 0.60817 0.30098 0.36969 0.65501 0.74128 0.78674 0.82575 0.13173 0.0845 0.23952 0.23473 0.23952 0.3339 0 0.20484 0.2688 0.54051 1.6071 2.0069 1.0932 1.1978 1.7191 2.0531 1.6532 2.2589-0.0254 0.0792 0.0796 0.14404 0.23314 0.14404 0.15359 0 0.42695 0.23767 0.60746 0.52815 0.18052 0.29047 0.73551 0.98883 1.2333 1.5519 0.49781 0.56306 0.90511 1.1353 0.90511 1.2716s0.29721 0.45344 0.66046 0.70472 0.66104 0.51753 0.66174 0.59167c7.2e-4 0.0741 0.29909 0.42857 0.66304 0.78761 0.36397 0.35905 0.66176 0.79532 0.66176 0.9695s0.10635 0.29508 0.23634 0.26868 0.21507 0.06 0.18908 0.19204c-0.026 0.13205 0.0671 0.24007 0.20703 0.24007 0.35471 0 0.94332 0.70102 0.79429 0.94596-0.0745 0.1224-8e-3 0.15691 0.17056 0.0876 0.18212-0.071 0.29341-9e-3 0.29341 0.16437 0 0.15331 0.46606 0.76753 1.0357 1.3649 0.56962 0.59739 1.0023 1.0862 0.9615 1.0862-0.0809 0 0.74038 0.97475 1.7842 2.1176 0.94195 1.0312 2.5474 2.8765 3.0607 3.518 0.2404 0.3004 0.67106 0.7684 0.95704 1.04 0.28596 0.27162 0.51994 0.61845 0.51994 0.77074 0 0.16621 0.11245 0.23305 0.28134 0.16722 0.15474-0.0604 0.2655-0.048 0.24615 0.0274-0.0753 0.29342 0.2655 1.001 0.43184 0.89658 0.0967-0.0607 0.25666 0.10563 0.35548 0.36964 0.0988 0.264 0.3539 0.57472 0.56686 0.69048 0.21295 0.11577 0.38719 0.29012 0.38719 0.38744 0 0.0973 0.33927 0.548 0.75393 1.0015 0.41466 0.45351 0.75499 0.88084 0.75628 0.94962 2e-3 0.0688 0.39925 0.5225 0.88434 1.0083s0.82256 0.88322 0.74993 0.88322c-0.0726 0 0.16859 0.28028 0.53606 0.62284s0.66811 0.68433 0.66811 0.75948c0 0.0752 0.19144 0.34591 0.42541 0.60169 0.58881 0.64368 1.6174 1.8396 2.4428 2.8403 0.38164 0.46267 1.3176 1.5845 2.0798 2.4929 1.7528 2.089 2.0292 2.4293 2.6394 3.2495 0.46513 0.62517 0.7181 0.92387 2.0298 2.3969 0.2822 0.31689 0.89257 1.0515 1.3564 1.6324 0.4638 0.58096 0.90709 1.0851 0.98509 1.1203s0.1418 0.17925 0.1418 0.32009 0.0643 0.28488 0.14293 0.32009c0.0786 0.0352 0.71712 0.7554 1.4189 1.6004 0.70178 0.84503 1.6159 1.9361 2.0313 2.4246 0.41544 0.48852 1.3589 1.6552 2.0967 2.5927 0.73772 0.93747 1.7588 2.1545 2.2689 2.7044s0.92761 1.0901 0.92761 1.2003c0 0.11022 0.0706 0.20038 0.15703 0.20038 0.0864 0 0.41814 0.36731 0.73728 0.81622 0.31914 0.44892 0.806 1.0755 1.0819 1.3924 0.27591 0.31688 0.88359 1.0947 1.3504 1.7285 1.5868 2.1543 1.8271 2.3915 2.8023 2.7663 0.52872 0.2032 2.0829 1.796 1.2781 0.49709-0.12117-0.19556 0.4108-0.0184 0.60478-0.31955zm-4.2303-2.8365c0-0.22659 0.36876-0.46899 0.50419-0.33142 0.13544 0.13757-0.1032 0.51213-0.32627 0.51213-0.0979 0-0.17792-0.0813-0.17792-0.18071zm-62.762-84.599c-0.12432-0.15217-0.33155-0.23554-0.46049-0.18528-0.12894 0.05026-0.381-0.07312-0.56013-0.27417-0.3137-0.35211-0.30631-0.36186 0.201-0.26519 0.60535 0.11535 1.3775 0.58136 1.3775 0.83134 0 0.26055-0.30557 0.20211-0.55789-0.1067zm-8.1388-9.146c-7.2894-5.0272-10.297-7.1661-10.872-7.7323-0.35863-0.35291 0.36192 0.1164 3.5924 2.3397 5.2186 3.5917 11.89 8.3058 12.195 8.6179 0.38165 0.38974-0.75472-0.35593-4.9152-3.2253zm-83.665 54.193c0.72792-0.29802 3.0251-1.2162 5.1049-2.0403 4.6154-1.829 22.132-8.9099 29.117-11.77 2.8077-1.1498 6.8917-2.8072 9.0754-3.683 5.1153-2.0516 7.7983-3.2352 10.493-4.629 2.2367-1.1567 6.9279-4.2222 8.6028-5.6215 2.0886-1.745 3.3088-2.8938 3.3088-3.1153 0-0.12839 0.12761-0.28317 0.2836-0.34397 0.15598-0.0609 0.28361-0.2347 0.28361-0.38644 0-0.31692 2.5835-3.0525 3.6377-3.8518 0.40803-0.3094 0.83209-0.48744 1.0026-0.42096 0.19491 0.076 0.3977-0.0639 0.59561-0.41082 0.16505-0.28931 0.64976-0.75871 1.0772-1.0431 0.67764-0.45093 0.79117-0.47682 0.88713-0.20234 0.0867 0.24789 0.13633 0.21494 0.23377-0.15507 0.17136-0.65079 0.16086-3.1093-0.0129-3.0292-0.66508 0.30672-3.0735 1.6341-5.3413 2.9438-14.937 8.6264-35.315 18.761-61.07 30.371-4.3156 1.9455-8.1199 3.6613-8.4541 3.813-0.74901 0.33991-1.6297 1.6468-1.6297 2.4183 0 0.68424 0.61905 1.5986 1.1219 1.657 0.19754 0.023 0.95475-0.20209 1.6827-0.50012zm67.751-56.653c0.19989-0.1287 0.18448-0.18878-0.0743-0.28966-0.17958-0.07-0.37106-0.08202-0.4255-0.02673-0.0544 0.0553 5e-3 0.10055 0.13275 0.10055 0.12747 0 0.17916 0.08642 0.11489 0.19205-0.1414 0.2324-0.0807 0.23813 0.25219 0.02378zm0.22049-0.56793c0-0.27536-0.21479-0.39404-0.50702-0.28013-0.22902 0.08927-0.23434 0.13954-0.0288 0.2719 0.32331 0.20817 0.5358 0.21143 0.5358 0.0082zm-0.4195-0.57814c0.16742-0.10791 0.19165-0.29512 0.0785-0.60605-0.10714-0.2942-0.21121-0.37208-0.30069-0.22502-0.0753 0.12369-0.068 0.22621 0.0162 0.22783 0.0841 0.0015 0.0254 0.08672-0.13065 0.18911-0.25209 0.16549-0.25209 0.18682 0 0.19205 0.2521 0.0053 0.2521 0.02657 0 0.19205-0.15599 0.10239-0.19853 0.18617-0.0945 0.18617 0.10399 0 0.29808-0.07027 0.43133-0.15614z" fill="none" stroke="#a9a9a9"/></svg>
