<?xml version="1.0" encoding="UTF-8"?>
<!-- Created with Inkscape (http://www.inkscape.org/) -->
<svg width="1920" height="1080" version="1.1" viewBox="0 0 508 285.8" xmlns="http://www.w3.org/2000/svg"><path d="m0.1897 291.3 0.4724-8.907 0.9349-0.1346c0.3795-0.0928 1.032-0.102 1.451-0.0204 1.665 0.3241 9.842-1.524 11.5-0.6178l0.7182-0.339c0.5882-0.7056 2.638-0.0611 2.328 0.5808-0.08009 0.1263 0.2288 0.2297 0.6863 0.2297 0.4576-3e-5 0.832-0.1171 0.832-0.2602v-0.2601l1.292 0.14c0.7105 0.077 5.946 0.422 6.458 0.4237 1.247 0.3411 1.919-1.095 3.064-1.193 0.2817-0.0154 0.5994-0.1592 0.706-0.3195l0.1938-0.2913c2.738-0.1022 5.504-0.3692 8.238-0.1636l3.202 0.1579 0.1647 1.614 0.8159 0.2127c0.4488 0.117 1.317 0.2554 1.929 0.3075 0.6123 0.0521 1.224 0.1588 1.36 0.2371 0.1356 0.0783 0.6403 0.0839 1.122 0.0125l0.875-0.1298 1.821-2.18c0.4242-0.5079 0.8019-0.6456 1.267-0.0346 0.3494 0.4589 0.7532 1.567 1.704 1.567 0.2671 0 0.9408-1.449 1.853-1.721l4.443-1.325 2.345-0.0864 1.897 1.41h1.581l0.6196 1.326h0.8254c0.8981 0 10.28 1.173 11.34 2.058l0.6799 0.5699 0.3613-1.91 0.7522-7e-3 1.072-2.03 1.041 0.7034 0.8303-0.3105 0.1626 0.4129c0.0894 0.2271 0.296 0.4129 0.4591 0.4129 0.1631 0 0.2403-0.0895 0.1715-0.1988-0.0688-0.1094 0.923-0.1988 2.204-0.1988h2.329l0.1096 0.3177 0.1096 0.3177 0.662-0.294c0.3641-0.1617 0.6619-0.3643 0.6618-0.4502-9e-5 -0.0859 15.63 1.912 19.11 1.897 8.532-0.0367 8.092-0.028 9.145-0.1823l0.6459-0.0946 0.51-1.022c0.2805-0.562 0.7025-0.0872 0.7025-0.0872l0.6045 0.3881c2.44-1.905 0.8664 3.964 2.649-1.155-0.3194-2.344 0.1039 0.0872 0.9938-1.534l0.2911-0.5302h0.6371c0.3504 0 0.7944-0.1849 0.9868-0.4108 0.1924-0.2259 0.872-0.6426 1.51-0.9261 0.6383-0.2834 1.234 0.554 1.325 0.2764l0.1644-0.5048 0.4981 0.127c0.6802 0.1734 3.247-0.9999 3.442-1.573 0.0867-0.2552 0.3869-0.4639 0.6672-0.4639s0.5819-0.1141 0.6703-0.2535c0.0884-0.1394 0.3246-0.1922 0.5249-0.1173 0.2003 0.0749 0.5548-0.0496 0.7878-0.2767 0.233-0.2271 0.6455-0.4129 0.9166-0.4129 0.5822 0 9.138-1.803 9.138-2.181 0-0.1436 0.1797-0.194 0.3992-0.1118 0.2196 0.0822 0.4716 0.0353 0.56-0.1042 0.0884-0.1394 0.6388-0.2535 1.223-0.2535h1.062c-0.5544-3.985-0.6291-3.173 4.589-3.234 1.002-0.0119 2.144 0.0646 2.539 0.1698l0.7182 0.1914 0.1531-0.2414 0.1531-0.2414 2.656 0.0813c1.461 0.0447 2.83 0.1464 3.042 0.2259l0.3866 0.1446 0.7705-1.072h0.8144l7.312 0.5738 0.7955 1.856h1.166c0.6412 0 1.29-0.1208 1.441-0.2686l0.2755-0.2686 0.8751 0.2974c0.4813 0.1636 1.116 0.236 1.411 0.1609l0.5356-0.1365v0.7252l1.076 0.2825c0.592 0.1554 7.306 0.9709 7.39 1.104 0.184 0.2901 2.318 0.2986 2.318 9e-3 0-0.1116 0.2544-0.2678 0.5654-0.347 3.554 0.9609 1.511 0.3485 3.841 1.22l0.2404-0.37 0.2404-0.37 4e-3 0.4639c5e-3 0.534 0.6848 0.624 1.002 0.1326 0.1174-0.1823 0.2329-0.6893 0.2566-1.127 0.0237-0.4374 0.1177-2.108 0.209-3.711 0.0912-1.604 0.2906-5.541 0.443-8.748 0.3451-7.262 1.263-25.73 1.646-33.12 0.1582-3.053 0.3437-5.64 0.4122-5.748 0.0685-0.1081 7e-3 -0.2671-0.1358-0.3534l-0.2604-0.1569-1.677 3.386c-0.9222 1.862-2.199 4.639-2.837 6.17-0.6384 1.531-2.042 4.752-3.12 7.158-3.75 8.372-8.201 19.57-10.54 26.51-0.752 2.232-1.396 3.223-0.7675 1.182 2.267-7.362 8.44-24.02 14.88-40.15l2.169-5.432-0.1836-1.432-0.1836-1.432-2.235-2.945c-1.229-1.62-3.003-4.059-3.942-5.42-4.392-6.368-10.14-13.27-16.83-20.19-2.182-2.26-3.139-3.334-2.126-2.386 1.591 1.488 5.775 5.796 9.528 9.809 0.6137 0.6561 3.392 3.698 6.174 6.76s5.333 5.806 5.669 6.097c0.3362 0.2916 1.461 1.696 2.498 3.12 1.038 1.425 2.35 3.065 2.917 3.645l1.03 1.055h0.8696c0.4783 0 2.792-0.4678 5.142-1.04 2.35-0.5717 6.438-1.534 9.086-2.138 6.903-1.576 19.26-5.032 26.03-7.285 1.111-0.3691 2.09-0.6674 2.176-0.663 0.5197 0.0268-1.809 0.8275-11.54 3.967-5.983 1.931-13.45 4.44-16.59 5.577-3.141 1.137-6.323 2.152-7.071 2.256-1.83 0.2541-1.994 0.3947-0.9569 0.8197l0.8797 0.3605-0.1654 0.4201c-0.091 0.231-0.1654 0.9637-0.1654 1.628v1.208l-4.811-0.2674-0.1779 6.128c-0.5848 20.15-1.27 40.87-1.41 42.62-0.1704 2.136-0.1562 2.17 1.027 2.446l0.7479 0.1742v-0.5196c0-0.2858 0.121-0.5925 0.269-0.6816 0.4238-0.2553 2.141 0.6561 2.33 1.237 0.2479 0.7613-0.0351 0.8846-0.8442 0.3679-0.3907-0.2495-0.8894-0.3868-1.108-0.305l-0.3977 0.1488 0.2963 0.5396c0.3646 1.576 2.507 1.213 3.569 0.2636h0.306c-0.6457 3.026 3.575 1.262 3.677 0.9278 0.026 1.196 1.132 0.6901 1.574 0.4316 0.4573-0.2718 1.283-0.5457 1.836-0.6085l1.004-0.1143v0.971l1.224 0.4464 0.1874-0.2874 0.1874-0.2875c4.152 2.796 4.929-3.555 4.929 0.6417h0.6842c0.8071 0 2.851-0.5883 2.851-0.8205 0-0.0887 0.3706-0.5392 0.8235-1.001l0.8235-0.84 0.5641 0.2943c0.3103 0.1619 0.8206 0.2289 1.134 0.149 0.5782-0.1474 1.278 0.2228 1.278 0.676v0.2483l-0.34-0.1991-0.34-0.1991 0.7679 0.9222 0.2487-0.3439 0.2487-0.3439 0.138 0.3314c0.0759 0.1822 0.2963 0.3314 0.4899 0.3314 0.1936 0 0.5069 0.182 0.6963 0.4043l0.3443 0.4044c2.663-1.667 2.647-1.339 5.899-1.471l0.1304 0.3314c0.1801 0.4577 0.8717 0.4164 1.061-0.0633l0.1554-0.3947c0.9722 0.4144 1.349 0.6457 2.222 0.0168 3.749-1.78 13.09 2.193 14.51-1.031 0.2265-0.6958 1.456-2.173 1.809-2.173 0.4125 0 1.189 0.8867 1.705 1.947 3.604 0.1473 12.58 0.6459 15.94-1.754l0.4816 0.5513c0.8265-0.9616 7.384-0.0352 7.349-0.1528-0.0374-0.1122 0.2074-0.4926 0.5439-0.8453l0.6119-0.6413v1.147l0.6119-0.2244c6.405-0.8016 9.482-3.741 11.73-2.544 0.1161 0.0636 0.3213-1.766 1.643-0.2666 0.3596 0.4079 0.8579-0.6628 1.01-0.6628s0.6657-0.2862 1.142-0.6361c0.4762-0.3498 1.478-0.9226 2.226-1.273 1.515-0.7091 3.887-2.401 4.434-3.163 0.3873-0.539 1.04-0.6602 1.19-0.221l0.0939 0.2747 1.986-0.4073c1.092-0.224 2.407-0.4073 2.92-0.4073h0.9341v-1.67l0.1101-2.895c0.1248-0.7878 0.997-27.95 0.9835-30.63l-6e-3 -1.127h-0.4431c-0.2437 0-1.146 0.6859-2.006 1.524l-1.563 1.524-3.502 1.963c-4.277 2.398-6.159 3.521-10.03 5.982-1.645 1.047-3.359 2.124-3.808 2.394l-0.8159 0.4909 0.408-0.3966c0.2244-0.2181 2.962-2.178 6.083-4.355 3.121-2.177 6.426-4.487 7.343-5.133 0.9175-0.6462 2.953-2.055 4.524-3.132 1.571-1.076 3.005-2.233 3.187-2.57l0.3312-0.6135-0.2495-1.494c-0.1372-0.822-0.3198-1.605-0.4056-1.741-0.0858-0.1354-0.1536-2.132-0.1505-4.437 3e-3 -2.305-0.0726-6.125-0.1681-8.489l-0.1737-4.299-1.797-0.5721c-0.9885-0.3146-1.92-0.6851-2.069-0.8231l-0.272-0.2511 0.8159 0.1917c0.4488 0.1054 1.288 0.3517 1.865 0.5472 0.5769 0.1955 1.144 0.298 1.261 0.2278 0.1166-0.0702 0.1694-0.9343 0.1174-1.92l-0.0945-1.792 0.6592 3.96 2.176 0.6128c1.197 0.337 5.909 1.556 10.47 2.71s9.028 2.346 9.923 2.65l1.628 0.5536 1.466-0.3139 1.038-1.123c0.5711-0.6178 1.406-1.624 1.854-2.235 0.4488-0.6116 2.468-2.526 4.488-4.255 2.019-1.729 4.834-4.193 6.255-5.478 1.421-1.284 3.318-2.994 4.216-3.799 0.8975-0.8055 2.289-2.069 3.092-2.808 0.8032-0.7388 1.415-1.198 1.36-1.022-0.0553 0.1769-2.854 3.042-6.22 6.367-3.366 3.325-8.055 8.041-10.42 10.48l-4.302 4.433 1.397 0.6202v2.036h-1.632v0.5082c0 0.2795 0.247 1.07 0.5488 1.756l0.5488 1.248 0.2686 2.684c0.1477 1.476 0.3961 3.937 0.5519 5.468 0.1558 1.531 0.6525 5.444 1.104 8.696 0.8779 6.327 0.9577 8.609 0.1409 4.029-0.8149-4.569-2.876-14.65-3.025-14.8-0.0758-0.0739-0.1845-0.0847-0.2415-0.024-0.057 0.0607-0.1584 7.363-0.2253 16.23l-0.1217 16.12 0.2425 0.1461c0.1333 0.0803 0.4586-0.0446 0.7227-0.2776 0.6052-0.5339 1.554-0.5479 1.76-0.026l0.1566 0.3976 2.601 0.012 1.186 0.5244c0.6521 0.2884 1.327 0.5244 1.501 0.5244 0.1733 0 0.7654 0.2982 1.316 0.6628s1.191 0.6627 1.423 0.6627c0.2323 0 0.4276 0.1491 0.4339 0.3314 6e-3 0.1822 0.443 0.5997 0.9704 0.9276l0.9588 0.5962 1.086-0.5664 0.8435 0.6823 0.4884-0.5879c0.2686-0.3233 0.6757-0.5879 0.9047-0.5879 0.229 0 0.4919-0.1193 0.5844-0.2651 0.2119-0.3342 1.683-0.3487 1.892-0.0186l0.1563 0.2464 1.696-0.0791c0.9326-0.0435 1.696-0.1102 1.696-0.1481 0-0.1603 1.766-0.273 3.536-0.2256 2.969 0.0795 3.443 0.0649 4.896-0.151 3.081-0.5096 4.749-0.57 5.847-0.2867 0.1312-0.079 1.195-0.1816 2.363-0.2281l2.125-0.0844 0.9138-0.4621c0.5026-0.2542 0.8427-0.35 0.7558-0.2129l-0.158 0.2493 1.148-0.0874c0.6314-0.0481 1.845-0.1062 2.696-0.1291 2.441-1.254 4.062 0.165 5.999 0.1441l1.428-0.0154 1.028-0.5015c2.213-2.129 0.4829-0.1718 2.074-0.5773 1.039-0.2649 0.9336 1.622 1.384-24.74 0.1508-8.821 0.4125-22.84 0.5816-31.14s0.2478-17.12 0.1748-19.59l-0.1327-4.48-0.8941-0.4877v-1.829l-0.5799-0.5652c-0.8022-0.782-16.82-8.401-23.76-11.3-8.064-3.371-13.09-5.158-24.61-8.757l-0.9519-0.2972 0.8957 0.1465c2.709 0.4432 16.56 5.118 34.87 11.77 6.507 2.363 12.48 4.527 13.28 4.808l1.449 0.5106 2.857-0.5148 4.466-3.289c2.456-1.809 6.551-4.718 9.101-6.464 2.549-1.746 5.719-3.972 7.045-4.946 1.325-0.9744 2.513-1.772 2.64-1.772 0.345 0 0.2613 1.134-0.1181 1.602-0.1822 0.2247-1.611 1.537-3.175 2.916s-4.04 3.597-5.503 4.929l-2.659 2.421-3.572 2.302c-1.964 1.266-4.171 2.848-4.903 3.516l-1.331 1.214 0.0752 3.382 0.7127 0.4835c0.392 0.2659 0.9956 0.552 1.341 0.6358l0.6286 0.1523 0.1319-0.3349c0.1914-0.4862 0.284-2.54 0.1146-2.542-0.0791-1e-3 -0.2852-0.2993-0.458-0.6626l-0.3143-0.6605 0.2364-0.1424c0.13-0.0783 0.4887 0.1036 0.7971 0.4042l0.5607 0.5466-0.1651 1.783c-0.0908 0.9805-0.2125 1.932-0.2703 2.114l-0.1052 0.3314h-3.009v-0.5302c0-0.6212-0.4161-0.707-0.6423-0.1326-0.0861 0.2187-0.0295 0.3976 0.1259 0.3976h0.2824l-0.0526 22.07-0.0526 22.07 0.3361 2.732c0.1848 1.502 0.2612 2.805 0.1696 2.894-0.0915 0.0892-0.175-0.1857-0.1855-0.611-0.0106-0.4253-0.1195-1.012-0.2422-1.303l-0.223-0.5302 0.0764 29.41 0.9519-0.0222c2.879-0.0671 4.343-0.0784 5.459-0.0423 0.6838 0.0221 1.388-0.0467 1.564-0.1529 0.1764-0.1062 0.4197-0.1335 0.5407-0.0606 0.2446 0.1473 2.552 0.1825 5.988 0.0914 5.532 0.6529 2.353-2.516 5.053-2.579h0.6546l0.1569-2.452c0.0863-1.349 0.2212-8.298 0.2997-15.44 0.0786-7.144 0.2035-16.03 0.2777-19.75 0.0742-3.718 0.2682-17.26 0.4312-30.09 0.1629-12.83 0.3769-24.91 0.4754-26.84 0.0985-1.932 0.1176-3.512 0.0424-3.512-0.0752 1.8e-4 -0.0602-3.37 0.0334-7.489s0.2045-11.24 0.2466-15.82l0.0765-8.329-1.406-1.179c-0.0583-0.5937-0.1165-1.187-0.1748-1.781l-1.655-0.158-2.164 0.7681c-1.19 0.4225-3.694 1.339-5.564 2.037s-4.256 1.489-5.303 1.757l-1.904 0.4878-8.295 0.5436c-13.42 0.8793-24.96 2.107-45.01 4.791-15.63 2.091-15.75 2.103-16.23 1.627l-0.3043-0.2966 0.6533-0.2769c0.5406-0.2291 18.91-3.598 26.76-4.907 8.597-1.434 21.7-3.963 36.31-7.007 3.515-0.7326 9.757-1.813 13.87-2.401 8.592-1.228 8.633-1.237 8.84-1.872 0.4892-0.7169 1.153-0.9375 1.922-1.293l0.5762-1.009c0.7528-1.318 1.227-2.923 2.568-8.692 1.49-6.412 1.388-6.151 6.497-16.57 4.04-8.241 4.799-9.831 7.528-15.77 2.932-6.384 16.13-36.4 16.13-36.68 0-0.3205 1.214-1.364 1.587-1.364h0.3276l-0.1811 0.729c-0.1686 0.6785-6.348 16.75-8.384 21.8-3.139 7.794-9.993 26.04-13.86 36.89-1.124 3.156-3.456 9.15-5.182 13.32-1.726 4.169-3.137 7.82-3.137 8.113v0.532h1.086l4.081 3.779v4.127l2.435 1.893c3.15 2.448 4.539 3.968 7.038 7.698 1.123 1.677 2.219 3.252 2.436 3.501l0.3931 0.4524 3.028-2.574c3.507-2.981 3.98-3.355 3.98-3.149 0 0.0833-1.499 1.421-3.332 2.973-1.832 1.552-3.37 2.924-3.418 3.049-0.2038 0.5393 8.232 12.34 17.9 25.04 1.443 1.895 5.215 6.866 8.383 11.05l5.76 7.6v1.105h-0.4016c-0.2209 0-0.8635-0.5669-1.428-1.26-0.5644-0.6928-2.246-2.691-3.736-4.44-2.804-3.292-8.589-10.11-13.28-15.64-5.884-6.944-12.31-14.29-16.46-18.8l-0.954-1.039-0.6058 0.3765c-0.3332 0.2071-2.915 2.322-5.738 4.699-2.823 2.378-5.347 4.44-5.608 4.582l-0.476 0.2593v-1.012l5.968-4.606c3.282-2.534 5.944-4.691 5.915-4.795-0.029-0.1035-1.311-1.553-2.849-3.222-2.881-3.125-6.02-6.846-7.853-9.307-0.5749-0.7721-1.276-1.548-1.558-1.725l-0.5124-0.3207 0.2275 0.7535c0.1252 0.4144 0.2516 6.002 0.2809 12.42 0.1001 21.89 0.3795 102 0.38 109v6.941l0.5439 0.1683c0.2991 0.0925 3.389 0.2178 6.867 0.2785 5.636 1.849 8.946-0.851 12.44-0.3508v-0.6282l0.4299 0.419c0.2365 0.2305 0.534 0.3563 0.6611 0.2797 0.1272-0.0766 0.3162-5e-3 0.42 0.1584l0.1888 0.2977 0.2338-0.3597c0.4978-4.06 2.672-3.655 6.498-1.803 0 1.981 0.2244 2.36 0.9411 1.588l0.4699-0.5061 0.4504 0.161c0.2477 0.0885 0.5369 0.2993 0.6427 0.4684 0.1058 0.1691 0.6787 0.326 1.273 0.3488l1.081 0.0413 0.1175-0.5938 0.1175-0.5938 0.074 1.193 1.836 0.0242c3.97 0.0522 7.284-0.081 7.724-0.3105 0.6039-0.315-0.4521 0.5128-0.4521 0.5128 3.365-0.2127 6.303-0.4203 6.527-0.4782 1.557-0.4018 1.904-0.5381 1.904-0.7472 0-0.13 0.1908-0.2364 0.424-0.2364h0.424l-0.3362 0.5302c0.4261 0.0137-0.0476 0.1977 1.495 0 2.684-0.344 6.905-1.221 7.795-2.267 0.18-0.2114 0.5665-0.3844 0.8589-0.3844 0.2923 0 0.8987-0.3579 1.347-0.7953 4.157-0.7853 3.77-0.8589 8.094-1.17 0.2115-0.0127 0.4421-0.1904 0.5124-0.3948l0.1278-0.3716-0.8524 0.1662c-1.052 0.2051-1.106 1e-3 -0.1044-0.3931 0.9303-0.366 2.023-0.5182 1.859-0.2588-0.0676 0.1066-0.0199 0.3567 0.1064 0.5556l0.2294 0.3617 0.4326-0.4217c0.238-0.232 0.4326-0.5242 0.4326-0.6494 0-0.1252 0.3978-0.2537 0.8839-0.2856 1.532-0.1004 2.369-0.3478 2.613-0.7729l0.2363-0.4115 1.192-0.0827 0.4586 30.29 0.5117 18.15-193.4-1.386zm317.6-32.95c0.2244-0.0935 0.5609-0.1459 0.7479-0.1165l0.34 0.0534v-1.048l0.6119-0.1958c0.3366-0.1077 0.9619-0.1725 1.39-0.144l0.7777 0.0518 1.126-0.625c0.6193-0.3437 1.558-0.8667 2.086-1.162 0.5281-0.2955 1.888-1.025 3.023-1.621l2.063-1.084 3.505-0.1689c1.928-0.0929 3.532-0.195 3.565-0.2269 0.24-0.2314 1.301-41.23 1.088-42.05-0.0951-0.3645-0.3326-0.8755-0.5277-1.136l-0.3548-0.4728-5.433-0.5668-3.808-1.458c-4.545-1.74-14.47-5.027-14.63-4.846-0.0626 0.0705 0.1167 2.633 0.3985 5.695s0.6614 7.645 0.8436 10.18l0.3313 4.618 2.884 0.7817-0.2776 0.7052 1.144 0.293c0.6295 0.1611 2.736 1.196 4.68 2.299 5.724 3.248 6.411 3.623 9.606 5.241 1.675 0.8484 3.008 1.58 2.961 1.625-0.0468 0.0456-4.344-1.822-9.55-4.151-5.206-2.329-9.683-4.234-9.95-4.234h-0.4847l-0.161 6.429c-0.0885 3.536-0.2329 11.2-0.3209 17.03l-0.1599 10.6-0.2553 0.0889c-0.1404 0.0489-0.1902 0.1916-0.1106 0.3172l0.1447 0.2283 1.149-0.3879c0.6318-0.2133 1.332-0.4644 1.557-0.5578zm117.1-141.8c-0.0826-0.496-0.4352-1.232-0.7835-1.634-2.494-2.885-2.673-2.999-2.673-1.705-0.1124 1.237-0.3593 0.5324-0.8159 0.2651-0.6461 0-0.1761 0.8071 1.02 1.751 0.7105 0.561 1.414 1.157 1.564 1.324 0.3199 0.3581 1.257 0.881 1.599 0.8925l0.2396 8e-3 -0.1501-0.9018z" fill="none" stroke="#a9a9a9" stroke-dashoffset="6.35" style="mix-blend-mode:normal"/></svg>
