<?xml version="1.0" encoding="UTF-8"?>
<!-- Created with Inkscape (http://www.inkscape.org/) -->
<svg width="1920" height="1080" viewBox="0 0 508 285.8" xmlns="http://www.w3.org/2000/svg"><path d="M.5 288.8v-.9H6c5.8 0 5.8 0 5.1 1.3-.2.4-.5.4-3.3.4-3.1 0-3.1 0-3-.5l.1-.6-.4.6c-.3.5-.6.5-2.2.5H.5zm11.5 0 .3-.7 6.1-.1-.1.6c-.1.4 0 .5 0 .4.2 0 .3-.3.3-.6s.2-.4 1.3-.3l8.9.1c4.2 0 7.7.2 7.8.3v.6c-.2.5-.4.5-3.3.5-3.1 0-3.1 0-3-.5l.1-.6-.2.6-.3.5H11.7zm25.2.6.3-.6c.3-.4.7-.4 3.2-.3l3-.1-1.5-.3h-1.7L39 288h-1.3l4.9-14.6 8.4.2c5.068.171 10.13.371 15.2.6l-1 3a898.456 898.456 0 0 1-3.1 10.8c-.1.4-.5.4-3.3.4-2.4 0-3 .1-2.1.3l3 .2c1.6 0 2 0 2 .3 0 .2-2.8.3-12.3.4-6.7 0-12.2 0-12.2-.2zm17.2-1c-2-.2-10.5-.3-10.4 0 .1.1 2.4.2 5.9.2 3.1 0 5.2 0 4.5-.2zm2-2.3c.43-1.676.898-3.344 1.4-5l-1.8 5.3-.3 1.5zm-11.9.4c.2-.7.4-1.3.3-1.5l-.6 1.2-.3 1.5s.4-.5.6-1.2zm3.1-9.6.4-1.4c0-.3-1 1.9-1 2.3 0 .6.2.2.6-1zm14.9 12.3c0-.3.9-.3 8.5-.2 15.4.3 16.7.5 3.6.6-10.8 0-12.1 0-12.1-.4zm26 .2H91l-1.3.1h-1.3zm5 0c0-.2-.7-.3-3-.3-2.7 0-3 0-3-.4l1.1-4.5 1.8-6.9.7-2.7h1.5c4.8 0 20.2.4 20.8.5.8.1.8.6.3 2.2l-.7 3.4a64.44 64.44 0 0 1-1.5 7.1c-.3 2 .2 1.8-5.1 1.7l-8.7-.2c-3-.2-3.9-.1-4 .1 0 .3-.1.3-.1 0zm11.9-.8.1-1.1c.1-.6 0-.6 0-.2-.5 1-.6 1.8-.4 1.8s.3-.2.3-.5zm-11.6 0 .1-1 .1-.7-.3.8c-.4 1-.4 1.2-.1 1.2l.2-.2zm2.2-9.4c0-1-1.1 3-1.3 4.6a56.16 56.16 0 0 0 1.3-4.7zm18.6 10c.8-2.7 5.2-24.6 5.2-25.7 0-1.4.3-1.8 1-1.8s.7 0 .6 1a139.598 139.598 0 0 1-2.8 11.8 23.404 23.404 0 0 1-1.1 6.1c0 .5-.6 3.9-1 4.4a21.2 21.2 0 0 1-.7 4.2c0 .3-.3.4-.7.4-.5 0-.6 0-.5-.4zm2.7-.1 5.8-28.2.1-1h-1c-.5 0-1 0-1-.2l.4-.2c.5 0 .5-.2 0-.6-.4-.3-.4-.4-.2-.6.3-.3.5-.2.9.2.8.7 1.1.7 1.3-.1l.3-1.3a105.2 105.2 0 0 0 2.1-9.3s-.3 2.3-.9 5a50.951 50.951 0 0 0-1.3 8.3c-.5.7-1 2.6-2 8-1.51 6.824-2.977 13.66-4.4 20.5-.1 0-.2-.2-.1-.5zm1.8.3.3-1.2 2.6-12.7h2.9c2.5 0 2.9 0 3 .3v0c.1-.2.4-.3 1.7-.2 5.166.21 10.33.41 15.5.6l-1 5.9-1 6.6-.2 1H131c-6.5 0-11.9-.2-11.9-.3zm24.8-.8 1.1-6.8 1-5.7 1.7.1 2.9.2c.7 0 1 0 1.1.4s.1.4.1 0c0-.5-.6-.5 9.7-.1l7.4.3-.1 1.2-.4 2.6-.8 5.1-.4 3.7h-23.4zm7.2-7.7c0-.9-.4.9-.5 2.6l-.2 1.4.4-1.7zm17.2 8a153.366 153.366 0 0 0 1.5-11l.2-.9 5.4.2 17.4.7-.2 2.7-.5 5.8-.3 3.2h-23.6zm6.9-6.4v-1.2l-.2 1-.2 1.8c0 .5 0 .5.2.1zm11.7-3.5c0-.8 0-1.1-.1-.8-.2.4-.3 2.5-.1 2.2zm5.6 10.2c.497-3.753.864-7.522 1.1-11.3l5.8.1c5.497.293 11 .526 16.5.7.6.1.6.2.5 1.4a85.985 85.985 0 0 0-.7 8.6v1h-11.6c-11 0-11.7-.1-11.6-.5zm6.4-4.5v-1.4l-.4 2.6c-.1 2.6.2 1.7.4-1.2zm17.8 4.7.2-1.9c.2-1 .3-2.9.3-4.2l.1-3.5.2-1h4.3c11.2.4 18.2.8 18.3 1 .2 0 .2 2.3 0 5l-.1 4.8h-11.7c-6.4 0-11.6 0-11.6-.2zm24.3-4.8.1-5 5.7.1c4.966.239 9.933.472 14.9.7l2.2.1v3.7c0 2 0 4 .2 4.5l.1 1H241v-5zm26.4 5V288c0-.9 0-1.8.2-2v-.4c-.2 0-.3-.4-.3-.8 0-.5 0-.5.2-.1.1.3.2.4.4.1l-.1-.5c-.4-.5-.3-1.4.1-1.6.3-.2.4-.3.3-.4v-.8c.3-.6.3-.6-.2-.2a2 2 0 0 0-.5 1c-.2.5-.3-2-.2-3 0-.2.1-.5.3-.6s.2-.2-.1-.2-.4-.7-.6-5.4l.1-5.6c.4-.3.2-6-.2-6.4-.2-.3-.2-.4.2-.6.3-.2.3-.3 0-.6s-.4-.7-.3-1.6l.2-1.5v-.2c-.2 0-.3-.4-.3-1 0-.7.1-1 .5-1 .6 0 .7.5.2.8-.3.2-.5.3-.4.4.2.3 1.1-.4 1.1-.9 0-.3-.2-.5-.7-.5s-.6 0-.6-.6c0-.9.3-1.1 1-.7 1.4.4.5-.7-.7-.6h-.6l.6-.2c.3-.2.9-.3 1.2-.3.8 0 .3-.4-.8-.5h-1l-.1-5.4-.3-10.9-.1-5.6h4.2c2.4 0 4.2 0 4-.1l-4-.2c-2.2 0-4-.1-4.1-.2l-.3-5.3-.1-5.2 5.4-.2-5.4-.1v-5l5.9-.2-6-.2-.2-5.2-.2-6.7c-.1-1 0-1.5.2-1.6.2 0 .3-.7.1-2.5 0-1.3-.2-2.4-.3-2.4l-.2-.9c0-.6.1-.8.4-1 .4 0 .4 0 0 0s-.4-.4-.4-2.4V188l3.7.2c2 0 3.6.2 3.7.2l.2 2.2.1 2.2-2.8.2 2.7.1.2 1.3.1 2.4c0 1 0 1.1-.5 1.1s-.5 0 0 .2c.6.2.8.5.8 1.7 0 .7 0 1 .3 1 .2 0 .4.2.4.5l.2.6c.2 0 .3-.2.3-.6 0-.5-.1-.7-.4-.7-.2 0-.4-.3-.4-.7l-.1-1.2-.2-.6 4.5.1c2.5 0 4.6.2 4.6.2s.2 1.2.2 2.5l.2 2.4-.6-.1h-.7c-.1.2.1.3.5.3.7 0 .8 0 .9 1l.1 2.5v1.3h-4.5c.798.112 1.599.212 2.4.3h2.4v.8l.1 2.6.2 1.6-1.3-.1a84 84 0 0 0-4.6-.1h-3.3v-.9c0-1.2-.3-2.3-.6-2.1v1.5l.1 1.4-1.6.2h.8c.7 0 .7 0 .9 1.7l.1 2.5v1h-3l3 .2.1 1.1.2 2.5v1.4l-3.5.1h-3.4l3.4.1c2.6 0 3.5.2 3.6.4l.2 3.7c0 1.8.2 4.2.3 5.2l.2 1.8-1.6.1-1.5.1 3 .1v1.3c.2.7.2 1.9.2 2.6v1.4h-1.8c-1.7 0-1.8 0-1.8.6v.5l5.3.2 40.4 1.1c.2 0 .3.2.3.4s.2.3.3.3c.3 0 .3-.2-.1-1.5-.2-.5-.5-2.3-.6-3.9l-.6-5c-.7-3.9-1.2-7.7-1-7.8.2-.3.6.5.6 1.2s.4 4.2 1.5 12.3l.5 4 2.7.1 17.5.6c14.67.44 29.33.906 44 1.4l-.9-4a848.168 848.168 0 0 1-3.1-14l-.5-2c-.91-3.856-1.91-7.691-3-11.5a117.22 117.22 0 0 0-2-9.1l-1-3.9c-.2-.3-.3-1.3-.4-2.3 0-.9-.2-1.7-.3-1.8-.3-.1-.8-1.8-.8-2.5 0-.2.2-.4.6-.4.5 0 .6.2 1 1.9l.7 2.6c.2.8.6 1.4.6.8l-.6-2.6-.6-2.5c0-.3 4.5-.2 5.2 0 .4.2.6.8 1.2 3.1l.8 3.5 1.4 5a1423.15 1423.15 0 0 0 5.6 21.6h-3l-3-.2-.3-1.5a445.06 445.06 0 0 0-1.2-4.9c0-.1.3-.3.7-.3.6-.1.6-.1-.1-.2-.7 0-.8-.1-1-1l-1.3-4.1.2 1.6 2.5 10.2c0 .2-.2.3-.5.3-.6 0-.6.6 0 .8l2.4.1 28.8.9 3 .1.3-.6c.3-.5.3-.7 0-.8-.2-.2-.3-.5-.2-.9 0-.4 0-.6-.3-.6-.4 0-1-1.3-1-2.3 0-.5.2-.5 4.2-.4 3.668.097 7.335.23 11 .4l-.5-1.5-.3-1.3-.4-1.3a58.009 58.009 0 0 1 10.5.4c0-.2 0-.5-.2-.8-.3-.5-1.4-3.4-1.4-3.9l3.4-.1c3.5 0 4.3-.1 3.7-.8a2 2 0 0 1-.4-.8c0-.5 0-.5 2.5-.5h2.5v-.9c0-.5-.1-1-.3-1-.7-.3-.1-.6 1.3-.7 1.8 0 1.8 0 1.4-1.3l-.2-.6h2.4c2.7.2 2.8.1 2.2-1.4-.5-1.3-.5-1.4.4-1.5.5 0 .7-.2.7-.4l-.1-.6c0-.1.2-.3.8-.3 2 0 2.5 0 2.2-.3a1 1 0 0 0-.8 0c-.3 0-.3 0 0-.3.2-.3.2-.5 0-1.2a115.85 115.85 0 0 1-2.2-5.7 31.99 31.99 0 0 1 2.7 6.3c0 .2.2.4.4.4s.3.2.3.5.2.5.4.5c.5 0 .3-1-.6-3.4-.7-1.8-1-2.5-.5-2 .3.3 2 4.5 2 5m-84 2.6c-.8-3-1.5-5.5-1.6-5.4-.2.2-.1.9 1.2 6 1.4 5.4 1.5 5.8 1.6 5.4 0-.2-.5-2.9-1.3-6zm-100.9-3.4c0-.2 1.3-.3 3.2-.3h3.2l-3.1-.2a11.003 11.003 0 0 1-3.5-.3c-.2-.2-.3-.1-.3.4 0 .3.1.6.3.6zm-4.7-5.8h-1.6c-.4.1 0 .1.8.1h.8zm-193 91.2-7-.2c-3.8 0-7-.2-7-.2l1.3-4.8 1.6-5.5 1.2-4.2 7.9.2 8.6.2c.5 0 .8.1.8.4 0 .2 0 .2.1 0s1-.3 3-.3c2.6 0 2.9 0 2.9.5l-1.6 6.6-1.7 6.9-.1.5h-5zm-5.8-7.6c0-.5-.2 0-.6 1.2l-.8 3c0 .4.2-.2.6-1.3l.8-3zm-44.8 6.6-6.8-.1c-5.6 0-6.8 0-6.8-.3l.7-2.1a558.233 558.233 0 0 0 4.5-12c.2-.4.5-.4 9.1-.2 5 0 8.3 0 7.5-.1l-5.7-.2c-3.3 0-4.3-.1-4.3-.3 0-.3 0-.3-.2 0-.2.2-.7.3-2.1.2l-3-.2h-1l.4-.9c2.6-7.2 4.8-12.7 5-12.9h1.7l11.1.2 10 .3c.2.1-.4 2.2-2 7L42 273l-3 .1h-3.2l2.9.2 3 .3-2.3 7.2-2.4 7.1zm-3.5-10.6 1.2-3.7-1.6 3.8-2.7 7.8c0 .3.7-1.4 3-7.9zm10.6 3a6.002 6.002 0 0 0 .4-1.6s-.9 2.1-1.3 3.6c-.3 1 .5-.7 1-2zm4-11.6c.4-1 .6-1.7.5-1.8 0 0-1.4 3.6-1.7 4.9-.3 1 .8-1.6 1.3-3.1zm-10.7-2c.7-1.9 1.2-3.5 1.1-3.6a66.622 66.622 0 0 1-1.3 3c-.9 2.4-1.6 4.8-1.3 4.5l1.5-3.8zm12.1-2a6.994 6.994 0 0 0 .5-2l-.2.3a49.95 49.95 0 0 0-1.1 3.5c0 .4.3-.2.8-1.8zM.5 280v-7.3h5.1c3 0 5 0 5 .2l-1 3a797.638 797.638 0 0 0-4.2 11c0 .2.3-.2.6-.9l1-2.5c.9-2.3 3.4-8.7 3.7-9.9l.3-1 3 .1c1.6 0 3 .2 3 .3.1 0-.6 2.2-1.6 4.9l-3.5 9.4H.5zm255.7-.4a1178.24 1178.24 0 0 0-14.8-.6c-.4-.1-.4-.3-.3-4.1l.2-7v-2.8l2.3.2c4.663.24 9.331.373 14 .4 0-.2-3.1-.4-10-.6a98.977 98.977 0 0 1-5.4-.3l-1-.1.1-4.4.2-6.5v-2.2l4.6.2 17 .7c.2.2.3 2.8.3 8v5h-2.6c-1.9-.1-2.7 0-2.7.1 0 .2.8.3 2.1.3 3.4 0 3.3 0 3.4 2.5l.2 6.8.1 4.7H262zm-24.8-1-13.8-.7c.242-3.329.408-6.663.5-10l.1-3.4h1.7l20.6.8-.1 6.8-.2 6.8h-2.4l-6.4-.2zm-17.1-.6c-6.866-.274-13.73-.54-20.6-.8 0 0 0-2.3.3-5l.6-6.9.2-1.8h1.8c6.759.45 13.53.75 20.3.9.3 0 .3.5.2 2.4-.311 3.732-.611 7.466-.9 11.2h-2zm-3.2-8.8c0-.5-.1-.1-.1 1v1-2zm-26.5 7.8a1422.34 1422.34 0 0 0-14.6-.6l.7-5c.4-2.7.8-5.7.8-6.8l.2-1.9 4.7.2 17.6.7c.1.2-1 12.6-1 13.2-.2.5-1 .5-8.4.2zm-30.4-1-8-.5c-.1-.1 2-13.5 2.1-13.6l21.6.8c.9.1 1 .4.4 3-.3 1.6-1.1 7.7-1.1 8.9 0 1.8.1 1.7-3.7 1.6l-11.3-.3zm-1.2-7.3c0-.7 0-.7-.2-.1a5 5 0 0 0-.2 1.2c0 .5 0 .5.2 0zm-17.2 6.6-5.7-.2c-1.7 0-1.8 0-1.9-.6 0-.5 0-.5-.2 0s-.3.5-3 .4l-2.8-.2.7-3.6a315.941 315.941 0 0 0 2.8-13.7c.77-3.318 1.47-6.652 2.1-10l22 1a71.479 71.479 0 0 0-2 12.7c-6.501.021-13-.079-19.5-.3-1.6-.2-2.5-.1-2.5 0 0 .2 1 .3 2.3.3 2 0 2.3 0 2.5.4.3.4.3.4.3 0 0-.3.2-.3 1-.3 5.195.361 10.4.628 15.6.8 0 0 0 1-.3 2a66.618 66.618 0 0 0-1.3 7.4c-.3 1.2-.4 2.1-.5 3.7 0 .4-.3.4-2.9.4zm6-12.8c-.1-.8-.7 1.6-.7 2.6 0 .5 0 .3.3-.6l.3-2zm-33.6 12c-5.597-.259-11.2-.426-16.8-.5-.1-.1 0-1 .3-2.1a402.742 402.742 0 0 0 3-11.5h3c2 0 2.8 0 2.7-.3 0-.1-1.1-.2-2.7-.2l-2.7-.1c-.2-.2 3-12.6 3.3-13 8.4.6 12.5.1 21.7.6l-.5 3a251.88 251.88 0 0 0-2.2 9.9c-5.8.2-10.4-.5-16.5-.3 4.5.9 8.3.4 14.4.8h2l-.1.9-.7 2.8-2 10zm1.6-5.6c.7-3.3 1-4.6.8-4.4-.2.1-1.9 7.6-1.8 8 0 .5.4-.8 1-3.6zm-11.1-.5.8-3.8v-.7l-.2.7c-.6 2-1.8 7.3-1.5 7zm14.2-13.2c.6-2.8.8-3.7.5-3.5l-1.2 4.8c-.5 2.8 0 2 .7-1.3zm-9.8-5.7-2 7.6c-.8 2.5 2.8-9.6 2-7.6zM88 274.1l-10.3-.3c-3.503.055-7.006-.046-10.5-.3 0 0 0-.9.3-1.7l3.2-10.9.3-1h3.4l19.3.4c.3.2-.2 2.3-.5 2.7a40.982 40.982 0 0 1-1.4 6.2l-1.3 4.9zm-2-6.1c.5-1.8.5-2.3 0-1-.4 1.6-.5 1.9-.3 1.9l.4-.9zm-10.5-2.7a6 6 0 0 0 .4-1.9s-.3.5-.5 1.3l-.6 2.3zm-17.9 8-5.9-.1-7.3-.1-1.6-.1.4-1.3 2.3-6.9 1.8-5.6 8.4.2c2.9-.037 5.801-.004 8.7.1 0-.3-2.9-.4-10.6-.6-3.4 0-6.1-.2-6.2-.2l2.1-6.7 2.2-6.5 2.1.1 11 .3c4.8.1 8.9.3 9 .4.3 0 .2.6-.3 2l-2.3 8.1-.8 2.9h-3c-3.5 0-3.4.1.2.3l2.6.2-.5 1.5a4341.56 4341.56 0 0 1-3 10.1l-.5 2h-8.8zm3.3-1.7c.4-1.5.5-2.5.1-1.6-.5 1.2-.9 3-.7 3 0 0 .4-.6.6-1.4zm-11-1.8c.697-2.444 1.43-4.878 2.2-7.3a152.125 152.125 0 0 0-3 9.2c.2 0 .5-1 .8-1.9zm13.3-5.8.7-2.7c0-.4-1.8 5-2 6l-.1.8.3-.8zm-7.8-11.1c0-.4-.2-.1-.5.7l-.7 2.3c-.1.5 0 .2.4-.7zm11.2-.5c.3-.6.3-1 .2-1-.2.2-.7 1.7-.7 2.2 0 .4.1 0 .5-1.2zM5 272.4l-4.5-.1.1-1.5c0-.9.2-1.8.3-2 .1-.4.1-.4 0-.1-.3.2-.3-1.1-.4-5v-5.4h2.2c2 0 2.2 0 2 .4 0 .4 0 .4.3 0 .3-.5.6-.5 6-.3h5.5c-.1-.2-9.1-.5-15.7-.6-.2 0-.3-.4-.3-1.5 0-1.3.3-2 2.2-6.6l2-5.1h2.9c1.5 0 2.8 0 2.8.2l-.7 1.8-.7 1.9c0 .4.8-1.2 1.3-2.7l.5-1.2 7.7.1c4.2 0 8 .2 8.5.3l.7.2-1.7 4.4-2.4 6.5-.8 2h-3c-2 0-2.9 0-2.9.2 0 .1 1 .2 2.8.2 1.6 0 2.8.1 2.8.3L17.6 272c-.2.6.9.5-12.6.3zm7.1-2c.5-1.5.6-2.1.2-1.4-.456.92-.792 1.895-1 2.9.2-.2.6-.9.8-1.6zm-9.9-4.7.5-1.5c0-.4-.2 0-.8 1.7-.4 1-.6 1.6-.4 1.4zm1.1-2.8a32.032 32.032 0 0 0 1.3-3.4c0-.3-1.9 3.9-1.9 4.3 0 .3.3-.1.6-.9zm2.9-7c.1-.5 0-.4-.3.2l-.5 1.2c0 .5.6-.6.8-1.4zm220.4 8.5-8.4-.4c-.1-.1 0-2 .1-4 .243-2.997.443-5.997.6-9 .1-.2 19.2.5 20.6.7l1.4.1-.2 4.2-.2 6.5v2.3h-2.8zm-15.2-.6c-5.5-.243-11-.476-16.5-.7l.1-2 .6-6.4.5-4.5 21.7.7c.1.1-.4 9-.6 11.4 0 .9-.3 1.6-.4 1.7zm-25.3-.9a750.289 750.289 0 0 1-14.4-.6l.3-2 1.4-10.2v-.8h2.4l19.5.9a148.604 148.604 0 0 1-1 12.3v.6H191l-5-.2zm-21.8-.8-9.6-.3c-6.6-.2-6.3-.2-6.3-.8a166.74 166.74 0 0 1 1.4-8.4l.8-4.1 6.1.1c5.232.256 10.47.49 15.7.7v1.2l-.6 4a188.712 188.712 0 0 1-.9 7v.9h-1.3zm-8.6-10.2c.065-.97.165-1.937.3-2.9-.2.2-.4 1.3-1 5 0 .5 0 .7.2.4zm-70.1 7.8c-4.765-.18-9.532-.314-14.3-.4l1.3-5 2-6.4.4-1.7 8.1.2c4.5 0 8.2.2 8.2.2s0 .7-.3 1.5l-.3 1.6.6-1.5c.3-1.3.5-1.7.7-1.6l2.9.1h2.5l-.1.7-.5 1.4a59.299 59.299 0 0 1-1.5 6.5l-1.2 4.6h-1.3c-.7 0-4 0-7.2-.2zm-5.8-9.6c.8-2.8 1-3.8.7-3.3-.2 0-1.9 6.3-1.9 6.5 0 .7.4-.3 1.2-3.2zm10.7 1 .2-.9-.4.7c-.1.4-.4 1.2-.4 1.7l-.2 1 .3-.9zm-47.3 7.6-9.8-.3c-5.2 0-9.6-.2-9.7-.2 0-.1.6-2 3.3-9.3l1.4-3.7h5.8l11.3.2 5.6.2-1.3 3.7c-.7 2.1-1.7 5-2.1 6.6l-1 2.9H45zm-.8-4.5c.5-1.7.3-1.7-.3 0l-.4 1.3c.2 0 .4-.6.7-1.3zm-11.2-.2.4-1.6c-.1-.1-1.2 2.5-1.2 2.8 0 .5.3 0 .8-1.2zm1.9-5.4a45.547 45.547 0 0 1 1-3 74.89 74.89 0 0 0-2.5 6.5c0 .3.6-1 1.5-3.5zm11.7-1.6.1-.6-.3.6c-.4.7-1.2 3.1-1.1 3.5 0 .3 1-2.6 1.3-3.5zm76.7 9.8.5-2.3c1.953-8.915 3.82-17.85 5.6-26.8 1.5-10.3 5.8-21.9 6.5-31.8 0-1 .2-1.6.6-1.6l.6.1c-1.7 11.5-4.1 19.4-6.4 30-.4 1.6-.5 2.6-.4 2.8a45.814 45.814 0 0 1-2.3 11.1 42.302 42.302 0 0 1-2 10.2c-.2 0-.3.8-.4 1.7 0 1-.3 2.3-.5 3l-.5 2.2c0 .6-.2 1.2-.4 1.4-.3.4-.9.4-.9 0zm-121-8.2v-4.3h1.7c1 0 1.7.1 1.7.2l-.8 2.3c-.837 1.998-1.671 3.998-2.5 6v-4.2zm250.3 3-8-.3h-1.3V245l.1-6.2h5.4c0-.2-.8-.3-1.8-.3l-2.8-.1-.8-.2v-5.9l.3-6 5.9.2c4.899.212 9.8.412 14.7.6.1 0 .2 2.3.2 5 0 2.8 0 5.5.2 6l.1 1-6.2-.2c-3.168.002-6.335-.065-9.5-.2 0 .2.6.3 1.7.3 2.6 0 13.8.5 13.9.6 0 0 .2 2.9.2 6.3l.1 6.1h-2.8l-9.6-.3zm-18-.5-12.5-.5h-1.5l.1-2.2c.26-3.43.46-6.863.6-10.3h7.3l5.9.3c3.2 0 6.3.2 7 .3l1.2.1v6.3l-.1 6.2h-1.9l-6-.2zm-28.7-1.1-7.8-.5c-.2-.1.8-12.2 1-12.3l21.3.8-.2 3.6-.4 6.2-.2 2.5h-3L204 250zm-18.1-.6c-3.768-.146-7.534-.313-11.3-.5h-1.2l.1-1.1.8-6.3.7-5.1h1.7c2.8 0 19.5.7 19.6.8s-.4 6.3-.8 11l-.2 1.4h-2.3zm-19.2-.8c-5.333-.246-10.67-.48-16-.7-.1-.1.2-1.9.6-4l1-5.8c.3-2.8.3-2.8 1.2-2.6l5.6.3 15 .6-.2 1.7c0 .8-.4 3.3-.7 5.4-.7 5.6-.7 5.4-1.3 5.4zm-25.3-1-5.8-.1h-2v-.7c0-.7 0-.7-.1 0-.2.5-.2.5-2.8.4l-2.8-.1a89.465 89.465 0 0 1 2.3-11.3l.2-1.1h1.3c6.704.258 13.4.592 20.1 1 0 0-.3 2.8-.9 6l-1 6.1h-2.4l-6.1-.1zm-15.4-.4c0-.5 1.3-6.5 1.4-6.4l-.6 3.3c-.6 3-.8 3.9-.8 3.1zm-25-.7-2.4-.2c1-4.8 1.3-7.8 2.9-12.4l21.1.5c-1 4-1 8-2.4 12l-.2.6c-6.3-.2-12.6-.5-19-.5zm3.4-3.2c-.5 1.7-.6 2.2-.4 2.2.4-.4 1.2-4.7.4-2.2zm12.7-7.9c-.2 0-.8 2.1-.7 2.8.4-.3.8-1.6.7-2.8zm-29 10.7-6.5-.2c-3.4 0-6.3-.1-6.4-.2l1.5-5.6c1-3 1.7-5.8 1.8-6.1.2-.6.3-.6 2-.7h2.8c.7.2.8.3.6.7-.3 1.2-.3 1.7 0 .6l.5-1.2h5c4 .2 5 .3 5.3.6.2.3.2.2.2-.1s.1-.4.4-.3l2.8.1h2.4c-1 3.7-1.8 7.1-2.6 10.8l-.4 1.7H88zm-6-4.5c.6-2 .8-3 .6-2.8s-1.5 4.9-1.5 5.4c.33-.901.663-1.801 1-2.7zm1.4-5.6-.4 1-.3 1.4c.1.2.8-1.9.7-2.4zm11.1-1.3c0-.7-.4.3-.5 1.4l-.2 1.1.4-1zm-26.3 11-8-.3c-4.5 0-8.2-.2-8.2-.2a97.792 97.792 0 0 1 4.4-12.6c3.5 0 18.9.5 20 .6l1.5.2-.6 2-1 2.8-.3 1.3c0 .4 0 .7-.2.8l-.2.5-1 3.7-.3 1.3h-3l-3-.1zm-9.8-2.9c.546-1.84 1.112-3.673 1.7-5.5 0-.3-2.6 7.4-2.6 7.8 0 .6.3-.1 1-2.3zm11.2-.9c.1-.7 0-.6-.3.4a4.998 4.998 0 0 0-.5 1.7c0 .6.6-1 .8-2.1zM42.5 245a95.746 95.746 0 0 1-13.7-.5 39.983 39.983 0 0 1 2.1-6l1.3-3.5 1-2.8h3.6c5.2 0 18.3.3 18.4.4.2.2-3.8 12.3-4.1 12.5l-.4.1zm5.1-6.3.3-1.1c-.2 0-.6 1-.8 1.9-.2 1 .2.4.5-.8zm-10-2.7c.4-.8.6-1.6.4-1.6 0 0-1 2.2-1.2 3.2-.1.5.4-.4.9-1.6zm11.5-1.7a10.995 10.995 0 0 0-1 2.9l.5-1.3zm-28.8 10.2a311.375 311.375 0 0 1-13.4-.3c-2-.2-2 .1-.6-3.4l2.5-5.8 1.5-3.7 2.9.1h2.5c-.2-.2-1.4-.3-2.8-.3l-2.5-.1 2-4.6 1.6-4.2 1.3-3.2 7.9.1c3.901.109 7.801.242 11.7.4 2 0 2.3 0 2 .4 0 .3-1 3-2.2 6l-2 5.6-5.8.1 2.7.2c1.5 0 2.8.2 2.8.2l-1 3.3-2.4 6.2-1 3h-7.8zm-8-4-.5 1c-.7 1.6-.7 1.8 0 .4zm2-5a11.59 11.59 0 0 0-.9 2c0 .2.1 0 .4-.5l.6-1.6zm12-4a50.012 50.012 0 0 0-5.5-.1H16l3.7.2c5.8.2 7.2.2 6.4 0zm-9.3-2.4.6-1.8c-.1-.1-.2 0-.2.1L17 229c-.8 1.5-1 2-.7 2l.8-1.8zm12.4-4c0-.5-.8 1.3-1 2.1 0 .4.1 0 .4-.6.4-.7.6-1.4.6-1.6zM.6 237.5V231l4.3.1 4.5.2-4.9 11.9c-.3.8-.3.8-2.1.8H.6zm374 6.3c-1.9 0-3.4-.2-3.5-.2-.2-.2-1.2-4.5-1.2-5 0-.3.6-.4 2.1-.5h2.1l-4.4-.1-.4-2-.6-2.6c-.2-.7-.1-.8.3-1l.6-.2h-.6c-.3 0-.6-.2-.6-.6-1.2-5-1.2-4.6 0-4.8.3 0 .1-.1-.3-.1-.9 0-.8.1-1.5-3.2l-.5-2h6.8l-6.8-.2-.5-2.3-.7-2.6h9.2l.6 2c.5 2.2.6 3.3.3 3 0 0-.3 0-.5.2-.3.1-.2.2.3.2.7 0 .8.2 1.4 3l.4 1.7c0 .3-.2.4-3.5.4h-3.5l3.5.2c2 0 3.6.2 3.6.3l1.2 4.8-3.6.3h-3.5l3.5.1 3.7.3 1.2 4.8c.1.5 0 .5-2.3.5h-2.5l5 .4.5 2.2c.8 3.3.9 3.2-.8 3.1l-4.6-.1zm-9-.3c-3.5-.1-4.7-.2-4.8-.5l-.6-2.3-.6-2.4a46.604 46.604 0 0 1 9.5 0c.2.1 1.3 4.6 1.3 5.1 0 .2 0 .3-.2.3l-4.7-.2zm-12.7-.4-2.4-.1-.4-2.1-.6-2.8c0-.6 0-.6 1-.7h1.2l-1.2-.1-1.1-.2-.5-2.2c-.6-3.3-.9-3 2.4-3h2.8l-2.8-.2-3-.1-.4-2.6-.5-2.5 5.8-.3h-5.9l-.4-2.3-.5-2.6a55.3 55.3 0 0 1 9.2-.1l1 5-1 .3h-1l2.2.1.4 2.1.6 2.7c.1.5 0 .5-1 .6h-1.2l1.1.1c1.3 0 1.2 0 1.9 3.1l.4 2.3-2.4.1h1.2l1.3.2c.283 1.71.616 3.41 1 5.1 0 .4-.7.4-7.2.2zm2.6-5.6h-2c-.6 0-.1.1 1 .1h1zm-11.4 5.3c-2.4 0-3.6-.1-3.8-.3l-.5-2-.4-2.5-.1-.8h5.7l-2.9-.2-2.9-.1-.3-2-.4-2.7c-.1-.6 0-.8.3-.8.4 0 .3 0 0-.2-.5-.1-.6-.6-1-2.7l-.3-2.5c.2-.1 9.1.3 9.3.5s2 9.5 2 10.3c0 .3-.5.4-1.8.5h-1.8l3.7.2.4 2 .5 2.9c.2.6.1.6-1 .6zm-12.7-.4-1.4-.1-.3-2-.4-2.7-.1-.7h3.5c4 .1 6.1.3 6.1.5l.5 2.7.4 2.4h-3.5zm-8.2-.3c-3.6 0-3.4 0-3.7-2.6l-.3-2.2-.2-.8 4.8-.1h-2.4c-2.2-.1-2.3-.2-2.4-.7a197.492 197.492 0 0 1-1.7-12.7 65.051 65.051 0 0 1-.4-2.8c0-.2.7-.3 2.5-.4h2.5l-5.1-.3-.2-1-.3-2.5-.1-1.4 5.9-.1-3-.1-3-.2-.2-1-.3-2.5-.2-1.4 2.4-.2h-1.2c-1.2 0-1.2 0-1.5-2.7 0-.7-.2-1.5-.3-1.8 0-.3.1-.4 2-.4 1 0 3.1 0 4.5.2l2.5.1.4 2.4.3 2.4-4.3.1 4.3.1.3 2.1.5 2.6c0 .3-.2.4-1.4.4l-1.6.1h1.5c1.5.1 1.5.1 1.7 1l.3 2.1c.4 2.2.5 2-1.7 2.1h-2l4 .3.4 1.9.3 2.5v.8l-2.6-.1h-6.3l3.3.1 4.5.2 1.3.1.3 2 .4 2.6c0 .5 0 .6-.5.7s-.5.1 0 .2c.6 0 .6 0 1 2.7.5 2.8.6 2.6-2 2.7h-2.4l4.8.2.3 2 .5 2.7.1.8H328zm-14.5-.5-2.3-.2-.1-1.5-.3-2.7-.2-1.2 4.5-.1-4.4-.1-.2-.8-.3-2.6-.1-2h4l4.7.2c.7.2.7.2 1 2.3.4 3.4.6 3.1-2 3.2h-2.2l4.6.2.3 2 .2 2.9v.6h-2.4zm-9.3-.3h-3l-.5-4.5-.2-1 4.5-.2h-4.5l-.1-1.7c0-.9-.2-2-.3-2.6l-.1-1h4.3c2.3 0 4.5 0 4.8.2.4.2.5.5.7 2.2 0 1.1.2 2.2.3 2.5 0 .6 0 .6-2.3.6l-2.4.1 4.7.1.1.8.3 2.8.2 2h-1.7zm-8.5-.2-4.7-.1-.2-1.2-.3-2.7-.1-1.5 2.3-.1h2.4l-4.7-.2v-.8l-.2-2.6-.2-2 9.4.2.2 1 .3 2.7.1 1.7-2 .2h1c1 0 1 .1 1.1 1l.4 4.6zm-15-.7-.2-2.7-.1-2.4 5.8-.1-6-.1v-4.8l-.8-10.2v-1.4l4.8-.2h-4.9v-1c0-.5 0-1.6-.2-2.5l-.1-1.7 4.5.2c3.3 0 4.6.2 4.8.4l.2 1.6.1 2.3.2.9-3.8.1h1.8l1.9.1.1 2.1a298 298 0 0 0 .6 7.8v.7l-7.6.2h3.8c4.4 0 4-.3 4.2 3.4l.1 2.2-2.3.2h2.3l.1 1.3.2 2.7.2 1.3h-4.7c-4.2 0-4.7 0-5-.4zm-40.7-2.4c-5.196-.292-10.4-.492-15.6-.6v-2.7c.222-3.065.422-6.132.6-9.2 0-.1 10.6.2 17.6.6l3.2.1v12h-2.6zm128.2-.2c-1.9 0-3.6-.2-3.7-.3-.2-.2-1-4-1-4.8-.1-.4 0-.5 1-.6h1l-1.2-.1h-1.1l-.3-1.5-.5-2.2c-.4-1.5-.3-1.6.8-1.7l1-.1h-1l-1.2-.1-.4-2.1-1-5.6c-.7-2.9-.7-2.9.3-3h1l-2-.2-.4-2.2c-.5-2.2-.5-2.7-.1-2.6l.1-.2c0-.1-.1-.3-.3-.3-.3 0-.6-.8-1-3 0-.6-.2-1.1-.3-1.4 0-.4 0-.4 2.6-.3l4.6.2h1.8l.5 2 .5 2.4c.1.4-.2.4-4 .4-4.5 0-4 .2 1 .3h3.2l.4 1.9.5 2.4.2.7h-7.1l7.2.3.4 2.2c.452 1.922.852 3.856 1.2 5.8l.6 2.4-5.8.3h5.8l.5 2.3a120.953 120.953 0 0 1 1.8 8.7l-1.1.1zm3-5.6h-2.7c-.7 0-.2.1 1.3.1h1.4zm-4.5-11h-2.3zm-148.4 16c-5.365-.267-10.73-.5-16.1-.7v-2c.345-3.062.645-6.129.9-9.2l.1-.7 5.1.2c10 .3 15.6.6 15.8.7l-.2 3.4-.5 8.3a275.944 275.944 0 0 0-5 0zm0-6.3-.1.8v.8c.1-.5.1-1.2 0-1.6zm120.4 5.8c-4.6-.1-5-.2-5-1.2l-.3-2.3-.3-2 4.7.1 4.8.2.8 5c-.1.3-1 .3-4.7.2zm-151.4-.6-7.4-.3.5-4c.424-2.655.757-5.323 1-8 6.941.069 13.88.37 20.8.9.2.1.2.9-.1 4.4l-.5 5.8-.2 1.6h-3.4zm-20.3-.7-9.4-.5.4-2.4 1-5.8.6-3.6c6.238.006 12.47.206 18.7.6h2.2v.8c0 .5-.1 1.3-.3 1.9-.4 1.7-.4 1.7-.6 4.7l-.4 3.8-.2.9H173l-10.7-.4zm-3.4-3.7c0-1.3-.1-.8-.3.8v.8c.2-.4.3-1.1.3-1.6zm10.7-1.7v-.7c-.3 1.1-.6 3.6-.3 2.9zm-41 5c.9-4.4 2-9.6 2.1-9.4a107.888 107.888 0 0 1-2 9.5zm22.1 0a376.85 376.85 0 0 1-20-1l.7-3.8 1.2-5.9.5-2.1h2.1c10.4.3 19 .8 19 1a323.394 323.394 0 0 1-2 11.6c0 .2-1.2.4-1.5.2zm-3.4-4.2v-.7l-.2.7-.1 1.4v.6l.1-.6zm-9.5-5.4.2-1.3-.4 1.4a11.993 11.993 0 0 0-.3 2c0 .8.4-.7.5-2.1zm-21.5 8.4c-5.1-.4-9.2 0-14.6-.5-.1-.1 2.8-11.6 3-11.8s18.8.2 20.2.5h.7l-.3 1.7a372.435 372.435 0 0 1-2 9.4v.8c-2.4-.2-4.8.2-7-.1zm1.8-1.6.1-1.1-.3 1c-.8 2.5 0 1.3.2 0zm.8-4c0-.3-.1 0-.3.7s-.4 1.4-.3 1.7c0 .6.6-1.7.6-2.4zm-10.3-.6c0-.6-.4.5-.6 1.7l-.1 1 .3-1.1zM87.6 233c-7.4-.2-8.6-.3-8.6-.6l1.7-6 1.7-5.7 3.3.1c5.801.113 11.6.28 17.4.5.6 0 .6.1.4.8 0 .4-.2 1-.4 1.4a160.708 160.708 0 0 1-2.3 9.5c0 .3-.3.4-2.3.3zm-.6-8c.4-1.3.4-2.6 0-1.3l-.4 1.2c-.2.5-.2 1.4 0 1.3zm-23.4 7.6c-3.9-.1-7-.3-7.1-.4-.1 0 .7-2.7 1.8-6l2-5.8H63l2.8-.1c0-.1-.7-.2-1.6-.2-1.5 0-3.5-.2-3.6-.4l.4-1.5 1.8-5.7 1.4-4.2h.8l7.6.4c3.434.065 6.868.165 10.3.3h2.2l-.1.7a51.343 51.343 0 0 1-1.6 5.3c0 .3 0 .5-.2.6l-.3.6-.5 2.4-.5 2-2.8-.1h-2.7c0 .2 1.2.3 2.6.4 2.6 0 2.6 0 2.5.6-.1 1.3-1.4 4.8-1.6 4.7v0c.1.3-.2 1.8-.7 3.5l-1 3.2h-3.8zm10.3-4.7-.2.5-.5 1.6-.4 1.4c0 .2.3-.4.6-1.4.4-1 .6-2 .5-2zm2.3-7.3c0-.2-.9-.3-2.1-.3a135.59 135.59 0 0 1-7.8 0l4.6.3a45.012 45.012 0 0 1 5.3 0zm-7.7-8.7c.165-.734.332-1.467.5-2.2-.3.4-3 9-2.9 9.3 0 .3 1.6-4.4 2.4-7.1zm-22 20.2-9.2-.2c-3.8 0-4-.1-3.7-.7l1.4-3.8 2.1-5.6.9-2.3 4 .2c5.565.217 11.13.384 16.7.5l.8.1-4 12H54c-.8 0-4.2 0-7.4-.2zm284.2-.9c-1.4 0-2.5-.1-2.5-.2-.167-1.609-.4-3.21-.7-4.8 0-.2.6-.3 2.1-.4h2.1l-4.3-.3-.3-2-.3-2.5v-.6l6.6.1-3.1-.2-3.4-.2c-.2 0-.4-.9-.6-2l-.4-2.5c-.1-.5 0-.6.8-.6l1-.1h-1c-.8-.1-.9-.2-1-.9a604.857 604.857 0 0 0-.5-4l3.4-.1h3.4l-3.3-.2c-1.8 0-3.4-.2-3.5-.3-.2-.2-.8-3.4-.8-4.3 0-.4.2-.4 1.5-.5h1.5l-3.1-.3-.3-1.8c-.5-3-.5-2.9.7-3h1l-1.1-.1h-1.1l-.6-3.8-.6-4.7-.2-1h4.3c4.2 0 4.3 0 4.5.6.2.5.3 1.4 1.2 7 .362 2.34.762 4.673 1.2 7 0 0-1.2.2-2.6.2h-2.6l5.3.3.4 2.4c.4 2.5.4 2.4-.8 2.6-.4.1-.3.1.4.2.4 0 .9 0 .9.2l.8 5c.432 1.801.633 3.649.6 5.5.2 0 .5 1 .7 2.5l.4 2.4-4.6.2 4.7.1.2 1.8.5 2.6.2 1-2.3-.1zm2-16.1H330h2.5zm-4.3-20.4H326zM3.6 230.8h-3v-12.4l6.9.2c3.8 0 7 .2 7 .2s-.5 1.6-2 5.2l-2.1 5.1-.8 1.9H8.1zm306.2-.6h-4.6l-.1-1.2-.3-2.5-.2-1.5 2-.2h-1c-1.1-.1-1.1-.1-1.4-3.3l-.1-2 4-.2-4.1-.1-.2-1.8-.3-2.5-.1-.8 5.2-.1H306l-2.6-.1v-1a368.93 368.93 0 0 1-1-8.5c-.2-.6-.1-.6.7-.7l1-.1-1.8-.1-.3-2.1-.3-2.4c0-.2.4-.3 1-.4h.8l-.9-.1c-1 0-1-.1-1.3-2.8l-.1-1.8h3.8l4.3.1c.6.2.7.6 1 3.1l.2 1.6-3.8.1 3.9.1.3 2.1.6 4.6c.5 3.4.5 3.2-.7 3.2h-1l2.2.4.2 2c.5 3.1.6 2.9-1.3 3h-1.6l1.6.1c1.8 0 1.8 0 2 2.3l.4 2.8-4.7.1 4.6.1.2.8c.2 1.3.4 4 .3 4.2 0 0-1.6.2-3.5.2h-3.5l3.5.1 3.7.3c.2.2.8 5 .6 5.1h-4.7zm-14.4-.4c-.2-.2-.7-4-.7-4.7 0-.4.4-.4 3.6-.4 3.9 0 3.5-.2-1-.3h-2.7l-.4-4.5-.4-5.3v-.7l5.6-.1-5.7-.3-.2-1.3-.2-2.5c0-1 0-1.1.8-1.2l.8-.1H293l-.1-2c-.3-3.2-.5-2.9 2.2-3h2.3l-4.8-.3-.2-1.3-.1-2.3c0-1 0-1 .6-1l.7-.1-.8-.2-.7-.1-.3-2.8-.4-4.7-.2-2 4.3.1c2.4.1 4.4.3 4.4.4.1 0 .4 2 .6 4.3l.5 4.6c.1.3 0 .4-1.2.5h-1.4l2.7.2.1 1.4.3 2.4.2 1h-1l-1.1.2h1c1.1 0 1 0 1.4 3.2l.2 1.7h-6l6 .3.5 4v1l-3.4.1 3.5.1.1 1.1.3 2.6.2 1.4h-2.9l3 .3v1.6c.266 2.808.6 5.608 1 8.4v.5H300c-2.6 0-4.7 0-4.7-.2zm1.3-10.8h-1.5zm-11 10.6c-.5 0-.6-.3-.6-.9a151.983 151.983 0 0 0-.7-9.6s.9-.2 2-.2l2-.1-4-.1-.4-5.2 4.5.2c2.6 0 4.7.2 4.7.2l.4 5h-1l-1.1.2h2.2l.4 5-6.5.3 6.5.2.2 1.3.3 2.6v1.3h-4.2l-4.8-.2zm120.6-2.3-1-2.9a1235.037 1235.037 0 0 0-7.5-25.5l-1.3-4.4 1-.1h3l1.6.2.7 2.3c1.633 5.807 3.4 11.57 5.3 17.3 1.2 4.043 2.434 8.077 3.7 12.1l.5 1.5h-2.9c-2.6 0-2.9 0-3.1-.5zm-6.5-.1-.6-1.8c-2.869-10.41-5.77-20.81-8.7-31.2h2.8l2.7.3.8 2.7c2.335 7.656 4.635 15.32 6.9 23l2 7c.1.4 0 .4-2.7.4-2.6 0-3 0-3.2-.4zm-10.8 0-2.1-.1-1-4-6.6-24.8-1.1-4.5 2.8.1h2.8l.4 1.6a215.35 215.35 0 0 0 2.1 8 54.053 54.053 0 0 0 1.7 5.9 431.34 431.34 0 0 0 4.8 17.8l-.8.1zm4-1.4a247.568 247.568 0 0 0-2.8-10 417.044 417.044 0 0 1-5.8-21.5c.1-.2 5.3-.3 5.5 0l.5 1.6a201.435 201.435 0 0 0 3.1 11.2 132.635 132.635 0 0 0 2 7.2 194.707 194.707 0 0 0 2.4 8l.3 1.6.1.4c.2.2 1 2.7 1 3h-6zm-133.3.7-9-.4a105.07 105.07 0 0 1-8.8-.4V220l.1-5.6 4.6.1c5.001.203 10 .436 15 .7h.8v5l.2 5.7.1.8h-3zm-27.4-1-10-.4h-2.1v-1c.2-7 .4-10.3.8-10.4.4-.2 18.3.4 19.5.6l.8.1-.1 5.7c-.1 5.4-.1 5.7-.6 5.7-.2 0-4 0-8.3-.3zm-6.5-7.8c0-.6-.1-.2-.1.9v1-2zm112.6 8-1-.1-.4-2.1c-.6-3.3-1-3 4.2-2.8l4.6.2 1 5h-3.7zm-21.7-.5c0-.3-.2-.5-.5-.5s-.5-.1-.5-.3c0-.3.1-.3.6-.1.4.2.6.5.6.8l-.1.6zm-103.2-.4a375.85 375.85 0 0 0-15-.7c-.2 0 .8-11.3 1-11.4 0-.1 20.2.7 20.3.9v2c-.3 2.5-.4 5-.5 7.5v1.9h-2.7l-3-.2zm-25.9-1-8.9-.3h-2v-1c.504-3.257.937-6.524 1.3-9.8l.2-.8 4.3.1c3.68-.1 7.362.135 11 .7.1-.2 1-.2 2.8-.1 2.5.1 2.6.2 2.5.6l-.6 5.2-.5 5.3c0 .6.3.6-10 .1zm127.5-1.4a95.24 95.24 0 0 1 0-2c.4 2 .6 3.1.4 3.1s-.3-.5-.4-1.1zm-153 .5-7.1-.3a142.78 142.78 0 0 1 1.8-11.3c.1-.2 3-.1 6.4 0 4.398.21 8.798.376 13.2.5l1 .2-.1 1-.3 1.6-.2 1-.8 6-.1 1.7h-3.4L162 223zm260.7-.3c-.8 0-.8-.1-1.9-3.4a4138.719 4138.719 0 0 1-6.3-19.6c-.6-1.6-.5-1.6 1-1.6 2 0 2.5.2 2.9 1.2a632.971 632.971 0 0 1 6.4 19.4c1.2 3.2 1.4 3.9 1.2 4-.1.2-2 .2-3.3 0zm-277.7-.3a1673.07 1673.07 0 0 1-10.9-.5h-1.1l.1-.8a117.657 117.657 0 0 1 1.7-7.9l.5-2.6a17.97 17.97 0 0 1 5.4 0c4.898.237 9.799.437 14.7.6.6.2.6.7 0 3.8l-1.2 7.4c0 .3-1.8.3-9.2 0zm-5-8.6c-.3.6-1.3 4.4-.6 2.7.3-1 .4-1.7.5-2.7zm10.5-1.3c.1-.7.2-1.2 0-1.2 0 0-1 4.2-.9 4.7l1-3.5zm-10-1v-.5a4 4 0 0 0-.4 1.4c-.1 1.2.1.7.4-.8zm273.5 11c-1.7-.1-1.8-.1-1.9-.8 0-.4-.3-.7-.4-.6-.4.1-1.4-3-1.2-3.8.1-.9-1.1-5-1.4-4.6-.3.5-1-2-.9-2.8a4 4 0 0 0-.3-2l-1-3.3c-.7-2.7-.7-2.6-1-2.1 0 .3-.2 0-.6-1.1-.6-1.7-.7-2.2-.3-1.7.4.6.5.2.2-.8-.2-.4-.2-.9-.2-1l2 .1c1.9.1 2 .2 2.2.6a204.068 204.068 0 0 0 3.6 11.7 369.037 369.037 0 0 1 3.6 12.1l-.4.2zm3-.7c-.3-.5-.4-1-.4-1.2a580.495 580.495 0 0 0-7-22.2c0-.3.4-.3 2-.3h1.9l.5 1.6a851.552 851.552 0 0 1 7.4 22.9h-4.1zm-304.6-.5c-4.2-.1-7.7-.3-7.7-.4-.2-.1 2.5-11 2.8-11.2l7.7.1c7 .2 7.9.2 7.6 0l-7.5-.3c-4-.1-7.5-.3-7.6-.4 0-.1.4-2.6 1.2-5.5l1.3-5.2h4.7l15.5.4-.2.8a440.384 440.384 0 0 1-2 10.2c-1.7.3-3.7-.7-5.1 0 1.7.5 2.9.3 4.9.3-.7 4-1.6 7.7-2.4 11.6H123zm9.7-8.9c-.5 1.9-2.1 7.8-1.8 8.8.2-1.2 2.5-11.4 1.8-8.8zm-9.7-1.6c0-.5-.6 1.5-.6 2 0 .3.1 0 .3-.5.2-.6.4-1.3.3-1.5zm.8-2.7.4-1.7a51.941 51.941 0 0 0 1.4-6.6c-.1-.2-.4.8-1.8 7-.5 2.1-.5 2.5-.3 2.1.2-.2.3-.6.3-.8zm-23.1 12.6-6.3-.2h-1.4l.4-1.5c.863-2.901 1.73-5.801 2.6-8.7l.4-1.5 3.3.2c5.431.246 10.86.413 16.3.5l1.3.2-.4 1-.5 2-.3 1.4a61.596 61.596 0 0 0-1.5 6l-.2.8h-4.4zm257.5 0c-1.5 0-1.4.2-1.9-2.5l-.4-2c0-.5 0-.5 1-.6l1.2-.1h-1.1c-1 0-1.2-.2-1.3-.6l-.8-4.4s.5-.2 1.1-.2l1.2-.1h-1.2c-1.2-.1-1.2 0-1.6-2.5l-.4-2c0-.3 0-.4 1-.5h1.2l-2.3-.2-.2-1.2-.5-2.4-.2-1.2 6.6-.1-6.6-.1-.4-2c-.5-2.8-.6-2.8.6-2.9h1l-1-.1h-1.2l-.3-2.2-.4-2.3c0-.2 3.4-.2 6.5 0l2.3.2.4 1.8c.5 2.6.5 2.7-.4 2.7h-.8l.9.2c.8.1.8.2 1.2 2 .6 2.8.6 2.8-.6 2.9h-1l1.1.1h1.1l.4 2.2.4 2.4c0 .2-.6.3-1.5.3l-1.5.1 3.2.1.4 2 .5 2.4c.1.4-.2.4-3.3.5h-3.4l3.4.1c1.9 0 3.4.1 3.4.2a87.66 87.66 0 0 0 1 4.9h-2.6l-2.6.1 5.3.3.5 2.5.5 2.4h-3.2l-4.7-.1zm.6-15.6h-1.6l.8.1h.8zm-9.2 15.4a10.997 10.997 0 0 1-2.7-.2l-1.6-9.5-.1-.7 4-.1-4-.1-.2-1.3-.5-2.8a804.29 804.29 0 0 0-2.5-15.2l-.2-.6 4.4.2c2.4 0 4.4.1 4.5.2a76.493 76.493 0 0 1 1.4 9.6c-.4 0-.4 0 0 .2s.6.6.9 2.3c.4 2 .4 2.2 0 2.5s-.4.3 0 .3.6.7 1 3.1l.3 1.3c.1.4 0 .4-2 .4h-2c0 .2 1 .2 2 .2h2l.3 1.4c.246 1.097.48 2.197.7 3.3 0 .3-.1.4-.8.5h-1l1 .1c1 0 .9 0 1.3 2.6l.4 2c.1.6.8.5-6.6.3zm1.4-5.3h-2c-.5 0-.1.1 1 .1h1zm0-10.3c-2-.2-6.2-.2-6.2 0l3.5.1c2 0 3.2 0 2.7-.1zm-1.5-5h-2.3zM53.5 219.5c-5.095-.305-10.2-.471-15.3-.5l1-3.4 2.2-5.6.8-2.3 7.3.1 10.6.2 3.3.2-3.7 11.5h-3zm3.3-8 .1-.7-.3.8-.5 1.4-.1.7.3-.7zm-10-1 .7-2c.3-.5.3-.7 0-.7a23.01 23.01 0 0 0-1.4 4c0 .4.2 0 .7-1.4zm-24.3 8.1c-3.3 0-6.2-.2-6.5-.2-.5 0-.9.9 2.7-7.7l1.5-3.7h2.7c1.5 0 2.7 0 2.7-.2 0-.1-3.3-.3-4.8-.2-.2 0-.3-.2-.2-.5.2-.8 4-10.1 4.3-10.5.3-.3.8-.3 2.6-.2l2.4.3-.3 1-.2 1c.1-.1.4-.6.5-1.2l.4-1h1.4c3.7 0 13.7.5 13.8.6s-2 6.1-3.7 10.7c-.1.3-2.5.3-12.7 0h-3c.1.1 2.1.3 4.4.3 2.835 0 5.669.066 8.5.2 3 0 2.8-.4 1.2 3.7l-2.3 6.4-.6 1.5H33c-2.5 0-7.2-.1-10.4-.3zm10.3-2.6-.1-.2c-.2.2-1 2.7-1 2.9s1.1-2.3 1.1-2.7zm-10.4-.8.4-1.1c-.1 0-1 2-1 2.3s.1 0 .6-1.2zm14.8-10.5c.4-1 .7-2 .6-2.1 0 0-.2 0-.3.3a70.207 70.207 0 0 1-1.3 3.6c0 .4.3-.1 1-1.8zm1.9-5c1-3 1.4-4 1-3.4-.4.5-2.2 5.5-2.2 5.8 0 .5.2 0 1.2-2.5zm393.6 19c-.6 0-.5.4-4.3-11.1-2.5-7.1-2.6-7.5-2.8-7.4l5 14.7 1.2 3.8-3.4-.1-2.4-7c-2.1-6.4-2.6-7.6-2.6-7l2 6.4c2.8 8.1 2.6 7.4 2.2 7.6h-1c-.7 0-.6.2-3.2-7.8-1.17-3.71-2.37-7.41-3.6-11.1 0-.2.4-.3 1-.3h.8l.7 2 .8 2-.5-2a29.94 29.94 0 0 1-.6-1.9c0-.2 3 0 3.3.2.2.2.3.2.4 0 .2-.3 1.3-.4 2.5-.2.6.2.8.4 1 1 0 .6.7 2.5 1.4 4.4a619.29 619.29 0 0 1 4.9 13.8c0 .2-1.9.2-2.8 0zM6 218.4.7 218s-.2-1.1-.2-2.4c0-2.1.1-2.5.8-3.8l.5-1.6-.6 1a3 3 0 0 1-.5 1c-.1 0-.2-1.3-.2-3v-2.8H2c1.2 0 1.3 0 1.2.5v.3c.2 0 .3-.3.3-.5a96.993 96.993 0 0 1 15.9.3l-4.6 11.5-1.8-.1-7-.2zm7-8.9c1-2.2 1.1-2.8.6-2.1a61.023 61.023 0 0 0-2.7 6.6c0 .2 1-1.6 2.2-4.5zm301.4 8a624.086 624.086 0 0 1-1.3-12.1 132.74 132.74 0 0 0 1.2 7.2c.2 1.4.5 5.8.4 5.8l-.3-1zm51.1-1.4c-.7-.2-.7-.1-1.3-3.2-.47-2.34-.97-4.673-1.5-7l4.6.2 4.4.1.4 1.6c.8 3.2.8 3.1-.2 3.1s-1 .2.2.3c.8.1.8.2 1.2 1.7l.6 2.5.1.8h-3.9zm-110-1.4-5.8-.3c-3.1 0-6.1-.2-6.7-.3l-1-.1v-5.4c0-3 .2-5.4.2-5.5l10 .3 9.9.4v.7l.2 5.5v4.8H259l-3.4-.1zm180.2-.1c-.7 0-1-.2-1-.7l-2-6c-3-8-3.3-9-3-9 0 0 .3.3.4.8l.3.7v-.7c-.1-.4 0-.7 0-.8h5.2l.8 2a413.64 413.64 0 0 1 4.8 13.6c0 .2-.5.3-1.2.3-1.2 0-1.2 0-1.7-1-.4-1-.4-.8 0 .5.1.5.3.5-2.6.3zm-1.4-3.6a34.942 34.942 0 0 1-.6-1.5c-.1 0 0 .7.2 1.3l.5 1v-.8zm1.6-4.1a9.795 9.795 0 0 0-1-2.2l1.3 3.9.4.6zm-2.8.5c-.2-.6-.4-1-.5-.7 0 .3.6 1.8.8 1.8 0 0 0-.5-.3-1zm-199.6 6.4c-4.233-.214-8.466-.414-12.7-.6l.2-4 .3-5.5v-1.5l2.6.1h2.7c0-.2-1.2-.3-2.6-.3h-2.7l.3-5.4.2-5.3 5.1.2 13 .5 1.6.2v10.6l-2.4-.1c-2.998-.123-5.999-.19-9-.2l7.4.4 4 .1v4.5c-.2 2.5-.2 5-.2 5.5v1h-1.8zm53.6-.2H284l-.2-1.7-.1-2.5c0-.9 0-.9 1.1-1h1.2-1.2c-.7-.1-1.2-.2-1.2-.4l-.3-2.4-.1-2.1 4.4-.2h-4.4l-.3-3.6v-1.3l5-.1h-2.4l-2.6-.3-.3-2.4-.2-2.2 4.3.1c2.4 0 4.4.2 4.5.3l.3 2.4.2 2.2h-1.3l-1.3.1 2.7.1.1 1.9c.3 3 .3 3-.6 3l-.8.1 1.8.1.1 1.8c.3 3.3.4 3-1.6 3l-1.7.1 3.6.3.2 1.3.1 2.5v1.1h-1.3zm-78.3-.7-9.1-.4c-.2 0-.1-2 .2-5.6l.5-5.4 4.7.1c5.101.174 10.2.374 15.3.6v2c-.2 2.9-.3 3-.3 6.2v3l-1.2-.1-10-.4zm232.7-.6-1-2.7-3.7-10c-.1-.4 0-.4 2-.4s2 0 2.4.7l4.9 12.6c0 .3-4.4 0-4.6-.2zm-255.4-.2-6.7-.3-1.2-.2.7-5.2.7-5.4c6.704.009 13.41.21 20.1.6l-.2 3.3c-.2 1.8-.5 4.2-.5 5.4l-.2 2h-3.6zm-15.3-.6-7.5-.3-6.3-.4a166.76 166.76 0 0 1 1.7-10.9l7.4.3a76.35 76.35 0 0 0 6.8-.1l-14-.6c-.1 0 .1-2 .7-5.2l.8-5.2h2.5c4.605-.024 9.209.143 13.8.5 1.9 0 3.5.2 3.5.2l-.1 1.5a23.498 23.498 0 0 0-.5 3.2l-.4 3c-.2 3.1 0 3-2.8 2.8H174c0 .2 1 .3 2.4.3h2.3v1.2l-.3 1.8-.4 2.3a56.729 56.729 0 0 1-.6 4.7c.2 1 .1 1-2.7 1l-4-.1zm-21.5-.8a951.5 951.5 0 0 0-13.6-.7c.2-2.9 1.3-6.2 1.8-9.9.2-1.2-.4-1.1 6.8-.8 4.532.266 9.065.5 13.6.7l-1.6 10.4c-.2.6-.2.6-7 .3zm296.5-1.2a1368.83 1368.83 0 0 1-4-10.8c0-.3 2.3-.2 2.6 0l.6 1.6a399.696 399.696 0 0 0 3.7 9.7c0 .1-.6.2-1.3.2-1.2 0-1.4-.1-1.6-.7zm-351.9-.6c-4.2 0-7.7-.2-7.8-.3 0 0 2-7.4 2.8-9.8l.4-1.2 4.7.2c5.166.216 10.33.416 15.5.6l-1 4.5-1.4 5.3-.2 1h-2.6zm-.8-6c.32-1.37.654-2.736 1-4.1a566.008 566.008 0 0 1-2.2 8.2l1.2-4zm-18.4 5.4c-5.6-.1-10.2-.3-10.2-.4l1.6-5.5 1.8-5.5 2.6.1H73c0-.2-1.1-.3-2.4-.3l-2.5-.1c-.1-.1 1.4-5 3-9.6l.3-1 3.4.1c3.801.014 7.601.08 11.4.2-4.87-.153-9.738-.386-14.6-.7l3.2-10h2.5c2.3-.1 2.5 0 2.3.3-.1.4 0 .4.2 0 .2-.2 1-.2 4.9-.1 3.231.158 6.465.258 9.7.3 0 .6-.6 2.8-1 3.6l-1 3.8-.7 3-2.6-.3c-2 0-2.6 0-2.5.1 0 .2 1 .3 2.4.3 1.2 0 2.3 0 2.4.2a51.975 51.975 0 0 1-2 6.6c0 .8-.7 3.1-1 3.5-.2.3-1.4.3-7.5.1l-7.4-.1c-.3.2.6.3 7.1.4 3.9.1 7.2.3 7.3.4.3.1.2.5-.1 1.8l-.7 2.4-.8 2.4c-.6 2.6-1.1 4.2-1.4 4.3-.1 0-4.8 0-10.3-.3zm0-15.7c.1-.7.2-1.2 0-1-.1.2-1 2.7-.9 3.1 0 .3.4-.6.8-2.1zm3.6-11.2.5-2.2-.7 1.6c-.7 2.6-.7 2.7-.6 2.7zM448.8 208c-.2-.3.4-.5 1.6-.3 1 0 1.2 0 1.4-.3 0-.3-.9-2.9-3.3-8.8 0-.1.2-.2.6-.2.7.1.8.3 2.3 4.6 1 2.4 1.7 4.6 1.8 4.9.1.4 0 .4-2 .3-1.3 0-2.3 0-2.4-.2zm-397-.3-9.2-.5.4-1.6c1.3-3.2 3-8 3.2-8.7l.2-.7 4.8.1c5.233.243 10.47.476 15.7.7.2.1-.8 3-2.8 9.3l-.5 1.6h-1.4c-.7 0-5.4 0-10.4-.2zm-1.1-8 .9-2.9a49.95 49.95 0 0 0-2.4 6.3c0 .5.5-.6 1.5-3.4zm398.9 7.4-1.2-.1-3.8-10h2.5l1.7 4.2 2.1 6a5.996 5.996 0 0 1-1.3-.1zm-441.3-.8-6.4-.2H.5v-2.5c0-2.4 0-2.5 1.3-5.5l1.3-3h2c3.7-.1 13.4.3 13.3.5a57.216 57.216 0 0 1-1.9 5.1 34.001 34.001 0 0 0 2.2-5c0-.2 1-.3 2.7-.2l2.7.1-1.5 3.8-2.2 5.4-.7 1.8h-3.2zM16 202l.3-1a6 6 0 0 0-1 1.8c0 .3.4 0 .7-.8zm-9-3c.4-.8.5-1.4.4-1.4 0 0-.4.5-.6 1.2l-.6 1.5c-.3.8.3-.2.8-1.4zm356.8 6.6-1.2-.1-.4-2a80.591 80.591 0 0 1-.7-3.3c-.2-.4-1.8-8.5-1.8-9 0-.2.7-.2 4.2-.1h4.3l.4 1.7c.354 1.077.622 2.18.8 3.3l1.1 4.5-2.8.2h-2.9l5.8.3.4 1.7.6 2.3.1.7h-3.3zm2.2-9.9h-2c-.6 0-.2.1 1 .1h1zm-10.1 9.6c-2.6 0-2.7 0-2.9-.6l-.8-4.1s.8-.2 1.9-.2h1.8l-3.8-.3-.4-2c-.6-2.8-.6-2.7.4-2.8h1l-2-.1-.4-2-.4-2.3c0-.2 8.4-.2 8.6 0l1 4.2c0 .2-.8.3-3.3.4h-3.3l3.3.1 3.4.2.4 1.7.5 2.3.2.6-3.7.2h1.8c1.9.1 1.9.1 2 .8l.5 2c.6 2.2.6 2.1-1.4 2h-4.4zm97.7 0c-.2 0-.6-.5-.8-1l-2.5-7.1.3-.1c.3 0 3.6 7.6 3.5 8 0 .2-.3.3-.5.2zm-135.7-1.2-3-.1v-.8c-.2-.4-.4-1.4-.5-2.3l-.2-1.6 5.8-.2h-5.8l-.2-1.2-.3-2.4v-1.3h1l1.2-.2h-2.4l-.3-2.3-.2-2.3 4.4.1 4.3.2.7 4.4.6 4.7c0 .4-.2.5-1.3.5l-1.4.1 2.9.1.3 2c.4 3 .5 2.8-1.2 2.8zm3.3-9.8c-2.3-.2-5-.2-5 0l3 .1c1.7 0 2.6 0 2-.1zm133.3 9.6c-.2-.4-2.8-7-2.8-7.3h.5a82.391 82.391 0 0 1 3.4 7.4c0 .1-1 .1-1-.1zm-142.2-3.5c-.4-3-.4-3.9 0-3.5.3.3.8 5.6.6 6.2 0 .4-.3-.6-.6-2.7zm-61.5 2.6a699.224 699.224 0 0 0-7.5-.3h-1V192h.8l18.9.8.2 10.6h-2.5l-9-.4zm-3.5-2.8v1.5zM456 203a46.088 46.088 0 0 1-2.3-5.8s.7 1.2 1.3 2.8l1.2 3c0 .1-.2 0-.2 0zm-248.2-1.7c-3.8-.1-7-.3-7-.4-.2-.2.5-9 .7-10 .1-.6.2-.6 1.6-.5l9.7.5c4.5.1 8.3.3 8.4.4v2.2l-.5 5.1-.1 3h-3zm-20-.7-7.9-.5c-.1-.1 1.1-10.2 1.3-10.4.1-.1 19.5.6 19.6.8l-.8 9.2-.1 1.2h-2.1zm-35.2-1.3c-4.799-.26-9.599-.494-14.4-.7-.1-.1 0-1.1.3-2.3.3-3 1.2-5.7 1.6-7.6 0-.5.2-.5 2.6-.5 4.4.2 0 .2 4.4.2 2.8 0 12.6.5 12.7.6l-.7 5.1-.9 5.2h-5.7zm1.5-5.8c0-.3 0-.3-.2 0-.2.4-.8 3.5-.7 4.2 0 .5.9-3.6 1-4.2zm-43.5 4.3 2.6-10.5 16.5.5 3.2.2-.1.7-1 5.1c-1 4-1.2 4.8-1.9 4.7-5.7-.8-13.5.5-19.3-.7zm315.1.5c-.5-.1-.9-1-3.4-8.7l-2.9-8.7c0-.1.7-.2 1.5-.1h1.5l2.1 6.3c1.251 3.772 2.518 7.539 3.8 11.3 0 .2-1.8.1-2.6 0zm-6.6-.7-.9-2.3-.7-2.4-4.1-12.3 1-.1c.8 0 1 0 1.1.5.2.4.2.6 0 .6-.6.2-.5.8 0 .8.3 0 .6.1.6.3l1 3c.8 2.6.9 2.8.5 3-.5.4-.3 1 .3.9.4 0 1.1 1.8 3.1 7.8a138.114 138.114 0 0 0-3.5-11.6c-1-2.7-1.6-5-1.5-5.2s2.6 0 2.9.2l2.5 7.1 1.1 3.5c.4.7 2.2 6.4 2.2 6.7 0 .1-1.2.2-2.6.2-2.7 0-2.7 0-3-.7zm37.3 0a66.384 66.384 0 0 1-1.4-3.6c-.3-.3 0-.6.3-.4l1 2c.23.901.463 1.801.7 2.7l-.6-.8zm-179.6.3c-2.2 0-3.2-.2-3.3-.4l-.2-2.4-.1-2 1.5-.3h-1.5l-.1-2.2-.1-2.3h4.4c4.8.2 4.3-.1 4.5 3l.2 1.7h-6.7c.2.1 1.7.2 3.5.2h3.1l.2 1.5.1 2.4v1h-1.1zM436 197l-4.2-11.5h2.2c2 0 2 0 2.2.7 1.454 3.938 2.921 7.871 4.4 11.8h-4.4l-.3-1zm-338.4.5-7.7-.3c-.5-.1-.5-.3 1-5.3a104.08 104.08 0 0 1 1.6-5.3c.1-.1 19.7.6 19.9.7 0 .1-2 8.5-2.4 9.7l-.2.8h-2.5zm331.3 0-.7-2.2c-1.3-4-1.3-4-1-3.8.3 0 .3-.3-.2-1.6-.3-.9-.7-1.6-.8-1.6-.5 0-1.1-1.8-.8-2 .2-.2.2-.5-.2-1.5-.2-.7-.6-1.4-.8-1.5-.4-.2.7-.5 1.9-.4 1 .1.8-.1 2.3 4a1169.1 1169.1 0 0 0 3.6 10.6 9 9 0 0 1-3.3 0zm.4-1.2-1.2-3c0 .6.8 3 1 3zm3.2.5-1.2-3.3a388.276 388.276 0 0 1-3.5-9.4c-.4-1-.2-1.2.7-1.2.5 0 1 0 1.2.2.2 0 1.4 3 2.6 6.4l2.7 7.2.3.9H434c-1.3 0-1.3 0-1.5-.8zm7-4.3c-2.6-6.6-2.5-6-1-6 .6 0 1.2.1 1.3.3.3.3 4.2 10.4 4.2 10.6 0 .1-.6.2-1.3.1h-1.3zm8.2 3.4a90.197 90.197 0 0 0-2.1-5.1c-.8-2-1-2.6-.5-2.8h.8a49.925 49.925 0 0 1 3 7.3l.6 2h-.6c-.6 0-.8-.2-1.2-1.4zm-135 .5c-.6-.4-.6-.7 0-.7.3 0 .5.3.5.6l.1.5zm101.4.3c-.5-.1-.7-.3-.8-1 0-.4-1.6-5-3.3-10.2s-3.2-9.8-3.2-10.2l-.2-.8 1.8.1c1 0 1.8.2 2 .3.2.3 7.3 21.7 7.2 21.8-.2.2-2.5.1-3.5 0zM.6 196.5c0-.2.4-1.4 1-2.6a29.856 29.856 0 0 0 1.8-4.6c0-.3-.2-.4-1-.5-1 0-1 0-.4-.3.5-.2.5-.3.2-.4-.4-.1-.6-1.1-.2-1.1 0 0 .4.2.7.6.7.7 1.2.7 1.4.2 0-.3.3-.6.5-.9 4-9.3 8.4-16.8 2.3-3.7a35.838 35.838 0 0 0-2.3 5.4c-.2.8-.6 1.6-.7 1.6-.1.1-1 1.6-1.8 3.4zm403.8-.5-.8-2.4c-.2-1-.6-1.7-.7-1.7v.9c.2.4.2.8.2.9a25.983 25.983 0 0 1-1.4-4.2h.5a43.358 43.358 0 0 0-1.7-4.9c0 .4 0 .5-.1.3a6.998 6.998 0 0 1-.7-1.7c-.4-1.5-.5-2.2-.1-1.4.2.4.2.4.2-.2 0-.3 0-.9-.2-1.2a70.141 70.141 0 0 1-1-3c-.6-2-.8-2.5-1-2 0 .5-.1.4-.5-.8l-.4-1.7c0-.3 0-.3.4 0 .3.3.5.7.6 1 0 .4.4.4 2 .5h2l.4 1.4c2.027 6.866 4.16 13.7 6.4 20.5 0 .2-.5.3-2 .3-1.8 0-1.9 0-2.1-.6zm3.3-3.8-5.3-16.6c-.5-1.2-.4-1.2 1.9-1.1h1.7l2 6.6 5 15.4-2 .1h-2zM53.6 196c-4.4-.1-6.9-.3-6.9-.5.1-.4 3.5-9.6 3.8-10 .2-.4.4-.4 1.7-.3l6.2.2c9 .2 12.3.4 12.3.7l-1.7 5.2-1.6 5h-3.5zm9.4-2.7c.18-.672.38-1.339.6-2-.2.2-1.1 2.6-1.1 3 0 .5.2 0 .5-1zm-8-5.7.3-1.2c-.2 0-1 2.2-1 2.6s.2 0 .7-1.4zm9.8.5c.6-1.8.6-1.8.3-1.3-.3.6-1 2.5-.7 2.2l.4-1zm383.7 4.6c-.43-1.335-.863-2.668-1.3-4l1.6 3.4c1.7 4.2 1.8 4.3 1.3 4.3-.2 0-.8-1.4-1.6-3.7zm4.7 1.2-1.2-3c-.4-.7-.3-1 0-.7a46.953 46.953 0 0 1 2.5 5.7c0 .1 0 .2-.2.2zm-9.4 1a262.981 262.981 0 0 1-3.3-8.4c0-.3 2.2-.2 2.3 0 .3.4 3.8 9 3.8 9.2l-1.2.2c-1.1 0-1.2 0-1.6-1zm7.2.6-.5-1.2-1.2-2.9-1-2.4c0-.2.1-.3.5-.3.5 0 .7.3 1.9 3.4.9 2.3 1.2 3.5 1 3.6-.4.3-.6.2-.7-.2zm-419-.1-6.8-.3 1.9-5 2-5.1c.2-.4.5-.4 2.7-.4 2.1 0 2.5 0 2.6.4 0 .4 0 .4.1 0 0-.4.4-.4 4.5-.3 1.8-.049 3.6-.049 5.4 0l-1.7-.1c-3.9 0-12.8-.5-13-.6l.4-1.3 2-5 1.6-3.7h2.5c2.2 0 2.5 0 2.3.4-.1.4 0 .4.2 0a28.2 28.2 0 0 1 9.8.3c0-.3 4.7-.4 5 0 0 0-.2 1-.6 1.8s-.9 2.5-1.3 3.6l-1.2 3.4-.5 1.4-2.5-.2H45c0 .2 1.1.3 2.5.3 2 0 2.2 0 2.1.5l-1.8 5.3-1.8 4.8h-3.6zm-.8-2 .4-1.4c0-.2-1.2 2.5-1.2 2.8 0 .5.5-.2.8-1.4zm1.3-3.6c0-.3-.4.4-.7 1.5-.1.4 0 .3.3-.3.3-.5.5-1 .4-1.2zm1.3-2.8c.5-1 .6-1.5.3-1.5l-.6 1.2c-.5 1.5-.4 1.6.3.3zm103 7.4c-2.7-3.8.2-1.2.8-3.5.8-2.9-1.2 8.5-.8 3.5zm-123.6.4-9.6-.4.8-2.2c.6-1.2 1-2.3.9-2.5 0-.1 0-.3.2-.4l1.5-2.8 1.1-2.7 4.3.1c5.332.228 10.67.428 16 .6l-2 5.4-2 5.3h-.8zm8.5-6.2.7-2s-.3.3-.5.9c-1.1 2.8-1.4 3.4-1.2 3.2.2-.1.6-1 1-2.1zM11 190l.6-1.5c1-2.2 1-2.6 0-.5-1 1.9-1.3 2.6-.8 2.4zm300.6 4.2c-.2-1.2-.2-2 0-1.7.3.2.6 2.3.4 2.4-.1.1-.3-.2-.4-.7zm-10.4-.9-.3-2.3-.2-2h3.9l4.4.2c.4.1.5.4.7 1.8l.2 2.2c.2.4-.2.4-4.2.4-3.3 0-4.4 0-4.5-.3zM.6 191.8c0-1.4.1-1.6.6-1.6.7 0 .7.3 0 1.9l-.6 1.3zm283.2 1.3c-1.3-.1-1.3-.1-1.4-1l-.2-2.3v-1.4l1.3.1 4.3.2h3l.2 1.8.3 2.3c.1.4-.1.4-3 .4zm114-.3H396l-.4-1.2-.4-1.6a708.639 708.639 0 0 0-5.9-19.9l-1.8-6.4c0-.3 4.9-.1 5.1.1l1.3 3.9a765.974 765.974 0 0 0 4.2 13.9l1.9 6c.472 1.708.972 3.408 1.5 5.1 0 .2-.4.3-1 .2l-2.8-.1zm-8.2-1.4-.9-2.9a459.422 459.422 0 0 1-5.3-18.6l-1.3-4.8c-.6-1.8-.7-1.8 2.2-1.7h2.6l.4 1.5c2.616 9.268 5.35 18.5 8.2 27.7 0 .1-1.3.2-2.8.2H390zm-134.5.8-8.9-.3-3.8-.2v-5c0-2.9.2-5.2.2-5.2l19 .8c.1 0 .2 2.3.2 5.1l.1 5.1h-.9zm124.2.1h-1.6l-.3-1.2-1.3-5-6-22.9h2.6c3 0 2.7-.4 3.6 3.3 2.191 8.596 4.491 17.16 6.9 25.7 0 .3-.3.3-3.9.1zm4.5 0-.5-1.5a5156.788 5156.788 0 0 0-7.3-27.6h2.7l2.5.2 1.5 5.5 5.9 20.8.8 2.8h-2.7c-1.5 0-2.8 0-2.9-.2zm-11.5-.2c-.7-.1-.7 0-1.7-4.3-.6-2.2-.9-3-.9-2.2 0 .4 1 5 1.4 6 0 .4 0 .5-.6.4-.6 0-.7-.2-1-1.5a109.561 109.561 0 0 0-1.7-8 250.467 250.467 0 0 1-3.7-15.3c-.4-6.5 0-.1-.4-4.3 0 0 .7 1.9 1.2 4a53.96 53.96 0 0 0 1 3.9c.4.4.3-.5-.5-4l-1-3.9s5 .1 5.2.3l1.3 4.7 1.5 5.8c1.634 6.124 3.234 12.26 4.8 18.4 0 .2-3.6.2-5 0zm-4.1-13.9c-1.2-4.6-1.6-6-1.6-4.8l2.3 9.7.3.2a41.012 41.012 0 0 0-1-5.1zm-139 13-7.1-.4c-.1-.2.4-10 .5-10l15.8.5 3.3.2v10H239zm-19.6-.8c-4.3-.1-8-.3-8-.4 0 0 0-2.3.3-5l.4-5h4.7l14.7.8-.2 4.4-.2 5v.6h-1.9zm-74.2-.2c.4-.8 1.1-7 1.9-6 .8 2-2.2 6.7-2 6zm175.6.1-.2-1.6-.5-4.4c-.4-2.7-.4-3.7 0-3.3.378 3.087.612 6.191.7 9.3zm-113-.3c-5.595-.338-11.2-.572-16.8-.7l.5-4.9.6-5 2.4-.1c2.9 0 16.9.6 17 .7l-.3 5-.5 5h-3zm-23-1a523.86 523.86 0 0 1-14.2-.6c-.2-.2 0-1.3.6-5.2l.8-5 1 .1 9.6.4 8.7.3v1.2a179.944 179.944 0 0 1-1.5 9zm186-.4c-1.2 0-2.1-.1-2.1-.3-.51-2.819-1.11-5.62-1.8-8.4a4238.062 4238.062 0 0 0-7.6-34.3c0-.4.2-.4 3.7-.4 2.1 0 4 0 4.1.2.2.1.4 1 1 3.4l.5 2.4c.3 1.5.3 1.8 0 2-.2.1-.2.2.1.2.5 0 .4-.4 2 6.6 1 4.756 2.1 9.49 3.3 14.2a26.292 26.292 0 0 1 1.1 4.8c0 .2-.2.4-.7.5h-.8l1.7.1.5 2c.231.96.431 1.927.6 2.9.2.5 1 3.5 1 4 0 .3-1 .3-6.6.1zm1.8-9.1h-2zm-10.6 8.9c-2 0-2.5-.2-2.6-.5a70.271 70.271 0 0 1-1.2-6 51.978 51.978 0 0 1-1.2-5.8c-.81-4.451-1.71-8.885-2.7-13.3a1081.621 1081.621 0 0 0-3.5-17.6c0-.2 1.8-.3 3.9-.3 3.8 0 3.9 0 4 .6.2.3 1 3.9 1.9 8a939.375 939.375 0 0 0 5.5 25.3 275.16 275.16 0 0 0 2 9.6c0 .2-.6.2-6.1 0zm2-4.6H352h2.3zm-.5-4.6H352l1 .1h.8zm-1.4-4.6H350c-.6.1-.1.1 1.1.1h1.2zM147.7 188l-7.5-.4c.476-2.191.91-4.392 1.3-6.6l.7-3.4h.9c3.5 0 3.7 0 3.7.7v.5l.3-.6c.2-.5.2-.5 2.6-.4l4.4.2h2.2l-.2 1.7v1.3l.4-1.7.2-1.2 4.9.1-.1.8-.9 5-.6 4.3h-2.5zm196.2.1c-2 0-3.6-.1-3.6-.2a145.44 145.44 0 0 0-1.4-8.5c0-.3.2-.5.9-.5l.9-.1-2-.1-.8-4-.7-4.3c0-.3.4-.4 2.8-.5h2.8-3l-2.9-.3a752.988 752.988 0 0 0-4.4-24.6 46 46 0 0 1 7.8-.1l.5 1.8c.3 1.4.3 1.7 0 1.9s-.3.2 0 .2.5.4.7 1.4l.4 2c.1.3 0 .5-.3.5-.4 0-.4 0 0 .2.4.1.6.6.8 2l.6 2.7a80.581 80.581 0 0 1 1.5 7.6l.5 2.3c.5 2.5.5 2.5-.5 2.6h-1l2 .1.8 4 .9 4.3c.1.4-.2.4-2.8.5h-3l3 .1c2.5 0 2.9.1 3 .5a69.61 69.61 0 0 1 1.3 6.5l.3 2c0 .2-.4.2-.8.2zm1.2-4.5h-2zm-4.6-22.4h-1.8zM335 188c-3.9 0-4 0-4-.6-.3-1-2.1-12.4-2.1-12.8 0-.2.3-.4.8-.5.7 0 .7 0-.2-.1-.5 0-.9-.1-.9-.2A423.27 423.27 0 0 0 326 157a469.932 469.932 0 0 0-2-12.5h4c3.7.1 3.9.2 4 .6 1.851 9.545 3.585 19.11 5.2 28.7 0 .3-.4.4-3.1.5h-3l6.3.1.2 1.5.4 2.2.2.7h-4l2 .2 2 .1.4 2.1c.4 2 .4 2.1 0 2.2-.3.1-.3.1 0 .2.3 0 .5.5.8 2 .5 2.5.5 2.6 0 2.5l-4.3-.1zm1.8-4.6h-2c-.5 0-.1.1 1 .1h1zm-6.8-26.7h-1.8zm-7.6 30.8c-.6 0-.7-.1-1.6-6.3l-1-6.7-.1-.6 4.1.2c2.4 0 4.3.2 4.4.3s.7 3.3.7 3.9c0 .1-.4.3-1 .3l-.8.1h2l.3 2.7.8 4.4.3 1.9h-3.8zm5.8-4.3h-1.5zm-3-4.8h-1.8 1.9zm-205.8 8.8a86.007 86.007 0 0 1-6.1-.4 94.045 94.045 0 0 1 2-8.7l.4-1.2h2.3c1.7 0 2.5 0 2.5.3.1.2.2.2.2 0 0-.3.7-.3 3-.2l9.7.3c1.7 0 1.8 0 1.1 2.4a22.992 22.992 0 0 0-1 5l-.4 2.4c-.2.4-3.4.4-13.7 0zm0-5.2c.6-2.3.6-2.6 0-1-.4 1.4-.5 2.6-.3 2.3 0 0 .3-.6.4-1.3zm194.4 5.3-1.3-.1-.1-1c-.512-3.97-1.045-7.936-1.6-11.9A1652.03 1652.03 0 0 1 309 161c0-.1 0-.4.3-.5.4-.2.4-.3 0-.3-.3 0-.4-.3-.5-1.1a32.984 32.984 0 0 0-.4-2.7 177.15 177.15 0 0 0-1-8c0-.4.4-.5 3.1-.5h3l-6.2-.3-.1-.9-.3-1.8-.1-1h1.7l4 .1 2.3.2.2 1.8c.2 1 .2 1.8.1 1.8 0 .1-.4 0-.8 0-.4-.1-.6 0-.6.1 0 .2.4.3.8.3.7 0 .9 0 1 .6a225.099 225.099 0 0 1 1.5 10.8 890.846 890.846 0 0 1 2.1 13.6c.1.4 0 .5-.8.6h-.9l1.8.2.3 1.8.6 4.4c.4 2.1.4 2.5 0 2.7-.2.2-.2.2.1.2s.5.3.6 1.3l.3 2.1.1 1h-3zm1.9-13.8H313c-.7 0-.2.1 1.3.1h1.4zM304.5 187c-2 0-3.7-.1-3.8-.3-.2-.1-1.1-7.2-1.1-8.5 0-.3.3-.4 2.5-.4l2.4-.1h-2.4c-2.8-.1-2.6 0-2.9-2.5a4720.55 4720.55 0 0 0-3.1-29.8l-.2-2 3.2.1 4 .2.7.1.7 5.6.8 6s-.1.3-.3.3c-.4.1-.4.1 0 .2.2 0 .4 0 .4.2l.4 3.8c.7 4.5.7 4.4-.1 4.5h-.7l.7.1c.8 0 .8.1 1 2.4.2 1.5.2 1.8-.1 1.8-.3.1-.3.1 0 .2.3 0 .5.3.6 1.4l.5 4c.4 3.8.5 3.5-1 3.6h-1.2l2.6.3.2 1.5.3 2.1c.1.5 0 .6-.5.7h-.7l.7.1c.6 0 .6.1.8 1.3.3 2.7.2 3.2-.3 3.2h-4zm-.6-18.3h-1.5c-.4 0-.1.1.7.1h.8zm-199.8 18a650.743 650.743 0 0 1-8.8-.4c-3-.1-3 0-2.3-1.9l1.3-4.6 1-3.7h4.8l-.1 1-.2 1 .4-.8c.1-.4.3-.9.2-1-.1-.2 7.2 0 8.5.2.8.1.8.2.7 1l-.1.7.5-1.6h2.2l2.5.2c.2.1 0 1.5-1 5.1l-1.2 5h-1.2c-.7 0-4 0-7.2-.2zm187.8-.1-.6-.4-.4-3.4a116.93 116.93 0 0 0-.4-4.2l-.1-1 5.2-.2h-5.1l-.2-1.7-.2-2.1c0-.4.2-.5.8-.6l.9-.2H290l-.3-3.4a113.935 113.935 0 0 0-.4-4.1c0-.8 0-1 .6-1.2l.7-.2h-.7c-.6 0-.6-.2-.8-1.3-.393-4.531-.76-9.065-1.1-13.6l-.2-1.9h3.6l-3.6-.3-.2-1.7v-1.8c.1-.2 7.6 0 7.8.2l.4 3.1.4 3.8.2.8-3.8.2h3.7l.1 1.4.3 2c.1.5 0 .5-2.9.6h-3l6 .1.1 1.2.3 2c0 .7 0 1-.3 1-.4.1-.4.1 0 .2.2 0 .4.2.4.4s0 1.2.2 2l.2 1.7-5.1.1 5.1.1.2 1.8a104.49 104.49 0 0 0 1 9c.295 2.059.529 4.127.7 6.2l.1.8-4.2.2h2c2 0 2.2.1 2.2.6l.2 2.2.2 1.6h-3.8l-4.3-.1zm-289.2-.4.4-.2c.3 0 2-3.5 4.8-10l3-7c1-2.3 2-4.1 3-6.6a15 15 0 0 0 2-6c.3-.5 1.3-.5 1.3-.1 0 .3-1.3 3.2-4.5 10L11 170a288.494 288.494 0 0 1-8 16.5c-.2 0-.4-.1-.4-.3zm281 .1h-1.6l-.2-1.3-.1-2.2v-.9l2.7-.1h-1.4c-.8-.1-1.4-.2-1.5-.4l-.2-3c0-1.4-.2-3.3-.3-4.1l-.1-1.5 5.7-.2H281l-.2-.8-.1-2.1v-1.4h4l4.2.3.3 2.2.2 2-1.8.1h.8c1 .1 1.1.3 1.3 2.9 0 1.3 0 1.4-.6 1.6l-.6.1h.7c.5 0 .6.2.7 1.2l.2 2.1v1l-1.2.2h-.9l1.3.1c1.2 0 1.2 0 1.2.7l.2 2.2.1 1.5h-2.6l-4.3-.2zm4.2-9c0-.1-1.1-.2-2.5-.2h-2.3l2.4.2c.8-.024 1.6-.024 2.4 0zm-13.2 8.8c-2.1-.1-2-.1-2.1-2.8v-1.6l5-.1-5.1-.3-.2-2.6c-.2-3.2-.1-3-.4-3-.1 0-.2.4-.2.9l.2 2.8c0 1.8 0 1.9-.5 2l-.6.2h1.2v4.5l-2.3-.2-3.8-.1h-1.4v-4.4l5.5-.1-5.4-.1-.2-1.3a120.714 120.714 0 0 1-.4-19l-.3-3.3-.1-2.9h1.9l1.8-.2h-3.6l-.2-2.8-.2-6v-3.4l3 .2c3.3.1 3.8.2 3.8.9 0 .5.7.6 5 .8l3 .2-.1-.6c0-.5-.2-.6-1.9-.7a93.35 93.35 0 0 0-1.3-.3l3.4.1.2 2.1.3 4c.1 1.7.1 1.8-.4 1.9-.6 0-.6.1-.1.1.6 0 .8.8.8 2.7v1.2l-3.5.2h1.8c1.1 0 1.8.2 1.8.4l.2 2.7.3 3.9.2 1.5-1.9.2h.9c.8 0 .9.1 1 .8l.2 2v1.4l-1.9-.1c-1.7 0-1.9-.1-2-.6 0-.5-.2-.6-1.4-.6l-2.3-.1-.9-.2v-2.8l5-.1-5.2-.1v-4.1h1.5l1.5-.1-1.6-.2-1.5-.1-.1-2v-2l3-.1-3.3-.1V153c0-.9 0-1.5-.2-1.5s-.3.6-.3 1.5c0 1.5 0 1.6-.6 1.7h-.7.7c.5.1.6.3.7 1 .2.7.7 9 .7 10.3 0 .4 0 .6.5.7.3 0 .5.2.5.4-.1.5.7.6 5 .9 1.8 0 3 .3 3 .4l.2 2.7c.167 3.005.4 6.005.7 9v1.4l-1.6.2h.9c.9.1.9.1.9 1.2l.1 2.1.2 1.1H279l-4.4-.1zm-5-9.4h-2zm6.7-7.6c0-.5-.2-.6-2-.6-1.9-.1-2 0-2 .4 0 .5.4.6 2.8.7 1.2 0 1.3 0 1.2-.5zm-8.2-6h-2.4c-.7.1-.2.2 1.1.2 1.4 0 2 0 1.3-.1zm-.5-4.3h-2.4c-.7 0-.2.1 1.2.1h1.2zm10.4-13.5c0-.6-.6-.7-4.6-.8-3 0-3 0-3 .5s0 .5 2.2.6c5.7.2 5.4.2 5.4-.3zm-215 40c-3.699-.16-7.399-.294-11.1-.4-1.5-.2-1.6.5.7-5.7l1.6-4.5c0-.1 12.6.2 13.8.4.7 0 .8.2.7.6 0 .5 0 .5.2 0 .3-.5.5-.5 2.6-.5 1.7 0 2.3 0 2.4.3 0 .3-1.4 5.1-2.9 9.3l-.2.7H69zm-5-6.5c0-.2-.2 0-.4.6a5 5 0 0 0-.5 1.3c0 .2.2 0 .5-.6a5.01 5.01 0 0 0 .4-1.3zm.8-2 .4-1.6c-.1 0-.2 0-.3.2-.263.968-.53 1.934-.8 2.9zm-41.4 7-8.2-.3-1-.2.6-1.2.6-1.3 1-2.3 1.7-3.8.7-1.5h2.3c1.2 0 2.3.1 2.3.3.1 0 0 .7-.3 1.3s-.5 1.2-.4 1.3 1.1-2 1.1-2.4c0-.3 3.4-.3 7 0 2.4 0 2.6.1 2.5.6-.1.3 0 .4.1.3.2-.1.3-.3.3-.5 0-.3.4-.4 1.8-.4 1 0 2 0 2.5.2.9.1.9 0-1 4.4l-1.7 4.4-.5 1.4h-2zm-2.1-4.5c-.1-.1-1.1 2-1 2.3l.5-1c.4-.6.6-1.2.5-1.3zm11.3-2.5.5-1.5c.4-1-.1-.2-.7 1.1-.4.8-.5 1.4-.4 1.4s.4-.4.6-1zM.6 178.5v-5.3H3a7.002 7.002 0 0 1 2.4.3l-4.7 10zm137.2 3.3c0-.2 0-.3-.1-.2-.2-2.4 1.8-22 4.8-21.3-3 7 0 0-4.7 21.5-.2 0-.1.2 0 0zm118.7-4a760.77 760.77 0 0 0-13.2-.6l-.8-.2v-9.3c.2-.1 18.6.5 18.7.6 0 0 .2 2.2.2 5l.2 4.8h-.7zm-27-1-6.9-.5c-.2-.1.4-9.2.6-9.4.2-.1 18.4.6 18.6.8v4.8l-.1 4.6h-2.8l-9.5-.4zm-11.6-.5-5-.3c-5.8-.1-10-.3-10.1-.5l.1-.5c.2-.3.2-.6 0-.8V173c.284-2.292.484-4.593.6-6.9l7.8.3 9.3.3h1.7l-.2 3.3c0 1.9-.2 4-.3 4.9l-.1 1.5h-1.9l-2-.1zm-22.5-.9a882.91 882.91 0 0 0-12.6-.6l.4-4.7.6-4.7h2.2c1.3 0 2 0 1.8-.1-.2-.2-1.2-.2-2.2-.3H184l.1-1.1c.406-2.661.772-5.328 1.1-8 .1-.2 3.6 0 11 .3h2c0-.2-2.3-.3-5-.4-2.9 0-5.8-.2-6.6-.3l-1.4-.2.1-1a280.82 280.82 0 0 0 1-7.7c4.535.088 9.068.22 13.6.4l-2-.2c-3.806-.07-7.608-.27-11.4-.6-.1-.1.4-5 .8-7.7l.2-1 2 .2 8.6.4 7 .4-.1 4.3-.3 4.2H200l2.3.2c1.9 0 2.2 0 2.2.4a129.744 129.744 0 0 1-.7 8.1c0 .4-.3.4-2.4.5h-.7l2.3.3c.7.1.8.2.7.8a63.102 63.102 0 0 0-.8 7.8l-.1.7-4-.2c-3.434-.083-6.867-.183-10.3-.3 0 0 3 .3 7 .4l7.1.5c.3.2-.2 5.4-.6 7.8l-.3 1.5h-1.3zm-23.4-1-9.2-.5.4-3a96.65 96.65 0 0 0 1-6c5.699-.346 11.42-.246 17.1.3h1.7v1l-.6 4.7c-.5 3.5-.6 4-1 4l-9.4-.4zm-31.1-.8 1.5-7.3c1.4-7 1.4-7.4 1-7.2-1.3-.2-2-1.9.3-.6.2 0 .7-1.8 1.4-5.7 1.625-8.249 3.325-16.48 5.1-24.7.891-4.302 1.791-8.602 2.7-12.9.6-3.1.6-3.4-.3-3.4-.7 0-.7 0-.5-.4.2-.2.2-.3 0-.3l-.2-.4c0-.5.4-.4.7.1.4.9.8.6 1.3-.9l2.4-11.6c.693-3.582 1.46-7.149 2.3-10.7.4-.8 0 1.3-.7 4.8a474.005 474.005 0 0 0-4 20.9l-1 3a2803.39 2803.39 0 0 1-6.2 30.3 67.498 67.498 0 0 0-2.5 14.1 4.002 4.002 0 0 0-.8 1.9 244.63 244.63 0 0 1-2.5 11zm9 0-7-.4.2-1.8 1-4.5.5-3h2.3c1.8 0 2.3 0 2.3.2s.1.3.2 0c.2-.2 13.7.3 14 .5 0 .1-.9 6.7-1.3 8.7l-.1.7h-2.6zm159-.4c-.2-1.3-.7-6-.6-6.1.2-.2 1 6 .9 6.5-.1.3-.2.2-.3-.4zm13 .6c-2 0-2-.1-2.2-.6a150.255 150.255 0 0 1-1.5-9.8c-.4-2.8-.5-2.7.7-2.8h1-1l-1.2-.1-.6-4.6-1.1-7.6c-.8-4.7-1.2-4.2 3.4-4l4 .1a1048.51 1048.51 0 0 1 4.9 29.4c0 .2-1.8.2-6.4 0zm2.9-13a9.006 9.006 0 0 0-1.7 0zm-1.3-4.4H321c-.8 0-.2.1 1.2.1h1.4zm-201.1 16c-3 0-5.6-.2-5.6-.2-.2-.2 2-9.3 2.3-9.4 6.238-.017 12.48.183 18.7.6l-.3 1.5-1 4.7-.6 3.2h-4l-9.5-.3zm9.6-4c.1-.2.1-.3 0-.1-.6 1.2-.7 2.4-1 3.7-.1.4 0 .6 0 .4.7-1.3.6-2.5 1-4zm.2-2.2c-.4 1-.4 1.3-.1 1.3.5-.4.7-2.7.1-1.3zm-26.8 5.7-8.8-.4c-.1-.1 2.5-9.2 2.7-9.4.2-.1 18.6.5 18.8.7l-2 8.3c-.4 1-.5 1.2-1.2 1.1zm-1.8-7.3c.3-1.4-.1-.8-.6.9a33.995 33.995 0 0 0-1.2 4.5zM92 171.3l-1.2-.1 1.1-3.5 1.2-4-1.4 3.5-1.4 4a51.49 51.49 0 0 1-8.4-.6l-.1-.5c-.2 0 .1-1.3.8-3.3a21.025 21.025 0 0 0 1-3.5l-1.4 3.7-1.3 4-2.3-.1c-1.2 0-2.3-.2-2.3-.2l3-9.4 5.1.1c4.666.238 9.333.471 14 .7l-2.2 7.8-.5 1.7h-1.2c-.837-.07-1.67-.17-2.5-.3zm-24.6-.7-5-.2c-1.5 0-1.6 0-1.4-.5l.3-.8c0-.2-.2 0-.4.5-.3.7-.4.7-1.6.7-.7 0-1.8 0-2.4-.2l-1-.1 1.7-4.7 1.8-4.7 19.2.7-3.2 9.4h-2.3l-5.7-.2zm-22.6-.8c-3 0-6.5-.2-7.5-.3l-2-.2.7-1.7 2-4.7c1.2-3 1.3-3 2-3l18.6.7-3.3 8.6-.4.9h-2.3zm-32.4-.2 2.5-5.4c2.2-4.8 4-8.9 4-9.3H18c-.8 0-1.1-.3-.5-.6.2 0 .2-.1 0-.2-.3-.2-.4-.9-.1-.9l.6.5c1.1 1.2 1.2 1 6-9.4l10.4-23.2c2-4.2 5.5-12.3 5.6-13 .1-.6 0-.6-.7-.7-.7 0-.7 0-.4-.3.4-.3.4-.3 0-.5-.1 0-.2-.2-.1-.4 0-.1.3 0 .7.3.9.8 1 .7 2.2-1.7l8-18c1.3-3 2.1-4.3 1.2-2l-2.6 6a200.875 200.875 0 0 0-7.8 18.2c-.5.4-.9 1-4.7 9.8a1778.957 1778.957 0 0 1-6 13.2 448.966 448.966 0 0 0-10.5 24c-.2 0-1.7 3-3.8 7.7a39.356 39.356 0 0 1-3 6zm17.4-.8a55.108 55.108 0 0 1 2.2-5.6c-.1-.2-.3.3-1.3 2.8l-1 2-.2.7c0 .5 0 .5-7.2.3a90.882 90.882 0 0 1-7.3-.3s.8-2.2 2-4.8l2-4.6h4.7l-.2 1.3.3-.7c.2-.6.3-.7 1.5-.5 4.292.334 8.595.5 12.9.5.2.1-.3 1.5-2.3 6.2l-1.3 3.2-5 .1zm-8.7-2.6c.4-.8.6-1.4.4-1.4a11.01 11.01 0 0 0-1.4 3c0 .5.4-.3 1-1.6zm-17.6 2.3-3-.1v-9.8l4.6.1c4.9.1 7.1.3 7 .5l-1.3 2.7-2.2 4.7c-.8 1.9-1 2-1.5 2zm278.3-.5h-1.3v-1.4l-.1-2-.1-.7 2.5-.2h-1.2c-1.2-.1-1.3-.1-1.3-.7l-.1-2-.2-1.6 1.7.2 4 .1h2.5l.2.8.2 2.1v1.3l-2.8-.1h-2.7c0 .2 1.4.3 2.9.3h2.7l.1 1.2.2 2v.9h-3zm-32-.4-6.8-.4c-.4 0-.4-.6-.3-4.6V158l3.8.1c4.832.264 9.665.497 14.5.7.1 0 .3 2 .3 4.6v4.5H259l-9-.3zm-19.4-.8c-4-.1-7.3-.3-7.3-.4l.2-4.6.2-4.5 3.8.1c4.466.225 8.932.425 13.4.6h1.3v9.2h-2.2zm-13-.5a382.306 382.306 0 0 0-13.9-.6l.4-4.6.4-4.5 5.2.1 9.1.4 4 .1v3.1c0 1.8-.2 3.9-.3 4.7l-.1 1.5h-2.4c-1.3 0-2.4-.1-2.5-.2zm90.2-3.7c-.19-1.901-.39-3.801-.6-5.7a362.06 362.06 0 0 0 1.2 9.5zM176 164.7c-.1 0-2.5-.2-5.4-.2l-5.8-.3c-.5-.2-.5-.2.3-5.1.6-4.1.6-4.2 1.2-4.2 4.538.089 9.072.29 13.6.6l4.2.3-.4 4.4-.5 4.4c0 .2-7 .3-7.2.1zm-6.3-4.5c0-.4-.1-.2-.2.4-.2.5-.2 1.3-.2 1.7 0 .5 0 .4.2-.4zm-9 4c-7.3-.4-15.9-.8-16-1-.1 0 .3-2.3 1-5.5.4-1.4.6-2.7.6-3 0-.4.2-.5 1.2-.5 5.436.159 10.87.392 16.3.7h1.2l-.2 1.2c-.2 2-1.2 7.9-1.3 8h-2.7zm-25-1.2-16.5-.7 1-4.6 1.2-4.5c4.3.3 8.8-.1 13 .4h.9c-2.4-.4-13.8-.8-13.7-1.3l1.1-4.4 1-4.1 1.4.1 6 .3c7.2.2 10.9.4 10.8.6l-1.8 8.6h-2.3l-2.3.1 2 .2 2.2.2-.5 3.1a321.622 321.622 0 0 0-1.4 6h-2.2zm1.4-17.8c-.2.5-1.2 4.4-.4 2.6zm-26 17-11.7-.6 1.2-4.5 1.3-4.5h2.4c2 0 2.3 0 2.2.3v.3c.2 0 .3-.1.3-.3s.5-.2 1.6-.2c3.999.216 7.999.416 12 .6.2.1-.7 3.9-2 8.6 0 .6.3.6-7.4.2zm-5.2-6.2.3-1.7c-.1-.2-1.8 5.7-1.8 6.2 0 .4.8-2 1.5-4.5zm-10.6 5.5c-.9 0-1.4-.2-1.4-.3.1-.1 0-.3-.2-.3s-.3.2-.2.3c0 .2-1 .3-4 .1a38 38 0 0 1-9.9-.7l1.4-4.5 1.4-4.2H85c1.3 0 2.4 0 2.4-.2 0-.1-2.8-.3-4.3-.2-.4 0-.4-.2 1.1-4.7l1.4-4.2 5 .1c10.1.3 13 .5 13.2.6.1.1-.4 2-1 4.4l-1.3 4.2h-5a156.95 156.95 0 0 1-8.9-.2c0 .2 2.6.3 5.9.4l6.8.3 1 .2-1.3 4.3-1.3 4.6-.9.1-2.4-.1zm-24-.8-11.7-.6 1.6-4.6 1.6-4.5 4.4.2 14.4.6-1.4 4.6-1.5 4.5h-1.5l-6-.2zm4.3-5.3c.2-1-.3 0-.6 1v.7a5.002 5.002 0 0 0 .6-1.7zm-9-1c0-.4-.1-.4-.4.2l-.5 1.4c0 .6 0 .6.4-.2l.5-1.5zm-19 5.4c-2.735-.086-5.469-.22-8.2-.4l1.5-3.7 1.8-4.5c.3-.8.4-.9 1.4-.9 2.9 0 17.4.6 17.7.8.1 0-.2 1.4-1 3.7l-1.7 4.5-.3 1-1.5-.1-9.6-.4zm7.9-4.4c0-.2-.3.3-.6 1l-.6 1.9c0 .2.3-.3.6-1zm-22.3 4-13.8-.7.5-1.5c.4-.7.6-1.5.5-1.6 0-.2 0-.4.2-.5.2 0 .9-1.3 1.5-2.8l1.2-2.7h2.4c2.2 0 2.4 0 2.2.4-.1.4 0 .4.2.1a87.4 87.4 0 0 1 14 .3c.1 0-.6 2.1-1.6 4.6l-1.8 4.4zm3.9-8 .2-.8c-.1 0-1 2-1 2.4zm245 8c-2.3-.2-2.3-.2-2.3-2.7 0-1.5 0-1.5.7-1.6.6-.1.6-.1-.1-.1h-.8v-1.6c0-.9 0-1.7-.2-2 0-.3.3-.3 2.3-.4h2.3l-4.7-.2v-1l-.1-2-.2-.9 3.2.1c1.8.1 3.2 0 3.2 0 0-.2-1.4-.3-3.1-.3H279l-.1-1.8v-2l3.9.1 3.9.2.1.7.2 1.9c0 1 0 1.1-.6 1l-.8.1c0 .2.2.3.7.3.8 0 .9 0 .9.8l.1 2 .2 1-3.3.2 3.2.1.1 1 .2 1.8v1l-6 .2h3c1.5 0 3 .2 3 .3l.3 2 .2 1.9h-2.1l-4.1-.2zm-279.4-1-2.1-.1v-9.5l5.3.2c7.7.2 10.4.4 10.5.5 0 0-.3 1-.9 2a594.617 594.617 0 0 0-2.6 5.9l-.6 1.1H8.5zm253-.2-11.6-.4h-1.4v-1.5l.2-4.6.1-3.1 2.2.1h1.6c-.3-.2-1.3-.2-2.2-.3H243v-8.7l3 .1 8.8.3c3.2.1 6 .3 6 .4.1.1.2 2 .2 4.3v4.2l-13.6-.3 5.6.2 6.8.4 1.2.1v3.7l.2 4.5.1.7h-2.7l-3-.1zm-26.2-1-5.9-.2.2-4.3.3-4.6h1c1.3.1 12.5.4 12.3.2l-5.2-.3c-6.7-.2-8.2-.3-8.1-.8l.2-4.3.2-4 1.3.2c4.326.323 8.662.49 13 .5l2.3.1c1.1 0 1.3.1 1.3.5l-.1 4.3v4l-2.4-.2c-1.5 0-2.2 0-1.9.1l2.2.2c1 0 1.8.2 2 .3v4.5l-.2 4.2h-3.3l-9.2-.3zm-87.1-.6c-.2 0 2-10.1 2.3-11.3 0-.7.4-2.3.6-3.5 1.2-5.2 1.1-5.1 1.7-4.8a69.029 69.029 0 0 1-3 13.8c.2 0 .1 1.1-.3 3.2.7.8-1.8 4.6-1.3 2.6zm74.5.2-5.9-.3c-3.1 0-6-.2-6.2-.3-.6-.1-.5-.5.2-7.7l.2-1.3 1.1.1 6.4.3c.333-.068.666-.135 1-.2l-6.6-.3-2-.2.1-1.2.4-4.3.3-3 4.5.1c4.399.211 8.799.411 13.2.6v4.3l-.3 4.2h-2c-1.2 0-2 0-1.9.2l2 .1h1.8l-.1 3.7c0 2-.2 4-.3 4.5l-.1.8h-2.8zm-36.1-1.5c-4.992-.39-9.994-.623-15-.7l.7-4.5.7-4.4 2.3.1h2c0-.2-1.1-.3-2.2-.3-1.7 0-2 0-2-.4l.7-4.3.7-3.8h2.2c1.3 0 2 0 1.7-.2l-2.2-.2c-1 0-1.6 0-1.7-.2l.7-4.2.7-4h1.2c3.557.344 7.127.544 10.7.6h3l2.6.1-.2 1.6-.4 4.2-.3 2.5-2.9.3h1.4c.469-.008.937.026 1.4.1-.318 2.769-.65 5.535-1 8.3 0 .3-.5.4-1.7.4H182l1.7.1c1.9.1 1.8-.3 1 5l-.5 4h-1.6l-1.9-.1zm-1.6-9.3-5-.2H172l2.5.2 5.1.2h2.5zm.3-9h-6 2.1c1.2.2 3.1.2 4.2.2h2l-2.3-.1zm-19.9 17.4-12.9-.7.8-4.5.9-4.4.8.1 4.6.3 12.7.6-.6 4.3-.8 4.4c-1.833-.004-3.667-.004-5.5 0zm-141-2c4.072-8.618 8.039-17.29 11.9-26l5.1-11.6a26.952 26.952 0 0 0 1.8-4.9c0-1 .3-1.5.9-1.5l.6.1-3 6.5c-3.069 6.635-6.069 13.3-9 20a275.834 275.834 0 0 1-8.3 17.3zm90 0c-4.5-.1-6.3-.3-6.3-.5a56.931 56.931 0 0 1 2.6-8.5c.6-.2 18 .5 18 .7l-2 8.2c-.2.5-.5.5-12.3.1zm-36.1-1.3c-2.997-.214-5.998-.38-9-.5-.3-.2-.2-.7 2-7l.7-1.7 4 .1c4.733.208 9.466.408 14.2.6.2.2 0 1.4-1.1 4.5l-1.4 4.2h-2.4c-1.6 0-2.3 0-2.3-.3 0-.2 0-.2-.3 0l-.4.3s-1.9-.2-4-.2zm5.7-3.3c.5-1.4.9-2.6.8-2.7l-1.8 5.3c0 .5.2 0 1-2.6zm-8.9-.9c1.2-3 1.6-4.3 1.2-3.9l-1.3 3.2-1 3.6zm-19.2 3.3a584.572 584.572 0 0 1-6.8-.3l.1-.5a90.15 90.15 0 0 0 3.4-8 24 24 0 0 1 5.8-.1c4.263.266 8.53.466 12.8.6 0 .2-.8 2.5-2.2 6l-.9 2.6h-2.7zm-18.7-.6-6.9-.4h-1l1-2 2.5-5.7.4-1H29l16.6.6c.5.1.5 0-.7 2.9a61.95 61.95 0 0 0-2.2 5.6c0 .3-.4.3-11.3 0zm-26.4-1-4.4-.1v-3.1c0-2.9 0-3 .7-4.5l.7-1.4h4.8c0-.2-1-.2-2.3-.2-1.2 0-2.2 0-2.2-.2l2-4.3 2.2-4.3 3.6.2 9 .3 5.7.3-1.4 3.3-1.9 4.1-.5 1h-5.8a154.955 154.955 0 0 1-8-.3c0 .2 2.8.4 6.7.5 3.7 0 6.7.2 6.8.3l-.8 2.1-2 4.3-1 2.3H13zm154.4-3.5c-10.1-.4-10.9-.5-10.9-1l.8-4.2.8-3.8h5l-2.3-.2c-1.3 0-2.4-.2-2.5-.3 0-.1 0-1.2.3-2.4l.8-4 .3-1.7h1.1c.6 0 3 0 5.1.2 3.832.232 7.665.432 11.5.6l-.6 4.1-.7 4-1 .2-.9.2h1l.8.2c0 1-1.4 8.4-1.6 8.4 0 0-3.3 0-7-.3zm3-8.7c-5.4-.4-7.1-.4-7.1-.2a51.1 51.1 0 0 0 7.2.2zm-30 7.5c-4.5-.1-8.3-.3-8.4-.4l2-8.4 6.2.2c.466-.07.933-.136 1.4-.2a37.998 37.998 0 0 1-7.4-.5l1-4.1 1-4h4.4c0-.2-1-.2-2.2-.2h-2.1l.1-.7 1.9-7.2c.1-.2 16.8.4 17 .5a268.073 268.073 0 0 0-1.2 6.5l-.3 1.4-5.8-.2c-2.335 0-4.669-.066-7-.2a81.33 81.33 0 0 0 12.6.8l-.8 4.1-.8 4-2.2-.1c-1.5 0-2.2 0-2.2.2s.7.2 2.2.2c2 0 2.2 0 2 .5l-1 4.3-.7 3.8h-.7zm-15-.5a240.01 240.01 0 0 1-12.4-.6c-.2-.1 2-8 2.3-8.2.2-.2 13.6.2 16.6.5l1.4.1-1 4.2-1.2 4.2h-1.8l-4-.2zm-24.2-.9a70.873 70.873 0 0 1-7.4-.4L87 138l1.4-4.2H93c0-.2-3.8-.4-4.4-.2.446-1.53.88-3.063 1.3-4.6l1.2-3.9 2.3.2c1.7 0 2.3 0 2-.1-.2-.2-1.2-.3-2.2-.3-1.9 0-2 0-1.8-.5l1.3-4 1.1-3.5h2.3a6.998 6.998 0 0 0 2.2 0c0-.1-1-.2-2.2-.2H94l.2-.7 1.3-3.8 1-3.3h4.4l-2-.1-2-.3a58.262 58.262 0 0 1 2.4-7.7l1.1-3.8 1.2-3.5 1 .2c5.157.414 10.33.647 15.5.7l-2 7.2-4.6-.2c-2.534-.023-5.068-.09-7.6-.2.3.2 2.6.4 11.5.6.5 0 .4.6-.1 2.4l-1 3.3-.5 1.7h-2.2l-2.2.1 2 .1c1.2 0 2.2.2 2.2.3l-1 3.8-1 3.7H105c-7-.2-6.7-.1 1.2.2l5 .3c.2 0-1.6 6.5-2 7.5-.1.3-.4.4-.6.3l-12.6-.3s3 .3 6.5.4l6.4.3-1.1 4-1.2 4H102c-2.9.05-5.802.016-8.7-.1 0 .1 2.4.3 5.5.4 7 .2 7.8.3 7.6.8l-1.4 4-1 3.8h-1.8l-9.1-.4zm16-33.3a45 45 0 0 0-8-.4c0 .1 1.6.3 3.5.4 1.467-.009 2.933-.009 4.4 0zM103 101c-1.4-.1-3.4-.2-3.4 0 0 .1.9.2 2 .2 1 0 1.7-.1 1.4-.2zm-30 40.8-6.7-.3c0-.1 3-8.3 3.2-8.4.1-.2 14.8.3 16.9.5l1.2.1L85 142h-2.6c-1.5 0-5.7 0-9.3-.2zm-17.5-.7c-2.9 0-6-.2-6.9-.3l-1.6-.2 1.6-4c1.7-4.2 2-4.6 2.2-4.5l5.8.3a109.8 109.8 0 0 1 8.9.4c1.6 0 3 0 3 .2l-.8 2.6-1.6 4.2-.6 1.7-2.3-.1zm6.7-3.8-.3.4-.6 1.6c0 .3.1.1.3-.4.313-.484.518-1.03.6-1.6zm-25.8 3.1c-3 0-6.2-.2-7.2-.3l-1.7-.2.4-1 2-4.2 1.4-3.3 2.1.1c3.602.061 7.203.195 10.8.4l5.2.3c.1.1-.6 2-1.5 4.4l-1.7 4.1H44zm212.4-.7a46.016 46.016 0 0 1-5.7-.4v-8.2h4.2c0-.2-1-.3-2.2-.3h-2l.1-8h2.6l14.5.6.3 4 .1 4H258c3 .2 2.7-.2 2.8 4.5v4h-3.2c-1.7 0-5.7 0-8.7-.2zm6.1-8.4-4.2-.2h-2.9l3 .2 4.2.2h1.2zm-20.3 8-7.8-.4-2.4-.2.2-2.6.2-4.2v-1.4l5.7.2c3.2 0 7.1.2 8.8.3l3 .1v8.2l-1.2.1c-.7 0-3.6 0-6.5-.2zm-234-4.8v-4.3l2.4.1 2.6.3A40.424 40.424 0 0 1 1 139c-.4 0-.4-.1-.4-4.4zm215 4c-8.6-.4-9.8-.5-9.6-1l.4-4 .3-3.7h1.2c.7 0 4.6 0 8.8.3l7.5.2-.1 2.6-.2 4.2v1.6h-1.7l-6.6-.3zm-20.2-1a819.528 819.528 0 0 0-7.1-.2h-1l.4-2 .5-4.2.1-2.1 4.6.2c4.333.206 8.666.406 13 .6l-.2 4.1-.4 4h-1.8l-8.1-.3zm-81.8-3.2c-5-.2-6-.3-6-.6s2-7.8 2.2-8l17.6.7-2 8h-2.8c-1.6.1-5.6 0-9-.1zm-37.8-1.5-6-.4 1.4-4.2 1.5-4 1.7.1a371.4 371.4 0 0 0 16 .8l-1.2 4-1.3 4h-3.1zm.6-6.2c0-.2-.2.2-.4.9l-.5 1.5c0 .2.2-.1.5-.8zm-17.6 5.5c-2.8 0-5.8-.3-6.6-.4l-1.5-.1 3.3-8h2.4c1.5 0 2.2 0 2-.1l-2.2-.2c-1.5 0-1.9-.1-1.9-.4l1-2.8 1.5-3.7.5-1.2 4.5.2c10.4.3 12.2.4 12.7.5.4.1.4.3-1 4.1l-1.5 4-2.3-.1h-1.5c.4.2 1.4.3 2.2.3 1.4 0 1.5 0 1.4.4a1103.8 1103.8 0 0 1-2.3 6.3l-.6 1.5h-2.5zm6.8-8.4-4.3-.1h-2.5l1.9.1 4.3.2h2.4zM39 131.4c-3.9-.1-7-.3-7.1-.4-.2-.1 1-3 2.4-5.7l.8-2.1c0-.2.4-.3 1-.3l17 .8-1.4 4-1.6 4h-2l-9-.3zm-25.5-.9c-3.6-.1-6.6-.3-6.6-.4 0-.2 3.8-8 4-8.1.2-.2 17.7.5 17.9.7l-1.2 3-1.8 4-.5 1.1h-2.6zm219 0-7.4-.4v-.9l.3-4 .1-3h2.4l2.3-.1-4.6-.3V119l.3-4 .1-1h1.6c.9.1 3.9.3 6.7.3s5.8.2 6.8.3l1.7.1v7.7l-12.4-.2 6 .3c3.4.1 6.2.3 6.3.4v4l-.2 4-1.3-.1zm-229.2-.3L.6 130v-8.5l4.6.1 4.7.3-4 8.3-2.7-.1zm210-.4-6.3-.5.1-3.5.3-3.9c0-.5 0-.5 2.3-.4 2.565.055-1.08-.043-2-.3v-1l.3-4c.2-2.4.3-2.8.7-2.8l13.27.347c.1-.1-12.77-.747-13.17-.747s-.6-.1-.6-.3c.1-.2.3-1.8.4-3.7l.4-3.4c0-.1 13.6.4 15.2.6h1.3v1.2c0 .7 0 2.3-.2 3.7l-.1 2.6-3.233.047 3.333.153-.2 3.4c-.2 4.8 0 4.4-2.6 4.4l-12.8-.2 12.6.4c1.2 0 2.2.2 2.3.3v4l-.2 3.8H222l-8.6-.2zm-18.9-.8c-3-.1-5.7-.3-5.8-.4s.3-4.2.8-7.1l.1-.8h4.7l-2.3-.2c-2.3-.2-2.3-.2-2.2-.8.1-1.8.8-6.8.8-7l4 .1c7 .3 8.7.3 8.5.2 0-.1-2.9-.3-6.2-.4a89.984 89.984 0 0 1-6.2-.3c0-.1.8-7.3 1-7.4l16.6.7a52.296 52.296 0 0 1-.6 6.9c0 .5-.2.5-2.2.5l-2 .1h1.9l2 .3c.1.1 0 1.7-.1 3.6a113.742 113.742 0 0 0-.4 3.8c0 .3-.1.4-.6.3l-6.4-.2c-6.5-.2-5.8 0 1.7.2l5.2.4-.2 3.4-.4 4c0 .5 0 .5-3 .4zm-17.8-.7-6.3-.5c-.2 0 .7-5.7 1-7.3.2-.5.3-.5 2.2-.5 2.6 0 2.6-.2 0-.3-1 0-1.9 0-2-.2l.4-2.6.6-3.8c.1-1.3.2-1.3 1-1.3.7 0 .7 0 0-.2-.8-.1-.8.4 0-4.9l.5-2.5 1.5-.1 1.6-.2h-1.5c-.9 0-1.5-.1-1.5-.2l1-6.5c.2-.5.3-.6 2-.6l1.9-.1h-1.9l-1.8-.2 1.2-6.8c.2-.2 14.2.3 15.3.5.6.1.8.2.8.7 0 1-.8 6.3-1 6.2-2-.017-4-.017-6 0l6 .5-.3 3.7-.5 3.5h-2.2l1 .1c1.3.1 1.2-.2.7 4.3l-.4 3.3h-4.4l2.1.2c1.8 0 2.1.1 2.1.4a45.696 45.696 0 0 1-1.2 7.8c.2.1.2.9-.1 3l-.5 4-.1 1h-2.5zm9.8-8h-2.6zm-4.5-.2c-.5-.2-6.2-.3-6.2-.1l3.2.2h3zm1.6-8H181zm3.6-7.7h-2.5zm-5.5-.3h-2c-.6 0-.2.1 1 .1h1zm-22.2 23.4-7.3-.5.6-4c.6-2.8.9-3.9 1.1-3.9l16.5.8c.5 0 .5 0-.1 4l-.7 4s-2.8 0-10.1-.4zm-36.5-1.5a302.944 302.944 0 0 1-12.9-.6s1.3-5 2-7l.2-.9 4.2.2c4.333.205 8.666.405 13 .6l-.6 3.2c-1.2 4.5-1.3 4.8-1.4 4.7zm-38.4-1.4L73 124s2.7-7.5 2.9-7.7c.1-.2 8.7 0 15.2.5l2.3.1-1.1 3.3-1.3 4c-.3.7.3.7-6.4.4zm-32.8-1.4-8.3-.3-7.9-.5c0-.2 2.2-5.2 3-6.7l.7-1.3 1 .1 8.6.5c5.2.2 7.7.3 7.7.5L55 119a673.227 673.227 0 0 0-1.5 3.8c-.2.5-.8.7-2 .4zm200.8-.4c-3.6 0-7-.2-7.8-.3l-1.3-.1v-7.8l4 .2 8.4.3 4.4.1.2 2.2c.2 3.5.2 5.5-.1 5.5h-7.8zm-103-.6.6-3.5.8-4.4c.1-1.2.2-1.4.7-1.5.5 0 .5 0 .5.7a50.008 50.008 0 0 1-2.2 9c-.3.1-.4 0-.4-.3zM21.7 122l-10.5-.4a16.99 16.99 0 0 1 1.7-4l2-4.1 3.9.2c4.566.181 9.133.348 13.7.5l-1.6 4-1.8 3.9h-3.6zM5 121.4l-3.9-.2c-.5 0-.5 0-.5-4.1v-4.2l1.8.2c3.861.27 7.73.437 11.6.5l-1.8 4-2 4h-.9c-.5 0-2.4 0-4.3-.2zm159.2-2c-3.497-.28-6.997-.513-10.5-.7 0 0 .1-1.4.5-3 .3-1.7.5-3 .4-3.2 0-.1 0-.3.2-.3l.2-.7c0-.5.1-.5 1.5-.3 5.193.37 10.39.603 15.6.7l-.6 3.7-.6 3.8zm-24.9-1.2-6.4-.2c-3 0-2.8.4-1.5-4.4.8-3 .9-3.4 1.4-3.4l.5-.1c0-.1-.2-.2-.5-.2-.4 0-.5-.2-.4-.5l1-3.7.7-3.4 1 .2c.5 0 3.4.2 3.3.1l-3.4-.4c-.4 0-.7-.1-.7-.2a120.9 120.9 0 0 1 1.7-7h2c4.766.282 9.532.548 14.3.8l-.5 3c-.4 1.7-.7 3.2-.6 3.4 0 .5 0 .5-2.6.5-1.7 0-1.8 0-.8.2l2 .2h1l-.7 3.7-.8 3.7H146c.5.2 1.5.3 2.1.3 1 0 1.1 0 1 .5l-.8 3.8-.7 3.3h-2.1c-1.2 0-4 0-6.2-.2zm3-7.9-5.7-.1h-3.2l3.4.1 5.8.2h2.4l-2.6-.2zm.3-7.6h1.8c-3.058-.214-8.552-.104-6-.1zM118 117.5l-5.6-.3c-.2-.1 1.9-7.2 2.1-7.4s3.6-.1 8.5 0c6.3.3 8.2.5 8.3.7l-.6 3.2c-.4 1.5-.8 3-.8 3.5l-.2.6h-3zm-33.8-1.3c-2.737-.1-5.471-.267-8.2-.5l.7-2.3 1.3-3.7.5-1.6 5 .2c6 .2 7.5.3 7.7.7.1.2.2.1.2-.2v-.4c-4.13-.293-8.263-.527-12.4-.7 0-.1.4-1.8 1.1-3.7l1.3-3.6 5 .2c2.4.01 4.8.044 7.2.1l-5.8-.3-5.6-.4-.6-.1 2.6-7 4 .1c4.199.226 8.399.426 12.6.6l-1.1 3.6-1.2 3.5-4 .1h1.9l2 .3-1.2 3.7-1.1 3.5-4.6.3h4.3l-.2.7c0 .4-.6 2.2-1.2 4-1 2.8-1.1 3.2-1.6 3.2zm-1.8-6.3a9.5 9.5 0 0 0-1.1 3l.6-1.3c.3-.9.6-1.6.5-1.7zm-18.6 5.4-6.2-.4c-.2 0 2.8-7.3 3-7.5h1.8c5.062.331 10.13.565 15.2.7.2 0-.2 1.4-1.1 3.8l-1.4 3.8h-2.6zm-15.7-.7a263.619 263.619 0 0 1-6.7-.3l-2.2-.2 1.1-2.7a13.01 13.01 0 0 0 1.1-3c0-.2 0-.5.3-.6.2 0 .4-.4.6-.7.2-.6.2-.7 1.8-.5 5.16.384 10.33.65 15.5.8.1.1-.5 1.8-1.3 3.8l-1.5 3.7h-2zm203.9 0-6.2-.1h-2.4v-7.6l6.2.2c3.5 0 7.3.2 8.5.3l2.2.1v7.4h-2.2l-6.1-.2zm-18.3-.5-7.8-.5V110l.3-3.6 4.6-.1-4.5-.2.1-3.7.2-3.7 13.9.6 2.5.1v7.2h-2.5a237.835 237.835 0 0 1-9.6-.2l12 .6v3.7l-.1 3.7h-.7l-8.4-.2zm-211.3-.5-7.3-.3 1.9-4 2-3.8 2.3.1c4.96.377 9.928.644 14.9.8l-1.6 3.7-1.7 3.7h-1.7c-.9 0-4.9 0-8.8-.2zM7.2 113l-5.5-.2H.6v-8l3.5.1 13.6.6c.4 0 0 .8-1.5 3.9l-1.9 3.8h-1.4zm154.5-1.8c-2.138-.1-4.272-.266-6.4-.5-.1-.1 1.2-6.7 1.4-7.1 5.539-.04 11.08.16 16.6.6l-.5 3.7-.6 3.7h-2.1zm-34.4-1.5-6-.2c-7-.2-6.7-.2-6.6-.7a63.702 63.702 0 0 1 2.2-7.4l.9-3.3c.5-1.6.8-3 .8-3.3 0-.4.3-.4 4.4-.3 12.2.5 12.3.5 12.2.9l-.7 3.5-.8 3.1-4.1.3h2c1.8 0 2 .1 1.9.5a80.493 80.493 0 0 0-1.5 5.8l-.4 1.3h-2.1c-.736-.03-1.47-.097-2.2-.2zm2.2-7.5c0-.2-.2-.2-.4-.2l-5.8-.1-5.3-.2 5 .3c2.167.052 4.334.12 6.5.2zm-55.6 5.1c-.1-.3-.2-.3-.3 0a88.8 88.8 0 0 1-12.7-.3c0-.2.5-1.8 1.3-3.8l1.5-3.6H65c5.8.2 15.6.7 15.6 1l-1.3 3.6-1.3 3.5h-2c-1.6 0-2 0-2.1-.4zm-21-.6c-3.067-.117-6.134-.25-9.2-.4-1.2 0-1.2 0 .1-2.8l1.5-3.2.6-1.6 4 .2c2.3.1 3.9.3 4 .5h.3c0-.2.2-.3.3-.3l4.3.3c2.2 0 4 .2 4.1.2l-1.1 3-1.5 3.7c-.3.7-.3.7-2 .6-1 0-3.4 0-5.4-.2zm194.9 0c-2.2 0-4-.2-4.2-.2v-7.2l3.3-.2h-3.2v-7h1.7l14.4.5.4 7-13-.3 6.4.3 6.4.4v7h-4zm-216.8-1-11.8-.5 3.4-7.4h4.3l-2-.2c-2.3 0-2.3.3 0-4.2l1.5-3h2l2.2-.1c0-.1-.5-.2-1.4-.2-2.8 0-2.8.1-1-3.6l1.6-3.3h1.3c1.4-.1 15 .6 15.2.7 0 .1-1.3 3.4-2.4 5.6l-.6 1.1-5.3-.1a255.106 255.106 0 0 1-7-.2c0 .1 2.3.3 5.2.4 2.8 0 5.6.2 6.1.3l1 .1-.5.8-1.7 3.5L40 98l-6.3-.1h-2l6.2.4c2 .2 2 0 .5 3.1l-1.4 3c-.3.9-.6 1.2-1 1.3zm186-.1-8.2-.4c.105-2.344.339-4.681.7-7 0-.2 1.1-.3 3-.2h3.1l-6-.4c-.1-.2.5-6.7.6-6.9l16 .7v3.5l-.2 3.4-4.1.1 4 .2-.2 3.5c0 2-.2 3.6-.3 3.7l-8.3-.2zm3.1-7.5h-2.6c-.8 0-.2.1 1.2.1h1.4zM9 105l-8-.5a159.177 159.177 0 0 0 3.3-6.6l.3-.7h2.2c3.3 0 14.8.6 15 .8l-1.6 3.8c-1.8 3.5-1.8 3.6-2.5 3.6zm193.8.1-10.2-.4c-1 0-1 0-.5-4.3l.4-3 3.8.1 8 .3c3.4.2 4.4.3 4.5.5 0 .2 0 1.9-.2 3.7l-.3 3.4h-.9zm-38.8-1.6-7.1-.4c.3-2.356.734-4.693 1.3-7h1.9l1.8-.1c0-.2-.8-.3-1.7-.3h-1.8c0-.2 1.1-6.6 1.3-6.8s15.9.5 16 .7l-.2 2.5-.5 3.3-.2 1h-3c-3.2-.121-6.401-.255-9.6-.4 4.143.082 8.281.349 12.4.8l-.4 3.7-.6 3.4h-1.2zM.6 100v-3h1a8.002 8.002 0 0 1 1.6.1c.5.2.5.2-.5 2l-1.6 3-.5 1zm70.2-.3-6.8-.4s.5-1.7 1.3-3.6l1.4-3.4H68c2.9-.035 5.8-.035 8.7 0a278.02 278.02 0 0 0-9.8-.5s2.6-6.5 2.8-6.7h5.1l11.2.6-2.4 7-2-.1h-1.9l2 .3h1.7l-1.3 3.6-1.2 3.5h-1.7zM57.1 99a951.84 951.84 0 0 0-11-.6l1.5-3.5 1.6-3.5h2.6c3.4.1 14 .6 14 .8l-1.2 3.6-1.4 3.5h-1.5L57 99zm176.6-.4-7-.3c-.2 0 .2-6.6.4-6.8h5.5l7.6.3c3 0 3 0 3 1.6l-.1 3.4-.2 2.2h-1.1zm-35-1.3c-3.3-.1-6-.3-6.1-.4s.5-6.1.7-6.7h2c1.3 0 1.9 0 1.9.2s0 .2.2 0c.1-.2 1.6-.2 6 0 3.1.1 5.8.3 5.9.4l-.1 3.5-.3 3.3h-2l-8.1-.3zm-187.6-.4L5 96.6c-.2 0 3.3-6.6 3.6-6.9 5.597.265 11.2.465 16.8.6.1.1-.6 1.7-1.5 3.6l-1.7 3.5-2.6-.1zM.6 93v-4l3.4.2c1.9 0 3.5.2 3.5.2.1.1-3 6.3-3.4 6.8-.1.2-.8.3-1.9.3H.6zm140 2a20.998 20.998 0 0 1-4.3-.3s.2-1.6.7-3.5l.8-3.3h1.6l6 .3c3.7.1 4.3.2 4.4.5.1.4.1.4.1 0 0-.3.3-.4 2-.2l2 .2-1 5.4-.3 1.2h-4zm-15.1-.6a96.998 96.998 0 0 1-6.5-.3c0-.1.3-1.7 1.5-5.6l.4-1.4 2 .1c1 .1 2 .3 2 .5.2.1.2.1.2-.1 0-.3.6-.3 2.9-.2 3.033.178 6.066.345 9.1.5l-.8 3.5-.8 3.4h-1.9zM45.2 94l1.3-2.8-.5 1.3c-.6 1.4-.8 1.8-.8 1.5zm62.8-.3-6.1-.3c-.2 0 1.7-6.5 2-6.9.2-.2 16 .5 16.2.7l-.9 3.4-1 3.3h-2c-1.3 0-5 0-8.2-.2zm-17.5-.8-6.1-.3c-.1 0 2.3-6.7 2.5-6.8h2c1.8.1 1.8.1 1.7.8-.1.6-.1.6.2 0l.2-.8 2.3.2c3.265.18 6.532.314 9.8.4l-1 3.5-1.2 3.5-2.2-.1zM59 91.5c-4-.2-5.2-.4-5-.6 0-.2-.1-.3-.3-.3l-.2.2c0 .2-.9.3-2 .3-1.2 0-2.1 0-2.1-.2l1.4-3.2 1.1-2.6.5-1h1.8c1 .2 3.7.3 6 .4 4.1.1 4.2.1 4 .6 0 .5 0 .5.3 0 .3-.4.6-.5 1-.4h1.9c.8.1 1.3.2 1.3.4l-1.3 3.4-1.3 3.2h-1l-6-.2zm-12.5-.8.7-1.7.7-1.2c0 .2-.3 1-.7 1.7-.3.8-.7 1.3-.7 1.2zm-31-1.2c-3.5-.1-6.4-.3-6.5-.4l1.6-3.5 1.8-3.3h2.4c4.706.244 9.407.577 14.1 1l-1.6 3.4-1.5 3.2h-2zM2 89l-1.4-.1v-7.3l1.8.2c2.996.233 5.997.4 9 .5 0 0-.6 1.6-1.6 3.4L8.1 89z" fill="none" stroke="#b9b9b9" stroke-linecap="round" stroke-linejoin="round" style="paint-order:normal"/></svg>