<?xml version="1.0" encoding="UTF-8"?>
<svg width="1386" height="909.6" version="1.1" viewBox="0 0 366.6 240.7" xmlns="http://www.w3.org/2000/svg"><path d="m0.0338 176.8 0.9349-0.1346c4.783-1.17-0.2034 5.092 22.48 0.8996l17.54 4.458c2.738-0.1022 15.32 4.757 15.78 5.368l2.841 0.3182c1.039-0.2649 0.9336 1.622 1.384-24.74 0.1508-8.821 0.4125-22.84 0.5816-31.14s0.2478-17.12 0.1748-19.59l-0.1327-4.48-0.8941-0.4877v-1.829l-0.5799-0.5652c-0.8023-0.7819-16.82-8.401-23.76-11.3-8.064-3.371-13.09-5.158-24.61-8.757l-0.9519-0.2972 0.8957 0.1465c2.709 0.4431 16.56 5.118 34.87 11.77 6.507 2.363 12.48 4.527 13.28 4.808l1.449 0.5106 2.857-0.5148 4.466-3.289c2.456-1.809 6.572-4.688 9.101-6.464l7.045-4.946c1.346-0.945 26.2-20.15 26.32-20.15 0.345 0-23.42 19.51-23.8 19.98-0.1822 0.2247-1.622 1.525-3.175 2.916l-5.503 4.929-2.659 2.421c-1.047 0.9537-3.572 2.302-3.572 2.302-1.964 1.266-4.171 2.848-4.903 3.516l-1.331 1.214 0.0752 3.382 0.7127 0.4835c0.392 0.2659 0.9956 0.552 1.341 0.6358l0.6286 0.1523 0.1319-0.3349c0.1915-0.4862 0.284-2.54 0.1146-2.542-0.0791-1e-3 -0.2851-0.2993-0.458-0.6626 0 0-0.3846-0.427-0.3143-0.6605 0.0265-0.0881 0.1576-0.0949 0.2364-0.1424 0.13-0.0783 1.096 0.714 0.7971 0.4042-0.1813-0.1878 0.4705 0.3017 0.5607 0.5466 0.2063 0.5601-0.1651 1.783-0.1651 1.783-0.0908 0.9805-0.2125 1.932-0.2703 2.114l-0.1052 0.3314c-0.701-0.2766-4.793 0.2078-2.644-0.2724 1.837 3.402 4.665 29.66 7.872 53.06-2.777-19.47-9.052-46.24-9.052-46.24s0.5594 2.112 0.5281 15.26l-0.0526 22.07-0.0686 32.59 2.978 1.606h1.581l4.177 12.58 7.367 3.839c0.7964 0.4151 3.086 2.244 4.146 3.129 0 0 2.019 7.189 3.289 10.7 1.336 3.689 1.27 8.7 4.547 10.86 0.2094 0.1379 0.5022-0.0259 0.7522-7e-3 1.527 0.1158 4.536 0.7349 4.536 0.7349l4.85 1.238c4.94 0.9518 7.429 0.6165 10.19 0.7018 1.763 0.1341 0.7638 2.33 2.52 1.75 0 0 1.723-0.7151 1.915-0.941s0.872-0.6426 1.51-0.9261c0.6383-0.2834 1.234 0.554 1.325 0.2764l1.589-0.958v-1.67l0.1101-2.895c0.1248-0.7878 0.997-27.95 0.9835-30.63l-6e-3 -1.127h-0.4431c-0.2437 0-1.146 0.6859-2.006 1.524l-1.563 1.524-3.502 1.963c-4.277 2.398-6.159 3.521-10.03 5.982-1.645 1.047-3.359 2.124-3.808 2.394l-0.8159 0.4909 0.408-0.3966c0.2244-0.2181 2.962-2.178 6.083-4.355s6.426-4.487 7.343-5.133c0.9175-0.6462 2.953-2.055 4.524-3.132 1.571-1.076 3.005-2.233 3.187-2.57l0.3312-0.6135-0.2495-1.494c-0.1372-0.822-0.3198-1.605-0.4056-1.741-0.0858-0.1354-0.1536-2.132-0.1505-4.437 3e-3 -2.305-0.0619-6.125-0.1681-8.489l-0.1737-4.299-1.797-0.5721c-0.9885-0.3146-1.92-0.6851-2.069-0.8231l-0.272-0.2511 0.8159 0.1917c0.4488 0.1054 1.288 0.3517 1.865 0.5472 0.5769 0.1955 1.144 0.298 1.261 0.2278 0.1166-0.0702 0.1694-0.9343 0.1174-1.92l-0.0945-1.792 0.6592 3.96 2.176 0.6128c1.197 0.337 5.909 1.556 10.47 2.71s9.028 2.346 9.923 2.65l1.628 0.5536 1.466-0.3139 1.038-1.123c0.5711-0.6178 1.406-1.624 1.854-2.235 0.4488-0.6116 2.468-2.526 4.488-4.255 2.019-1.729 4.834-4.193 6.255-5.478 1.421-1.284 3.318-2.994 4.216-3.799 0.8975-0.8055 2.289-2.069 3.092-2.808 0.8032-0.7388 1.415-1.198 1.36-1.022-0.0553 0.1769-2.854 3.042-6.22 6.367s-8.055 8.041-10.42 10.48l-4.302 4.433 1.397 0.6202v2.036h-1.632v0.5082c0 0.2795 0.247 1.07 0.5488 1.756l0.5488 1.248 0.2686 2.684c0.1477 1.476 0.3961 3.937 0.5519 5.468s0.6525 5.444 1.104 8.696c0.8779 6.327 0.9577 8.609 0.1409 4.029-0.8149-4.569-2.876-14.65-3.025-14.8-0.0758-0.0739-0.1845-0.0847-0.2415-0.024s-0.1584 7.363-0.2253 16.23l-0.1217 16.12s4.112 1.571 6.567 1.149c5.527-0.9506 9.138-1.803 9.138-2.181 0-0.085 7.631-0.9443 7.779-1.178 0.0884-0.1394 0.6985-0.5108 1.223-0.2535 4.921 2.979 5.846 8.743 8.05 13.88l4.79-0.5968c3.329-0.4149 6.61 3.595 12.26 2.155 3.554 0.9609 5.011 1.568 5.328 1.076 0.1174-0.1823 0.2329-0.6893 0.2566-1.127 0.0237-0.4374 0.1177-2.108 0.209-3.711 0.0912-1.604 0.2906-5.541 0.443-8.748 0.3451-7.262 1.263-25.73 1.646-33.12 0.1582-3.053 0.3437-5.64 0.4122-5.748 0.0685-0.1081 7e-3 -0.2671-0.1358-0.3534l-0.2604-0.1569-1.677 3.386c-0.9222 1.862-2.199 4.639-2.837 6.17-0.6384 1.531-2.042 4.752-3.12 7.158-3.75 8.372-8.201 19.57-10.54 26.51-0.752 2.232-1.396 3.223-0.7675 1.182 2.267-7.362 8.44-24.02 14.88-40.15l2.169-5.432-0.3672-2.864-2.235-2.945c-1.229-1.62-3.003-4.059-3.942-5.42-4.392-6.368-10.14-13.27-16.83-20.19-2.182-2.26-3.139-3.334-2.126-2.386 1.591 1.488 5.775 5.796 9.528 9.809 0.6137 0.6561 3.392 3.698 6.174 6.76s5.333 5.806 5.669 6.097c0.3362 0.2916 1.461 1.696 2.498 3.12 1.038 1.425 2.35 3.065 2.917 3.645l1.03 1.055h0.8696c0.4783 0 2.792-0.4678 5.142-1.04 2.35-0.5717 6.438-1.534 9.086-2.138 6.903-1.576 19.26-5.032 26.03-7.285 1.111-0.3691 2.09-0.6674 2.176-0.663 0.5197 0.0268-1.809 0.8275-11.54 3.967-5.983 1.931-13.45 4.44-16.59 5.577-3.141 1.137-6.323 2.152-7.071 2.256-1.83 0.2541-1.192-0.2761-0.9569 0.8197l0.8797 0.3605-0.1654 0.4201c-0.091 0.231 0.0562 1.002-0.1654 1.628v1.208l-4.811-0.2674-0.1779 6.128c-0.585 20.15-1.27 40.87-1.41 42.62-0.1704 2.136-0.1562 2.17 1.027 2.446 0.7852-0.3533 10.73 1.704 13.29 1.006 3.044-0.83 10.1-2.209 13.19-2.844 6.356-1.306 6.157 1.178 23.44-3.723 2.879-0.0671 5.899 1.169 7.015 1.205 3.193 0.1032 20.53-5.487 24.85-5.602 2.985-1.051 1.29-2.579 5.708-2.579l0.1569-2.452c0.0863-1.349 0.2212-8.298 0.2997-15.44 0.0786-7.144 0.2035-16.03 0.2777-19.75 0.0742-3.718 0.2682-17.26 0.4312-30.09 0.1629-12.83 0.3769-24.91 0.4754-26.84l0.0424-3.512 0.0334-7.489c0.0184-4.12 0.2045-11.24 0.2466-15.82l0.0765-8.329-1.406-1.179c-0.0583-0.5937-0.1165-1.187-0.1748-1.781l-1.655-0.158-2.164 0.7681c-1.19 0.4225-3.694 1.339-5.564 2.037s-4.256 1.489-5.303 1.757l-1.904 0.4878-8.295 0.5436c-13.42 0.8793-24.96 2.107-45.01 4.791-15.63 2.091-15.75 2.103-16.23 1.627l-0.3043-0.2966 0.6533-0.2769c0.5406-0.2291 18.91-3.598 26.76-4.907 8.597-1.434 21.7-3.963 36.31-7.007 3.515-0.7326 9.757-1.813 13.87-2.401 8.592-1.228 8.633-1.237 8.84-1.872 0.4892-0.7169 1.153-0.9375 1.922-1.293l0.5762-1.009c0.7528-1.318 1.227-2.923 2.568-8.692 1.49-6.412 1.388-6.151 6.497-16.57 4.04-8.241 4.799-9.831 7.528-15.77 2.932-6.384 16.13-36.4 16.13-36.68 0-0.3205 1.227-1.266 1.587-1.364h0.3276l-0.1811 0.729c-0.1686 0.6785-6.348 16.75-8.384 21.8-3.139 7.794-9.993 26.04-13.86 36.89-1.124 3.156-3.456 9.15-5.182 13.32-1.726 4.169-3.36 7.923-3.137 8.113v0.532h1.086l4.081 3.779v4.127l2.435 1.893c3.15 2.448 4.539 3.968 7.038 7.698 1.123 1.677 2.22 3.251 2.436 3.501l0.6511 0.7514c0.3775 0.4357 8.232 12.34 17.9 25.04 1.443 1.895 5.215 6.866 8.383 11.05l5.76 7.6v1.105h-0.4016c-0.2209 0-0.8635-0.5669-1.428-1.26-0.5644-0.6928-2.246-2.691-3.736-4.44-2.804-3.292-8.589-10.11-13.28-15.64-5.884-6.944-12.31-14.29-16.46-18.8l-0.954-1.039-0.5448-0.4962c-0.029-0.1035-1.311-1.553-2.849-3.222-2.881-3.125-6.02-6.846-7.853-9.307-0.5749-0.7721-1.276-1.548-1.558-1.725l-0.5124-0.3207 0.2275 0.7535c0.1252 0.4144 0.2516 6.002 0.2809 12.42 0.1001 21.89 0.3795 102 0.38 109v6.941l0.5439 0.1683c0.299 0.0925 3.389 0.2178 6.867 0.2785 5.636 1.849 4.65-0.9977 12.35 4.855 3.797 2.887 16.55-1.757 17.29-1.757 0.2923 0 8.742-1.213 9.191-1.65 4.157-0.7853 6.776-1.769 7.777-2.163 1.962-0.7717 6.801-0.6322 7.311-1.521m-229 1.218 2.063-1.084 3.505-0.1689c1.928-0.0929 3.532-0.195 3.565-0.2269 0.24-0.2314 1.301-41.23 1.088-42.05-0.0951-0.3645-0.3326-0.8755-0.5277-1.136l-0.3548-0.4728-5.433-0.5668-3.808-1.458c-4.545-1.74-14.47-5.027-14.63-4.846-0.0626 0.0705 0.1167 2.633 0.3985 5.695s0.6614 7.645 0.8436 10.18l0.3313 4.618 2.884 0.7817-0.2776 0.7052 1.144 0.293c0.6295 0.1611 2.736 1.196 4.68 2.299 5.724 3.248 6.411 3.623 9.606 5.241 1.675 0.8484 3.008 1.58 2.961 1.625-0.0468 0.0456-4.344-1.822-9.55-4.151s-9.751-4.412-9.95-4.234h-0.4847l-0.161 6.429c-0.0885 3.536-0.2329 11.2-0.3209 17.03l-0.1599 10.6 5.969-0.2552c3.08-0.1317 5.484-4.251 6.619-4.847zm171-132.6c-0.0826-0.496-0.4352-1.232-0.7835-1.634-2.494-2.885-2.673-2.999-2.673-1.705-0.1124 1.237-0.3593 0.5324-0.8159 0.2651-0.6461 0-0.1761 0.8071 1.02 1.751 0.7105 0.561 1.414 1.157 1.564 1.324 0.3199 0.3581 1.271 0.9902 1.599 0.8925l0.2396 8e-3 -0.1501-0.9018z" fill="none" stroke="#a9a9a9" stroke-dashoffset="6.35" style="mix-blend-mode:normal"/></svg>
