<?xml version="1.0" encoding="UTF-8" standalone="no"?>
<!-- Created with Inkscape (http://www.inkscape.org/) -->

<svg
   width="1920"
   height="1080"
   version="1.1"
   viewBox="0 0 508 285.8"
   id="svg1024"
   sodipodi:docname="vector6.svg"
   inkscape:version="1.1.1 (3bf5ae0d25, 2021-09-20)"
   xmlns:inkscape="http://www.inkscape.org/namespaces/inkscape"
   xmlns:sodipodi="http://sodipodi.sourceforge.net/DTD/sodipodi-0.dtd"
   xmlns="http://www.w3.org/2000/svg"
   xmlns:svg="http://www.w3.org/2000/svg">
  <defs
     id="defs1028" />
  <sodipodi:namedview
     id="namedview1026"
     pagecolor="#ffffff"
     bordercolor="#666666"
     borderopacity="1.0"
     inkscape:pageshadow="2"
     inkscape:pageopacity="0.0"
     inkscape:pagecheckerboard="0"
     showgrid="false"
     inkscape:snap-global="false"
     inkscape:zoom="0.54874432"
     inkscape:cx="751.7162"
     inkscape:cy="999.55476"
     inkscape:window-width="1366"
     inkscape:window-height="704"
     inkscape:window-x="0"
     inkscape:window-y="0"
     inkscape:window-maximized="1"
     inkscape:current-layer="svg1024" />
  <path
     d="m -0.87542955,193.00435 0.9349,-0.1346 c 0.3795,-0.0928 1.03200005,-0.102 1.45100005,-0.0204 1.665,0.3241 11.4632215,0.87404 13.1212215,1.78024 l 0.7182,-0.339 c 0.5882,-0.7056 2.638,-0.0611 2.328,0.5808 -0.08009,0.1263 0.2288,0.2297 0.6863,0.2297 0.4576,-3e-5 0.873596,-0.12328 0.832,-0.2602 v -0.2601 l 1.292,0.14 c 0.710502,0.077 5.454571,1.3215 5.966571,1.3232 1.247,0.3411 6.724739,1.96331 7.869739,1.86531 0.2817,-0.0154 0.5994,-0.1592 0.706,-0.3195 l 0.1938,-0.2913 c 2.738,-0.1022 5.347176,5.89481 8.081176,6.10041 l 3.202,0.1579 0.1647,1.614 0.8159,0.2127 c 0.4488,0.117 1.317,0.2554 1.929,0.3075 0.6123,0.0521 1.224,0.1588 1.36,0.2371 0.1356,0.0783 0.6403,0.0839 1.122,0.0125 l 0.875,-0.1298 1.821,-2.18 c 0.4242,-0.5079 0.8019,-0.6456 1.267,-0.0346 l 2.840804,0.31816 c 1.039,-0.2649 0.9336,1.622 1.384,-24.74 0.1508,-8.821 0.4125,-22.84 0.5816,-31.14 0.1691,-8.3 0.2478,-17.12 0.1748,-19.59 l -0.1327,-4.48 -0.8941,-0.4877 v -1.829 l -0.5799,-0.5652 c -0.80227,-0.78194 -16.82,-8.401 -23.76,-11.3 -8.064,-3.371 -13.09,-5.158 -24.61,-8.757 l -0.9518996,-0.2972 0.8956996,0.1465 c 2.70902,0.44309 16.56,5.118 34.87,11.77 6.507,2.363 12.48,4.527 13.28,4.808 l 1.449,0.5106 2.857,-0.5148 4.466,-3.289 c 2.456,-1.809 6.571627,-4.68824 9.101,-6.464 l 7.045,-4.946 c 1.3461,-0.94504 26.195128,-20.151988 26.322128,-20.151988 0.345,0 -23.420828,19.513988 -23.800228,19.981988 -0.1822,0.2247 -1.22025,2.19028 -3.175,2.916 l -5.503,4.929 -2.659,2.421 c -1.0474,0.95365 -3.572,2.302 -3.572,2.302 -1.964,1.266 -4.171,2.848 -4.903,3.516 l -1.331,1.214 0.0752,3.382 0.7127,0.4835 c 0.391983,0.26592 0.9956,0.552 1.341,0.6358 l 0.6286,0.1523 0.1319,-0.3349 c 0.191474,-0.48616 0.284,-2.54 0.1146,-2.542 -0.0791,-10e-4 -0.28514,-0.29933 -0.458,-0.6626 0,0 -0.38455,-0.42702 -0.3143,-0.6605 0.0265,-0.0881 0.1576,-0.0949 0.2364,-0.1424 0.13,-0.0783 1.09624,0.71402 0.7971,0.4042 -0.1813,-0.18777 0.47049,0.30167 0.5607,0.5466 0.20629,0.56009 -0.1651,1.783 -0.1651,1.783 -0.0908,0.9805 -0.212522,1.93199 -0.2703,2.114 l -0.1052,0.3314 c -0.70096,-0.27663 -4.79264,0.20776 -2.64399,-0.27235 1.83701,3.40167 4.66506,29.65587 7.87206,53.05814 -2.77707,-19.47496 -9.05174,-46.23655 -9.05174,-46.23655 0,0 0.564108,2.11199 0.52807,15.25556 l -0.0526,22.07 -0.0686,32.5918 2.978296,1.60624 h 1.581 l 4.177448,12.58331 7.366659,3.83924 c 0.796429,0.41507 3.086381,2.24362 4.146381,3.12862 l 3.288999,10.69618 4.547199,10.85816 0.7522,-0.007 4.536258,0.73491 4.849988,1.23792 4.48529,5.23957 0.1626,0.4129 c 0.0894,0.22708 0.296,0.4129 0.4591,0.4129 0.1631,0 0.2403,-0.0895 0.1715,-0.1988 -0.0688,-0.1094 10.85899,8.2631 10.85899,8.2631 1.65994,6.24906 8.8273,7.20504 11.53423,10.24721 23.12923,5.00032 23.69314,3.30735 22.37546,-0.0657 -0.3194,-2.344 0.005,0.0286 0.9938,-1.534 l 0.2911,-0.5302 h 0.6371 c 0.3504,0 0.7944,-0.1849 0.9868,-0.4108 0.1924,-0.2259 0.872,-0.6426 1.51,-0.9261 0.6383,-0.2834 1.234,0.554 1.325,0.2764 l 1.58879,-0.95795 v -1.67 l 0.1101,-2.895 c 0.1248,-0.7878 0.997,-27.95 0.9835,-30.63 l -0.006,-1.127 h -0.4431 c -0.2437,0 -1.146,0.6859 -2.006,1.524 l -1.563,1.524 -3.502,1.963 c -4.277,2.398 -6.159,3.521 -10.03,5.982 -1.645,1.047 -3.359,2.124 -3.808,2.394 l -0.8159,0.4909 0.408,-0.3966 c 0.22438,-0.21811 2.962,-2.178 6.083,-4.355 3.121,-2.177 6.426,-4.487 7.343,-5.133 0.9175,-0.6462 2.953,-2.055 4.524,-3.132 1.571,-1.076 3.005,-2.233 3.187,-2.57 l 0.3312,-0.6135 -0.2495,-1.494 c -0.1372,-0.822 -0.3198,-1.605 -0.4056,-1.741 -0.0858,-0.1354 -0.1536,-2.132 -0.1505,-4.437 0.003,-2.305 -0.38064,-6.13264 -0.1681,-8.489 l -0.1737,-4.299 -1.797,-0.5721 c -0.9885,-0.3146 -1.92,-0.6851 -2.069,-0.8231 l -0.272,-0.2511 0.8159,0.1917 c 0.4488,0.1054 1.288,0.3517 1.865,0.5472 0.5769,0.1955 1.144,0.298 1.261,0.2278 0.1166,-0.0702 -0.0775,-0.95238 0.1174,-1.92 l -0.0945,-1.792 0.6592,3.96 2.176,0.6128 c 1.197,0.337 5.909,1.556 10.47,2.71 4.561,1.154 9.028,2.346 9.923,2.65 l 1.628,0.5536 1.466,-0.3139 1.038,-1.123 c 0.5711,-0.6178 1.406,-1.624 1.854,-2.235 0.4488,-0.6116 2.468,-2.526 4.488,-4.255 2.019,-1.729 4.834,-4.193 6.255,-5.478 1.421,-1.284 3.318,-2.994 4.216,-3.799 0.8975,-0.8055 2.289,-2.069 3.092,-2.808 0.8032,-0.7388 1.415,-1.198 1.36,-1.022 -0.0553,0.1769 -2.854,3.042 -6.22,6.367 -3.366,3.325 -8.055,8.041 -10.42,10.48 l -4.302,4.433 1.397,0.6202 v 2.036 h -1.632 v 0.5082 c 0,0.2795 0.247,1.07 0.5488,1.756 l 0.5488,1.248 0.2686,2.684 c 0.14771,1.476 0.3961,3.937 0.5519,5.468 0.1558,1.531 0.6525,5.444 1.104,8.696 0.8779,6.327 0.9577,8.609 0.1409,4.029 -0.8149,-4.569 -2.876,-14.65 -3.025,-14.8 -0.0758,-0.0739 -0.1845,-0.0847 -0.2415,-0.024 -0.057,0.0607 -0.53243,7.36806 -0.2253,16.23 l -0.1217,16.12 2.14457,1.03325 c 0.0867,-0.2552 0.3869,-0.4639 0.6672,-0.4639 0.2803,0 1.43773,1.52546 1.52613,1.38606 0.0884,-0.1394 0.3246,-0.1922 0.5249,-0.1173 0.2003,0.0749 0.5548,-0.0496 0.7878,-0.2767 0.233,-0.2271 0.6455,-0.4129 0.9166,-0.4129 0.5822,0 9.138,-1.803 9.138,-2.181 0,-0.1436 0.1797,-0.194 0.3992,-0.1118 0.2196,0.0822 0.4716,0.0353 0.56,-0.1042 0.0884,-0.1394 0.69853,-0.51084 1.223,-0.2535 l 14.9308,7.32599 c -0.5544,-3.985 26.14134,9.50715 31.35944,9.44615 1.002,-0.0119 2.144,0.0646 2.539,0.1698 l 0.7182,0.1914 0.1531,-0.2414 0.1531,-0.2414 2.656,0.0813 c 0.12354,0.004 2.82979,0.14599 3.042,0.2259 l 0.3866,0.1446 0.7705,-1.072 h 0.8144 l 40.74757,-3.56249 0.7955,1.856 h 1.166 c 0.6412,0 1.29,-0.1208 1.441,-0.2686 l 0.2755,-0.2686 0.8751,0.2974 c 0.48131,0.16357 1.116,0.236 1.411,0.1609 l 0.5356,-0.1365 v 0.7252 l 1.076,0.2825 c 0.59199,0.15542 7.306,0.9709 7.39,1.104 0.184,0.2901 2.318,0.2986 2.318,0.009 0,-0.1116 0.2544,-0.2678 0.5654,-0.347 3.554,0.9609 1.511,0.3485 3.841,1.22 l 0.2404,-0.37 0.2404,-0.37 0.004,0.4639 c 0.005,0.534 0.6848,0.624 1.002,0.1326 0.1174,-0.1823 0.2329,-0.6893 0.2566,-1.127 0.0237,-0.4374 0.1177,-2.108 0.209,-3.711 0.0912,-1.604 0.2906,-5.541 0.443,-8.748 0.3451,-7.262 1.263,-25.73 1.646,-33.12 0.1582,-3.053 0.3437,-5.64 0.4122,-5.748 0.0685,-0.1081 0.007,-0.2671 -0.1358,-0.3534 l -0.2604,-0.1569 -1.677,3.386 c -0.92219,1.86199 -2.199,4.639 -2.837,6.17 -0.6384,1.531 -2.042,4.752 -3.12,7.158 -3.75,8.372 -8.201,19.57 -10.54,26.51 -0.752,2.232 -1.396,3.223 -0.7675,1.182 2.267,-7.362 8.44,-24.02 14.88,-40.15 l 2.169,-5.432 -0.1836,-1.432 -0.1836,-1.432 -2.235,-2.945 c -1.229,-1.62 -3.003,-4.059 -3.942,-5.42 -4.392,-6.368 -10.14,-13.27 -16.83,-20.19 -2.182,-2.26 -3.139,-3.334 -2.126,-2.386 1.591,1.488 5.775,5.796 9.528,9.809 0.6137,0.6561 3.392,3.698 6.174,6.76 2.782,3.062 5.333,5.806 5.669,6.097 0.3362,0.2916 1.461,1.696 2.498,3.12 1.038,1.425 2.35,3.065 2.917,3.645 l 1.03,1.055 h 0.8696 c 0.4783,0 2.792,-0.4678 5.142,-1.04 2.35,-0.5717 6.438,-1.534 9.086,-2.138 6.903,-1.576 19.26,-5.032 26.03,-7.285 1.111,-0.3691 2.09,-0.6674 2.176,-0.663 0.5197,0.0268 -1.809,0.8275 -11.54,3.967 -5.983,1.931 -13.45,4.44 -16.59,5.577 -3.141,1.137 -6.323,2.152 -7.071,2.256 -1.83,0.2541 -2.05438,0.59239 -0.9569,0.8197 l 0.8797,0.3605 -0.1654,0.4201 c -0.091,0.231 -0.55092,1.08703 -0.1654,1.628 v 1.208 l -4.811,-0.2674 -0.1779,6.128 c -0.58496,20.15 -1.27,40.87 -1.41,42.62 -0.1704,2.136 -0.1562,2.17 1.027,2.446 l 0.7479,0.1742 v -0.5196 c 0,-0.2858 0.121,-0.5925 0.269,-0.6816 0.4238,-0.2553 2.141,0.6561 2.33,1.237 0.2479,0.7613 -0.0351,0.8846 -0.8442,0.3679 -0.3907,-0.2495 -0.88941,-0.38679 -1.108,-0.305 l -0.3977,0.1488 0.2963,0.5396 c 0.3646,1.576 2.507,1.213 3.569,0.2636 h 0.306 c -0.6457,3.026 3.575,1.262 3.677,0.9278 0.026,1.196 1.132,0.6901 1.574,0.4316 0.4573,-0.2718 1.283,-0.5457 1.836,-0.6085 l 1.004,-0.1143 v 0.971 l 1.224,0.4464 0.1874,-0.2874 0.1874,-0.2875 26.4435,-5.05561 0.1563,0.2464 c 1.27333,2.00734 13.36663,-0.5008 15.4144,-0.4528 7.03061,1.31121 1.56441,1.16704 3.41497,5.16275 l 1.428,-0.0154 1.028,-0.5015 9.4488,-2.6793 c 2.879,-0.0671 4.343,-0.0784 5.459,-0.0423 0.6838,0.0221 1.388,-0.0467 1.564,-0.1529 0.1764,-0.1062 0.4197,-0.1335 0.5407,-0.0606 0.2446,0.1473 19.30816,-5.29739 22.74416,-5.38849 5.532,0.6529 2.353,-2.516 5.053,-2.579 h 0.6546 l 0.1569,-2.452 c 0.0863,-1.349 0.2212,-8.298 0.2997,-15.44 0.0786,-7.144 0.2035,-16.03 0.2777,-19.75 0.0742,-3.718 0.2682,-17.26 0.4312,-30.09 0.1629,-12.83 0.3769,-24.91 0.4754,-26.84 l 0.0424,-3.512 0.0334,-7.489 c 0.0184,-4.12002 0.27516,-11.2399 0.2466,-15.82 l 0.0765,-8.329 -1.406,-1.179 c -0.0583,-0.5937 -0.1165,-1.187 -0.1748,-1.781 l -1.655,-0.158 -2.164,0.7681 c -1.19,0.4225 -3.694,1.339 -5.564,2.037 -1.87,0.698 -4.256,1.489 -5.303,1.757 l -1.904,0.4878 -8.295,0.5436 c -13.42,0.8793 -24.96,2.107 -45.01,4.791 -15.63,2.091 -15.75,2.103 -16.23,1.627 l -0.3043,-0.2966 0.6533,-0.2769 c 0.54059,-0.22913 18.91,-3.598 26.76,-4.907 8.597,-1.434 21.7,-3.963 36.31,-7.007 3.515,-0.7326 9.757,-1.813 13.87,-2.401 8.592,-1.228 8.633,-1.237 8.84,-1.872 0.4892,-0.7169 1.153,-0.9375 1.922,-1.293 l 0.5762,-1.009 c 0.7528,-1.318 1.227,-2.92301 2.568,-8.69201 1.49,-6.412 1.388,-6.151 6.497,-16.569997 4.04,-8.241 4.799,-9.831 7.528,-15.77 2.932,-6.384 16.13,-36.4 16.13,-36.68 0,-0.3205 1.22941,-1.257897 1.587,-1.364 h 0.3276 l -0.1811,0.729 c -0.16856,0.678511 -6.348,16.75 -8.384,21.8 -3.139,7.794 -9.993,26.04 -13.86,36.889997 -1.124,3.156 -3.456,9.15 -5.182,13.32 -1.726,4.16901 -3.137,7.82001 -3.137,8.11301 v 0.532 h 1.086 l 4.081,3.779 v 4.127 l 2.435,1.893 c 3.15,2.448 4.539,3.968 7.038,7.698 1.123,1.677 2.21971,3.25139 2.436,3.501 l 0.6511,0.7514 c 0.37754,0.4357 8.232,12.34 17.9,25.04 1.443,1.895 5.215,6.866 8.383,11.05 l 5.76,7.6 v 1.105 h -0.4016 c -0.2209,0 -0.8635,-0.5669 -1.428,-1.26 -0.5644,-0.6928 -2.246,-2.691 -3.736,-4.44 -2.804,-3.292 -8.589,-10.11 -13.28,-15.64 -5.884,-6.944 -12.31,-14.29 -16.46,-18.8 l -0.954,-1.039 -0.5448,-0.4962 c -0.029,-0.1035 -1.311,-1.553 -2.849,-3.222 -2.881,-3.125 -6.02,-6.846 -7.853,-9.307 -0.5749,-0.7721 -1.276,-1.548 -1.558,-1.725 l -0.5124,-0.3207 0.2275,0.7535 c 0.1252,0.4144 0.2516,6.002 0.2809,12.42 0.1001,21.89 0.3795,102 0.38,109 v 6.941 l 0.5439,0.1683 c 0.29907,0.0925 3.389,0.2178 6.867,0.2785 5.636,1.849 -0.6625,0.84726 2.8315,1.34746 v -0.6282 l 0.4299,0.419 c 0.2365,0.2305 0.534,0.3563 0.6611,0.2797 0.1272,-0.0766 0.3162,-0.005 0.42,0.1584 l 0.1888,0.2977 0.2338,-0.3597 c 0.4978,-4.06 -0.76496,-0.33225 3.06104,1.51975 0,1.981 0.39673,2.48984 0.9411,1.588 l 0.4699,-0.5061 0.4504,0.161 c 0.24767,0.0885 0.5369,0.2993 0.6427,0.4684 0.1058,0.1691 0.6787,0.326 1.273,0.3488 l 1.081,0.0413 0.1175,-0.5938 0.1175,-0.5938 0.074,1.193 -1.8747,0.48308 c -3.84474,0.99073 7.284,-0.081 7.724,-0.3105 0.6039,-0.315 -0.4521,0.5128 -0.4521,0.5128 3.365,-0.2127 6.303,-0.4203 6.527,-0.4782 1.557,-0.4018 1.904,-0.5381 1.904,-0.7472 0,-0.13 0.19532,-0.19071 0.424,-0.2364 h 0.424 l -0.3362,0.5302 c 0.4261,0.0137 -0.0476,0.1977 1.495,0 2.684,-0.344 6.905,-1.221 7.795,-2.267 0.18,-0.2114 0.5665,-0.3844 0.8589,-0.3844 0.2923,0 0.8987,-0.3579 1.347,-0.7953 4.157,-0.7853 3.77,-0.8589 8.094,-1.17 0.2115,-0.0127 0.4421,-0.1904 0.5124,-0.3948 l 0.1278,-0.3716 -0.8524,0.1662 c -1.052,0.20511 -1.106,10e-4 -0.1044,-0.3931 0.9303,-0.366 2.023,-0.5182 1.859,-0.2588 -0.0676,0.1066 -0.0199,0.3567 0.1064,0.5556 l 0.2294,0.3617 0.4326,-0.4217 c 0.238,-0.232 0.4326,-0.5242 0.4326,-0.6494 0,-0.1252 0.3978,-0.2537 0.8839,-0.2856 1.532,-0.1004 2.369,-0.3478 2.613,-0.7729 m -343.21778,0.8513 c 0.2244,-0.0935 0.60793,0.0109 0.7479,-0.1165 l 0.34,0.0534 v -1.048 l 0.6119,-0.1958 c 0.33661,-0.10771 1.02731,0.0852 1.39,-0.144 l 0.7777,0.0518 1.126,-0.625 c 0.61927,-0.34374 1.558,-0.8667 2.086,-1.162 0.5281,-0.2955 1.888,-1.025 3.023,-1.621 l 2.063,-1.084 3.505,-0.1689 c 1.928,-0.0929 3.532,-0.195 3.565,-0.2269 0.24,-0.2314 1.301,-41.23 1.088,-42.05 -0.0951,-0.3645 -0.3326,-0.8755 -0.5277,-1.136 l -0.3548,-0.4728 -5.433,-0.5668 -3.808,-1.458 c -4.545,-1.74 -14.47,-5.027 -14.63,-4.846 -0.0626,0.0705 0.1167,2.633 0.3985,5.695 0.2818,3.062 0.6614,7.645 0.8436,10.18 l 0.3313,4.618 2.884,0.7817 -0.2776,0.7052 1.144,0.293 c 0.6295,0.1611 2.736,1.196 4.68,2.299 5.724,3.248 6.411,3.623 9.606,5.241 1.675,0.8484 3.008,1.58 2.961,1.625 -0.0468,0.0456 -4.344,-1.822 -9.55,-4.151 -5.206,-2.329 -9.99495,-3.97082 -9.95,-4.234 h -0.4847 l -0.161,6.429 c -0.0885,3.536 -0.2329,11.2 -0.3209,17.03 l -0.1599,10.6 -0.2553,0.0889 c -0.14042,0.0489 -0.1902,0.19161 -0.1106,0.3172 l 0.1447,0.2283 1.149,-0.3879 c 0.6318,-0.2133 1.332,-0.4644 1.557,-0.5578 z M 451.40921,132.38182 c -0.0826,-0.496 -0.4352,-1.232 -0.7835,-1.634 -2.494,-2.885 -2.673,-2.999 -2.673,-1.705 -0.1124,1.237 -0.3593,0.5324 -0.8159,0.2651 -0.6461,0 -0.1761,0.8071 1.02,1.751 0.7105,0.561 1.414,1.157 1.564,1.324 0.3199,0.3581 1.28814,1.03555 1.599,0.8925 l 0.2396,0.008 -0.1501,-0.9018 z"
     fill="none"
     stroke="#a9a9a9"
     stroke-dashoffset="6.35"
     style="mix-blend-mode:normal"
     id="path1022"
     sodipodi:nodetypes="ccccccsscscccccccssccccccssccccscccscccccssssscsccccsccsssssssssccccscccccscccccccssscccscsscccccccsccccccsscccccccscccccscscccscccccccccsscccccsccsscscssccsssssssssccccccsccccccsccscccscsccccccscsssccscccscccccccccsccccscccccccsccsccscccsccsscccccccccccccscccccscscccssscccsscccccsccccccscccccccccsscscccsccccccssccccsccccccccccccccscccssccccscsscccccssccssccsssccscsscccsscccsccsscscccscccccccsccccccccssccccsscsccccccccsccc" />
</svg>
