<?xml version="1.0" encoding="UTF-8"?>
<!-- Created with Inkscape (http://www.inkscape.org/) -->
<svg width="1920" height="1080" version="1.1" viewBox="0 0 508 285.75" xmlns="http://www.w3.org/2000/svg"><path d="m-3.375 290.34 3.7538-6.9689 0.93487-0.13455c0.37946-0.0928 1.0324-0.10201 1.4509-0.0204l0.76101 0.14838 1.3735-0.69462 0.95143 0.51901 0.71824-0.33903c0.39503-0.18646 0.90182-0.35081 1.1262-0.36515 0.5264-0.0337 1.3909 0.64703 1.2014 0.94595-0.08009 0.12632 0.22876 0.22969 0.68635 0.22969 0.45758-3e-5 0.83197-0.11707 0.83197-0.26015v-0.26011l1.2919 0.14002c0.71053 0.077 1.711 0.14144 2.2233 0.14318l0.93142 3e-3 0.81035-0.58396c0.4457-0.32118 1.0408-0.59663 1.3226-0.61209 0.28172-0.0154 0.59942-0.15923 0.70599-0.31947l0.19378-0.29134 3.1531-0.16065c1.7342-0.0883 4.0225-0.0896 5.0851-3e-3l3.2021 0.15787 0.16474 1.6137 0.81592 0.21271c0.44876 0.117 1.3169 0.2554 1.9292 0.30752 0.61229 0.0521 1.2242 0.15884 1.3599 0.2371 0.13564 0.0783 0.64034 0.0839 1.1216 0.0125l0.87497-0.12979 1.8207-2.1799c0.42423-0.50792 0.80189-0.64559 1.2671-0.0346 0.34939 0.45891 0.75321 1.5669 1.7043 1.5669 0.26714 0 0.94082-1.4487 1.8531-1.7208l4.4433-1.3253 2.3451-0.0864 0.94852 0.70518 0.94852 0.70519h1.5808l0.3098 0.66275 0.3098 0.66275h0.82544c0.8981 0 1.6663 0.34793 2.7219 1.2327l0.67993 0.56991 0.36126-1.9102 0.75224-7e-3 1.0724-2.0297 1.0413 0.70336 0.41514-0.15527 0.41514-0.15526 0.16254 0.41286c0.0894 0.22708 0.296 0.41289 0.45911 0.41289 0.16311 0 0.24027-0.0895 0.17148-0.19882-0.0688-0.10936 0.92303-0.19883 2.2041-0.19883h2.3291l0.10965 0.3177 0.10964 0.31772 0.66194-0.294c0.36406-0.1617 0.66187-0.36429 0.66178-0.45024-9e-5 -0.0859 15.635 3.2085 19.113 3.1935 8.5318-0.0367 8.092-0.028 9.1452-0.18228l0.64592-0.0946 0.50997-1.0219c0.28049-0.56206 0.7025-0.0872 0.7025-0.0872l0.60448 0.38807c2.4395-1.9045 0.86644 3.9636 2.6486-1.1554-0.31939-2.3437 0.1039 0.0872 0.99385-1.5337l0.29111-0.53019h0.63706c0.35038 0 0.79445-0.18486 0.98681-0.41078 0.19236-0.22591 0.87197-0.64265 1.5102-0.92606 0.63827-0.28342 1.2345-0.74244 1.3248-1.02l0.16435-0.50475 0.49811 0.12698c0.6802 0.17338 3.2469-0.99987 3.4416-1.5732 0.0867-0.25516 0.3869-0.46392 0.66716-0.46392s0.5819-0.11407 0.67031-0.25352c0.0884-0.13944 0.32463-0.19222 0.52493-0.1173 0.2003 0.0749 0.5548-0.0496 0.78778-0.27669 0.23298-0.22708 0.64547-0.41289 0.91663-0.41289 0.58215 0 3.3534-1.8028 3.3534-2.1814 0-0.14363 0.17966-0.19398 0.39924-0.11185 0.21959 0.0822 0.47159 0.0353 0.56-0.10418 0.0884-0.13944 0.63877-0.25352 1.223-0.25352h1.0623l0.29455-0.53645 0.29454-0.53645-0.3554-0.34643c-0.19547-0.19053-0.48718-0.3036-0.64824-0.25126-0.16107 0.0523-0.58833-0.0141-0.94949-0.14761l-0.65663-0.24278 1.0229-0.19249c0.94221-0.17732 1.6987-0.66261 1.033-0.66261-0.15841 0-0.28803-0.1193-0.28803-0.2651 0-0.14581 0.35993-0.2651 0.79987-0.2651 0.43993 0 0.87551-0.11929 0.96796-0.2651 0.0924-0.1458 0.47993-0.2651 0.86107-0.2651h0.69297l-0.30066 0.7637 1.8211-0.0215c1.0016-0.0119 2.1443 0.0646 2.5393 0.16982l0.71825 0.19137 0.15308-0.24145 0.15308-0.24142 2.6558 0.0813c1.4607 0.0447 2.8298 0.14636 3.0424 0.22589l0.38656 0.14459 0.38526-0.53614 0.38526-0.53613h1.6288l0.39773 0.92784 0.39773 0.92785h1.1658c0.64121 0 1.2898-0.12086 1.4414-0.26857l0.27554-0.2686 0.87513 0.29736c0.48132 0.16357 1.1161 0.23594 1.4107 0.16086l0.53556-0.13652v0.72523l1.0764 0.28251c0.59202 0.1554 1.1452 0.39108 1.2293 0.52373 0.18395 0.29012 2.3178 0.29855 2.3178 9e-3 0-0.11161 0.25445-0.26778 0.56543-0.34704l0.56543-0.14414-0.13033 0.33106c-0.0717 0.1821 0.10223 0.47264 0.38648 0.64565l0.5168 0.31459v-0.90112l0.3667 0.48881 0.36671 0.48884 0.33178-0.19988c0.18247-0.10991 0.26758-0.36292 0.18912-0.5622-0.0785-0.1993-0.0256-0.43285 0.11744-0.51903l0.2601-0.15668v0.55417c0 0.30478 0.19593 0.62743 0.4354 0.71701l0.43541 0.16285 0.24035-0.37 0.24036-0.37 4e-3 0.46393c5e-3 0.53398 0.68484 0.62399 1.0015 0.13255 0.11745-0.18226 0.23293-0.68926 0.25663-1.1267 0.0237-0.43742 0.11773-2.1075 0.20897-3.7114 0.0912-1.6038 0.29061-5.5406 0.44305-8.7483 0.34514-7.2624 1.2626-25.727 1.6457-33.121 0.15818-3.0531 0.34367-5.6395 0.4122-5.7476 0.0685-0.10807 7e-3 -0.26709-0.13579-0.35336l-0.2604-0.15687-1.6767 3.386c-0.92217 1.8623-2.199 4.6386-2.8374 6.1695-0.63839 1.531-2.0423 4.7519-3.1197 7.1577-3.7497 8.3724-8.2006 19.567-10.54 26.51-0.75201 2.2315-1.396 3.2231-0.76754 1.1818 2.2666-7.3622 8.44-24.015 14.883-40.148l2.1692-5.4315-0.18361-1.4324-0.1836-1.4324-2.235-2.9448c-1.2293-1.6198-3.0032-4.0587-3.942-5.42-4.3918-6.3679-10.142-13.267-16.828-20.191-2.1823-2.26-3.1392-3.3336-2.1264-2.3859 1.5906 1.4884 5.7748 5.7959 9.528 9.8087 0.61367 0.65612 3.3919 3.6981 6.1737 6.76s5.3331 5.8057 5.6693 6.0973c0.33623 0.29161 1.4605 1.6958 2.4984 3.1204 1.0379 1.4246 2.3504 3.0649 2.9166 3.6451l1.0295 1.0549h0.86959c0.47828 0 2.792-0.46777 5.1416-1.0395 2.3496-0.57173 6.4382-1.534 9.0858-2.1385 6.9028-1.5758 19.256-5.0325 26.035-7.2851 1.1107-0.36908 2.0898-0.66743 2.1758-0.66299 0.5197 0.0268-1.8093 0.82749-11.538 3.9668-5.9834 1.9307-13.449 4.4405-16.59 5.5774-3.1413 1.1369-6.3234 2.152-7.0713 2.2559-1.8297 0.25411-1.9938 0.39471-0.9569 0.81967l0.8797 0.36053-0.16538 0.42009c-0.091 0.23104-0.16538 0.96369-0.16538 1.6281v1.208l-4.8107-0.26736-0.17787 6.1279c-0.58484 20.149-1.2702 40.871-1.4097 42.62-0.17041 2.1365-0.15615 2.1705 1.0269 2.4461l0.74792 0.17425v-0.51959c0-0.2858 0.12104-0.59252 0.26897-0.68165 0.42375-0.25526 2.1406 0.65612 2.3296 1.2367 0.2479 0.76134-0.0351 0.88464-0.84424 0.36786-0.39071-0.24954-0.88936-0.38678-1.1081-0.30495l-0.39772 0.14875 0.29628 0.53961c0.16295 0.2968 0.2375 0.63231 0.16566 0.74561-0.0718 0.11331-0.0163 0.37925 0.12342 0.59099l0.25403 0.385 0.3354-1.1929h0.46024c0.25313 0 0.69782 0.17515 0.98818 0.38922 0.71854 0.52974 0.93589 0.5009 0.93589-0.12412 0-0.29161 0.13769-0.5302 0.30597-0.5302h0.30597l-0.16107 0.78501c-0.16746 0.81613 0.1946 1.3558 0.45901 0.68419l0.15096-0.38344 0.62546 0.11678c0.34401 0.0642 0.75706 0.29137 0.9179 0.5048l0.29243 0.38805 0.57691-0.14705c0.31731-0.0809 0.63047-0.34359 0.69592-0.58377l0.11901-0.43673 0.0315 0.46393c0.0405 0.59581 0.50252 0.58613 1.543-0.0323 0.45732-0.27183 1.2834-0.54568 1.8358-0.60854l1.0043-0.11428v0.971l1.2239 0.44638 0.18736-0.28745 0.18738-0.28747 0.49994 0.44102 0.49994 0.44099 1.3451-0.67192 0.48536 0.28206 0.48534 0.28207 1.613-1.795v1.6624h0.68422c0.80707 0 2.8514-0.58828 2.8514-0.82053 0-0.0887 0.37059-0.53922 0.82353-1.0012l0.82354-0.83997 0.56413 0.29429c0.31028 0.16187 0.82063 0.22891 1.1341 0.14898 0.5782-0.14737 1.2782 0.22279 1.2782 0.67595v0.24827l-0.33997-0.19907-0.33997-0.19909 0.38396 0.46109 0.38395 0.46109 0.24869-0.34394 0.24869-0.34391 0.13795 0.33137c0.0759 0.18225 0.29634 0.33137 0.48994 0.33137 0.19359 0 0.50691 0.18197 0.69626 0.40433l0.34427 0.40436 0.44699-0.39431 0.44698-0.39428 0.60191 0.15341 0.60191 0.15344v-0.29604c0-0.16279 0.18358-0.29601 0.40796-0.29601h0.40796l8e-3 -0.92784 0.20703 0.31745 0.20704 0.31743 2.5634-0.1046 0.13042 0.33137c0.18014 0.45769 0.87173 0.41642 1.0606-0.0633l0.15539-0.39468 1.4827 0.54945 0.73911-0.53264 0.73912-0.53263 0.16338 0.41501 0.16338 0.41498 0.40889-0.15293c0.22489-0.0841 0.71546-0.0167 1.0902 0.14962l0.68127 0.30256 0.38397-0.50849 0.38397-0.50851 0.37434 0.94136 0.34444-0.27861 0.34443-0.27862 0.15112 0.38383 0.15111 0.38384 0.56058-0.14292c0.30832-0.0786 0.56058-0.27212 0.56058-0.43007v-0.2872l0.63381 0.61778 0.33912-0.45204 0.33911-0.45205 0.33954 0.72637c0.3983 0.85208 0.79617 0.95011 0.79617 0.19617 0-0.2916 0.12239-0.53019 0.27198-0.53019 0.14958 0 0.27197 0.11929 0.27197 0.2651 0 0.1458 0.43982 0.26509 0.97737 0.26509h0.97736l0.14225-0.53019c0.14018-0.52251 0.62275-0.75188 0.62275-0.29601 0 0.12881 0.32755 0.29524 0.7279 0.36984l0.7279 0.13562 0.32411-0.31592c0.17826-0.17374 0.4099-0.5794 0.51477-0.90144 0.22654-0.69575 1.4565-2.1733 1.8091-2.1733 0.41246 0 1.1892 0.8867 1.7052 1.9468 0.57859 1.1885 1.0654 1.4268 1.9606 0.95977l0.66159-0.34513v-1.0021l0.27197 0.16383c0.14959 0.0901 0.27198 0.3954 0.27198 0.67839 0 0.28302 0.0918 0.51058 0.20397 0.50573 0.43722-0.0188 1.4599-1.0516 1.2966-1.3093l-0.17278-0.2725h0.5056c0.27808 0 0.64648-0.13732 0.81867-0.30515s0.8698-0.38752 1.5502-0.48818l1.2372-0.183v0.35561c0 0.19559 0.17974 0.35563 0.39942 0.35563h0.39943l-0.14236 0.36159-0.14236 0.36162 0.86482 0.16858c1.4465 0.28198 1.8841 0.19662 2.5427-0.49608l0.63199-0.66471 0.66025 0.77544 0.58874-0.3195c0.32381-0.17573 0.8004-0.48486 1.0591-0.687l0.47034-0.36751 0.48157 0.55133c0.26486 0.30322 0.71821 0.58788 1.0074 0.63261l0.52587 0.0813 0.15406-0.58851 0.15406-0.58852 0.40796 0.25309c0.22438 0.1392 0.69158 0.25491 1.0382 0.25714l0.63026 4e-3 -0.17264-0.5302c-0.25874-0.79461 0.26995-0.63865 0.6594 0.1945l0.33876 0.7247 0.78547-0.92352c0.43201-0.50793 0.78877-0.7659 0.79279-0.57322 4e-3 0.19267 0.18216 0.52073 0.39585 0.72902 0.42245 0.41178 0.73966 0.49958 0.63137 0.17478-0.0374-0.11217 0.20738-0.49256 0.54394-0.8453l0.61194-0.64132v1.1472l0.61194-0.22443c0.33657-0.12346 0.99712-0.1684 1.4679-0.0999l0.85596 0.12454 1.6877-1.7214v0.87393l0.61194-8e-3c0.74369-0.0103 1.5137-0.54425 1.3726-0.95194-0.0566-0.16367 0.16819-0.36674 0.49963-0.45123l0.60261-0.15359 0.57305 0.65004 0.57305 0.65005h1.2236l0.1653-0.41986 0.1653-0.41989 0.17586 0.27737 0.17587 0.27735 0.60983-0.15545 0.60984-0.15543-0.15468-0.47503c-0.18865-0.57938 0.2913-0.94198 0.51034-0.38559 0.22828 0.57983 0.81079 0.48532 1.6432-0.26661 0.40352-0.36451 0.8579-0.66275 1.0098-0.66275s0.6657-0.28622 1.1419-0.63607c0.47616-0.34983 1.4777-0.92255 2.2256-1.2727 1.5147-0.70909 3.8869-2.4011 4.4342-3.1626 0.38733-0.53902 1.0397-0.6602 1.1899-0.22101l0.0939 0.27472 1.9863-0.40727c1.0925-0.22401 2.4067-0.40727 2.9204-0.40727h0.93412v-3.3402l-0.67993-0.71402 0.65245 0.35761 0.13762-0.86894c0.12476-0.78775 0.99705-27.952 0.98347-30.626l-6e-3 -1.1265h-0.44307c-0.24369 0-1.1464 0.68594-2.0059 1.5243l-1.5628 1.5243-3.5015 1.9634c-4.2771 2.3982-6.1595 3.5211-10.029 5.9824-1.6454 1.0467-3.3589 2.1239-3.8076 2.3939l-0.81591 0.49093 0.40796-0.39655c0.22437-0.2181 2.9618-2.1778 6.0831-4.3549 3.1213-2.1771 6.4258-4.4871 7.3433-5.1333 0.91748-0.64624 2.9532-2.0554 4.5238-3.1316 1.5706-1.0761 3.0047-2.2327 3.1869-2.5701l0.33115-0.61349-0.24954-1.4944c-0.13724-0.82195-0.31977-1.6052-0.40561-1.7406-0.0858-0.13538-0.15357-2.1318-0.1505-4.4366 3e-3 -2.3047-0.0726-6.1248-0.16811-8.4892l-0.17369-4.2988-1.7972-0.5721c-0.98847-0.31465-1.9196-0.68507-2.0692-0.82314l-0.27197-0.25106 0.81592 0.19172c0.44875 0.10544 1.2879 0.35166 1.8648 0.54715 0.57687 0.1955 1.1442 0.29799 1.2608 0.22777 0.11657-0.0702 0.16941-0.9343 0.11742-1.9202l-0.0945-1.7925 0.65916 3.9597 2.1758 0.61281c1.1967 0.33704 5.9086 1.5563 10.471 2.7095s9.0278 2.3458 9.9233 2.6503l1.6282 0.55363 0.73313-0.15695 0.73315-0.15695 1.0383-1.1232c0.57112-0.61779 1.4055-1.6236 1.8543-2.2352 0.44876-0.61159 2.4682-2.5262 4.4876-4.2548 2.0194-1.7285 4.8343-4.1934 6.2554-5.4776 1.421-1.2841 3.3181-2.9938 4.2156-3.7993 0.89751-0.80547 2.289-2.069 3.0923-2.8077 0.80324-0.73879 1.4152-1.1985 1.3599-1.0216-0.0553 0.17692-2.8543 3.0422-6.22 6.3673-3.3657 3.3251-8.0552 8.0405-10.421 10.479l-4.3019 4.433 1.3966 0.62023v2.0357h-1.6318v0.50821c0 0.27953 0.24695 1.0698 0.54879 1.7561l0.54878 1.2479 0.26855 2.6843c0.14771 1.4764 0.39607 3.9369 0.55191 5.4678 0.15582 1.531 0.65249 5.444 1.1037 8.6956 0.87793 6.3268 0.95773 8.6086 0.14091 4.0292-0.81491-4.5687-2.8764-14.655-3.0248-14.799-0.0758-0.0739-0.18453-0.0847-0.24151-0.024-0.057 0.0607-0.1584 7.3632-0.22533 16.228l-0.12171 16.117 0.24247 0.14606c0.13334 0.0803 0.45857-0.0446 0.72271-0.27755 0.60525-0.53391 1.5541-0.54792 1.7596-0.026l0.15655 0.39764 2.6008 0.012 1.1856 0.52438c0.65208 0.2884 1.3274 0.52437 1.5007 0.52437 0.1733 0 0.76538 0.29824 1.3157 0.66275s1.1907 0.66274 1.423 0.66274c0.23232 0 0.42757 0.14912 0.4339 0.33138 6e-3 0.18225 0.44299 0.59966 0.97035 0.92756l0.95881 0.59619 1.0858-0.56642 0.42175 0.34117 0.42174 0.34117 0.48839-0.58787c0.2686-0.32333 0.67571-0.58788 0.90469-0.58788 0.22897 0 0.49194-0.11929 0.58438-0.2651 0.2119-0.3342 1.6827-0.34869 1.892-0.0186l0.15628 0.24645 1.6956-0.0791c0.93257-0.0435 1.6956-0.11017 1.6956-0.1481 0-0.1603 1.7662-0.273 3.5356-0.2256 2.9692 0.0795 3.443 0.0649 4.8955-0.15096 0.74793-0.11116 1.7742-0.19014 2.2806-0.1755 0.50641 0.0146 1.0799-0.10217 1.2745-0.25955l0.35376-0.28616 1.1226 0.58564 0.016-0.9465 0.28043 0.4695c0.1542 0.25822 0.38769 0.40487 0.51881 0.32588 0.13115-0.079 1.1945-0.18163 2.3631-0.22809l2.1246-0.0844 0.91385-0.46214c0.50261-0.25418 0.84271-0.34997 0.75579-0.21289l-0.15805 0.24926 1.148-0.0874c0.63138-0.0481 1.8447-0.10616 2.6962-0.12912l1.5482-0.0417 0.16623-0.42218 0.1662-0.42218 0.23724 0.37418c0.31135 0.49102 1.5839 0.64689 2.0702 0.25356l0.38307-0.30988 1.6e-4 0.36384 2e-4 0.36383 2.8554-0.0308 2.0563-1.003-0.13237-0.33622c-0.0728-0.18492-0.0292-0.39835 0.0968-0.47428 0.12603-0.0759 0.29074 0.0915 0.36602 0.37201l0.13683 0.51006 0.57824-0.1474c1.0392-0.26487 0.93355 1.6225 1.3842-24.738 0.15079-8.8212 0.41251-22.836 0.58162-31.144s0.24777-17.121 0.17477-19.585l-0.1327-4.4802-0.89411-0.48773v-1.8293l-0.57987-0.56522c-0.80224-0.78197-16.818-8.4011-23.762-11.304-8.0642-3.3714-13.085-5.1578-24.614-8.7572l-0.9519-0.29721 0.89566 0.14649c2.7094 0.44316 16.564 5.1184 34.869 11.767 6.507 2.3633 12.483 4.5267 13.28 4.8075l1.4491 0.51058 2.8569-0.51478 4.4657-3.2892c2.4561-1.809 6.5515-4.7177 9.1008-6.4638 2.5493-1.746 5.7194-3.9718 7.0448-4.9462 1.3253-0.97439 2.5134-1.7716 2.6401-1.7716 0.34495 0 0.26134 1.1336-0.11811 1.6015-0.18222 0.22473-1.6111 1.537-3.1753 2.9161s-4.0404 3.5971-5.5027 4.9288l-2.6588 2.4214-3.5717 2.302c-1.9644 1.2661-4.1706 2.8481-4.9027 3.5156l-1.331 1.2135 0.0752 3.3821 0.7127 0.4835c0.392 0.26592 0.99559 0.55202 1.3413 0.63578l0.62856 0.1523 0.13188-0.33492c0.19138-0.4862 0.28396-2.5396 0.11458-2.5421-0.0791-1e-3 -0.28517-0.29929-0.45803-0.66257l-0.31429-0.6605 0.23637-0.1424c0.13-0.0783 0.48871 0.10356 0.79712 0.40417l0.56073 0.54656-0.16512 1.7827c-0.0908 0.9805-0.21246 1.9318-0.27031 2.1141l-0.10517 0.33137h-3.0088v-0.5302c0-0.62118-0.41612-0.70705-0.64229-0.13255-0.0861 0.21871-0.0295 0.39765 0.12587 0.39765h0.28239l-0.0526 22.069-0.0526 22.069 0.33608 2.7318c0.18483 1.5025 0.26118 2.8048 0.16963 2.894-0.0915 0.0892-0.17501-0.18572-0.18554-0.61099-0.0106-0.42526-0.11948-1.0118-0.24216-1.3034l-0.22305-0.5302 0.0382 14.704 0.0382 14.704 0.9519-0.0222c2.8788-0.0671 4.3434-0.0784 5.4588-0.0423 0.68377 0.0221 1.3875-0.0467 1.5638-0.15291 0.17638-0.10624 0.41968-0.13352 0.54068-0.0606 0.24456 0.14731 2.552 0.18252 5.9883 0.0914l2.2647-0.0601 0.93096-0.99023c0.51201-0.54463 0.93096-0.88729 0.93096-0.76148s-0.18358 0.37725-0.40796 0.55876c-0.22437 0.18151-0.40796 0.51052-0.40796 0.73113v0.40111l0.80572-0.89749c0.44315-0.49362 0.68793-0.93726 0.54395-0.98586-0.51977-0.17546-0.24695-0.57438 0.39278-0.57438h0.65456l0.1569-2.4522c0.0863-1.3487 0.22117-8.2976 0.29971-15.442 0.0786-7.1444 0.20352-16.032 0.27771-19.75 0.0742-3.718 0.26822-17.258 0.43119-30.089 0.16294-12.831 0.37687-24.909 0.47541-26.841 0.0985-1.9319 0.1176-3.5124 0.0424-3.5122-0.0752 1.8e-4 -0.0602-3.3699 0.0334-7.489s0.20453-11.237 0.24657-15.818l0.0765-8.3286-1.4062-1.179-0.0874-0.89059-0.0874-0.8906-1.6548-0.158-2.1643 0.76814c-1.1903 0.42247-3.6941 1.3392-5.5639 2.0372s-4.2564 1.4886-5.3035 1.7569l-1.9038 0.48777-8.2952 0.54362c-13.417 0.87929-24.957 2.1074-45.011 4.7905-15.628 2.0908-15.745 2.1026-16.233 1.6275l-0.30428-0.29659 0.65333-0.27687c0.54057-0.22909 18.912-3.5976 26.763-4.907 8.597-1.4339 21.704-3.9633 36.308-7.0069 3.5152-0.73258 9.757-1.8132 13.871-2.4013 8.5916-1.2284 8.6333-1.2372 8.8401-1.8724 0.0853-0.2618 0.55254-0.65986 1.0384-0.88459l0.88339-0.4086 0.57623-1.0088c0.75277-1.3178 1.227-2.9231 2.5677-8.6923 1.4901-6.4121 1.3876-6.1507 6.4972-16.573 4.04-8.2407 4.799-9.8312 7.5277-15.773 2.9319-6.3844 16.129-36.395 16.129-36.677 0-0.32055 1.2138-1.3642 1.5866-1.3642h0.32762l-0.18113 0.72902c-0.16857 0.67849-6.3481 16.749-8.3843 21.804-3.1395 7.7944-9.9932 26.037-13.859 36.888-1.1244 3.1563-3.4562 9.15-5.1817 13.319-1.7255 4.1693-3.1373 7.82-3.1373 8.1126v0.53205h1.0863l4.0812 3.7788v4.1272l2.4352 1.8929c3.1497 2.4483 4.5388 3.9676 7.0378 7.6976 1.1234 1.6768 2.2194 3.2522 2.4356 3.5011l0.39309 0.45244 3.0282-2.5738c3.5067-2.9805 3.9801-3.3551 3.9801-3.1489 0 0.0833-1.4992 1.4209-3.3317 2.9725-1.8324 1.5516-3.3704 2.9236-3.4177 3.0489-0.20382 0.53926 8.2325 12.341 17.9 25.041 1.4429 1.8955 5.2153 6.8661 8.3831 11.046l5.7596 7.5995v1.1046h-0.40162c-0.22092 0-0.86346-0.56686-1.4279-1.2597-0.56442-0.69282-2.2456-2.691-3.7358-4.4404-2.8042-3.2917-8.5894-10.105-13.28-15.64-5.8844-6.9438-12.311-14.287-16.455-18.801l-0.95405-1.0393-0.60577 0.37652c-0.33319 0.20708-2.9154 2.3218-5.7383 4.6995-2.8229 2.3776-5.3467 4.4396-5.6084 4.5823l-0.47596 0.25934v-1.0122l5.9681-4.6064c3.2824-2.5335 5.9444-4.6911 5.9154-4.7946-0.029-0.10351-1.311-1.5532-2.8491-3.2216-2.8811-3.1253-6.0204-6.8458-7.8531-9.307-0.57493-0.77212-1.2759-1.5482-1.5578-1.7245l-0.51245-0.32067 0.22753 0.75349c0.12516 0.41442 0.25155 6.0024 0.28089 12.418 0.10006 21.89 0.37949 102.04 0.38 109v6.941l0.5439 0.16827c0.29914 0.0925 3.3894 0.21785 6.8673 0.27847 3.4779 0.0606 7.0165 0.18347 7.8635 0.27302l1.5401 0.16283 0.62935-1.1462 0.38897 0.31468 0.38901 0.31467v-0.50329l0.81592 0.11672 0.81591 0.11673v-0.62825l0.42988 0.41902c0.23646 0.23046 0.53397 0.35634 0.66114 0.27971 0.1272-0.0766 0.3162-5e-3 0.42004 0.15842l0.18877 0.29773 0.23382-0.35968c0.12859-0.19782 0.23569-1.0456 0.23797-1.884 3e-3 -0.83838 0.096-1.5252 0.20814-1.5263 0.11219-1e-3 0.98444-0.12544 1.9383-0.27631 0.95386-0.15086 2.2695-0.19606 2.9237-0.10044l1.1894 0.17385v1.81c0 1.9812 0.22438 2.3597 0.9411 1.5878l0.46986-0.50607 0.45042 0.16096c0.24771 0.0885 0.53693 0.29931 0.64267 0.46841 0.10577 0.1691 0.67874 0.32604 1.2733 0.34875l1.081 0.0413 0.11752-0.59385 0.11749-0.59385 0.074 1.1929 1.8358 0.0242c3.9702 0.0522 7.284-0.081 7.7239-0.31048 0.60394-0.31504-0.45207 0.51279-0.45207 0.51279 3.3652-0.21272 6.303-0.42033 6.5273-0.47825 1.5566-0.40179 1.9038-0.53806 1.9038-0.74715 0-0.13 0.19082-0.23636 0.42401-0.23636h0.424l-0.16808 0.2651-0.16807 0.2651c0.42611 0.0137-0.0476 0.19773 1.495 0 2.6838-0.34402 6.9052-1.221 7.7954-2.2666 0.18002-0.21142 0.56649-0.38439 0.85886-0.38439 0.29234 0 0.8987-0.35789 1.3475-0.7953l0.81592-0.79529h0.67691c0.37228 0 0.91361 0.12349 1.2029 0.27442l0.52608 0.27443v-0.27443c0-0.15093 0.25976-0.27442 0.57723-0.27442h0.57726l-0.30292 0.35576c-0.16661 0.19567-0.23237 0.42452-0.14616 0.50855 0.20591 0.2007 1.7423-0.32456 1.7423-0.59564 0-0.19128 1.4917-0.58704 2.4243-0.64317 0.21151-0.0127 0.44206-0.19039 0.51237-0.39476l0.12785-0.37161-0.85236 0.16615c-1.0522 0.2051-1.1064 1e-3 -0.10441-0.39309 0.93028-0.36603 2.0232-0.51822 1.8587-0.25883-0.0676 0.10665-0.0199 0.35668 0.1064 0.55562l0.22935 0.36171 0.43263-0.42171c0.23796-0.23196 0.43265-0.52415 0.43265-0.64935 0-0.12521 0.39776-0.25371 0.88391-0.28557 1.5325-0.10044 2.3687-0.34783 2.6128-0.77292l0.23629-0.41154 2.3833-0.1654 0.48061-0.57855 0.48063-0.57855h0.6768c0.37225 0 0.67681-0.10064 0.67681-0.22364s0.18357-0.15494 0.40795-0.071l0.40796 0.1526v-1.1171h0.51485c0.28318 0 0.59129-0.19421 0.68474-0.43157l0.16991-0.43157 0.98255 0.15541 0.98253 0.15542 0.78935-0.39788c0.43415-0.21884 0.72163-0.50475 0.63881-0.63535l-0.1506-0.23748 2.0512-0.1652v-0.35879c0-0.19733-0.48956-0.61486-1.0879-0.92784s-1.1381-0.59815-1.1995-0.63371c-0.0614-0.0356 0.11099-0.30447 0.38315-0.59759 0.46336-0.49908 1.9478-1.0309 3.2573-1.167 0.31562-0.0328 0.72024-0.14783 0.89917-0.25562l0.32536-0.196-0.16196 0.41142-0.16199 0.41142h1.1986c0.65923 0 1.3454 0.14314 1.525 0.31812l0.32636 0.31812 0.32637-0.31812c0.1795-0.17497 0.77265-0.31812 1.3181-0.31812 1.0436 0 2.4331-0.55171 2.9661-1.1777 0.17395-0.20429 0.78676-0.44891 1.3618-0.54361l1.0456-0.17219 0.1345-0.50134 0.13449-0.50135 0.53692 0.10079c0.29533 0.0554 0.95052-0.15213 1.456-0.46126 0.50546-0.30913 0.98024-0.57802 1.055-0.59755 0.0748-0.0195 0.31956-0.10768 0.54394-0.1959 0.22438-0.0882 0.65274-0.2043 0.95191-0.25795 0.29917-0.0536 0.51335-0.23957 0.47595-0.41317l-0.0675-0.31563h0.67993c0.37396 0 0.67993-0.11125 0.67993-0.24723 0-0.24785 1.0535-0.6964 1.4181-0.60377 0.10681 0.0271 0.12773-0.11946 0.0465-0.32578l-0.14768-0.37512 0.58711 0.14964 0.58708 0.14965 1.2702-0.58482c0.69862-0.32165 1.6082-0.76317 2.0214-0.98114l0.75118-0.39633 0.54069 0.16727 0.54071 0.16728 5.9877 37.439 2.1181 26.717-238.07-1.3906zm281.17-32.684c0.22438-0.0935 0.56094-0.14589 0.74792-0.11651l0.33997 0.0534v-1.0479l0.61194-0.19582c0.33656-0.10769 0.96192-0.17249 1.3897-0.14398l0.77774 0.0518 1.1261-0.62496c0.61934-0.34373 1.5582-0.8667 2.0863-1.1622 0.52812-0.29547 1.8884-1.025 3.0227-1.6212l2.0625-1.084 3.5046-0.16887c1.9276-0.0929 3.5317-0.19497 3.5648-0.22686 0.23999-0.23137 1.3012-41.231 1.0883-42.047-0.0951-0.36451-0.33259-0.87551-0.5277-1.1356l-0.35479-0.47279-5.4334-0.56683-3.8076-1.4578c-4.5454-1.7403-14.467-5.027-14.628-4.8458-0.0626 0.0705 0.11673 2.6333 0.39851 5.6952s0.66141 7.645 0.84362 10.185l0.33129 4.6176 2.8842 0.78168-0.27764 0.70522 1.1445 0.29297c0.62948 0.16113 2.7355 1.1959 4.6802 2.2994 5.7238 3.2483 6.4113 3.6234 9.606 5.2414 1.6752 0.84838 3.0075 1.5799 2.9607 1.6255-0.0468 0.0456-4.3445-1.8222-9.5503-4.1507-5.2058-2.3285-9.6833-4.2337-9.9499-4.2337h-0.48468l-0.161 6.4286c-0.0885 3.5358-0.23294 11.2-0.32088 17.033l-0.15989 10.604-0.25533 0.0889c-0.14043 0.0489-0.1902 0.19164-0.1106 0.31719l0.14474 0.22827 1.1488-0.38788c0.63185-0.21334 1.3324-0.46436 1.5568-0.55783zm117.14-141.76c-0.0826-0.49598-0.43516-1.2315-0.78353-1.6345-2.494-2.885-2.6732-2.9993-2.6732-1.7053 0 0.43742-0.12238 0.7953-0.27197 0.7953-0.14958 0-0.27197-0.11929-0.27197-0.2651 0-0.1458-0.12239-0.2651-0.27197-0.2651-0.6461 0-0.17611 0.80713 1.0199 1.7515 0.71053 0.56101 1.4143 1.157 1.5638 1.3245 0.31989 0.35807 1.257 0.88097 1.5994 0.89249l0.23958 8e-3 -0.15012-0.9018z" fill="none" stroke="#a9a9a9" stroke-dashoffset="6.35" style="mix-blend-mode:normal"/></svg>
