<?xml version="1.0" encoding="UTF-8"?>
<svg width="1920" height="1080" version="1.1" viewBox="0 0 508 286" xmlns="http://www.w3.org/2000/svg"><path d="m431.44 99.928c-0.59036-1.8888-2.6898-3.0351-3.7406-3.4748-3.3952-0.47534-3.6236 25.703-4.7408 76.637-0.0258 24.093-6.5768 10.411-3.6484 114.24h16s-1.7699-130.02-3.8702-187.4zm-69.493 96.072c-0.61-0.69-2-0.38-3.1 0.69-1.8476 4.4188-3.3622 9.7742-3.66 14.043-0.25 4.4-0.026 0.12092-2.6 6.5209-5.6271 13.395-10.587 27.085-16.4 40.4-1.5 3.5-1.6 4.5-0.37 4.5 0.56 0 1.1-0.67 1.8-2.4 5.5484-11.306 10.022-23.159 15.2-34.6 0.24-0.53 0.63-1.5 0.86-2.1 0.52-1.4 0.85-1.4 0.7-0.19-0.061 0.5-0.2 2.5-0.31 4.5-0.25421 2.7359-2.845 59.744-2.845 60.027l-4e-3 0.91h8.7zm-93.948 91.1c0.048-0.24 0.13-0.99 0.19-1.7l4.56-53c0.1-0.26-0.07-0.35-0.97-0.51-2.8141-0.47623-4.9464 10.827-9.97 52.69l-0.43 3.5h3.3c3.2 0 3.3-4e-3 3.3-0.43zm8.4-57.27c-0.39 0.4-0.53 0.25-0.37-0.39 0.78329 0.63043 4.3312-0.87617 0.458-3.127-0.67-0.57-0.38-0.76 0.6-0.38 0.45 0.17 0.9 0.32 1 0.32 0.65308-1.3011 0.99794-2.7532 1.62-4.17 5.7785-16.467 12.288-32.657 18.4-49 1-2.6 1-3.3 0.15-3.4-0.36-0.035-0.74 0.076-0.98 0.29-0.22 0.19-1.2 2.2-2.1 4.4-7.1943 15.085-12.968 30.553-18.6 46.2-0.67 1.8-1.3 3.3-1.3 3.3-3.1424-1.1211-10.068-2.8-10.3-2.8-0.25324 0-5.47 0.8582-5.47 2.51 0 0.32574 4.3569-1.146 4.8-0.57 0.69194 1.1397-4.1828-0.0818-4.16 2.37 2e-3 0.6 0.066 1.2 0.14 1.2 2.1631-0.29056 2.7332-1.1581 7.3 0.68 2.1492 1.0209 6.6262 2.73 7.18 2.81 0.77 0.12 0.86 0.18 0.91 0.7 7.329 14.183 10.348 28.81 23.05 47.14 0.23 0.062 0.42-8e-3 0.49-0.18-4.4089-12.436-19.535-51.514-22.818-47.903zm-39.3 13.9c9.0801-3.6438 18.615-5.3254 27.9-9.3 2-1.2 2.8-2 3-2.7 0.0954-0.41645 0.15421-1.6402-2.94-0.41-10.639 2.7357-30.3 10.563-30.3 11.9 0.1353 1.3587 1.4742 0.5966 2.34 0.51zm128.23-55.85c-0.36-0.17-1.2-1.6-3.4-6.2-1.6-3.3-3.2-6.4-3.5-7-0.31-0.58-0.95-1.8-1.4-2.7-0.47-0.9-1.8-3.3-2.9-5.4-2.1-3.9-3.2-6.1-9.3-18-5.9-11-5.5-11-6.3-11-0.5 0.073-1.3 1.2-1.3 1.8 0 0.24 1.3 3.4 2.9 6.9 5 11 7.7 18 10 24 1.7 4.8 2.8 6.8 5.3 9.7 1.1 1.2 3.2 4.3 3.1 4.4-0.04 0.041-1.3-0.35-2.8-0.88-1.5-0.52-2.9-0.95-3.1-0.95-0.4 0-5.6 1.6-5.9 1.9-0.29 0.2-1.2 1.5-1.2 1.7 0 0.099 1.3-0.23 2.8-0.74 3-0.99 3.5-1.1 3.8-0.64-1.3916 2.8214-5.9236 2.5576-5.936 3.216-0.011 0.5 0.27 1.9 0.4 2 2.4719 0.50332 5.2721-2.1915 10.1 0.7 2.5 1.4 5.2 2.7 7.3 3.3 1.8 0.58 1.5247 0.33227 1.9-1.1 0 0 1.1473-3.9486-0.564-5.006zm51.819-7.17c0.68-0.16 2.82-3.75 2.585-3.75-16.931 2.6073-33.26 8.231-49.8 12.69-2.1 0.48-2.6 0.86-2.6 2 0 0.59 0.086 0.77 0.43 0.91 2.8599-0.24359 18.487-3.4149 49.385-11.85zm83.67-7.08c-19.178-25.239-54.469-65.93-59.6-72.4-1.6524-1.6393-2.1923-4.0828-4.7-3.21-2.478 0.97351 0.54246-4.6455-0.376-5.564-0.67709-0.56866-1.1543-1.3898-1.017-2.29 0.21384-0.21384 3.086 2.1251 3.2 1.92 0.86627-2.7321 1.7255-5.4693 2.6-8.2 0.8-2.5 1.8-5.6 2.1-6.7 5.9535-18.243 11.356-36.396 16.1-55 0 0 1-7.3-4e-3 -7.8-16.803 30.754-24.009 71.9-26.9 71.9-0.099 0-1.1-0.64-2.3-1.4-1.2-0.78-3.6-2.3-5.3-3.4s-4.4-2.7-5.9-3.7c-1.5-0.93-2.9-1.7-3.1-1.7-0.22 0-2 0.73-4 1.6-6.8 3-6.3 2.7-7.1 4-0.43 0.62-0.7 1.1-0.6 1.1 0.18499 0 9.6305-4.2835 10.4-4.38 1.1578-0.14523 2.1827 0.60237-0.34138 1.9557-1.9558 0.7595-7.5898 4.631-9.2826 3.8838l0.14 1.1c0.16 1.3 0.6 3.3 0.75 3.5 0.058 0.059 8.482-4.9973 15.522 0.11 2.4 2 4.8 3.8 5.2 4.1 0.42 0.29 1.8 1.3 3.2 2.2 1.3 0.93 3 2 3.8 2.4 3.6083 1.99-2.6849-0.0531 4.73 8.71 0.32 0.38 0.87 1.1 1.2 1.5 21.203 22.918 39.771 48.061 59.9 71.6 0.63843 0.87784 6.633 0.6545 1.679-5.8355zm-82.434-93.675c-0.97151-0.94452 14.515 8.8661 14.515 9.2676 0.38 0.39-13.515-8.7676-14.515-9.2676zm-35.788 45.076c2.8-1.1 6.9-2.8 9.1-3.7 5.1-2.1 7.8-3.2 10-4.6 2.2-1.2 6.9-4.2 8.6-5.6 5.0332-4.0744 4.0683-5.0166 7.46-7.73 3.9292-1.2763 4.9302-5.8393 3.807-5.19-0.67 0.31-3.1 1.6-5.3 2.9-22.322 11.757-48.092 23.83-69.5 33.8-0.75 0.34-1.6 1.6-1.6 2.4 0 0.68 26.168-7.3721 37.433-12.28z" fill="none" stroke="#a9a9a9"/></svg>
