<?xml version="1.0" encoding="UTF-8"?>
<!-- Created with Inkscape (http://www.inkscape.org/) -->
<svg width="1920" height="1080" version="1.1" viewBox="0 0 508 286" xmlns="http://www.w3.org/2000/svg"><path d="m436 283c-0.064-2-0.2-7.2-0.31-11-0.1-4.2-0.23-9.1-0.28-11-0.24-13-0.43-12-0.46-21-0.24-9.5-0.17-3.7-0.24-9.5 0.33-5.9-0.35-11-0.44-15-0.057-3-0.15-6.2-0.2-7-0.053-0.85-0.042-2.1 0.025-2.7l-0.17-8c-0.15-0.63-0.3-5-0.51-14-0.1-4.7-0.31-13-0.47-18-0.15-5-0.37-13-0.47-17-0.55-22-1.2-44-1.4-49-0.037-0.85-0.18-1.7-0.32-2-1.7 0.044-1.4-1.2-1.9-1.2-0.6 0.0041-0.67 0.46-0.93 0.77-0.13 0.15-0.23 0.32-0.3 0.5-0.17 0.44-0.19 0.92-0.3 1.4-0.098 0.41-0.22 0.82-0.31 1.2-0.21 0.94-0.33 1.9-0.53 2.8-0.078 0.37-0.15 0.86-0.26 1.1-0.11 0.23-0.16 0.63-0.092 0.88 0.063 0.26 0.059 0.52-9e-3 0.59-0.068 0.069-0.14 0.32-0.16 0.56-0.019 0.24-0.12 0.8-0.23 1.2-0.12 0.51-0.13 0.86-0.019 0.93 0.11 0.066 0.085 0.23-0.052 0.39-0.21 0.26-0.31 3.1-0.35 9.5-4e-3 0.69-0.18 1.8-0.27 2.6-0.046 0.46-0.11 0.93-0.13 1.4-0.084 1.4 0.081 4-0.098 4.3-0.076 0.13-0.17 1.2-0.21 2.5-0.039 1.2-0.094 2.9-0.12 3.8l-0.4 4.6c-0.18 0.85-0.32 2.2-0.33 3.1-4e-3 0.85-0.01 1.8-0.014 2-0.011 0.68 0.01 2.3 0.033 2.7 0.011 0.16-0.02 1.4-0.069 2.8-0.049 1.4 0.094 1.8 0.082 2.7-5e-3 0.34-0.044 0.67-0.06 1-0.013 0.29-2e-3 0.58-0.028 0.87-0.055 0.6-0.21 1.2-0.27 1.8-0.14 1.3-0.14 2.7-0.21 4-0.064 1.3-0.21 1.9-0.18 3.8 0.019 1.7 0.037 3.5 0.041 4.1 4e-3 0.53-0.052 3.5-0.12 6.6-3e-3 2.8-0.93 5.5-1.4 8.2-0.028 0.16-0.069 0.32-0.087 0.49-0.074 0.66 0.019 0.96-0.094 2-0.3 2.7-0.53 21-0.7 55-0.062 12-0.14 23-0.17 23 0.092 7.8 0.11 7.9 0.038 14l-0.097 9.4h16l-0.12-3.7zm-15-82c0.048-0.19 0.09-0.08 0.094 0.24 4e-3 0.32-0.035 0.47-0.087 0.34-0.052-0.13-0.055-0.39-7e-3 -0.58zm-61 83c0.35-10 0.5-15 0.68-22 0.56-19 0.23-7.9 0.56-19 0.097-3.1 0.23-8.5 0.29-12 0.062-3.5 0.23-11 0.38-17 0.44-16 0.44-18 0.038-18-0.61-0.69-2-0.38-3.1 0.69-0.65 0.65-1 3-1.1 3.8-0.035 0.8-0.26 0.9-0.33 1.3-0.072 0.37-0.085 0.38-0.19 0.38-0.1 0-0.19 0.19-0.19 0.43-2e-3 0.24-0.18 0.82-0.39 1.3-0.24 0.53-0.099 0.62-0.18 0.93-0.12 0.43-0.32 0.83-0.46 1.3-0.11 0.32-0.24 0.63-0.28 0.97-0.085 0.59 0.15 1.2 0 1.8-0.028 0.1-0.13 0.18-0.16 0.28-0.41 1.3-0.26 1.8-0.38 4-0.25 4.4-0.026 3.6-2.6 10-1.9 4.9-4.4 11-5.6 14-0.47 1.1-1.2 2.9-1.7 4-3.7 9.2-1.4 3.1-3.7 9.2-0.57 1.3-1.2 2.8-1.4 3.4-0.19 0.53-0.7 1.8-1.1 2.8-0.43 1-0.99 2.3-1.2 3-0.24 0.63-1 2.4-1.7 4-1.5 3.5-1.6 4.5-0.37 4.5 0.56 0 1.1-0.67 1.8-2.4 0.67-1.6 1.9-4.4 5-11 0.7-1.5 1.4-3.1 1.5-3.5 0.13-0.37 0.8-1.9 1.5-3.3 0.69-1.5 1.3-2.7 1.3-2.8 2.2-4.6 3.8-9.5 5.9-14 0.24-0.53 0.63-1.5 0.86-2.1 0.52-1.4 0.85-1.4 0.7-0.19-0.061 0.5-0.2 2.5-0.31 4.5-0.11 2-0.29 4.5-0.41 5.7-0.12 1.2-0.16 2.2-0.094 2.3 0.064 0.1 0.032 1-0.071 2-0.1 1-0.27 4.3-0.38 7.3-0.11 3-0.27 6.2-0.37 7.2s-0.23 2.9-0.29 4.4c-0.28 7.2-0.57 13-0.77 16-0.17 2.4-0.46 8.2-0.46 9.2l-4e-3 0.91h8.7l0.12-3.5zm-92 3.1c0.048-0.24 0.13-0.99 0.19-1.7 0.22-2.6 1.5-17 2.3-24 0.26-2.7 0.61-6.4 0.76-8.1 0.16-1.7 0.46-4.7 0.66-6.6 0.21-2 0.42-5.5 0.47-7.8 0.1-4.6 0.18-6 0.37-6.5 0.1-0.26-0.07-0.35-0.97-0.51-1.3-0.22-1.6-0.15-1.6 0.37 0 0.2-0.17 0.7-0.37 1.1-0.2 0.41-0.32 0.78-0.27 0.84 0.055 0.056-0.12 0.45-0.39 0.88-0.27 0.43-0.49 0.91-0.49 1.1s-0.13 0.78-0.29 1.4c-0.16 0.61-0.38 1.8-0.49 2.7-0.11 0.9-0.23 1.8-0.28 2-0.52 2.6-0.93 5.1-1.2 7.3-0.11 0.83-0.29 2-0.39 2.5-0.39 2-2.3 17-2.8 21-0.095 0.9-0.35 3.1-0.57 4.8-0.22 1.7-0.59 4.7-0.83 6.7l-0.43 3.5h3.3c3.2 0 3.3-4e-3 3.3-0.43zm32-9.3c0.32-0.84 0.041-1.8-1.5-5.2-6.5-15-9.7-22-11-24-1.4-3.4-3.3-7.1-4.6-9.1-0.8-1.2-1.5-2.5-1.9-3.7-0.83-2.3-2.2-5.5-2.7-5.9-0.42-0.47-1.5-0.51-1.9-0.07-0.39 0.4-0.53 0.25-0.37-0.39 0.22-0.87 1.4-0.89 2.3-0.047 0.25 0.23 0.4 0.31 0.33 0.18-0.071-0.13 6e-3 -0.3 0.17-0.4 0.27-0.15 0.27-0.24-0.012-0.96-0.17-0.44-0.41-0.75-0.53-0.7-0.21 0.081-0.63-0.19-1.8-1.2-0.67-0.57-0.38-0.76 0.6-0.38 0.45 0.17 0.9 0.32 1 0.32 0.26 0 0.6-0.77 0.53-1.2-0.028-0.18 0.023-0.34 0.11-0.34 0.15 0 0.46-1.2 0.37-1.5-0.02-0.07 0.037-0.18 0.13-0.24 0.09-0.065 0.3-0.46 0.48-0.89 1.1-2.7 4.1-11 6.2-17 1.4-3.8 3.1-8.5 3.8-10 1.7-4.6 7.3-19 8.4-22 1-2.6 1-3.3 0.15-3.4-0.36-0.035-0.74 0.076-0.98 0.29-0.22 0.19-1.2 2.2-2.1 4.4-0.93 2.2-2.3 5.5-3.1 7.2-0.75 1.7-1.6 3.8-2 4.6-0.34 0.79-1.3 3-2.1 4.9-0.84 1.9-1.5 3.5-1.5 3.5s-1.3 2.7-2.8 6c-2.8 5.8-3.9 8.6-4.5 11-0.67 3.2-1.5 6-2.6 9-0.67 1.8-1.3 3.3-1.3 3.3-0.046 0.046-0.97-0.23-2-0.62-1.1-0.39-2.2-0.73-2.5-0.77-0.31-0.039-1.6-0.37-3-0.74-1.3-0.37-2.6-0.67-2.8-0.67s-1.3 0.23-2.4 0.5c-1.7 0.44-2.1 0.59-2.5 1.2-0.31 0.36-0.57 0.72-0.57 0.81 0 0.084 0.87-0.048 1.9-0.29 2.1-0.48 2.7-0.54 2.9-0.28 0.17 0.28-1.1 0.74-2.6 0.93-0.39 0.051-0.67 0.15-0.63 0.22 0.044 0.072-0.15 0.13-0.43 0.12-0.49-7e-3 -0.51 0.027-0.5 1.1 2e-3 0.6 0.066 1.2 0.14 1.2 0.12 0.12 0.91-0.023 2.3-0.42 1.6-0.44 1.9-0.38 5 1.1 2 0.95 3.3 1.5 3.7 1.5 0.36 0 0.71 0.094 0.78 0.21 0.2 0.32 1.8 0.97 2.7 1.1 0.77 0.12 0.86 0.18 0.91 0.7 0.13 1.3 1.1 3.5 2.4 5.7 0.26 0.42 0.47 0.81 0.47 0.87 0 0.062 0.26 0.5 0.58 0.97 0.54 0.8 1 1.7 4.1 7.8 1.7 3.3 10 20 11 23 3.6 7.6 4.1 8.7 4.5 8.8 0.23 0.062 0.42-8e-3 0.49-0.18zm-21-49c0-0.1-0.34-0.24-0.75-0.31-0.8-0.13-1.3-0.52-0.96-0.74 0.11-0.068 0.2 0.01 0.2 0.17 0 0.18 0.16 0.3 0.43 0.3 0.35-2e-3 0.38-0.038 0.14-0.21-0.3-0.22-0.26-0.21 0.99 0.25 0.52 0.19 0.63 0.36 0.39 0.6-0.19 0.19-0.44 0.15-0.44-0.062zm-16-3.4c-0.041-0.66 0.14-1 0.52-1 0.078-9.6e-4 0.14 0.13 0.14 0.29 0 0.16-0.09 0.29-0.2 0.29-0.11 0-0.07 0.19 0.094 0.43 0.38 0.55 0.37 0.68-0.036 0.77-0.45 0.1-0.47 0.072-0.52-0.76zm1.1 0.33c0.064-0.11 0.24-0.19 0.39-0.19 0.15 0 0.27 0.086 0.27 0.19 0 0.11-0.18 0.19-0.39 0.19-0.21 0-0.34-0.086-0.27-0.19zm-27 18c2-0.63 9.1-2.8 10-3.1l9.2-2.5c4.2-1.2 5.6-1.8 8.7-3.7 2-1.2 2.8-2 3-2.7 0.11-0.48 0.054-0.57-0.54-0.82-0.64-0.27-0.74-0.25-2.4 0.41-14 3.6-15 5.6-26 9.3-3.5 1.2-4.3 1.7-4.3 2.6 0 0.45 0.33 0.89 0.65 0.86 0.11-0.01 0.58-0.14 1-0.29zm129-50c0.072-0.78 0.11-1.9 0.079-2.4-0.044-0.84 7e-3 -1 0.3-1.1 0.34-0.12 0.34-0.14-0.028-0.4-0.21-0.15-0.44-0.6-0.52-1-0.094-0.51-0.27-0.79-0.6-0.95-0.36-0.17-1.2-1.6-3.4-6.2-1.6-3.3-3.2-6.4-3.5-7-0.31-0.58-0.95-1.8-1.4-2.7-0.47-0.9-1.8-3.3-2.9-5.4-2.1-3.9-3.2-6.1-9.3-18-5.9-11-5.5-11-6.3-11-0.5 0.073-1.3 1.2-1.3 1.8 0 0.24 1.3 3.4 2.9 6.9 5 11 7.7 18 10 24 1.7 4.8 2.8 6.8 5.3 9.7 1.1 1.2 3.2 4.3 3.1 4.4-0.04 0.041-1.3-0.35-2.8-0.88-1.5-0.52-2.9-0.95-3.1-0.95-0.4 0-5.6 1.6-5.9 1.9-0.29 0.2-1.2 1.5-1.2 1.7 0 0.099 1.3-0.23 2.8-0.74 3-0.99 3.5-1.1 3.8-0.64 0.27 0.33-0.23 0.63-1.9 1.2-0.6 0.19-1 0.41-0.99 0.5 0.053 0.088 0.33 0.066 0.61-0.048 0.28-0.11 0.79-0.27 1.1-0.35 0.6-0.15 0.61-0.14 0.73 0.69 0.068 0.46 0.2 0.84 0.3 0.84 0.48 0-0.15 0.39-1.1 0.66-1.3 0.39-1.7 0.4-1.5 0.034 0.16-0.2 0.16-0.39 0-0.75-0.17-0.39-0.34-0.48-0.84-0.45-0.34 0.018-0.59 0.088-0.55 0.15 0.04 0.067-0.31 0.25-0.77 0.4-0.59 0.2-0.87 0.22-0.93 0.07-0.047-0.12-0.091 4e-3 -0.096 0.27-0.011 0.5 0.27 1.9 0.4 2 0.076 0.077 3.6-1.1 4.4-1.5 0.95-0.44 1.1-0.38 5.7 2.2 2.5 1.4 5.2 2.7 7.3 3.3 1.8 0.58 1.8 0.58 1.9-1.1zm2.7-1.1c0.81-0.32 1.2-0.43 1.6-0.48 0.24-0.032 0.9-0.15 1.5-0.26 0.57-0.11 1.5-0.29 2-0.38 4.2-0.77 5.8-1.1 7.3-1.5 0.99-0.26 2.3-0.6 2.9-0.75 2-0.51 2.4-0.62 3.6-0.93 0.62-0.17 1.9-0.48 2.7-0.7 0.88-0.21 1.8-0.44 2-0.5 0.21-0.059 0.59-0.13 0.85-0.17 0.26-0.032 1.4-0.31 2.5-0.62s2.6-0.72 3.4-0.9c0.78-0.19 2.1-0.55 3-0.8 0.88-0.25 2.2-0.58 2.8-0.73 1.4-0.32 4.8-1.2 6.1-1.6 1.1-0.31 4.3-1.1 6.1-1.6 0.68-0.16 1.6-0.4 2-0.52l0.76-0.23 0.055-1.5c0.046-1.2 5e-3 -1.5-0.23-1.5-0.24 0-6.1 1.1-11 2.2-0.77 0.16-2 0.33-2.7 0.39-0.74 0.06-1.5 0.18-1.7 0.28-0.21 0.091-0.68 0.21-1 0.26-0.36 0.05-1.9 0.35-3.3 0.66-1.5 0.31-4.2 0.8-6.1 1.1-7.5 1.1-9.2 1.6-14 4-3.4 1.7-7.2 3.1-10 3.8-2.1 0.48-2.6 0.86-2.6 2 0 0.59 0.086 0.77 0.43 0.91 0.3 0.11 0.52 0.079 0.74-0.12 0.27-0.24 0.33-0.24 0.47-4e-3 0.11 0.19 0.28 0.23 0.54 0.13zm-18-4.2c0.012-0.079 4e-3 -0.35-0.016-0.6-0.023-0.28 0.04-0.41 0.17-0.32 0.12 0.074 0.21-0.015 0.21-0.21 0-0.26-0.05-0.29-0.23-0.11-0.33 0.34-0.59 0.28-0.45-0.1 0.069-0.18 0.056-0.26-0.027-0.18-0.25 0.26-0.18 1.7 0.085 1.7 0.13 0 0.25-0.065 0.26-0.14zm154-4.5c0.56-0.87 0.92-2 0.92-2.9 0-0.99 0.054-0.91-4.9-7.4-0.92-1.2-2.7-3.6-3.9-5.2-1.3-1.7-3-4-3.9-5.2-2.6-3.4-12-16-13-17-1.2-1.5-6.1-8.1-10-14-2.5-3.3-5.2-7.1-6.2-8.4-4.2-5.6-6.8-8.2-13-13-2.8-2-5.9-5.1-9.6-9.6-1.7-2-3-3.5-3.2-3.5-0.24-0.061-0.89 0.067-1.5 0.29-0.56 0.22-1.1 0.4-1.1 0.4-0.031 5.2e-5 -0.031-0.5 0-1.1l0.057-1.1 1-0.059c0.75-0.044 1.1 0.026 1.4 0.27 0.46 0.42 0.71 0.19 0.29-0.27-0.39-0.44-0.41-0.74-0.03-0.42 0.16 0.13 0.28 0.16 0.28 0.065 0-0.26-2-2.2-2.2-2.2-0.13 0-0.23 0.13-0.23 0.3s-0.085 0.25-0.19 0.18c-0.1-0.065-0.19-0.29-0.19-0.49 0-0.54 0.78-0.48 1.3 0.11 0.52 0.56 0.98 0.66 0.48 0.11-0.19-0.21-0.27-0.47-0.19-0.61 0.085-0.14 0.063-0.18-0.053-0.11-0.11 0.067-0.58-0.22-1-0.64-0.6-0.54-0.89-0.96-0.98-1.5-0.071-0.38-0.087-0.74-0.037-0.79 0.11-0.11 2.1 1.2 2.7 1.7 0.22 0.21 0.45 0.31 0.5 0.22 0.051-0.087 0.32-0.94 0.6-1.9 0.28-0.95 1.2-3.8 2-6.3s1.8-5.6 2.1-6.7c0.37-1.2 1.2-3.7 1.8-5.7 1.2-3.8 3-9.5 3.7-12 0.24-0.79 1.1-3.6 2-6.3 1.4-4.6 3.1-9.6 3.5-11l5.1-20s1-7.3-4e-3 -7.8c-1-0.53-13 27-13 27l-2 4.8c-4 9.4-5.1 13-6.5 21-0.52 3.2-1.1 5.7-1.7 8.1-0.9 3.2-3.5 11-3.7 11-0.099 0-1.1-0.64-2.3-1.4-1.2-0.78-3.6-2.3-5.3-3.4s-4.4-2.7-5.9-3.7c-1.5-0.93-2.9-1.7-3.1-1.7-0.22 0-2 0.73-4 1.6-6.8 3-6.3 2.7-7.1 4-0.43 0.62-0.7 1.1-0.6 1.1 0.099 0 1.1-0.44 2.3-0.98 4.7-2.1 7.8-3.4 8.1-3.4 0.2 0 0.59 0.23 0.86 0.5 0.47 0.48 0.48 0.51 0.13 0.7-0.2 0.11-0.4 0.25-0.46 0.32-0.052 0.065-0.99 0.5-2.1 0.96s-2.1 0.96-2.3 1.1c-0.31 0.29 0.07 0.15 2.5-0.92 1.2-0.55 2.1-0.76 1.5-0.37-0.17 0.11-0.19 0.19-0.058 0.19 0.12 0.0015 0.19 0.18 0.15 0.39-0.04 0.21 0.029 0.39 0.15 0.39 0.12 0.0037 0.013 0.14-0.25 0.3-0.42 0.26-0.43 0.28-0.056 0.18 0.34-0.094 0.4-0.045 0.34 0.28-0.041 0.22 0.01 0.39 0.11 0.39 0.1 0 0.14 0.086 0.072 0.19s-0.027 0.19 0.083 0.19c0.32 0 0.23 0.25-0.28 0.82-0.53 0.58-1.1 0.74-0.63 0.19 0.25-0.32 0.23-0.32-0.25 0-0.28 0.18-0.55 0.33-0.6 0.33-0.19 0 0.024-0.62 0.27-0.78 0.41-0.26 0.11-0.21-0.65 0.11-0.73 0.31-0.91 0.5-0.33 0.35 0.29-0.076 0.35 0.012 0.35 0.45-2e-3 0.3-0.041 0.44-0.087 0.3-0.13-0.37-0.39-0.29-0.53 0.16-0.088 0.28-0.19 0.34-0.33 0.2-0.14-0.14-0.31-0.14-0.57-0.0015-0.48 0.26-0.96-0.13-0.52-0.42 0.23-0.15 0.21-0.18-0.096-0.19-0.21-0.0033-0.29-0.069-0.19-0.15 0.34-0.25 0.31-0.64-0.044-0.58-0.22 0.038-0.35-0.084-0.39-0.36-0.091-0.65-0.54-0.94-0.94-0.61-0.47 0.39-1.7 0.79-2 0.62-0.13-0.08-0.17-0.054-0.098 0.062 0.067 0.11-0.13 0.31-0.44 0.43-0.31 0.13-0.65 0.35-0.77 0.5-0.18 0.22-0.29 0.21-0.69-0.061l-0.48-0.32 0.14 1.1c0.16 1.3 0.6 3.3 0.75 3.5 0.058 0.059 0.26-0.036 0.45-0.21 0.19-0.18 0.49-0.32 0.65-0.32 0.17 0 1.1-0.36 2-0.81l1.7-0.81-0.089-0.94c-0.052-0.55-0.023-0.83 0.071-0.68 0.088 0.14 0.16 0.45 0.16 0.68 4e-3 0.58 0.22 0.66 0.84 0.34 0.29-0.15 0.64-0.28 0.77-0.28 0.13 0 0.34-0.13 0.47-0.29 0.13-0.16 0.3-0.24 0.39-0.19 0.084 0.053 0.28-0.035 0.44-0.19 0.16-0.16 0.47-0.29 0.69-0.29 0.22 0 0.57-0.091 0.78-0.2 0.52-0.28 1 0.045 6.2 4.3 2.4 2 4.8 3.8 5.2 4.1 0.42 0.29 1.8 1.3 3.2 2.2 1.3 0.93 3 2 3.8 2.4 0.79 0.38 1.4 0.81 1.4 0.95 0 0.14-0.19 0.39-0.42 0.56-0.36 0.26-0.39 0.36-0.19 0.68 0.13 0.21 0.24 0.53 0.24 0.72 0.01 0.86 1.5 3.2 3.7 5.8 0.32 0.38 0.87 1.1 1.2 1.5 1 1.3 2.1 2.6 2.4 2.8 0.6 0.51 3.1 3.8 3 3.9-0.06 0.098 0.024 0.13 0.19 0.064 0.16-0.063 0.29-0.024 0.29 0.087 0 0.11 0.51 0.8 1.1 1.5 0.62 0.73 1.1 1.4 0.99 1.5-0.075 0.076-0.044 0.11 0.07 0.074 0.11-0.035 0.45 0.24 0.75 0.61 0.3 0.37 0.66 0.74 0.79 0.83 0.13 0.084 0.24 0.23 0.24 0.33 0 0.2 0.27 0.54 1.6 2 1.1 1.2 1.7 2.1 1.7 2.3-0.025 0.079 0.08 0.14 0.23 0.14 0.15 0 0.43 0.24 0.61 0.53 0.18 0.29 0.74 0.99 1.2 1.6 0.5 0.56 0.91 1.1 0.91 1.3s0.3 0.45 0.66 0.7 0.66 0.52 0.66 0.59c7.2e-4 0.074 0.3 0.43 0.66 0.79 0.36 0.36 0.66 0.8 0.66 0.97s0.11 0.3 0.24 0.27 0.22 0.06 0.19 0.19c-0.026 0.13 0.067 0.24 0.21 0.24 0.35 0 0.94 0.7 0.79 0.95-0.074 0.12-8e-3 0.16 0.17 0.088 0.18-0.071 0.29-9e-3 0.29 0.16 0 0.15 0.47 0.77 1 1.4 0.57 0.6 1 1.1 0.96 1.1-0.081 0 0.74 0.97 1.8 2.1 0.94 1 2.5 2.9 3.1 3.5 0.24 0.3 0.67 0.77 0.96 1 0.29 0.27 0.52 0.62 0.52 0.77 0 0.17 0.11 0.23 0.28 0.17 0.15-0.06 0.27-0.048 0.25 0.027-0.075 0.29 0.27 1 0.43 0.9 0.097-0.061 0.26 0.11 0.36 0.37 0.099 0.26 0.35 0.57 0.57 0.69 0.21 0.12 0.39 0.29 0.39 0.39 0 0.097 0.34 0.55 0.75 1 0.41 0.45 0.75 0.88 0.76 0.95 2e-3 0.069 0.4 0.52 0.88 1s0.82 0.88 0.75 0.88c-0.073 0 0.17 0.28 0.54 0.62s0.67 0.68 0.67 0.76c0 0.075 0.19 0.35 0.43 0.6 0.59 0.64 1.6 1.8 2.4 2.8 0.38 0.46 1.3 1.6 2.1 2.5 1.8 2.1 2 2.4 2.6 3.2 0.47 0.63 0.72 0.92 2 2.4 0.28 0.32 0.89 1.1 1.4 1.6 0.46 0.58 0.91 1.1 0.99 1.1s0.14 0.18 0.14 0.32 0.064 0.28 0.14 0.32c0.079 0.035 0.72 0.76 1.4 1.6 0.7 0.85 1.6 1.9 2 2.4 0.42 0.49 1.4 1.7 2.1 2.6 0.74 0.94 1.8 2.2 2.3 2.7s0.93 1.1 0.93 1.2c0 0.11 0.071 0.2 0.16 0.2 0.086 0 0.42 0.37 0.74 0.82 0.32 0.45 0.81 1.1 1.1 1.4 0.28 0.32 0.88 1.1 1.4 1.7 1.6 2.2 1.8 2.4 2.8 2.8 0.53 0.2 2.1 1.8 1.3 0.5-0.12-0.2 0.41-0.018 0.6-0.32zm-4.2-2.8c0-0.23 0.37-0.47 0.5-0.33 0.14 0.14-0.1 0.51-0.33 0.51-0.098 0-0.18-0.081-0.18-0.18zm-63-85c-0.12-0.15-0.33-0.24-0.46-0.19s-0.38-0.073-0.56-0.27c-0.31-0.35-0.31-0.36 0.2-0.27 0.61 0.12 1.4 0.58 1.4 0.83 0 0.26-0.31 0.2-0.56-0.11zm-8.1-9.1c-7.3-5-10-7.2-11-7.7-0.36-0.35 0.36 0.12 3.6 2.3 5.2 3.6 12 8.3 12 8.6 0.38 0.39-0.75-0.36-4.9-3.2zm-84 54c0.73-0.3 3-1.2 5.1-2 4.6-1.8 22-8.9 29-12 2.8-1.1 6.9-2.8 9.1-3.7 5.1-2.1 7.8-3.2 10-4.6 2.2-1.2 6.9-4.2 8.6-5.6 2.1-1.7 3.3-2.9 3.3-3.1 0-0.13 0.13-0.28 0.28-0.34 0.16-0.061 0.28-0.23 0.28-0.39 0-0.32 2.6-3.1 3.6-3.9 0.41-0.31 0.83-0.49 1-0.42 0.19 0.076 0.4-0.064 0.6-0.41 0.17-0.29 0.65-0.76 1.1-1 0.68-0.45 0.79-0.48 0.89-0.2 0.087 0.25 0.14 0.21 0.23-0.16 0.17-0.65 0.16-3.1-0.013-3-0.67 0.31-3.1 1.6-5.3 2.9-15 8.6-35 19-61 30-4.3 1.9-8.1 3.7-8.5 3.8-0.75 0.34-1.6 1.6-1.6 2.4 0 0.68 0.62 1.6 1.1 1.7 0.2 0.023 0.95-0.2 1.7-0.5zm68-57c0.2-0.13 0.18-0.19-0.074-0.29-0.18-0.07-0.37-0.082-0.43-0.027-0.054 0.055 5e-3 0.1 0.13 0.1 0.13 0 0.18 0.086 0.11 0.19-0.14 0.23-0.081 0.24 0.25 0.024zm0.22-0.57c0-0.28-0.21-0.39-0.51-0.28-0.23 0.089-0.23 0.14-0.029 0.27 0.32 0.21 0.54 0.21 0.54 0.0082zm-0.42-0.58c0.17-0.11 0.19-0.3 0.078-0.61-0.11-0.29-0.21-0.37-0.3-0.23-0.075 0.12-0.068 0.23 0.016 0.23 0.084 0.0015 0.025 0.087-0.13 0.19-0.25 0.17-0.25 0.19 0 0.19 0.25 0.0053 0.25 0.027 0 0.19-0.16 0.1-0.2 0.19-0.094 0.19 0.1 0 0.3-0.07 0.43-0.16z" fill="none" stroke="#a9a9a9"/></svg>
