<?xml version="1.0" encoding="UTF-8"?>
<svg width="180mm" height="100mm" version="1.1" viewBox="0 0 171.429 95.2381" xmlns="http://www.w3.org/2000/svg"><g transform="translate(-9.85,-119.85)" stroke="#e5e5e5"><path transform="scale(.264583)" d="m37.2284 668.949h71.991l-2e-5 71.991h-71.991z" fill="#f1ede9" stroke-width=".587201"/><g stroke-width=".774473"><path transform="scale(.264583)" d="m181.21 668.949h71.991v71.991h-71.991z" fill="#f5f3ef"/><path transform="scale(.264583)" d="m253.201 596.958h71.991v71.991h-71.991z" fill="#faf9f8"/><path transform="scale(.264583)" d="m325.192 668.949h71.991v71.991h-71.991z" fill="#f5f2f0"/><path transform="scale(.264583)" d="m397.183 668.949h71.991v71.991h-71.991z" fill="#f5f3ef"/><path transform="scale(.264583)" d="m613.156 668.949h71.991v71.991h-71.991z" fill="#f1ede9"/><path transform="scale(.264583)" d="m469.174 668.949h71.991v71.991h-71.991z" fill="#f5f3ef"/><path transform="scale(.264583)" d="m541.165 668.949h71.991v71.991h-71.991z" fill="#f3f0ec"/><path transform="scale(.264583)" d="m253.201 668.949h71.991v71.991h-71.991z" fill="#f5f4ef"/><path transform="scale(.264583)" d="m109.219 668.949h71.991v71.991h-71.991z" fill="#ede9e3"/><path transform="scale(.264583)" d="m37.2283 596.958h71.991v71.991h-71.991z" fill="#f1ede9"/><path transform="scale(.264583)" d="m109.219 596.958h71.991l-2.4e-4 71.991h-71.991z" fill="#f5f2f0"/><path transform="scale(.264583)" d="m181.21 596.958h71.991v71.991h-71.991z" fill="#f9f8f6"/><path transform="scale(.264583)" d="m325.192 596.958h71.991v71.991h-71.991z" fill="#fbfaf9"/><path transform="scale(.264583)" d="m397.183 596.958h71.991v71.991h-71.991z" fill="#f9f8f6"/><path transform="scale(.264583)" d="m469.174 596.958h71.991v71.991h-71.991z" fill="#f9f8f8"/><path transform="scale(.264583)" d="m613.156 596.958h71.991v71.991h-71.991z" fill="#f3f0ec"/><path transform="scale(.264583)" d="m541.165 596.958h71.991v71.991h-71.991z" fill="#f5f3ef"/></g><g stroke-width="1.01638"><path transform="scale(.264583)" d="m37.2283 524.967h71.991v71.991h-71.991z" fill="#f3f0ec"/><path transform="scale(.264583)" d="m109.219 524.967h71.9922l-1e-3 71.991h-71.99z" fill="#f9f8f6"/><path transform="scale(.264583)" d="m181.21 524.967h71.991l6.3e-4 71.991h-71.991z" fill="#fcfbfb"/><path transform="scale(.264583)" d="m253.201 524.967h71.991v71.991h-71.991z" fill="#fff"/><path transform="scale(.264583)" d="m397.183 524.967h71.991v71.991h-71.991z" fill="#fdfcfc"/><path transform="scale(.264583)" d="m469.174 524.967h71.991v71.991h-71.991z" fill="#fbfaf9"/><path transform="scale(.264583)" d="m541.165 524.967h71.991v71.991h-71.991z" fill="#fbfaf9"/><path transform="scale(.264583)" d="m613.156 524.967h71.991v71.991h-71.991z" fill="#f9f7f5"/></g><path transform="scale(.264583)" d="m37.2283 452.976h71.991v71.991h-71.991z" fill="#fbfaf9" stroke-width="1.13913"/><path transform="scale(.264583)" d="m541.165 454.36h71.991v70.6075h-71.991z" fill="#fbfaf9" stroke-width=".874067"/><path transform="scale(.264583)" d="m613.156 454.36h71.991v70.6075h-71.991z" fill="#fcfbfb" stroke-width=".874067"/><path d="m9.85 196.04h19.0476l-5e-6 19.0476h-19.0476z" fill="#efeae6" stroke-width=".155364"/><g stroke-width=".204913"><path d="m47.9452 196.04h19.0476v19.0476h-19.0476z" fill="#f1efe9"/><path d="m86.0405 196.04h19.0476v19.0476h-19.0476z" fill="#f1edea"/><path d="m105.088 196.04h19.0476v19.0476h-19.0476z" fill="#efeae6"/><path d="m162.231 196.04h19.0476v19.0476h-19.0476z" fill="#efeae6"/><path d="m124.136 196.04h19.0476v19.0476h-19.0476z" fill="#f1ede9"/><path d="m143.183 196.04h19.0476v19.0476h-19.0476z" fill="#f1ede9"/><path d="m66.9929 196.04h19.0476v19.0476h-19.0476z" fill="#efeee6"/><path d="m28.8976 196.04h19.0476v19.0476h-19.0476z" fill="#efede6"/></g></g></svg>
