<?xml version="1.0" encoding="UTF-8"?>
<svg width="1920" height="1080" version="1.1" viewBox="0 0 508 285.8" xmlns="http://www.w3.org/2000/svg"><path d="m-0.8754 193 0.9349-0.1346c0.3795-0.0928 1.032-0.102 1.451-0.0204 1.665 0.3241 10.93-3.33 23.34 2.656l12.65 6.828 9.17 2.837 0.8159 0.2127c4.053 0.7482 4.387 1.504 7.107-1.753 0.4242-0.5079 4.108 0.2836 4.108 0.2836 1.039-0.2649 0.9336 1.622 1.384-24.74 0.1508-8.821 0.4125-22.84 0.5816-31.14s0.2478-17.12 0.1748-19.59l-0.1327-4.48-0.8941-0.4877v-1.829l-0.5799-0.5652c-0.8023-0.7819-16.82-8.401-23.76-11.3-8.064-3.371-13.09-5.158-24.61-8.757l-0.9519-0.2972 0.8957 0.1465c2.709 0.4431 16.56 5.118 34.87 11.77 6.507 2.363 12.48 4.527 13.28 4.808l1.449 0.5106 2.857-0.5148 4.466-3.289c2.456-1.809 6.572-4.688 9.101-6.464l7.045-4.946c1.346-0.945 26.2-20.15 26.32-20.15 0.345 0-23.42 19.51-23.8 19.98-0.1822 0.2247-1.22 2.19-3.175 2.916l-5.503 4.929-2.659 2.421c-1.047 0.9536-3.572 2.302-3.572 2.302-1.964 1.266-4.171 2.848-4.903 3.516l-1.331 1.214 0.0752 3.382 0.7127 0.4835c0.392 0.2659 0.9956 0.552 1.341 0.6358l0.6286 0.1523 0.1319-0.3349c0.1915-0.4862 0.284-2.54 0.1146-2.542-0.0791-1e-3 -0.2851-0.2993-0.458-0.6626 0 0-0.3846-0.427-0.3143-0.6605 0.0265-0.0881 0.1576-0.0949 0.2364-0.1424 0.13-0.0783 1.096 0.714 0.7971 0.4042-0.1813-0.1878 0.4705 0.3017 0.5607 0.5466 0.2063 0.5601-0.1651 1.783-0.1651 1.783-0.0908 0.9805-0.2125 1.932-0.2703 2.114l-0.1052 0.3314c-0.701-0.2766-4.793 0.2078-2.644-0.2724 1.837 3.402 4.665 29.66 7.872 53.06-2.777-19.47-9.052-46.24-9.052-46.24s0.5641 2.112 0.5281 15.26l-0.0526 22.07-0.0686 32.59 2.978 1.606h1.581c7.848 17.61 7.038-8.587 18.98 30.25l4.87 8.1c9.735 5.534 12.49 14.63 25.95 18.85 1.66 6.249 8.827 7.205 11.53 10.25 23.13 5 23.69 3.307 22.38-0.0657-0.4423-3.246 4.894-2.612 7.333-4.083v-1.67l0.1101-2.895c0.1248-0.7878 0.997-27.95 0.9835-30.63l-6e-3 -1.127h-0.4431c-0.2437 0-1.146 0.6859-2.006 1.524l-1.563 1.524-3.502 1.963c-4.277 2.398-6.159 3.521-10.03 5.982-1.645 1.047-3.359 2.124-3.808 2.394l-0.8159 0.4909 0.408-0.3966c0.2244-0.2181 2.962-2.178 6.083-4.355s6.426-4.487 7.343-5.133c0.9175-0.6462 2.953-2.055 4.524-3.132 1.571-1.076 3.005-2.233 3.187-2.57l0.3312-0.6135-0.2495-1.494c-0.1372-0.822-0.3198-1.605-0.4056-1.741-0.0858-0.1354-0.1536-2.132-0.1505-4.437 3e-3 -2.305-0.3806-6.133-0.1681-8.489l-0.1737-4.299-1.797-0.5721c-0.9885-0.3146-1.92-0.6851-2.069-0.8231l-0.272-0.2511 0.8159 0.1917c0.4488 0.1054 1.288 0.3517 1.865 0.5472 0.5769 0.1955 1.144 0.298 1.261 0.2278 0.1166-0.0702-0.0775-0.9524 0.1174-1.92l-0.0945-1.792 0.6592 3.96 2.176 0.6128c1.197 0.337 5.909 1.556 10.47 2.71s9.028 2.346 9.923 2.65l1.628 0.5536 1.466-0.3139 1.038-1.123c0.5711-0.6178 1.406-1.624 1.854-2.235 0.4488-0.6116 2.468-2.526 4.488-4.255 2.019-1.729 4.834-4.193 6.255-5.478 1.421-1.284 3.318-2.994 4.216-3.799 0.8975-0.8055 2.289-2.069 3.092-2.808 0.8032-0.7388 1.415-1.198 1.36-1.022-0.0553 0.1769-2.854 3.042-6.22 6.367s-8.055 8.041-10.42 10.48l-4.302 4.433 1.397 0.6202v2.036h-1.632v0.5082c0 0.2795 0.247 1.07 0.5488 1.756l0.5488 1.248 0.2686 2.684c0.1477 1.476 0.3961 3.937 0.5519 5.468s0.6525 5.444 1.104 8.696c0.8779 6.327 0.9577 8.609 0.1409 4.029-0.8149-4.569-2.876-14.65-3.025-14.8-0.0758-0.0739-0.1845-0.0847-0.2415-0.024s-0.5324 7.368-0.2253 16.23l-0.1217 16.12 2.145 1.033c0.0867-0.2552 0.3869-0.4639 0.6672-0.4639s1.438 1.525 1.526 1.386 0.3246-0.1922 0.5249-0.1173 0.5548-0.0496 0.7878-0.2767 0.6455-0.4129 0.9166-0.4129c11.55-3.632 18.61-1.39 31.09 2.344 0 0 21.3 11.84 26.52 11.78 1.002-0.0119 2.144 0.0646 2.539 0.1698l0.7182 0.1914 0.3062-0.4828 2.656 0.0813c0.1235 4e-3 2.83 0.146 3.042 0.2259l0.3866 0.1446 0.7705-1.072h0.8144l38.67-3.468c1.686 0.1949 2.78 0.746 4.044 1.761 0.4999 0.4015 5.976-0.1681 7.783 0.1574 0 0 5.137 1.606 5.221 1.739 0.184 0.2901 2.318 0.2986 2.318 9e-3 0-0.1116 0.2544-0.2678 0.5654-0.347 3.554 0.9609 5.011 1.568 5.328 1.076 0.1174-0.1823 0.2329-0.6893 0.2566-1.127 0.0237-0.4374 0.1177-2.108 0.209-3.711 0.0912-1.604 0.2906-5.541 0.443-8.748 0.3451-7.262 1.263-25.73 1.646-33.12 0.1582-3.053 0.3437-5.64 0.4122-5.748 0.0685-0.1081 7e-3 -0.2671-0.1358-0.3534l-0.2604-0.1569-1.677 3.386c-0.9222 1.862-2.199 4.639-2.837 6.17-0.6384 1.531-2.042 4.752-3.12 7.158-3.75 8.372-8.201 19.57-10.54 26.51-0.752 2.232-1.396 3.223-0.7675 1.182 2.267-7.362 8.44-24.02 14.88-40.15l2.169-5.432-0.3672-2.864-2.235-2.945c-1.229-1.62-3.003-4.059-3.942-5.42-4.392-6.368-10.14-13.27-16.83-20.19-2.182-2.26-3.139-3.334-2.126-2.386 1.591 1.488 5.775 5.796 9.528 9.809 0.6137 0.6561 3.392 3.698 6.174 6.76s5.333 5.806 5.669 6.097c0.3362 0.2916 1.461 1.696 2.498 3.12 1.038 1.425 2.35 3.065 2.917 3.645l1.03 1.055h0.8696c0.4783 0 2.792-0.4678 5.142-1.04 2.35-0.5717 6.438-1.534 9.086-2.138 6.903-1.576 19.26-5.032 26.03-7.285 1.111-0.3691 2.09-0.6674 2.176-0.663 0.5197 0.0268-1.809 0.8275-11.54 3.967-5.983 1.931-13.45 4.44-16.59 5.577-3.141 1.137-6.323 2.152-7.071 2.256-1.83 0.2541-2.054 0.5924-0.9569 0.8197l0.8797 0.3605-0.1654 0.4201c-0.091 0.231-0.5509 1.087-0.1654 1.628v1.208l-4.811-0.2674-0.1779 6.128c-0.585 20.15-1.27 40.87-1.41 42.62-0.1704 2.136-0.1562 2.17 1.027 2.446 0 0 6.566 3.259 15.26 1.722l26.05-4.073 0.1563 0.2464c1.273 2.007 13 1.539 15.04 1.587 7.031 1.311 15.69-0.0728 15.69-0.0728 2.879-0.0671 4.343-0.0784 5.459-0.0423 0.6838 0.0221 1.388-0.0467 1.564-0.1529 0.1764-0.1062 0.4197-0.1335 0.5407-0.0606 0.2446 0.1473 19.31-5.297 22.74-5.388 5.532 0.6529 2.353-2.516 5.053-2.579h0.6546l0.1569-2.452c0.0863-1.349 0.2212-8.298 0.2997-15.44 0.0786-7.144 0.2035-16.03 0.2777-19.75 0.0742-3.718 0.2682-17.26 0.4312-30.09 0.1629-12.83 0.3769-24.91 0.4754-26.84l0.0424-3.512 0.0334-7.489c0.0184-4.12 0.2752-11.24 0.2466-15.82l0.0765-8.329-1.406-1.179c-0.0583-0.5937-0.1165-1.187-0.1748-1.781l-1.655-0.158-2.164 0.7681c-1.19 0.4225-3.694 1.339-5.564 2.037s-4.256 1.489-5.303 1.757l-1.904 0.4878-8.295 0.5436c-13.42 0.8793-24.96 2.107-45.01 4.791-15.63 2.091-15.75 2.103-16.23 1.627l-0.3043-0.2966 0.6533-0.2769c0.5406-0.2291 18.91-3.598 26.76-4.907 8.597-1.434 21.7-3.963 36.31-7.007 3.515-0.7326 9.757-1.813 13.87-2.401 8.592-1.228 8.633-1.237 8.84-1.872 0.4892-0.7169 1.153-0.9375 1.922-1.293l0.5762-1.009c0.7528-1.318 1.227-2.923 2.568-8.692 1.49-6.412 1.388-6.151 6.497-16.57 4.04-8.241 4.799-9.831 7.528-15.77 2.932-6.384 16.13-36.4 16.13-36.68 0-0.3205 1.229-1.258 1.587-1.364h0.3276l-0.1811 0.729c-0.1686 0.6785-6.348 16.75-8.384 21.8-3.139 7.794-9.993 26.04-13.86 36.89-1.124 3.156-3.456 9.15-5.182 13.32-1.726 4.169-3.137 7.82-3.137 8.113v0.532h1.086l4.081 3.779v4.127l2.435 1.893c3.15 2.448 4.539 3.968 7.038 7.698 1.123 1.677 2.22 3.251 2.436 3.501l0.6511 0.7514c0.3775 0.4357 8.232 12.34 17.9 25.04 1.443 1.895 5.215 6.866 8.383 11.05l5.76 7.6v1.105h-0.4016c-0.2209 0-0.8635-0.5669-1.428-1.26-0.5644-0.6928-2.246-2.691-3.736-4.44-2.804-3.292-8.589-10.11-13.28-15.64-5.884-6.944-12.31-14.29-16.46-18.8l-0.954-1.039-0.5448-0.4962c-0.029-0.1035-1.311-1.553-2.849-3.222-2.881-3.125-6.02-6.846-7.853-9.307-0.5749-0.7721-1.276-1.548-1.558-1.725l-0.5124-0.3207 0.2275 0.7535c0.1252 0.4144 0.2516 6.002 0.2809 12.42 0.1001 21.89 0.3795 102 0.38 109v6.941l0.5439 0.1683c0.2991 0.0925 13.49 1.794 16.97 1.854 5.636 1.849 9.954 3.923 12.77 4.236 4.523 0.3398 12.86-2.138 13.75-3.184 0.18-0.2114 0.5665-0.3844 0.8589-0.3844 0.2923 0 7.851-2.212 8.299-2.649 4.157-0.7853 7.138-1.355 7.382-1.78m-336.1-2.335c0.5281-0.2955 1.888-1.025 3.023-1.621l2.063-1.084 3.505-0.1689c1.928-0.0929 3.532-0.195 3.565-0.2269 0.24-0.2314 1.301-41.23 1.088-42.05-0.0951-0.3645-0.3326-0.8755-0.5277-1.136l-0.3548-0.4728-5.433-0.5668-3.808-1.458c-4.545-1.74-14.47-5.027-14.63-4.846-0.0626 0.0705 0.1167 2.633 0.3985 5.695s0.6614 7.645 0.8436 10.18l0.3313 4.618 2.884 0.7817-0.2776 0.7052 1.144 0.293c0.6295 0.1611 2.736 1.196 4.68 2.299 5.724 3.248 6.411 3.623 9.606 5.241 1.675 0.8484 3.008 1.58 2.961 1.625-0.0468 0.0456-4.344-1.822-9.55-4.151s-9.995-3.971-9.95-4.234h-0.4847l-0.161 6.429c-0.0885 3.536-0.2329 11.2-0.3209 17.03l-0.1599 10.6c0.3923 0.1505 4.235-0.5002 9.565-3.482zm279-129.1c-0.0826-0.496-0.4352-1.232-0.7835-1.634-2.494-2.885-2.673-2.999-2.673-1.705-0.1124 1.237-0.3593 0.5324-0.8159 0.2651-0.6461 0-0.1761 0.8071 1.02 1.751 0.7105 0.561 1.414 1.157 1.564 1.324 0.3199 0.3581 1.288 1.036 1.599 0.8925l0.2396 8e-3 -0.1501-0.9018z" fill="none" stroke="#a9a9a9" stroke-dashoffset="6.35" style="mix-blend-mode:normal"/></svg>
