<?xml version="1.0" encoding="UTF-8"?>
<svg width="1920" height="1080" version="1.1" viewBox="0 0 508 285.8" xmlns="http://www.w3.org/2000/svg">
 <path d="m36.6 288.5v0.6c-0.2 0.5-5-1 0-0.6zm0.6 0.9 0.3-0.6c0.8-1 10-0.8 0.2-0.8l4.9-14.6 8.4 0.2c5 0.2 10 0.4 15.2 0.6l-1 3c-3 13-3 13-28 12.2zm20.6-8.3-1.8 5.3c1-1 1-4 1.8-5.3zm-13 3.9-0.6 1.2s0.7-1 0.6-1.2zm2.8-8.1 0.4-1.4c0-0.3-1 2-1 2.3 0 0.6 0.2 0.2 0.6-1zm39.9 11.8 1.1-4.5 1.8-6.9 0.7-2.7h1.5c5 0 20 0.4 20.8 0.5 0.8 0.1 0.8 0.6 0.3 2.2l-0.7 3.4c-0.4 2-0.9 5-1.5 7.1zm8.5-9.5c0-1-1 3-1.3 4.6 0.5-2 0.9-3 1.3-4.7zm23.8-15.7c0-1 0.3-2 1-1.8s0.7 0 0.6 1c-0.8 4-2 8-2.8 11.8-0.09 2-0.5 4-1.1 6.1 0 0.5-0.6 4-1 4.4-4 16 3-19 3.3-21.5zm3.3-2.6 0.1-1h-1c-0.5 0-1 0-1-0.2l0.4-0.2c0.5 0 0.5-0.2 0-0.6-0.4-0.3-0.4-0.4-0.2-0.6 0.3-0.3 0.5-0.2 0.9 0.2 0.8 0.7 1 0.7 1.3-0.1l0.3-1.3c0.8-3 2-6 2.1-9.3 0 0-0.3 2-0.9 5-0.7 3-1 6-1.3 8.3-0.5 0.7-1 3-2 8-2 7 1-8 1.3-8.2zm-4 28.5 0.3-1.2 2.6-12.7h2.9c2 0 3 0 3 0.3v0c0.1-0.2 0.4-0.3 1.7-0.2 5 0.2 10 0.4 15.5 0.6l-1 5.9-1 6.6-0.2 1zm24.8-0.8 1.1-6.8 1-5.7 1.7 0.1 2.9 0.2c0.7 0 1 0 1.1 0.4s0.1 0.4 0.1 0c0-0.5-0.6-0.5 9.7-0.1l7.4 0.3-0.1 1.2-0.4 2.6-0.8 5.1-0.4 3.7h-23.4zm7.2-7.7-0.7 4zm17.2 8c0.6-4 1-7 1.5-11l0.2-0.9 5.4 0.2 17.4 0.7-0.2 2.7-0.5 5.8-0.3 3.2h-23.6zm6.9-6.4v-1.2l-0.2 1-0.2 1.8c0 0.5 0 0.5 0.2 0.1zm11.7-3.5c0-0.8 0-1-0.1-0.8-0.2 0.4-0.3 2-0.1 2.2zm5.6 10.2c0.5-4 0.9-8 1.1-11.3l5.8 0.1c5 0.3 11 0.5 16.5 0.7 0.6 0.1 0.6 0.2 0.5 1.4l-1.731 9.506zm6.4-4.5v-1.4l-0.4 2.6c-0.1 3 0.2 2 0.4-1.2zm17.8 4.7c0.2-2 0.5-4 0.5-6.1l0.1-3.5 0.2-1h4.3c11 0.4 18 0.8 18.3 1 0.3 3-0.03 7-0.1 9.8zm24.4-9.8 5.7 0.1c5 0.2 10 0.5 14.9 0.7l2.2 0.1v3.7c0 2 0 4 0.2 4.5l0.1 1h-23.2c-0.05-3 0.03-7 0.1-10.1zm26.3 10c-0.5-20-1-40-1.5-60h4.2c2 0 4 0 4-0.1l-4-0.2c-2 0-4-0.1-4.1-0.2l-0.3-5.3-0.1-5.2 5.4-0.2-5.4-0.1v-5l5.9-0.2-6-0.2-0.2-5.2-0.2-6.7c-0.1-1 0-2 0.2-1.6 0.2 0 0.3-0.7 0.1-2.5 0-1-0.2-2-0.3-2.4l-0.2-0.9c0-0.6 0.1-0.8 0.4-1 0.4 0 0.4 0 0 0s-0.4-0.4-0.4-2.4v-2.2l3.7 0.2c2 0 4 0.2 3.7 0.2l0.2 2.2 0.1 2.2-2.8 0.2 2.7 0.1 0.2 1.3 0.1 2.4c0 1 0 1-0.5 1.1s-0.5 0 0 0.2c0.6 0.2 0.8 0.5 0.8 1.7 0 0.7-0.08 3 0.22 3.187 0.2 0 0.2-3 0.18-3.087l-0.1-1.2-0.2-0.6 4.5 0.1c2 0 5 0.2 4.6 0.2s0.2 1 0.2 2.5l0.2 2.4-0.6-0.1s-9 0.02-8.469 0.0333l8.869 0.2989 0.4001 4.768h-4.5c0.8 0.1 2 0.2 2.4 0.3h2.4v0.8l0.3 4.2-1.3-0.1c-3-0.1-5-0.1-7.9-0.1v-0.9c0-1-0.3-2-0.6-2.1v1.5l0.1 1.4-1.6 0.2h0.8c0.7 0 0.7 0 0.9 1.7l0.1 2.5v1h-3l3 0.2 0.1 1.1 0.2 2.5v1.4l-3.5 0.1h-3.4l3.4 0.1c3 0 4 0.2 3.6 0.4l0.2 3.7c0 2 0.2 4 0.3 5.2l0.2 1.8-1.6 0.1-1.5 0.1 3 0.1v1.3c0.2 0.7-3 4-3.4 4.6v0.5l5.3 0.2 40.4 1.1c0.2 0 0.3 0.2 0.3 0.4s0.2 0.3 0.3 0.3c0.3 0 0.3-0.2-0.1-1.5-0.2-0.5-0.5-2-0.6-3.9l-0.6-5c-0.7-4-1-8-1-7.8 0.2-0.3 0.6 0.5 0.6 1.2s0.4 4 1.5 12.3l0.5 4 2.7 0.1 17.5 0.6c15 0.4 29 0.9 44 1.4l-0.9-4c-1-5-2-9-3.1-14l-0.5-2c-0.9-4-2-8-3-11.5-0.5-3-1-6-2-9.1l-1-3.9c-0.2-0.3-0.3-1-0.4-2.3 0-0.9-0.2-2-0.3-1.8-0.3-0.1-0.8-2-0.8-2.5 0-0.2 0.2-0.4 0.6-0.4 0.5 0 0.6 0.2 1 1.9l0.7 2.6c0.2 0.8 0.6 1 0.6 0.8l-0.6-2.6-0.6-2.5c0-0.3 4-0.2 5.2 0 0.4 0.2 0.6 0.8 1.2 3.1 2 10 5 20 7.8 30.1h-3l-3-0.2-0.3-1.5c-0.4-2-0.8-3-1.2-4.9 0-0.1 0.3-0.3 0.7-0.3 0.6-0.1 0.6-0.1-0.1-0.2-0.7 0-0.8-0.1-1-1l-1.3-4.1 0.2 1.6 2.5 10.2c0 0.2-0.2 0.3-0.5 0.3-0.6 0-0.6 0.6 0 0.8l2.4 0.1 28.8 0.9s5-6 6-5.5c4 0.1 7 0.2 11 0.4l-0.5-1.5-0.3-1.3-0.4-1.3c4-0.2 7-0.05 10.5 0.4 0-0.2 0-0.5-0.2-0.8-0.3-0.5-1-3-1.4-3.9l3.4-0.1m-64.8-13.8c-0.4 0.4 3 12 2.8 11.4 0-0.2-3-12-2.8-11.4zm-104-3.8h-1.6c-0.4 0.1 0 0.1 0.8 0.1h0.8zm-205.7 86 1.6-5.5 1.2-4.2 7.9 0.2 8.6 0.2c0.5 0 0.8 0.1 0.8 0.4 0 0.2 0 0.2 0.1 0s1-0.3 3-0.3c3 0 3 0 2.9 0.5l-3.705 14.17-23.96 0.0538zm6.9-2.4c0-0.9-0.7 1-1.579 4.782 0 0.7 2-5 1.579-4.782zm-57.7 4.1c2-4 3-8 4.5-12 0.2-0.4 0.5-0.4 9.1-0.2 5 0 8 0 7.5-0.1l-5.7-0.2c-3 0-4-0.1-4.3-0.3 0-0.3 0-0.3-0.2 0-0.2 0.2-0.7 0.3-2.1 0.2l-3-0.2h-1l0.4-0.9c3-7 5-13 5-12.9h1.7l11.1 0.2 10 0.3c0.2 0.1-0.4 2-2 7l-2.3 6.7-3 0.1h-3.2l2.9 0.2 3 0.3-2.3 7.2-2.4 7.1c-4-1-26 3-23.7-2.5zm9.4-8.1 1.2-3.7-1.6 3.8-2.7 7.8c0 0.3 0.7-1 3-7.9zm10.6 3c0.2-0.5 0.3-1 0.4-1.6 0 0-0.9 2-1.3 3.6-0.3 1 0.5-0.7 1-2zm4-11.6c0.4-1 0.6-2 0.5-1.8 0 0-1 4-1.7 4.9-0.3 1 0.8-2 1.3-3.1zm-10.7-2c0.7-2 1-4 1.1-3.6-0.4 1-0.8 2-1.3 3-0.9 2-2 5-1.3 4.5l1.5-3.8zm12.1-2c0.3-0.6 0.4-1 0.5-2l-0.2 0.3c-0.4 1-0.8 2-1.1 3.5 0 0.4 0.3-0.2 0.8-1.8zm-41.76 22.9 3.561-14.9h5.1c3 0 5 0 5 0.2l-1 3c-5 12-5 13-3.6 10.1l1-2.5c0.9-2 3-9 3.7-9.9l0.3-1 3 0.1c2 0 3 0.2 3 0.3 0.1 0-4 12-4.68 14.43zm259.3-8.003c-5-0.2-10-0.4-14.8-0.6-0.4-0.1-0.4-0.3-0.3-4.1l0.2-7v-2.8l2.3 0.2c5 0.2 9 0.4 14 0.4 0-0.2-3-0.4-10-0.6-2-0.05-4-0.2-5.4-0.3l-1-0.1 0.1-4.4 0.2-6.5v-2.2l4.6 0.2 17 0.7c0.2 0.2 0.3 3 0.3 8v5h-2.6c-2-0.1-3 0-2.7 0.1 0 0.2 0.8 0.3 2.1 0.3 3 0 3 0 3.4 2.5l0.2 6.8 0.1 4.7h-1.9zm-24.8-1-13.8-0.7c0.2-3 0.4-7 0.5-10l0.1-3.4h1.7l20.6 0.8-0.1 6.8-0.2 6.8h-2.4l-6.4-0.2zm-17.1-0.6c-7-0.3-14-0.5-20.6-0.8 0 0 0-2 0.3-5l0.6-6.9 0.2-1.8h1.8l20.3 0.9c0.3 0 0.3 0.5 0.2 2.4-0.3 4-0.6 7-0.9 11.2h-2zm-3.2-8.8c0-0.5-0.1-0.1-0.1 1v1-2zm-26.5 7.8c-5-0.2-10-0.4-14.6-0.6l0.7-5c0.4-3 0.8-6 0.8-6.8l0.2-1.9 4.7 0.2 17.6 0.7c0.1 0.2-1 13-1 13.2-0.2 0.5-1 0.5-8.4 0.2zm-38.4-1.5c-0.1-0.1 2-14 2.1-13.6l21.6 0.8c0.9 0.1 1 0.4 0.4 3-0.3 2-1 8-1.1 8.9 0 2 0.1 2-3.7 1.6zm6.8-6.8c0-0.7 0-0.7-0.2-0.1-0.1 0.4-0.2 0.8-0.2 1.2 0 0.5 0 0.5 0.2 0zm-17.2 6.6-5.7-0.2c-2 0-2 0-1.9-0.6 0-0.5 0-0.5-0.2 0s-0.3 0.5-3 0.4l-2.8-0.2 0.7-3.6c1-5 2-9 2.8-13.7 0.8-3 1-7 2.1-10l22 1c-1 4-2 8-2 12.7-7 0.02-13-0.08-19.5-0.3-2-0.2-2-0.1-2.5 0 0 0.2 1 0.3 2.3 0.3 2 0 2 0 2.5 0.4 0.3 0.4 0.3 0.4 0.3 0 0-0.3 0.2-0.3 1-0.3 5 0.4 10 0.6 15.6 0.8 0 0 0 1-0.3 2-0.6 2-1 5-1.3 7.4-0.3 1-0.4 2-0.5 3.7 0 0.4-0.3 0.4-2.9 0.4zm6-12.8c-0.1-0.8-0.7 2-0.7 2.6 0 0.5 0 0.3 0.3-0.6l0.3-2zm-33.6 12c-6-0.3-11-0.4-16.8-0.5-0.1-0.1 0-1 0.3-2.1 1-4 2-8 3-11.5h3c2 0 3 0 2.7-0.3 0-0.1-1-0.2-2.7-0.2l-2.7-0.1c-0.2-0.2 3-13 3.3-13 8 0.6 12 0.1 21.7 0.6l-0.5 3c-0.8 3-2 7-2.2 9.9-6 0.2-10-0.5-16.5-0.3 4 0.9 8 0.4 14.4 0.8h2l-0.1 0.9-0.7 2.8-2 10zm1.6-5.6c0.7-3 1-5 0.8-4.4-0.2 0.1-2 8-1.8 8 0 0.5 0.4-0.8 1-3.6zm-11.1-0.5 0.8-3.8v-0.7l-0.2 0.7c-0.6 2-2 7-1.5 7zm14.2-13.2c0.6-3 0.8-4 0.5-3.5l-1.2 4.8c-0.5 3 0 2 0.7-1.3zm-9.8-5.7-2 7.6c-0.8 2 3-10 2-7.6zm-15.1 24.6-10.3-0.3c-4 0.06-7-0.05-10.5-0.3 0 0 0-0.9 0.3-1.7l3.2-10.9 0.3-1h3.4l19.3 0.4c0.3 0.2-0.2 2-0.5 2.7-0.3 2-0.8 4-1.4 6.2l-1.3 4.9zm-2-6.1c0.5-2 0.5-2 0-1-0.4 2-0.5 2-0.3 1.9l0.4-0.9zm-10.5-2.7c0.2-0.6 0.4-1 0.4-1.9 0 0-0.3 0.5-0.5 1.3l-0.6 2.3zm-17.9 8-5.9-0.1-7.3-0.1-1.6-0.1 0.4-1.3 2.3-6.9 1.8-5.6 8.4 0.2c3-0.04 6-4e-3 8.7 0.1 0-0.3-3-0.4-10.6-0.6-3 0-6-0.2-6.2-0.2l2.1-6.7 2.2-6.5 2.1 0.1 20 0.7c0.3 0 0.2 0.6-0.3 2l-2.3 8.1-0.8 2.9h-3c-4 0-3 0.1 0.2 0.3l2.6 0.2-0.5 1.5c-1 3-2 7-3 10.1l-0.5 2h-8.8zm3.3-1.7c0.4-2 0.5-2 0.1-1.6-0.5 1-0.9 3-0.7 3 0 0 0.4-0.6 0.6-1.4zm-11-1.8c0.7-2 1-5 2.2-7.3-1 3-2 6-3 9.2 0.2 0 0.5-1 0.8-1.9zm13.3-5.8 0.7-2.7c0-0.4-2 5-2 6l-0.1 0.8 0.3-0.8zm-7.8-11.1c0-0.4-0.2-0.1-0.5 0.7l-0.7 2.3c-0.1 0.5 0 0.2 0.4-0.7zm11.4-1.5-0.7 2.2zm-61.8 21-4.5-0.1 0.1-1.5c0-0.9 0.2-2 0.3-2 0.1-0.4 0.1-0.4 0-0.1-0.3 0.2-0.3-1-0.4-5v-5.4h2.2c2 0 2 0 2 0.4 0 0.4 0 0.4 0.3 0 0.3-0.5 0.6-0.5 6-0.3h5.5c-0.1-0.2-9-0.5-15.7-0.6-0.2 0-0.3-0.4-0.3-1.5 0-1 0.3-2 2.2-6.6l2-5.1h2.9c2 0 3 0 2.8 0.2l-0.7 1.8-0.7 1.9c0 0.4 0.8-1 1.3-2.7l0.5-1.2 7.7 0.1c4 0 8 0.2 8.5 0.3l0.7 0.2-1.7 4.4-2.4 6.5-0.8 2h-3c-2 0-3 0-2.9 0.2 0 0.1 1 0.2 2.8 0.2 2 0 3 0.1 2.8 0.3l-4.9 13.2c-0.2 0.6 0.9 0.5-12.6 0.3zm7.1-2c0.5-2 0.6-2 0.2-1.4-0.5 0.9-0.8 2-1 2.9 0.2-0.2 0.6-0.9 0.8-1.6zm-9.9-4.7 0.5-1.5c0-0.4-0.2 0-0.8 1.7-0.4 1-0.6 2-0.4 1.4zm1.1-2.8c0.5-1 0.9-2 1.3-3.4 0-0.3-2 4-1.9 4.3 0 0.3 0.3-0.1 0.6-0.9zm2.9-7c0.1-0.5 0-0.4-0.3 0.2l-0.5 1.2c0 0.5 0.6-0.6 0.8-1.4zm220.4 8.5-8.4-0.4c-0.1-0.1 0-2 0.1-4 0.2-3 0.4-6 0.6-9 0.1-0.2 19 0.5 20.6 0.7l1.4 0.1-0.2 4.2-0.2 6.5v2.3h-2.8zm-31.7-1.3 0.1-2 0.6-6.4 0.5-4.5 21.7 0.7c0.1 0.1-0.4 9-0.6 11.4 0 0.9-0.3 2-0.4 1.7-14-0.5-0.7-0.03-21.9-0.9zm-8.8-0.2c-5-0.2-10-0.4-14.4-0.6l0.3-2 1.4-10.2v-0.8h2.4l19.5 0.9c-0.2 4-0.5 8-1 12.3v0.6h-3.3l-5-0.2zm-21.8-0.8-9.6-0.3c-7-0.2-6-0.2-6.3-0.8 0.4-3 0.9-6 1.4-8.4l0.8-4.1 6.1 0.1c5 0.3 10 0.5 15.7 0.7v1.2l-0.6 4c-0.3 2-0.6 5-0.9 7v0.9h-1.3zm-8.6-10.2c0.06-1 0.2-2 0.3-2.9-0.2 0.2-0.4 1-1 5 0 0.5 0 0.7 0.2 0.4zm-70.1 7.8c-5-0.2-10-0.3-14.3-0.4l1.3-5 2-6.4 0.4-1.7 8.1 0.2c4 0 8 0.2 8.2 0.2l-0.6 3.1 0.8933-3.168 3.307 0.1678h2.5c-0.8 3-1 6-2.1 8.6l-1.2 4.6h-1.3c-0.7 0-4 0-7.2-0.2zm-5.8-9.6c0.8-3 1-4 0.7-3.3-0.2 0-2 6-1.9 6.5 0 0.7 0.4-0.3 1.2-3.2zm10.9 0.1-1 3.4zm-47.5 8.5-9.8-0.3c-5 0-10-0.2-9.7-0.2 0-0.1 0.6-2 3.3-9.3l1.4-3.7h5.8l11.3 0.2 5.6 0.2-1.3 3.7c-0.7 2-2 5-2.1 6.6l-1 2.9h-1.7zm-0.8-4.5c0.5-2 0.3-2-0.3 0l-0.4 1.3c0.2 0 0.4-0.6 0.7-1.3zm-11.2-0.2 0.4-1.6c-0.1-0.1-1 2-1.2 2.8 0 0.5 0.3 0 0.8-1.2zm1.9-5.4c0.3-1 0.6-2 1-3-0.9 2-2 4-2.5 6.5 0 0.3 0.6-1 1.5-3.5zm11.7-1.6 0.1-0.6-0.3 0.6c-0.4 0.7-1 3-1.1 3.5 0 0.3 1-3 1.3-3.5zm76.7 9.8 0.5-2.3c2-9 4-18 5.6-26.8 2-10 6-22 6.5-31.8 0-1 0.2-2 0.6-1.6l0.6 0.1c-2 12-4 19-6.4 30-0.4 2-0.5 3-0.4 2.8-0.3 4-1 8-2.3 11.1-0.2 3-0.9 7-2 10.2-0.2 0-0.3 0.8-0.4 1.7 0 1-0.3 2-0.5 3l-0.5 2.2c0 0.6-0.2 1-0.4 1.4-0.3 0.4-0.9 0.4-0.9 0zm-121-8.2v-4.3h1.7c1 0 2 0.1 1.7 0.2l-0.8 2.3c-0.8 2-2 4-2.5 6v-4.2zm250.3 3-8-0.3h-1.3v-6.3l0.1-6.2h5.4c0-0.2-0.8-0.3-1.8-0.3l-2.8-0.1-0.8-0.2v-5.9l0.3-6 5.9 0.2c5 0.2 10 0.4 14.7 0.6 0.1 0 0.2 2 0.2 5 0 3 0 6 0.2 6l0.1 1-6.2-0.2c-3 2e-3 -6-0.06-9.5-0.2 0 0.2 0.6 0.3 1.7 0.3 3 0 14 0.5 13.9 0.6 0 0 0.2 3 0.2 6.3l0.1 6.1h-2.8l-9.6-0.3zm-18-0.5-12.5-0.5h-1.5l0.1-2.2c0.3-3 0.5-7 0.6-10.3h7.3l5.9 0.3c3 0 6 0.2 7 0.3l1.2 0.1v6.3l-0.1 6.2h-1.9l-6-0.2zm-36.5-1.6c-0.2-0.1 0.8-12 1-12.3l21.3 0.8-0.2 3.6-0.4 6.2-0.2 2.5c-5 0.02-22-0.8-21.5-0.8zm-10.3-0.1c-4-0.1-8-0.3-11.3-0.5h-1.2l0.1-1.1 0.8-6.3 0.7-5.1h1.7c3 0 20 0.7 19.6 0.8s-0.4 6-0.8 11l-0.2 1.4h-2.3zm-19.2-0.8c-5-0.2-11-0.5-16-0.7-0.1-0.1 0.2-2 0.6-4l1-5.8c0.3-3 0.3-3 1.2-2.6l20.6 0.9-0.2 1.7c0 0.8-0.4 3-0.7 5.4-0.7 6-0.7 5-1.3 5.4zm-25.3-1-5.8-0.1h-2v-0.7c0-0.7 0-0.7-0.1 0-0.2 0.5-0.2 0.5-2.8 0.4l-2.8-0.1c0.5-4 1-8 2.3-11.3l0.2-1.1h1.3c7 0.3 13 0.6 20.1 1 0 0-0.3 3-0.9 6l-1 6.1h-2.4l-6.1-0.1zm-15.4-0.4c0-0.5 1-6 1.4-6.4l-0.6 3.3c-0.6 3-0.8 4-0.8 3.1zm-25-0.7-2.739-0.0644 3.036-12.54 21.3 0.5c-1 4-1 8-2.4 12l-0.2 0.6c-6-0.2-13-0.5-19-0.5zm3.569-4.556-0.8067 3.251zm-22.97 3.956c-3 0-6-0.1-6.4-0.2l3.3-11.7c0.2-0.6 0.3-0.6 2-0.7h2.8c2 0.3-0.4 4 1.1 0.1h5c4 0.2 5 0.3 5.3 0.6 0.2 0.3-0.3 3-0.2827 2.882s0.6-3 0.8827-3.282c2 0.1 3 0.1 5.2 0.1-1 4-2 7-2.6 10.8l-0.4 1.7h-9.6zm-0.4-1.7 2.266-7.861zm-20.9 1.2c-4 0-8-0.2-8.2-0.2 1-4 3-9 4.4-12.6 4 0 19 0.5 20 0.6l1.5 0.2-3.3 11.1-0.3 1.3h-3zm-1.8-2.6c0.5-2 1-4 1.7-5.5 0-0.3-3 7-2.6 7.8 0 0.6 0.3-0.1 1-2.3zm11.2-0.9-0.8 2.1zm-27.3 3.1c-5 0.2-9-6e-3 -13.7-0.5 0.5-2 1-4 2.1-6l1.3-3.5 1-2.8h3.6c5 0 18 0.3 18.4 0.4 0.2 0.2-4 12-4.1 12.5l-0.4 0.1zm5.1-6.3 0.3-1.1c-0.2 0-0.6 1-0.8 1.9-0.2 1 0.2 0.4 0.5-0.8zm-10-2.7c0.4-0.8 0.6-2 0.4-1.6 0 0-1 2-1.2 3.2-0.1 0.5 0.4-0.4 0.9-1.6zm11.5-1.7c-0.5 0.9-0.8 2-1 2.9l0.5-1.3zm-28.8 10.2c-4-4e-3 -9-0.1-13.4-0.3-2-0.2-2 0.1-0.6-3.4l2.5-5.8 1.5-3.7 2.9 0.1h2.5c-0.2-0.2-1-0.3-2.8-0.3l-2.5-0.1 2-4.6 1.6-4.2 1.3-3.2 7.9 0.1c4 0.1 8 0.2 11.7 0.4 2 0 2 0 2 0.4 0 0.3-1 3-2.2 6l-2 5.6-5.8 0.1 2.7 0.2c2 0 3 0.2 2.8 0.2l-1 3.3-2.4 6.2-1 3h-7.8zm-8-4-0.5 1c-0.7 2-0.7 2 0 0.4zm2-5c-0.4 0.6-0.7 1-0.9 2 0 0.2 0.1 0 0.4-0.5l0.6-1.6zm12-4c-2-0.1-4-0.2-5.5-0.1h-4.8l3.7 0.2c6 0.2 7 0.2 6.4 0zm-9.3-2.4 0.6-1.8c-0.1-0.1-0.2 0-0.2 0.1l-0.4 1.6c-0.8 2-1 2-0.7 2l0.8-1.8zm12.4-4c0-0.5-0.8 1-1 2.1 0 0.4 0.1 0 0.4-0.6 0.4-0.7 0.6-1 0.6-1.6zm-28.8 12.4v-6.5l4.3 0.1 4.5 0.2-4.9 11.9c-0.3 0.8-0.3 0.8-2.1 0.8h-1.8zm374 6.3c-2 0-3-0.2-3.5-0.2-0.2-0.2-1-4-1.2-5 0-0.3 0.6-0.4 2.1-0.5h2.1l-4.4-0.1-0.4-2-0.6-2.6c-0.2-0.7-0.1-0.8 0.3-1l0.6-0.2h-0.6c-0.3 0-0.6-0.2-0.6-0.6-1-5-1-5 0-4.8 0.3 0 0.1-0.1-0.3-0.1-0.9 0-0.8 0.1-1.5-3.2l-1-4.5-0.7-2.6h9.2l0.6 2c0.5 2 0.6 3 0.3 3 0 0-0.3 0-0.5 0.2-0.3 0.1-0.2 0.2 0.3 0.2 0.7 0 0.8 0.2 1.4 3l0.4 1.7c0 0.3-0.2 0.4-3.5 0.4h-3.5l3.5 0.2c2 0 4 0.2 3.6 0.3l1.2 4.8-3.6 0.3h-3.5l3.5 0.1 3.7 0.3 1.2 4.8c0.1 0.5 0 0.5-2.3 0.5h-2.5l5 0.4 0.5 2.2c0.8 3 0.9 3-0.8 3.1l-4.6-0.1zm-9-0.3c-4-0.1-5-0.2-4.8-0.5l-0.6-2.3-0.6-2.4c3-0.3 6-0.3 9.5 0 0.2 0.1 1 5 1.3 5.1 0 0.2 0 0.3-0.2 0.3l-4.7-0.2zm-12.7-0.4-2.4-0.1-0.4-2.1-0.6-2.8c0-0.6 0-0.6 1-0.7h1.2l-1.2-0.1-1.1-0.2-0.5-2.2c-1-4 2-3 5.2-3-2-0.2-4-0.2-5.8-0.3l-0.4-2.6-0.5-2.5 5.8-0.3h-5.9l-0.4-2.3-0.5-2.6c3-0.3 6-0.3 9.2-0.1l1 5-1 0.3h-1l2.2 0.1 0.4 2.1 0.6 2.7c0.1 0.5 0 0.5-1 0.6h-1.2l1.1 0.1c1 0 1 0 1.9 3.1l0.4 2.3-2.4 0.1h1.2l1.3 0.2c0.3 2 0.6 3 1 5.1 0 0.4-0.7 0.4-7.2 0.2zm-8.8-0.3c-2 0-4-0.1-3.8-0.3l-0.5-2-0.4-2.5-0.1-0.8h5.7l-2.9-0.2-2.9-0.1-0.3-2-0.4-2.7c-0.1-0.6 0.2-0.5 0.1015-0.818l-1.101-5.382c0.2-0.1 9 0.3 9.3 0.5s2 10 2 10.3c0 0.3-0.5 0.4-1.8 0.5h-1.8l3.7 0.2 0.4 2 0.5 2.9c0.2 0.6 0.1 0.6-1 0.6zm-12.7-0.4-1.4-0.1-0.3-2-0.4-2.7-0.1-0.7h3.5c4 0.1 6 0.3 6.1 0.5l0.5 2.7 0.4 2.4h-3.5zm-8.2-0.3c-4 0-3 0-3.7-2.6l-0.3-2.2-0.2-0.8 4.8-0.1h-2.4c-2-0.1-2-0.2-2.4-0.7-0.7-4-1-8-1.7-12.7-0.2-0.9-0.3-2-0.4-2.8 0-0.2 0.7-0.3 2.5-0.4h2.5l-5.1-0.3-0.2-1-0.3-2.5-0.1-1.4 5.9-0.1-3-0.1-3-0.2-0.2-1-0.3-2.5-0.2-1.4 2.4-0.2h-1.2c-1 0-1 0-1.5-2.7 0-0.7-0.2-2-0.3-1.8 0-0.3 0.1-0.4 2-0.4 1 0 3 0 4.5 0.2l2.5 0.1 0.4 2.4 0.3 2.4-4.3 0.1 4.3 0.1 0.3 2.1 0.5 2.6c0 0.3-0.2 0.4-1.4 0.4l-1.6 0.1h1.5c2 0.1 2 0.1 1.7 1l0.3 2.1c0.8 3-2 2-3.7 2.1l4 0.3 0.4243 5.319-8.716-0.0811c6 0.2 9-0.2 9.078-0.2191l0.8136 5.081c0 0.5 0 0.6-0.5 0.7s-0.5 0.1 0 0.2c0.6 0 0.6 0 1 2.7 0.5 3 0.6 3-2 2.7h-2.4l4.8 0.2 0.3 2 0.5 2.7 0.1 0.8h-1.5zm-14.5-0.5-2.3-0.2-0.1-1.5-0.3-2.7-0.2-1.2c5-0.1 5-0.09 0.1-0.2l-0.2-0.8c-0.2-2-0.3-3-0.4-4.6h4l4.7 0.2c0.7 0.2 0.7 0.2 1 2.3 0.8 4-1 3-4.2 3.2l4.6 0.2 0.3 2 0.2 2.9v0.6h-2.4zm-9.3-0.3h-3l-0.5-4.5-0.2-1 4.5-0.2h-4.5l-0.1-1.7c0-0.9-0.2-2-0.3-2.6l-0.1-1h4.3c2 0 4 0 4.8 0.2 0.9 0.5 0.5 3 1 4.7 0 0.6 0 0.6-2.3 0.6l-2.4 0.1 4.7 0.1 0.1 0.8 0.3 2.8 0.2 2h-1.7zm-8.5-0.2-4.7-0.1-0.2-1.2-0.3-2.7-0.1-1.5 2.3-0.1h2.4l-4.7-0.2v-0.8l-0.2-2.6-0.2-2 9.4 0.2 0.2 1 0.3 2.7 0.1 1.7-2 0.2h1c1 0 1 0.1 1.1 1l0.4 4.6zm-15.2-3.4-0.1-2.4 5.8-0.1-6-0.1v-4.8l-0.8-10.2v-1.4l4.8-0.2h-4.9v-1c0-0.5 0-2-0.2-2.5l-0.1-1.7c3 0.7 7-0.7 9.3 0.6l0.2784 4.635-3.578 0.2649h1.8l1.9 0.1 0.1 2.1c0.2 3 0.4 5 0.6 7.8v0.7l-7.6 0.2h3.8c4 0 4-0.3 4.2 3.4l0.1 2.2-2.3 0.2h2.3l0.1 1.3 0.2 2.7 0.2 1.3h-4.7c-5-0.2-5 1-5.2-3.1zm-40.5 0.3c-5-0.3-10-0.5-15.6-0.6v-2.7c0.2-3 0.4-6 0.6-9.2 0-0.1 11 0.2 17.6 0.6l3.2 0.1v12h-2.6zm128.2-0.2c-2 0-4-0.2-3.7-0.3-0.2-0.2-1-4-1-4.8-0.1-0.4 0-0.5 1-0.6h1l-1.2-0.1h-1.1l-0.3-1.5-0.5-2.2c-0.7-2 0.5-2 1.8-1.8-0.8 0.03-2-0.04-2.384-0.1l-1.559-10.56 1.643-0.1378-2-0.2-0.4-2.2c-0.5-2-0.08-3-0.2786-2.801-0.3 0-0.6-1-1.021-3.299 0-0.6-0.2-1-0.3-1.4l7.2-0.1h1.8l0.5 2 0.5 3c-10-0.1-8 0.1 0.2 0.1002l0.4 1.9 0.5 2.4 0.2 0.7h-7.1l7.2 0.3 0.4 2.2c0.5 2 0.9 4 1.2 5.8l0.6 2.4-5.8 0.3h5.8l0.5 2.3c0.7 3 1 6 1.8 8.7l-1.1 0.1zm3-5.6h-2.7c-0.7 0-0.2 0.1 1.3 0.1h1.4zm6.063-10.8-15.6-0.2039zm-175.1 15.1v-2c0.3-3 0.6-6 0.9-9.2l0.1-0.7 5.1 0.2c10 0.3 16 0.6 15.8 0.7l-0.2 3.4-0.5 8.3c-7 0.1-14-0.4-21.2-0.7zm136.5 0.2c-5-0.1-5-0.2-5-1.2l-0.3-2.3-0.3-2 4.7 0.1 4.8 0.2 0.8 5c-0.1 0.3-1 0.3-4.7 0.2zm-158.8-0.9 0.5-4c0.4-3 0.8-5 1-8 7 0.07 14 0.4 20.8 0.9 0.2 0.1 0.2 0.9-0.1 4.4l-0.5 5.8-0.2 1.6zm-22.3-0.9 2-11.8c6 6e-3 12 0.2 18.7 0.6h2.2v0.8c0 0.5-0.1 1-0.3 1.9-0.4 2-0.4 2-0.6 4.7l-0.4 3.8-0.2 0.9h-1.2zm-24.3 0.1c0.9-4 2-10 2.1-9.4-0.5 3-1 6-2 9.5zm22.1 0c-7-0.2-13-0.5-20-1l0.7-3.8 1.2-5.9 0.5-2.1 21.1 1c-0.6 4-1 8-2 11.6 0 0.2-1 0.4-1.5 0.2zm-3.4-4.9-0.5414 2.666zm-9.3-6-0.769 3.986zm-21.7 9.7c-5-0.4-9 0-14.6-0.5-0.1-0.1 3-12 3-11.8s19 0.2 20.2 0.5h0.7l-0.3 1.7c-0.6 3-1 6-2 9.4v0.8zm2.6-5.6-2.578 10.3zm-10.3-0.6c0-0.6-0.4 0.5-0.6 1.7l-0.1 1 0.3-1.1zm-20.9 5.4c-7-0.2-9-0.3-8.6-0.6l1.7-6 1.7-5.7 3.3 0.1c6 0.1 12 0.3 17.4 0.5 0.6 0 0.6 0.1 0.4 0.8 0 0.4-0.2 1-0.4 1.4-0.7 3-1 6-2.3 9.5-3 1-10 0.09-13.2 0zm-0.6-8c0.4-1 0.4-3 0-1.3l-0.4 1.2c-0.2 0.5-0.2 1 0 1.3zm-23.4 7.6c-4-0.1-7-0.3-7.1-0.4-0.1 0 0.7-3 1.8-6l2-5.8h2.7l2.8-0.1c0-0.1-0.7-0.2-1.6-0.2-2 0-4-0.2-3.6-0.4l0.4-1.5 1.8-5.7 1.4-4.2h0.8l7.6 0.4c3 0.06 7 0.2 10.3 0.3h2.2l-0.1 0.7c-0.4 2-1 4-1.6 5.3 0 0.3 0 0.5-0.2 0.6l-0.3 0.6-0.5 2.4-0.5 2-2.8-0.1h-2.7c0 0.2 1 0.3 2.6 0.4 3 0 3 0 2.5 0.6-0.1 1-1 5-1.6 4.7v0c0.1 0.3-0.2 2-0.7 3.5l-1 3.2h-3.8zm10.3-4.7-0.2 0.5-0.5 1.6-0.4 1.4c0 0.2 0.3-0.4 0.6-1.4 0.4-1 0.6-2 0.5-2zm2.3-7.3c0-0.2-0.9-0.3-2.1-0.3-3 0.07-5 0.07-7.8 0l4.6 0.3c2-0.1 4-0.1 5.3 0zm-7.7-8.7c0.2-0.7 0.3-1 0.5-2.2-0.3 0.4-3 9-2.9 9.3 0 0.3 2-4 2.4-7.1zm-22 20.2-9.2-0.2c-4 0-4-0.1-3.7-0.7l1.4-3.8 2.1-5.6 0.9-2.3 4 0.2c6 0.2 11 0.4 16.7 0.5l0.8 0.1-4 12h-1.5c-0.8 0-4 0-7.4-0.2zm281.7-1.1-1.4-10v-0.6l6.6 0.1-6.5-0.4c-0.2 0-0.4-0.9-0.6-2l-0.4-2.5c-0.1-0.5 0-0.6 0.8-0.6l1-0.1h-1c-0.8-0.1-0.9-0.2-1-0.9-0.2-1-0.3-3-0.5-4l3.4-0.1h3.4l-3.3-0.2c-2 0-3-0.2-3.5-0.3-0.2-0.2-0.8-3-0.8-4.3 0-0.4 0.2-0.4 1.5-0.5h1.5l-3.1-0.3-0.3-1.8c-0.5-3-0.5-3 0.7-3h1l-1.1-0.1h-1.1l-0.6-3.8-0.6-4.7-0.2-1h4.3c4 0 4 0 4.5 0.6 0.2 0.5 0.3 1 1.2 7 0.4 2 0.8 5 1.2 7 0 0-1 0.2-2.6 0.2h-2.6l5.3 0.3 0.4 2.4c0.4 2 0.4 2-0.8 2.6-0.4 0.1-0.3 0.1 0.4 0.2 0.4 0 0.9 0 0.9 0.2l0.8 5c0.4 2 0.6 4 0.6 5.5l0.7 2.5 0.4 2.4-9.149 0.1081 9.249 0.1919c0.1 1 0.4 3 0.7 4.4l0.2 1-2.3-0.1zm0.2-36.3h-2.4zm-324.8 36.1h-3v-12.4l6.9 0.2c4 0 7 0.2 7 0.2s-0.5 2-2 5.2l-2.1 5.1-0.8 1.9h-1.5zm306.2-0.6h-4.6l-0.1-1.2-0.3-2.5-0.2-1.5 2-0.2h-1c-1-0.1-1-0.1-1.4-3.3l-0.1-2-0.1-0.3c-0.2-1-0.3-3-0.5-4.3l-0.1-0.8 5.2-0.1h-2.6l-2.6-0.1v-1l-1-8.5c-0.2-0.6-0.1-0.6 0.7-0.7l1-0.1-1.8-0.1-0.3-2.1-0.3-2.4c0-0.2 0.4-0.3 1-0.4h0.8l-0.9-0.1c-1 0-1-0.1-1.3-2.8l-0.1-1.8h3.8l4.3 0.1c0.6 0.2 0.7 0.6 1 3.1l0.2 1.6-3.8 0.1 3.9 0.1 0.3 2.1 0.6 4.6c0.5 3 0.5 3-0.7 3.2h-1l2.2 0.4 0.2 2c0.5 3 0.6 3-1.3 3h-1.6l1.6 0.1c2 0 2 0 2 2.3l0.4 2.8-8.557 0.2 8.695 0.1081c0.2 1 0.4 5 0.2616 4.892 0 0-2 0.2-3.5 0.2h-3.5l3.5 0.1 3.7 0.3c0.2 0.2 0.8 5 0.6 5.1h-4.7zm-14.4-0.4c-0.2-0.2-0.7-4-0.7-4.7 0-0.4 0.4-0.4 3.6-0.4 4 0 4-0.2-1-0.3h-2.7l-0.4-4.5-0.4-5.3v-0.7l5.6-0.1-5.7-0.3-0.2-1.3-0.2-2.5c-0.2-1 0.7-1 1.6-1.3h-1.9l-0.2922-4.96 4.808 0.0368-4.915-0.3768-0.2-1.3-0.1-2.3c0-1 0-1 0.6-1l0.7-0.1-0.8-0.2-0.7-0.1-0.3-2.8-0.4-4.7-0.2-2 4.3 0.1c2 0.1 4 0.3 4.4 0.4 0.1 0 0.4 2 0.6 4.3l0.5 4.6c0.1 0.3 0 0.4-1.2 0.5h-1.4l2.7 0.2 0.1 1.4 0.3 2.4 0.2 1h-1l-1.1 0.2h1c1 0 1 0 1.4 3.2l0.2 1.7h-6l6 0.3 0.5 4v1l-3.4 0.1 3.5 0.1 0.1 1.1c0.1 1 0.3 3 0.5 4h-2.9l3 0.3v1.6c0.3 3 0.6 6 1 8.4v0.5h-4.5c-3 0-5 0-4.7-0.2zm1.3-10.8h-1.5zm-11 10.6c-0.5 0-0.6-0.3-0.6-0.9-0.1-3-0.4-6-0.7-9.6 1-0.2 3-0.2 4-0.3l-4-0.1-0.4-5.2 9.2 0.4 0.4432 5.173-2.165-0.0378 2.222 0.0649 0.4 5-6.5 0.3 6.5 0.2 0.2 1.3 0.3 2.6v1.3h-4.2l-4.8-0.2zm120.6-2.3-1-2.9c-2-9-5-17-7.5-25.5l-1.3-4.4 1-0.1h3.703l0.88 2.5 9 29.4-1.683 1.5c-3 0-3 0-3.1-0.5zm-6.5-0.1-0.6-1.8c-3-10-6-21-8.7-31.2h2.8l2.7 0.3 0.8 2.7c2 8 5 15 6.9 23l2 7c0.1 0.4 0 0.4-2.7 0.4-3 0-3 0-3.2-0.4zm-10.8 0-2.1-0.1-1-4-6.6-24.8-1.1-4.5 2.8 0.1h2.8l0.4 1.6c1 6 8 30 8.6 31.7l-0.8 0.1zm4-1.4c-0.2-0.9-6-21-8.6-31.5 0.1-0.2 5-0.3 5.5 0l0.5 1.6c0.9 4 5 20 7.5 26.4l0.3 1.6 0.1 0.4c0.2 0.2 1 3 1 3h-6zm-133.3 0.7-9-0.4c-3-0.01-6-0.1-8.8-0.4v-5.7l0.1-5.6 4.6 0.1c5 0.2 10 0.4 15 0.7h0.8v5l0.2 5.7 0.1 0.8h-3zm-27.4-1-10-0.4h-2.1v-1c0.2-7 0.4-10 0.8-10.4 0.4-0.2 18 0.4 19.5 0.6l0.8 0.1-0.1 5.7c-0.1 5-0.1 6-0.6 5.7-0.2 0-4 0-8.3-0.3zm-6.5-7.8c0-0.6-0.1-0.2-0.1 0.9v1-2zm112.6 8-1-0.1-0.9973-4.765 9.397 0.0651 1 5h-3.7zm-21.7-0.5c0-0.3-0.2-0.5-0.5-0.5s-0.5-0.1-0.5-0.3c0-0.3 0.1-0.3 0.6-0.1 0.4 0.2 0.6 0.5 0.6 0.8l-0.1 0.6zm-118.2-1.1c-0.2 0 0.8-11 1-11.4 0-0.1 20 0.7 20.3 0.9v2c-0.3 2-0.4 5-0.5 7.5v1.9h-2.7c-7-0.5-12-0.7-18.1-0.9zm-19.8-0.6h-2v-1c0.5-3 0.9-7 1.3-9.8l0.2-0.8 4.3 0.1c4-0.1 7 0.1 11 0.7 0.1-0.2 1-0.2 2.8-0.1 2 0.1 3 0.2 2.5 0.6l-0.6 5.2-0.5 5.3c-0.1 0.8-17-0.1-19-0.2zm136.4-1.1c-7e-3 -0.7-7e-3 -1 0-2 0.4 2 0.6 3 0.4 3.1s-0.3-0.5-0.4-1.1zm-160.1 0.2c0.4-4 1-8 1.8-11.3 0.1-0.2 3-0.1 6.4 0 4 0.2 9 0.4 13.2 0.5l1 0.2-0.1 1-0.3 1.6-0.2 1-0.8 6-0.1 1.7h-3.4zm267.8 0c-0.8 0-0.8-0.1-1.9-3.4-2-7-4-13-6.3-19.6-0.6-2-0.5-2 1-1.6 2 0 2 0.2 2.9 1.2 2 6 4 13 6.4 19.4 1 3 1 4 1.2 4-0.1 0.2-2 0.2-3.3 0zm-288.6-0.8h-1.1l0.1-0.8c0.5-3 1-5 1.7-7.9l0.5-2.6 20.1 0.6c0.6 0.2 0.6 0.7 0 3.8l-1.2 7.4zm5.9-8.1-0.6 2.7zm10.5-2.5s-1 4-0.9 4.7c0 0 1-5 0.9-4.7zm261.7 11.44-7.248-24.84 2 0.1c2 0.1 2 0.2 2.2 0.6l6.8 24zm4.752-0.9389c-0.3-0.5-0.4-1-0.4-1.2-2-7-5-15-7-22.2 0-0.3 0.4-0.3 2-0.3h1.9l0.5 1.6c3 8 5 15 7.4 22.9h-4.1zm-304.6-0.5c-4-0.1-8-0.3-7.7-0.4-0.2-0.1 2-11 2.8-11.2l7.7 0.1c7 0.2 8 0.2 7.6 0l-7.5-0.3c-4-0.1-8-0.3-7.6-0.4 0-0.1 0.4-3 1.2-5.5l1.3-5.2h4.7l15.5 0.4-0.2 0.8c-0.6 3-1 7-2 10.2-2 0.3-4-0.7-5.1 0 2 0.5 3 0.3 4.9 0.3-0.7 4-2 8-2.4 11.6h-2.7zm9.7-8.9c-0.5 2-2 8-1.8 8.8 0.2-1 2-11 1.8-8.8zm-9.7-1.6c0-0.5-0.6 2-0.6 2 0 0.3 0.1 0 0.3-0.5 0.2-0.6 0.4-1 0.3-1.5zm0.8-2.7 0.4-1.7c0.6-2 1-4 1.4-6.6-0.1-0.2-0.4 0.8-1.8 7-0.5 2-0.5 2-0.3 2.1 0.2-0.2 0.3-0.6 0.3-0.8zm-30.8 12.4 0.4-1.5c0.9-3 2-6 2.6-8.7l0.4-1.5 3.3 0.2c5 0.2 11 0.4 16.3 0.5l1.3 0.2-0.4 1-0.5 2-0.3 1.4c-0.6 2-1 4-1.5 6l-0.2 0.8c-11 0-18-0.4-21.4-0.4zm264.1 0.2614-0.7952-2.561c-0.5-2-0.7-3 1.8-2.7-3 0.3-3-3-3.2-5 0 0 0.5-0.2 1.1-0.2l1.2-0.1h-1.2c-1-0.1-1 0-1.6-2.5l-0.4-2c0-0.3 0-0.4 1-0.5h1.2l-2.3-0.2-0.2-1.2-0.5-2.4-0.2-1.2 6.6-0.1-6.6-0.1-0.4-2c-0.5-3-0.6-3 0.6-2.9h1l-1-0.1h-1.2l-0.3-2.2-0.4-2.3c0-0.2 3-0.2 6.5 0l2.3 0.2 0.4 1.8c0.5 3 0.5 3-0.4 2.7h-0.8l0.9 0.2c0.8 0.1 0.8 0.2 1.2 2 0.6 3 0.6 3-0.6 2.9h-1l1.1 0.1h1.1l0.4 2.2 0.4 2.4c0 0.2-0.6 0.3-1.5 0.3l-1.5 0.1 3.2 0.1 0.4 2 0.5 2.4c0.1 0.4-0.2 0.4-3.3 0.5h-3.4l3.4 0.1c2 0 3 0.1 3.4 0.2 0.3 2 0.6 3 1 4.9h-2.6l-2.6 0.1 5.3 0.3c0.3 2 0.7 3 1 4.9h-3.2zm1.705-15.66h-1.6l0.8 0.1h0.8zm-11.9 15.2-1.6-9.5-0.1-0.7 4-0.1-4-0.1-0.2-1.3-0.5-2.8c-0.8-5-2-10-2.5-15.2l-0.2-0.6 4.4 0.2c2 0 4 0.1 4.5 0.2 0.7 3 1 6 1.4 9.6-0.4 0-0.4 0 0 0.2s0.6 0.6 0.9 2.3c0.4 2 0.4 2 0 2.5s-0.4 0.3 0 0.3 0.6 0.7 1 3.1l0.3 1.3c0.1 0.4 0 0.4-2 0.4h-2c0 0.2 1 0.2 2 0.2h2l0.3 1.4c0.2 1 0.5 2 0.7 3.3-0.1 0.7-1 0.5-1.8 0.5 2 0.08 2 0.5 2.3 2.7l0.4 2zm2.1-5.1c-0.4 0.1 2 0.1 2 0.1zm2-10.3c-2-0.2-6-0.2-6.2 0l3.5 0.1c2 0 3 0 2.7-0.1zm-1.5-5h-2.3zm-285.5 19.7c-5-0.3-10-0.5-15.3-0.5l1-3.4 2.2-5.6 0.8-2.3 7.3 0.1 10.6 0.2 3.3 0.2-3.7 11.5h-3zm3.3-8 0.1-0.7-0.3 0.8-0.5 1.4-0.1 0.7 0.3-0.7zm-10-1 0.7-2c0.3-0.5 0.3-0.7 0-0.7-0.6 1-1 3-1.4 4 0 0.4 0.2 0 0.7-1.4zm-24.3 8.1c-11 1-5-5-2.3-11.6h2.7c2 0 3 0 2.7-0.2 0-0.1-3-0.3-4.8-0.2-0.2 0-0.3-0.2-0.2-0.5 0.2-0.8 4-10 4.3-10.5 0.3-0.3 0.8-0.3 2.6-0.2l2.4 0.3-0.3 1-0.2 1c0.1-0.1 0.4-0.6 0.5-1.2l0.4-1h1.4c4 0 14 0.5 13.8 0.6s-2 6-3.7 10.7c-0.1 0.3-2 0.3-12.7 0h-3c0.1 0.1 2 0.3 4.4 0.3 3 0 6 0.07 8.5 0.2 3 0 3-0.4 1.2 3.7l-2.3 6.4-0.6 1.5h-4.3c-2 0-7-0.1-10.4-0.3zm10.3-2.6-0.1-0.2c-0.2 0.2-1 3-1 2.9s1-2 1.1-2.7zm-10.4-0.8 0.4-1.1c-0.1 0-1 2-1 2.3s0.1 0 0.6-1.2zm14.8-10.5c0.4-1 0.7-2 0.6-2.1 0 0-0.2 0-0.3 0.3-0.4 1-0.8 2-1.3 3.6 0 0.4 0.3-0.1 1-1.8zm1.9-5c1-3 1-4 1-3.4-0.4 0.5-2 6-2.2 5.8 0 0.5 0.2 0 1.2-2.5zm393.6 19c-0.6 0-0.5 0.4-4.3-11.1-2-7-3-8-2.8-7.4l5 14.7 1.2 3.8-3.4-0.1-5-14 4.2 14h-1l-6.8-18.9c-0.07-0.2 0.4-0.3 1-0.3h0.8l0.7 2 0.8 2-0.5-2c-0.2-0.6-0.4-1-0.6-1.9 0-0.2 3 0 3.3 0.2 0.2 0.2 0.3 0.2 0.4 0 0.2-0.3 1-0.4 2.5-0.2 0.6 0.2 0.8 0.4 1 1 0 0.6 0.7 2 1.4 4.4 2 5 3 9 4.9 13.8 0 0.2-2 0.2-2.8 0zm-426.7-0.3-5.3-0.4s-0.2-1-0.2-2.4c0-2 0.1-2 0.8-3.8l0.5-1.6-0.6 1c-0.1 0.4-0.3 0.7-0.5 1-0.1 0-0.2-1-0.2-3v-2.8h1.5c1 0 1 0 1.2 0.5v0.3c0.2 0 0.3-0.3 0.3-0.5 5-0.3 11-0.2 15.9 0.3l-4.6 11.5-1.8-0.1-7-0.2zm7-8.9c1-2 1-3 0.6-2.1-1 2-2 4-2.7 6.6 0 0.2 1-2 2.2-4.5zm301.4 8c-0.5-4-0.9-8-1.3-12.1 0.3 2 0.7 5 1.2 7.2 0.2 1 0.5 6 0.4 5.8l-0.3-1zm51.1-1.4c-0.7-0.2-0.7-0.1-1.3-3.2-0.5-2-1-5-1.5-7l4.6 0.2 4.4 0.1 0.4 1.6c0.8 3 0.8 3-0.2 3.1s-5-0.2-3.994-0.1318c0.8 0.1 5-0.4 5.209 1.083l0.6 2.5 0.285 1.849h-3.9zm-110-1.4-5.8-0.3c-3 0-6-0.2-6.7-0.3l-1-0.1v-5.4c0-3 0.2-5 0.2-5.5l10 0.3 9.9 0.4v0.7l0.2 5.5v4.8h-3.3l-3.4-0.1zm180.2-0.1c-0.7 0-1-0.2-1-0.7l-5-15s0.3 0.3 0.4 0.8l0.3 0.7v-0.7c-0.1-0.4 0-0.7 0-0.8h5.2l5.6 15.6c0.07 0.2-0.5 0.3-1.2 0.3-1 0-1 0-1.7-1-0.4-1-0.4-0.8 0 0.5 0.1 0.5 0.3 0.5-2.6 0.3zm-202.2-0.8c-4-0.2-8-0.4-12.7-0.6l0.2-4 0.3-5.5v-1.5l2.6 0.1h2.7c0-0.2-1-0.3-2.6-0.3h-2.7l0.3-5.4 0.2-5.3c6 0.2 12 0.5 18.1 0.7l1.6 0.2v10.6l-2.4-0.1c-3-0.1-6-0.2-9-0.2l7.4 0.4 4 0.1v4.5c-0.2 2-0.2 5-0.2 5.5v1h-1.8zm50.5-0.2-0.3-4.2c0-0.9 0-0.9 1.1-1h1.2-1.2c-0.7-0.1-1-0.2-1.2-0.4l-0.3-2.4-0.1-2.1 4.4-0.2h-4.4l-0.3-3.6v-1.3l5-0.1h-2.4l-2.6-0.3-0.3-2.4-0.2-2.2 4.3 0.1c2 0 4 0.2 4.5 0.3l0.3 2.4 0.2 2.2h-1.3l-1.3 0.1 2.7 0.1 0.0616 4.322-2.015 0.4476 2.3 0.4075 0.4605 4.531-3.507 0.2922 3.6 0.3 0.2 1.3 0.1 2.5v1.1h-1.3zm-84.3-1.1c-0.2 0-0.1-2 0.2-5.6l0.5-5.4c7 0.1 13 0.4 20 0.7v2c-0.2 3-0.3 3-0.3 6.2v3l-1.2-0.1c-6-0.2-13-0.5-19.2-0.8zm-13.6-0.4-6.7-0.3-1.2-0.2 0.7-5.2 0.7-5.4c7 9e-3 13 0.2 20.1 0.6l-0.2 3.3c-0.2 2-0.5 4-0.5 5.4l-0.2 2h-3.6zm-15.3-0.6c-5-0.1-9-0.4-13.8-0.7 0.4-4 1-7 1.7-10.9l7.4 0.3c2 0.07 5 0.03 6.8-0.1l-14-0.6c-0.1 0 0.1-2 0.7-5.2l0.8-5.2h2.5c5-0.02 9 0.1 13.8 0.5 2 0 4 0.2 3.5 0.2l-0.1 1.5c-0.2 1-0.4 2-0.5 3.2l-0.4 3c-0.2 3 0 3-2.8 2.8h-2.4c0 0.2 1 0.3 2.4 0.3h2.3v1.2l-0.3 1.8-0.4 2.3c-0.1 2-0.3 3-0.6 4.7 0.2 1 0.1 1-2.7 1l-4-0.1zm-21.5-0.8c-5-0.3-9-0.5-13.6-0.7 0.2-3 1-6 1.8-9.9 0.2-1-0.4-1 6.8-0.8 5 0.3 9 0.5 13.6 0.7l-1.6 10.4c-0.2 0.6-0.2 0.6-7 0.3zm-63.2-2.1s2-7 2.8-9.8l0.4-1.2c9 0.4 14 0.6 20.2 0.8l-1 4.5-1.4 5.3-0.2 1c-2 0-21-0.4-20.8-0.6zm-11.4-0.3c-6-0.1-10-0.3-10.2-0.4l1.6-5.5 1.8-5.5 2.6 0.1h2.5c0-0.2-1-0.3-2.4-0.3l-2.5-0.1c-0.1-0.1 1-5 3-9.6l0.3-1 3.4 0.1c4 0.01 8 0.08 11.4 0.2-5-0.2-10-0.4-14.6-0.7l3.2-10h2.5c2-0.1 2 0 2.3 0.3-0.1 0.4 0 0.4 0.2 0 0.2-0.2 1-0.2 4.9-0.1 3 0.2 6 0.3 9.7 0.3 0 0.6-0.6 3-1 3.6l-1 3.8-0.7 3-2.6-0.3c-2 0-3 0-2.5 0.1 0 0.2 1 0.3 2.4 0.3 1 0 2 0 2.4 0.2-0.5 2-1 4-2 6.6 0 0.8-0.7 3-1 3.5-0.2 0.3-1 0.3-7.5 0.1l-7.4-0.1c-0.3 0.2 0.6 0.3 7.1 0.4 4 0.1 7 0.3 7.3 0.4 0.3 0.1 0.2 0.5-0.1 1.8-1 2-1 7-2.9 9.1-0.1 0-5 0-10.3-0.3zm0-15.7c0.1-0.7 0.2-1 0-1-0.1 0.2-1 3-0.9 3.1 0 0.3 0.4-0.6 0.8-2.1zm3.6-11.2 0.5-2.2-0.7 1.6c-0.7 3-0.7 3-0.6 2.7zm-26.5 26.3-9.2-0.5 0.4-1.6c1-3 3-8 3.2-8.7l0.2-0.7 4.8 0.1c5 0.2 10 0.5 15.7 0.7 0.2 0.1-0.8 3-2.8 9.3l-0.5 1.6h-1.4c-0.7 0-5 0-10.4-0.2zm-1.1-8 0.9-2.9c-0.9 2-2 4-2.4 6.3 0 0.5 0.5-0.6 1.5-3.4zm-42.4 6.6-6.4-0.2h-1.4v-2.5c0-2 0-2 1.3-5.5l1.3-3h2c4-0.1 13 0.3 13.3 0.5-0.6 2-1 3-1.9 5.1 0.9-2 2-3 2.2-5 0-0.2 1-0.3 2.7-0.2l2.7 0.1-1.5 3.8-2.2 5.4-0.7 1.8h-3.2zm7.7-4.3 0.3-1c-0.4 0.5-0.8 1-1 1.8 0 0.3 0.4 0 0.7-0.8zm-9-3c0.4-0.8 0.5-1 0.4-1.4 0 0-0.4 0.5-0.6 1.2l-0.6 1.5c-0.3 0.8 0.3-0.2 0.8-1.4zm356.8 6.6-1.2-0.1-0.4-2c-0.3-1-0.5-2-0.7-3.3-0.2-0.4-2-8-1.8-9 0-0.2 0.7-0.2 4.2-0.1h4.3l0.4 1.7c0.4 1 0.6 2 0.8 3.3l1.1 4.5-2.8 0.2h-2.9l5.8 0.3 0.4 1.7 0.6 2.3 0.1 0.7h-3.3zm2.2-9.9h-2c-0.6 0-0.2 0.1 1 0.1h1zm-13 9-0.8-4.1c3-0.4 6-0.1 8.868-0.0616l-8.968-0.4384-0.4-2c-0.6-3-0.6-3 0.4-2.8h1l-2-0.1-0.4-2-0.4-2.3c0-0.2 8-0.2 8.6 0l1 4.2c0 0.2-0.8 0.3-3.3 0.4h-3.3l3.3 0.1 3.4 0.2 0.4 1.7 0.5 2.3 0.2 0.6s0 0.3 0.1 1l0.5 2c0.6 2 0.6 2-1.4 2zm-35.1-0.6-3-0.1v-0.8c-0.2-0.4-0.4-1-0.5-2.3l-0.2-1.6 5.8-0.2h-5.8l-0.2-1.2-0.3-2.4v-1.3h1l1.2-0.2h-2.4l-0.3-2.3-0.2-2.3 4.4 0.1 4.3 0.2 0.7 4.4 0.6 4.7c0 0.4-0.2 0.5-1.3 0.5l-1.4 0.1 2.9 0.1 0.3 2c0.4 3 0.5 3-1.2 2.8zm3.3-9.8c-2-0.2-5-0.2-5 0l3 0.1c2 0 3 0 2-0.1zm-8.9 6.1c-0.4-3-0.4-4 0-3.5 0.3 0.3 0.8 6 0.6 6.2 0 0.4-0.3-0.6-0.6-2.7zm-61.5 2.6c-2-0.1-5-0.2-7.5-0.3h-1v-10.7h0.8l18.9 0.8 0.2 10.6h-2.5l-9-0.4zm-3.5-2.8v1.5zm-46.5 0.7c-0.2-0.2 0.5-9 0.7-10 0.1-0.6 0.2-0.6 1.6-0.5l9.7 0.5c4 0.1 8 0.3 8.4 0.4v2.2l-0.5 5.1-0.1 3h-3c-6-0.7-11 0.4-16.8-0.7zm-13-0.3-7.9-0.5c-0.1-0.1 1-10 1.3-10.4 0.1-0.1 20 0.6 19.6 0.8l-0.8 9.2-0.1 1.2h-2.1zm-35.2-1.3c-5-0.3-10-0.5-14.4-0.7-0.1-0.1 0-1 0.3-2.3 0.3-3 1-6 1.6-7.6 0-0.5 0.2-0.5 2.6-0.5 4 0.2 0 0.2 4.4 0.2 3 0 13 0.5 12.7 0.6l-0.7 5.1-0.9 5.2h-5.7zm1.5-5.8c0-0.3 0-0.3-0.2 0-0.2 0.4-0.8 4-0.7 4.2 0 0.5 0.9-4 1-4.2zm-43.5 4.3 2.6-10.5 16.5 0.5 3.2 0.2-0.1 0.7-1 5.1c-1 4-1 5-1.9 4.7-6-0.8-14 0.5-19.3-0.7zm308.8-16.9c0-0.1 0.7-0.2 1.5-0.1h1.5c2 6 4 12 5.9 17.6 0 0.2-2 0.1-2.6 0-2-6-4-12-6.3-17.5zm-0.3 16.7-0.9-2.3-0.7-2.4-4.1-12.3 1-0.1c0.8 0 1 0 1.1 0.5 0.2 0.4-0.07 0.4 0 0.6l5.5 15.8-5-16.8c0.1-0.2 3 0 2.9 0.2l5.8 17.3c0.03 0.09-1 0.2-2.6 0.2-3 0-3 0-3-0.7zm-142.3 0.3c-2 0-3-0.2-3.3-0.4l-0.2-2.4-0.1-2 1.5-0.3h-1.5l-0.1-2.2-0.1-2.3h4.4c5 0.2 4-0.1 4.5 3l0.2 1.7h-6.7c0.2 0.1 2 0.2 3.5 0.2h3.1l0.2 1.5 0.1 2.4v1h-1.1zm-186.9-0.7c-0.5-0.1-0.5-0.3 1-5.3 0.5-2 1-4 1.6-5.3 0.1-0.1 20 0.6 19.9 0.7 0 0.1-2 8-2.4 9.7l-0.2 0.8c-7-0.03-13-0.3-19.9-0.6zm339 0.3c-1-2-4-14-4.5-14.2-0.4-0.2 0.7-0.5 1.9-0.4 2 0.5 5 12 5.9 14.6-1 0.2-2 0.2-3.3 0zm3.6-0.7-1.2-3.3c-1-3-2-6-3.5-9.4-0.4-1-0.2-1 0.7-1.2 0.5 0 1 0 1.2 0.2 0.2 0 1 3 2.6 6.4l3 8.1h-1.3c-1 0-1 0-1.5-0.8zm-119.8-0.4c-0.6-0.4-0.6-0.7 0-0.7 0.3 0 0.5 0.3 0.5 0.6l0.1 0.5zm101.4 0.3c-0.5-0.1-0.6-0.3-0.8-1l-6.5-20.4-0.2-0.8 1.8 0.1c1 0 2 0.2 2 0.3 0.2 0.3 7 22 7.2 21.8-0.2 0.2-2 0.1-3.5 0zm-413.5-0.2c0-0.2 0.4-1 1-2.6 0.7-1 1-3 1.8-4.6 0-0.3-0.2-0.4-1-0.5-1 0-1 0-0.4-0.3 0.5-0.2 0.5-0.3 0.2-0.4-0.4-0.1-0.6-1-0.2-1.1 0 0 0.4 0.2 0.7 0.6 0.7 0.7 1 0.7 1.4 0.2 0-0.3 0.3-0.6 0.5-0.9 4-9 8-17 2.3-3.7-0.9 2-2 4-2.3 5.4-0.2 0.8-0.6 2-0.7 1.6-0.1 0.1-1 2-1.8 3.4zm403.8-0.5-6.419-21.56 3.719-0.03907 0.4 1.4c2 7 4 14 6.4 20.5 0 0.2-0.5 0.3-2 0.3-2 0-2 0-2.1-0.6zm3.3-3.8-5.3-16.6c-0.5-1-0.4-1 1.9-1.1h1.7l7 22-2 0.1h-2zm-361 3.3c0.1-0.4 4-10 3.8-10 0.2-0.4 0.4-0.4 1.7-0.3l6.2 0.2c9 0.2 12 0.4 12.3 0.7l-1.7 5.2-1.6 5h-3.5zm16.9-4.2c-0.2 0.2-1 3-1.1 3 0.2 0.4 0.9-2 1.1-3zm-8.3-4.9c-0.2 0-1 2-1 2.6 0.4-0.1 0.8-2 1-2.6zm9.8 0.4c-0.3 0.6-1 2-0.7 2.2 0 0 1-3 0.7-2.2zm-33.1 8.6-6.8-0.3 1.9-5 2-5.1c0.2-0.4 0.5-0.4 2.7-0.4 2 0 2 0 2.6 0.4 0 0.4 0 0.4 0.1 0 0-0.4 10-0.1 13.93-3e-3 8-0.2-18-0.6-18.73-0.997l0.4-1.3 2-5 1.6-3.7h2.5c2 0 2 0 2.3 0.4-0.1 0.4 0 0.4 0.2 0l14.8 0.3s-0.2 1-0.6 1.8-0.9 2-1.3 3.6l-1.2 3.4-0.5 1.4s-4 0.1-2.4 0.1c2 0 2 0 2.1 0.5l-1.8 5.3-1.8 4.8h-3.6zm-0.8-2 0.4-1.4c0-0.2-1 2-1.2 2.8 0 0.5 0.5-0.2 0.8-1.4zm1.3-3.6c0-0.3-0.4 0.4-0.7 1.5-0.1 0.4 0 0.3 0.3-0.3 0.3-0.5 0.5-1 0.4-1.2zm1.3-2.8c0.5-1 0.6-2 0.3-1.5l-0.6 1.2c-0.5 2-0.4 2 0.3 0.3zm103 7.4c-3-4 0.2-1 0.8-3.5 0.8-3-1 8-0.8 3.5zm-123.6 0.4-9.6-0.4 0.8-2.2c0.6-1 1-2 0.9-2.5 0-0.1 0-0.3 0.2-0.4l1.5-2.8 1.1-2.7 4.3 0.1c5 0.2 11 0.4 16 0.6l-2 5.4-2 5.3h-0.8zm8.5-6.2 0.7-2s-0.3 0.3-0.5 0.9c-1 3-1 3-1.2 3.2 0.2-0.1 0.6-1 1-2.1zm-10.7 1.4 0.6-1.5c1-2 1-3 0-0.5-1 2-1 3-0.8 2.4zm300.6 4.2c-0.2-1-0.2-2 0-1.7 0.3 0.2 0.6 2 0.4 2.4-0.1 0.1-0.3-0.2-0.4-0.7zm-10.4-0.9-0.3-2.3-0.2-2h3.9l4.4 0.2c0.4 0.1 0.5 0.4 0.7 1.8l0.2 2.2c0.2 0.4-0.2 0.4-4.2 0.4-3 0-4 0-4.5-0.3zm-300.6-1.5c0-1 0.1-2 0.6-1.6 0.7 0 0.7 0.3 0 1.9l-0.6 1.3zm283.2 1.3c-1-0.1-1-0.1-1.4-1l-0.2-2.3v-1.4l1.3 0.1 4.3 0.2h3l0.2 1.8 0.3 2.3c0.1 0.4-0.1 0.4-3 0.4zm114-0.3h-1.8l-0.4-1.2-0.4-1.6c-1-4-7-23-7.7-26.3 0-0.3 5-0.1 5.1 0.1l8.9 28.9c0 0.2-0.4 0.3-1 0.2l-2.8-0.1zm-8.2-1.4c-3-9-5-18-7.5-26.3-0.6-2-0.7-2 2.2-1.7h2.6l0.4 1.5c3 9 5 18 8.2 27.7 0 0.1-1 0.2-2.8 0.2h-2.7zm-134.5 0.8c-4-0.1-8-0.3-12.7-0.5 9e-3 -3-0.07-7 0.2-10.2l19 0.8c0.1 0 0.2 2 0.2 5.1l0.1 5.1h-0.9zm124.2 0.1h-1.6c-2-10-5-19-7.6-29.1 4 0.2 5-0.3 6.2 3.3 2 9 4 17 6.9 25.7 0 0.3-0.3 0.3-3.9 0.1zm4.5 0-0.5-1.5c-2-9-5-18-7.3-27.6 2-0.08 3 0.06 5.2 0.2 2 9 5 18 7.4 26.3l0.8 2.8h-2.7c-2 0-3 0-2.9-0.2zm-14.09-0.7825c-0.5-3-1-6-1.911-9.018l-4.1-19.6c1 3 1 5 2.2 7.9 0.7 0.7-0.1-2-1.5-7.9 0 0 5 0.1 5.2 0.3 1 5 5 19 7.6 28.9 0 0.2-7 0.7-7.489-0.5825zm-147.6-0.7175c-0.1-0.2 0.4-10 0.5-10l15.8 0.5 3.3 0.2v10h-2.7c-6-0.09-11-0.4-16.9-0.7zm-12.5-0.4c-4-0.1-8-0.3-8-0.4 0.08-3 0.4-7 0.7-10h4.7l14.7 0.8c-0.2 3-0.3 6-0.4 9.4v0.6h-1.9zm-74.2-0.2c0.4-0.8 1-7 1.9-6 0.8 2-2 7-2 6zm175.6 0.1-0.2-1.6-0.5-4.4c-0.4-3-0.4-4 0-3.3 0.4 3 0.6 6 0.7 9.3zm-113-0.3c-6-0.3-11-0.6-16.8-0.7l0.5-4.9 0.6-5 2.4-0.1c3 0 17 0.6 17 0.7-0.1 3-0.5 7-0.8 10h-3zm-23-1c-5-0.1-9-0.3-14.2-0.6-0.2-0.2 0-1 0.6-5.2l0.8-5 1 0.1 9.6 0.4 8.7 0.3v1.2c-0.4 3-0.9 6-1.5 9zm186-0.4c-1 0-2-0.1-2.1-0.3-0.5-3-1-6-1.8-8.4-2-11-5-23-7.6-34.3 0-0.4 0.2-0.4 3.7-0.4 2 0 4 0 4.1 0.2 0.2 0.1 0.4 1 1 3.4l0.5 2.4c0.3 2 0.3 2 0 2-0.2 0.1-0.2 0.2 0.1 0.2 0.5 0 0.4-0.4 2 6.6 1 5 2 9 3.3 14.2 0.5 2 0.9 3 1.1 4.8 0 0.2-0.2 0.4-0.7 0.5h-0.8l1.7 0.1 0.5 2c0.2 1 0.4 2 0.6 2.9 0.2 0.5 1 4 1 4 0 0.3-1 0.3-6.6 0.1zm1.8-9.1h-2zm-10.6 8.9c-2 0-2-0.2-2.6-0.5-0.5-2-0.9-4-1.2-6-0.5-2-0.9-4-1.2-5.8-0.8-4-2-9-2.7-13.3-1-6-2-12-3.5-17.6 0-0.2 2-0.3 3.9-0.3 4 0 4 0 4 0.6 0.2 0.3 1 4 1.9 8 2 8 4 17 5.5 25.3 0.6 3 1 6 2 9.6 0 0.2-0.6 0.2-6.1 0zm2-4.6h-2.2 2.3zm-0.5-4.6h-1.7l1 0.1h0.8zm-1.4-4.6h-2.3c-0.6 0.1-0.1 0.1 1.1 0.1h1.2zm-204.6 13.4-7.5-0.4c0.5-2 0.9-4 1.3-6.6l0.7-3.4h0.9c4 0 4 0 3.7 0.7v0.5l0.3-0.6c0.2-0.5 0.2-0.5 2.6-0.4l4.4 0.2h2.2l-0.2 1.7v1.3l0.4-1.7 0.2-1.2 4.9 0.1-0.1 0.8-0.9 5-0.6 4.3h-2.5zm196.2 0.1c-2 0-4-0.1-3.6-0.2-0.4-3-0.8-6-1.4-8.5 0-0.3 0.2-0.5 0.9-0.5l0.9-0.1-2-0.1-0.8-4-0.7-4.3c0-0.3 0.4-0.4 2.8-0.5h2.8-3l-2.9-0.3c-1-8-3-16-4.4-24.6 3-0.3 5-0.3 7.8-0.1l0.5 1.8c0.3 1 0.3 2 0 1.9s-0.3 0.2 0 0.2 0.5 0.4 0.7 1.4l0.4 2c0.1 0.3 0 0.5-0.3 0.5-0.4 0-0.4 0 0 0.2 0.4 0.1 0.6 0.6 0.8 2l0.6 2.7c0.6 3 1 5 1.5 7.6l0.5 2.3c0.5 2 0.5 2-0.5 2.6h-1l2 0.1 0.8 4 0.9 4.3c0.1 0.4-0.2 0.4-2.8 0.5h-3l3 0.1c2 0 3 0.1 3 0.5 0.5 2 1 4 1.3 6.5l0.3 2c0 0.2-0.4 0.2-0.8 0.2zm1.2-4.5h-2zm-4.6-22.4h-1.8zm-5.5 26.8c-4 0-4 0-4-0.6-0.3-1-2-12-2.1-12.8 0-0.2 0.3-0.4 0.8-0.5 0.7 0 0.7 0-0.2-0.1-0.5 0-0.9-0.1-0.9-0.2-0.8-6-2-11-2.6-16.8-0.6-4-1-8-2-12.5h4c4 0.1 4 0.2 4 0.6 2 10 4 19 5.2 28.7 0 0.3-0.4 0.4-3.1 0.5h-3l6.3 0.1 0.2 1.5 0.4 2.2 0.2 0.7h-4l2 0.2 2 0.1 0.4 2.1c0.4 2 0.4 2 0 2.2-0.3 0.1-0.3 0.1 0 0.2 0.3 0 0.5 0.5 0.8 2 0.5 2 0.5 3 0 2.5l-4.3-0.1zm1.8-4.6h-2c-0.5 0-0.1 0.1 1 0.1h1zm-6.8-26.7h-1.8zm-7.6 30.8c-0.6 0-0.7-0.1-1.6-6.3l-1-6.7-0.1-0.6 4.1 0.2c2 0 4 0.2 4.4 0.3s0.7 3 0.7 3.9c0 0.1-0.4 0.3-1 0.3l-0.8 0.1h2l0.3 2.7 0.8 4.4 0.3 1.9h-3.8zm5.8-4.3h-1.5zm-3-4.8h-1.8 1.9zm-205.8 8.8c-2-0.06-4-0.2-6.1-0.4 0.5-3 1-6 2-8.7l0.4-1.2h2.3c2 0 2 0 2.5 0.3 0.1 0.2 0.2 0.2 0.2 0 0-0.3 0.7-0.3 3-0.2l9.7 0.3c2 0 2 0 1.1 2.4-0.5 2-0.9 3-1 5l-0.4 2.4c-0.2 0.4-3 0.4-13.7 0zm0-5.2c0.6-2 0.6-3 0-1-0.4 1-0.5 3-0.3 2.3 0 0 0.3-0.6 0.4-1.3zm194.4 5.3-1.3-0.1-0.1-1c-0.5-4-1-8-1.6-11.9-0.6-4-1-9-1.8-13.3 0-0.1 0-0.4 0.3-0.5 0.4-0.2 0.4-0.3 0-0.3-0.3 0-0.4-0.3-0.5-1.1-0.1-0.9-0.2-2-0.4-2.7-0.3-3-0.6-5-1-8 0-0.4 0.4-0.5 3.1-0.5h3l-6.2-0.3-0.1-0.9-0.3-1.8-0.1-1h1.7l4 0.1 2.3 0.2 0.2 1.8c0.2 1 0.2 2 0.1 1.8 0 0.1-0.4 0-0.8 0-0.4-0.1-0.6 0-0.6 0.1 0 0.2 0.4 0.3 0.8 0.3 0.7 0 0.9 0 1 0.6 0.6 4 1 7 1.5 10.8 0.7 5 1 9 2.1 13.6 0.1 0.4 0 0.5-0.8 0.6h-0.9l1.8 0.2 0.3 1.8 0.6 4.4c0.4 2 0.4 2 0 2.7-0.2 0.2-0.2 0.2 0.1 0.2s0.5 0.3 0.6 1.3l0.3 2.1 0.1 1h-3zm1.9-13.8h-2.7c-0.7 0-0.2 0.1 1.3 0.1h1.4zm-11.2 13.5c-2 0-4-0.1-3.8-0.3-0.2-0.1-1-7-1.1-8.5 0-0.3 0.3-0.4 2.5-0.4l2.4-0.1h-2.4c-3-0.1-3 0-2.9-2.5-1-10-2-20-3.1-29.8l-0.2-2 3.2 0.1 4 0.2 0.7 0.1 0.7 5.6 0.8 6s-0.1 0.3-0.3 0.3c-0.4 0.1-0.4 0.1 0 0.2 0.2 0 0.4 0 0.4 0.2l0.4 3.8c0.7 4 0.7 4-0.1 4.5h-0.7l0.7 0.1c0.8 0 0.8 0.1 1 2.4 0.2 2 0.2 2-0.1 1.8-0.3 0.1-0.3 0.1 0 0.2 0.3 0 0.5 0.3 0.6 1.4l0.5 4c0.4 4 0.5 4-1 3.6h-1.2l2.6 0.3 0.2 1.5 0.3 2.1c0.1 0.5 0 0.6-0.5 0.7h-0.7l0.7 0.1c0.6 0 0.6 0.1 0.8 1.3 0.3 3 0.2 3-0.3 3.2h-4zm-0.6-18.3h-1.5c-0.4 0-0.1 0.1 0.7 0.1h0.8zm-210.9 15.7 1.3-4.6 1-3.7c5 0 12 0.2 13.6 0.4 0.8 0.1 0.8 0.2 0.7 1l-0.5276 1.769 0.9276-2.669c2-0.07 3 0.07 4.7 0.2-0.2 3-1 7-2.2 10.1h-1.2c-3-0.6-20 1-18.3-2.5zm198.9 2.2-0.6-0.4-0.4-3.4c-0.1-1-0.2-3-0.4-4.2l-0.1-1 5.2-0.2h-5.1l-0.2-1.7-0.2-2.1c0-0.4 0.2-0.5 0.8-0.6l0.9-0.2h-1.8l-0.3-3.4c-0.1-1-0.2-3-0.4-4.1 0-0.8 0-1 0.6-1.2l0.7-0.2h-0.7c-0.6 0-0.6-0.2-0.8-1.3-0.4-5-1-11-1.361-15.52l7.525 0.0241-7.488-0.0868-0.176-3.713c0.1-0.2 8 0 7.8 0.2l0.4 3.1 0.4 3.8 0.2 0.8-5.665 0.1611 5.565 0.0389 0.1 1.4 0.3 2c0.1 0.5 0 0.5-2.9 0.6l-1.64 0.0389 4.64 0.0611 0.1 1.2 0.3 2c0 0.7 0 1-0.3 1-0.4 0.1-0.4 0.1 0 0.2 0.2 0 0.4 0.2 0.4 0.4s0 1 0.2 2l0.2 1.7-5.1 0.1 5.1 0.1 0.2 1.8c0.2 3 0.5 6 1 9 0.3 2 0.5 4 0.7 6.2l0.1 0.8-4.2 0.2h2c2 0 2 0.1 2.2 0.6l0.2 2.2 0.2 1.6h-3.8l-4.3-0.1zm-289.2-0.4 0.4-0.2c0.3 0 2-4 4.8-10l3-7c1-2 2-4 3-6.6 1-2 2-4 2-6 0.3-0.5 1-0.5 1.3-0.1 0 0.3-1 3-4.5 10l-1.7 3.7c-2 6-5 11-8 16.5-0.2 0-0.4-0.1-0.4-0.3zm281 0.1h-1.6l-0.2-1.3-0.1-2.2v-0.9l2.7-0.1h-1.4c-0.8-0.1-1-0.2-1.5-0.4l-0.2-3c0-1-0.2-3-0.3-4.1l-0.1-1.5 5.7-0.2h-5.7l-0.2-0.8-0.1-2.1v-1.4h4l4.2 0.3 0.3 2.2 0.2 2-1.8 0.1h0.8c1 0.1 1 0.3 1.3 2.9 0 1 0 1-0.6 1.6l-0.6 0.1h0.7c0.5 0 0.6 0.2 0.7 1.2l0.2 2.1v1l-1.2 0.2h-0.9l1.3 0.1c1 0 1 0 1.2 0.7l0.2 2.2 0.1 1.5h-2.6l-4.3-0.2zm4.2-9c0-0.1-1-0.2-2.5-0.2h-2.3l2.4 0.2c0.8-0.02 2-0.02 2.4 0zm-13.2 8.8c-2-0.1-2-0.1-2.1-2.8v-1.6l5-0.1-5.1-0.3-0.2-2.6c-0.2-3-0.1-3-0.4-3-0.1 0-0.2 0.4-0.2 0.9l0.2 2.8c0 2 0 2-0.5 2l-0.6 0.2h1.2v4.5l-2.3-0.2-3.8-0.1h-1.4v-4.4l5.5-0.1-5.4-0.1-0.2-1.3c-0.6-6-0.8-13-0.4-19l-0.3-3.3-0.1-2.9h1.9l1.8-0.2h-3.6l-0.2-2.8-0.2-6-0.0555-3.788 14.77 0.8755-0.01507 1.013c0-0.5 0.2-0.9 0.2-0.9 0.2 2 0.3 6 0.4434 7.771l-6.547 0.1438c-2 0.04 6 0.5 6.62 0.5339l0.2833 3.551-3.5 0.2c1 0.1 3-0.4 3.6 0.4l0.2 2.7 0.3 3.9 0.2 1.5-1.9 0.2h0.9c0.8 0 0.9 0.1 1 0.8l0.2 2v1.4c-3 0.09-12 3-8.5-4.4l5-0.1-5.2-0.1v-4.1h1.5l1.5-0.1-1.6-0.2-1.5-0.1-0.1-2v-2l3-0.1-3.3-0.1v-1.7l-0.4149-9.058-0.08508 9.058c0 2 0 2-0.6 1.7h-0.7 0.7c0.5 0.1 0.5 0.2 0.4948 0.9476 0.7 13-1 14 9.7 12.7l0.4052 2.752c0.2 3 0.4 6 0.7 9v1.4l-1.6 0.2h0.9c0.9 0.1 0.9 0.1 0.9 1.2l0.1 2.1 0.2 1.1h-2.5l-4.4-0.1zm-5-9.4h-2zm-1.5-13.6h-2.4c-0.7 0.1-0.2 0.2 1.1 0.2 1 0 2 0 1.3-0.1zm-0.5-4.3h-2.4c-0.7 0-0.2 0.1 1.2 0.1h1.2zm-204.6 26.5c-4-0.2-7-0.3-11.1-0.4-2-0.2-2 0.5 0.7-5.7l1.6-4.5c0-0.1 13 0.2 13.8 0.4 2 2-0.5 0.1 3.5 0.1 2 0 2 0 2.4 0.3 0 0.3-1 5-2.9 9.3l-0.2 0.7h-1.9zm-4.777-5.924s0.8-4 0.6774-3.976c-0.3 1-0.7 4-0.6774 3.976zm-40.82 4.424-8.2-0.3-1-0.2 0.6-1.2 0.6-1.3 1-2.3 1.7-3.8 0.7-1.5h2.3c1 0 2 0.1 2.3 0.3 0.1 0 0 0.7-0.3 1.3s-0.5 1-0.4 1.3 1-2 1.1-2.4c0-0.3 3-0.3 7 0 2 0 3 0.1 2.5 0.6-0.1 0.3 0 0.4 0.1 0.3 0.2-0.1 0.3-0.3 0.3-0.5 0-0.3 0.4-0.4 1.8-0.4 1 0 2 0 2.5 0.2 0.9 0.1 0.9 0-1 4.4l-1.7 4.4-0.5 1.4h-2zm-2.1-4.5c-0.1-0.1-1 2-1 2.3l0.5-1c0.4-0.6 0.6-1 0.5-1.3zm11.3-2.5 0.5-1.5c0.4-1-0.1-0.2-0.7 1.1-0.4 0.8-0.5 1-0.4 1.4s0.4-0.4 0.6-1zm-26.1 1.7v-5.3h2.4c0.8-0.04 2 0.06 2.4 0.3l-4.7 10zm136.2 3.1 4.8-21.3zm119.7-3.8c-4-0.2-9-0.4-13.2-0.6l-0.8-0.2v-9.3c0.2-0.1 19 0.5 18.7 0.6 0 0 0.2 2 0.2 5l0.2 4.8h-0.7zm-27-1-6.9-0.5c-0.2-0.1 0.4-9 0.6-9.4 0.2-0.1 18 0.6 18.6 0.8v4.8l-0.1 4.6h-2.8l-9.5-0.4zm-11.6-0.5-5-0.3c-6-0.1-10-0.3-10.1-0.5l0.1-0.5c0.2-0.3 0.2-0.6 0-0.8v-1.2c0.3-2 0.5-5 0.6-6.9l7.8 0.3 9.3 0.3h1.7l-0.2 3.3c0 2-0.2 4-0.3 4.9l-0.1 1.5h-1.9l-2-0.1zm-22.5-0.9c-4-0.2-8-0.4-12.6-0.6l0.4-4.7 0.6-4.7 4-0.1c-0.2-0.2-1-0.3-3.8-0.3l0.1-1.1c0.4-3 0.8-5 1.1-8l13 0.3-11.6-0.7-1.4-0.2 0.1-1c0.4-3 0.7-5 1-7.7 5 0.09 4-0.07 0.2-0.4-0.1-0.1 0.4-5 0.8-7.7l0.2-1c6 0.5 12 0.7 17.6 1l-0.1 4.3-0.3 4.2-15.19-0.4062 14.99 1.006c-0.1 3-0.4 5-0.7 8.1-0.5 0.8-0.8 0.8-0.8 0.8 0.7 0.1 0.8 0.2 0.7 0.8-0.4 3-0.7 5-0.8 7.8l-0.1 0.7-4-0.2c-3-0.08-7-0.2-10.3-0.3 0 0 3 0.3 7 0.4l7.1 0.5c0.3 0.2-0.2 5-0.6 7.8l-0.3 1.5h-1.3zm-23.4-1-9.2-0.5 0.4-3c0.4-2 0.7-4 1-6 6-0.3 11-0.2 17.1 0.3h1.7v1l-0.6 4.7c-0.5 4-0.6 4-1 4l-9.4-0.4zm-31.1-0.8 2.5-14.5c-1-0.2-2-2 0.3-0.6l9.168-43.55c0.2-1 4-21 5.262-27.44-5 28-11 58-17.23 86.09zm9 0-7-0.4 0.2-1.8 1-4.5 0.5-3h2.3c2 0 2 0 2.3 0.2s0.1 0.3 0.2 0c0.2-0.2 14 0.3 14 0.5 0 0.1-0.9 7-1.3 8.7l-0.1 0.7h-2.6zm159-0.4c-0.2-1-0.7-6-0.6-6.1 0.2-0.2 1 6 0.9 6.5-0.1 0.3-0.2 0.2-0.3-0.4zm13 0.6c-2 0-2-0.1-2.2-0.6-0.6-3-1-7-1.5-9.8-0.4-3-0.5-3 0.7-2.8h1c-0.7 0.03-1-0.04-2.2-0.1l-0.6-4.6-1.1-7.6c-0.8-5-1-4 3.4-4l4 0.1c2 10 3 20 4.9 29.4 0 0.2-2 0.2-6.4 0zm2.9-13c-0.6-0.05-1-0.05-1.7 0zm-1.3-4.4h-2.5c-0.8 0-0.2 0.1 1.2 0.1h1.4zm-201.1 16c-3 0-6-0.2-5.6-0.2-0.2-0.2 2-9 2.3-9.4 6-0.02 12 0.2 18.7 0.6l-0.3 1.5-1 4.7-0.6 3.2h-4l-9.5-0.3zm9.6-4c0.1-0.2 0.1-0.3 0-0.1-0.6 1-0.7 2-1 3.7-0.1 0.4 0 0.6 0 0.4 0.7-1 0.6-2 1-4zm0.2-2.2c-0.4 1-0.4 1-0.1 1.3 0.5-0.4 0.7-3 0.1-1.3zm-26.8 5.7-8.8-0.4c-0.1-0.1 2-9 2.7-9.4 0.2-0.1 19 0.5 18.8 0.7l-2 8.3c-0.4 1-0.5 1-1.2 1.1zm-1.8-7.3c0.3-1-0.1-0.8-0.6 0.9-0.5 1-0.9 3-1.2 4.5zm-11.6 6.7-1.2-0.1 1.1-3.5 1.2-4-1.4 3.5-1.4 4c-3 0.03-6-0.2-8.4-0.6l-0.1-0.5c-0.2 0 0.1-1 0.8-3.3 0.4-1 0.8-2 1-3.5l-1.4 3.7-1.3 4-2.3-0.1c-1 0-2-0.2-2.3-0.2l3-9.4 5.1 0.1c5 0.2 9 0.5 14 0.7l-2.2 7.8-0.5 1.7h-1.2c-0.8-0.07-2-0.2-2.5-0.3zm-24.6-0.7-5-0.2c-3-2 0.05-0.1-3.1-0.1-0.7 0-2 0-2.4-0.2l-1-0.1 1.7-4.7 1.8-4.7 19.2 0.7-3.2 9.4h-2.3l-5.7-0.2zm-22.6-0.8c-3 0-6-0.2-7.5-0.3l-2-0.2 0.7-1.7 2-4.7c1-3 1-3 2-3l18.6 0.7-3.3 8.6-0.4 0.9h-2.3zm-32.4-0.2 2.5-5.4c2-5 4-9 4-9.3h-0.9c-0.8 0-1-0.3-0.5-0.6 0.2 0 0.2-0.1 0-0.2-0.3-0.2-0.4-0.9-0.1-0.9l0.6 0.5c1 1 1 1 6-9.4l10.4-23.2c2-4 6-12 5.6-13 0.1-0.6 0-0.6-0.7-0.7-0.7 0-0.7 0-0.4-0.3 0.4-0.3 0.4-0.3 0-0.5-0.1 0-0.2-0.2-0.1-0.4 0-0.1 0.3 0 0.7 0.3 0.9 0.8 1 0.7 2.2-1.7l8-18c1-3 2-4 1.2-2l-2.6 6c-3 6-6 12-7.8 18.2-0.5 0.4-0.9 1-4.7 9.8-2 4-4 9-6 13.2-4 8-7 16-10.5 24-0.2 0-2 3-3.8 7.7-0.8 2-2 4-3 6zm17.4-0.8c0.6-2 1-4 2.2-5.6-0.1-0.2-0.3 0.3-1.3 2.8l-1 2-0.2 0.7c0 0.5 0 0.5-7.2 0.3-2-2e-3 -5-0.1-7.3-0.3 0 0 0.8-2 2-4.8l2-4.6h4.7l-0.2 1.3 0.3-0.7c0.2-0.6 0.3-0.7 1.5-0.5 4 0.3 9 0.5 12.9 0.5 0.2 0.1-0.3 2-2.3 6.2l-1.3 3.2-5 0.1zm-8.7-2.6c0.4-0.8 0.6-1 0.4-1.4-0.6 0.9-1 2-1.4 3 0 0.5 0.4-0.3 1-1.6zm-17.6 2.3-3-0.1v-9.8l4.6 0.1c5 0.1 7 0.3 7 0.5l-1.3 2.7-2.2 4.7c-0.8 2-1 2-1.5 2zm278.3-0.5h-1.3v-1.4l-0.1-2-0.1-0.7 2.5-0.2h-1.2c-1-0.1-1-0.1-1.3-0.7l-0.1-2-0.2-1.6 1.7 0.2 4 0.1h2.5l0.2 0.8 0.2 2.1v1.3l-2.8-0.1h-2.7c0 0.2 1 0.3 2.9 0.3h2.7l0.1 1.2 0.2 2v0.9h-3zm-32-0.4-6.8-0.4c-0.4 0-0.4-0.6-0.3-4.6v-4.6l3.8 0.1c5 0.3 10 0.5 14.5 0.7 0.1 0 0.3 2 0.3 4.6v4.5h-2.3l-9-0.3zm-19.4-0.8c-4-0.1-7-0.3-7.3-0.4l0.2-4.6 0.2-4.5 3.8 0.1c4 0.2 9 0.4 13.4 0.6h1.3v9.2h-2.2zm-13-0.5c-5-0.3-9-0.5-13.9-0.6l0.4-4.6 0.4-4.5 5.2 0.1 9.1 0.4 4 0.1v3.1c0 2-0.2 4-0.3 4.7l-0.1 1.5h-2.4c-1 0-2-0.1-2.5-0.2zm90.2-3.7c-0.2-2-0.4-4-0.6-5.7 0.4 3 0.8 6 1.2 9.5zm-131.6 2.1c-0.1 0-2-0.2-5.4-0.2l-5.8-0.3c-0.5-0.2-0.5-0.2 0.3-5.1 0.6-4 0.6-4 1.2-4.2 5 0.09 9 0.3 13.6 0.6l4.2 0.3-0.4 4.4-0.5 4.4c0 0.2-7 0.3-7.2 0.1zm-6.3-4.5-0.4 2.1zm-9 4c-7-0.4-16-0.8-16-1-0.1 0 0.3-2 1-5.5 0.4-1 0.6-3 0.6-3 0-0.4 0.2-0.5 1.2-0.5 5 0.2 11 0.4 16.3 0.7h1.2l-0.2 1.2c-0.2 2-1 8-1.3 8h-2.7zm-25-1.2-16.5-0.7 1-4.6 1.2-4.5c4 0.3 9-0.1 13 0.4h0.9c-2-0.4-14-0.8-13.7-1.3l1.1-4.4 1-4.1 1.4 0.1 6 0.3c7 0.2 11 0.4 10.8 0.6l-1.8 8.6h-2.3l-2.3 0.1 2 0.2 2.2 0.2-0.5 3.1c-0.5 2-1 4-1.4 6h-2.2zm1.4-17.8c-0.2 0.5-1 4-0.4 2.6zm-26 17-11.7-0.6 1.2-4.5 1.3-4.5h2.4c2 0 2 0 2.2 0.3v0.3c0.2 0 0.3-0.1 0.3-0.3s0.5-0.2 1.6-0.2c4 0.2 8 0.4 12 0.6 0.2 0.1-0.7 4-2 8.6 0 0.6 0.3 0.6-7.4 0.2zm-5.2-6.2 0.3-1.7c-0.1-0.2-2 6-1.8 6.2 0 0.4 0.8-2 1.5-4.5zm-10.6 5.5c-0.9 0-1-0.2-1.4-0.3 0.1-0.1 0-0.3-0.2-0.3s-0.3 0.2-0.2 0.3c0 0.2-1 0.3-4 0.1-3 0.2-7-0.03-9.9-0.7l1.4-4.5 1.4-4.2h2.6c1 0 2 0 2.4-0.2 0-0.1-3-0.3-4.3-0.2-0.4 0-0.4-0.2 1.1-4.7l1.4-4.2 5 0.1c10 0.3 13 0.5 13.2 0.6 0.1 0.1-0.4 2-1 4.4l-1.3 4.2h-5c-3 0.02-6-0.05-8.9-0.2 0 0.2 3 0.3 5.9 0.4l6.8 0.3 1 0.2-1.3 4.3-1.3 4.6-0.9 0.1-2.4-0.1zm-24-0.8-11.7-0.6 1.6-4.6 1.6-4.5 4.4 0.2 14.4 0.6-1.4 4.6-1.5 4.5h-1.5l-6-0.2zm4.3-5.3c0.2-1-0.3 0-0.6 1v0.7c0.3-0.5 0.5-1 0.6-1.7zm-9-1c0-0.4-0.1-0.4-0.4 0.2l-0.5 1.4c0 0.6 0 0.6 0.4-0.2l0.5-1.5zm-19 5.4c-3-0.09-5-0.2-8.2-0.4l1.5-3.7 1.8-4.5c0.3-0.8 0.4-0.9 1.4-0.9 3 0 17 0.6 17.7 0.8 0.1 0-0.2 1-1 3.7l-1.7 4.5-0.3 1-1.5-0.1-9.6-0.4zm7.9-4.4c0-0.2-0.3 0.3-0.6 1l-0.6 1.9c0 0.2 0.3-0.3 0.6-1zm-22.3 4-13.8-0.7 0.5-1.5c0.4-0.7 0.6-2 0.5-1.6 0-0.2 0-0.4 0.2-0.5 0.2 0 0.9-1 1.5-2.8l1.2-2.7h2.4c2 0 2 0 2.2 0.4-0.1 0.4 0 0.4 0.2 0.1 5-0.3 9-0.2 14 0.3 0.1 0-0.6 2-1.6 4.6l-1.8 4.4zm3.9-8 0.2-0.8c-0.1 0-1 2-1 2.4zm245 8c-2-0.2-2-0.2-2.3-2.7 0-2 0-2 0.7-1.6 0.6-0.1 0.6-0.1-0.1-0.1h-0.8v-1.6c0-0.9 0-2-0.2-2 0-0.4 4-0.4 7.447-0.363l-7.547-0.237v-1l-0.1-2-0.2-0.9 7.861 0.1569-7.861-0.3569c-0.1-1-0.1-3-0.1-3.8l3.9 0.1 3.9 0.2 0.1 0.7 0.2 1.9c0.1 1-0.07-3 0.3 4.2 0.1 0.5 0.2 0.9 0.1 1.3 0.09 0.9 0.2 2 0.3 2.8v1l-6 0.2h3c2 0 3 0.2 3 0.3l0.3 2 0.2 1.9h-2.1l-4.1-0.2zm-279.4-1-2.1-0.1v-9.5l5.3 0.2c8 0.2 10 0.4 10.5 0.5 0 0-0.3 1-0.9 2-0.9 2-2 4-2.6 5.9l-0.6 1.1h-3.8zm253-0.2-11.6-0.4h-1.4v-1.5l0.2-4.6 0.1-3.1 2.2 0.1h1.6c-0.3-0.2-1-0.2-2.2-0.3h-1.6v-8.7l3 0.1 8.8 0.3c3 0.1 6 0.3 6 0.4 0.1 0.1 0.2 2 0.2 4.3v4.2l-13.6-0.3 5.6 0.2 6.8 0.4 1.2 0.1v3.7l0.2 4.5 0.1 0.7h-2.7l-3-0.1zm-26.2-1-5.9-0.2 0.2-4.3 0.3-4.6h1c1 0.1 12 0.4 12.3 0.2l-5.2-0.3c-7-0.2-8-0.3-8.1-0.8l0.2-4.3 0.2-4 1.3 0.2c4 0.3 9 0.5 13 0.5l2.3 0.1c1 0 1 0.1 1.3 0.5l-0.1 4.3v4l-2.4-0.2c-2 0-2 0-1.9 0.1l2.2 0.2c1 0 2 0.2 2 0.3v4.5l-0.2 4.2h-3.3l-9.2-0.3zm-87.43-0.8343 4.178-19.88zm74.83 0.4343-5.9-0.3c-3 0-6-0.2-6.2-0.3-0.6-0.1-0.5-0.5 0.2-7.7l0.2-1.3 1.1 0.1 7.4 0.1-6.6-0.3-2-0.2 0.1-1.2 0.4-4.3 0.3-3 4.5 0.1c4 0.2 9 0.4 13.2 0.6v4.3l-0.3 4.2-3.9 0.2c1 0.1 3 0.1 3.8 0.1l-0.1 3.7c0 2-0.2 4-0.3 4.5l-0.1 0.8h-2.8zm-51.1-2.2 0.7-4.5 0.7-4.4c1 0.1 3 0.1 4.3 0.1 0-0.6-4 0.1-4.2-0.7l0.7-4.3 0.7-3.8 3.9-0.2-3.9-0.4 0.7-4.2 0.7-4h1.2c4 0.3 7 0.5 10.7 0.6h3l2.6 0.1-0.2 1.6-0.4 4.2-0.3 2.5-2.616 0.0907c0.5-8e-3 2 0.2 2.516 0.3093-0.3 3-0.6 6-1 8.3 0 0.3-12-0.3-13.33-0.3271-2 0.01 9 0.7 11.43 0.8271 2 0.1 2-0.3 1 5l-0.5 4h-1.6s-12-0.7-16.8-0.8zm7.7-17.6h2.1c2 0.3 4 0.2 6.2 0.2zm-13.9 17.4-12.9-0.7 0.8-4.5 0.9-4.4 0.8 0.1 17.3 0.9-0.6 4.3-0.8 4.4c-2-4e-3 -4-4e-3 -5.5 0zm-141-2c4-9 8-17 11.9-26l5.1-11.6c0.8-2 1-3 1.8-4.9 0-1 0.3-2 0.9-1.5l0.6 0.1-3 6.5c-3 7-6 13-9 20-3 6-5 12-8.3 17.3zm90 0c-4-0.1-6-0.3-6.3-0.5 0.6-3 2-6 2.6-8.5 0.6-0.2 18 0.5 18 0.7l-2 8.2c-0.2 0.5-0.5 0.5-12.3 0.1zm-36.1-1.3c-3-0.2-6-0.4-9-0.5-0.3-0.2-0.2-0.7 2-7l0.7-1.7 4 0.1c5 0.2 9 0.4 14.2 0.6 0.2 0.2 0 1-1.1 4.5l-1.4 4.2h-2.4c-2 0-2 0-2.3-0.3 0-0.2 0-0.2-0.3 0l-0.4 0.3s-2-0.2-4-0.2zm5.7-3.3c0.5-1 0.9-3 0.8-2.7l-1.8 5.3c0 0.5 0.2 0 1-2.6zm-8.9-0.9c1-3 2-4 1.2-3.9l-1.3 3.2-1 3.6zm-19.2 3.3c-2-0.09-5-0.2-6.8-0.3l0.1-0.5c1-3 2-5 3.4-8 2-0.3 4-0.3 5.8-0.1 4 0.3 9 0.5 12.8 0.6 0 0.2-0.8 2-2.2 6l-0.9 2.6h-2.7zm-18.7-0.6-6.9-0.4h-1l1-2 2.5-5.7 0.4-1h1.6l16.6 0.6c0.5 0.1 0.5 0-0.7 2.9-0.8 2-2 4-2.2 5.6 0 0.3-0.4 0.3-11.3 0zm-26.4-1-4.4-0.1v-3.1c0-3 0-3 0.7-4.5l0.7-1.4h4.8c0-0.2-1-0.2-2.3-0.2-1 0-2 0-2.2-0.2l2-4.3 2.2-4.3 3.6 0.2 9 0.3 5.7 0.3-1.4 3.3-1.9 4.1-0.5 1h-5.8c-3-0.03-5-0.1-8-0.3 0 0.2 3 0.4 6.7 0.5 4 0 7 0.2 6.8 0.3l-0.8 2.1-2 4.3-1 2.3h-3.9zm143.5-3.918 0.8485-4.782 0.8-3.8h5l-2.3-0.2c-1 0-2-0.2-2.5-0.3 0-0.1 0-1 0.3-2.4l0.8-4 0.3-1.7h1.1c0.6 0 3 0 5.1 0.2 4 0.2 8 0.4 11.5 0.6l-0.6 4.1-0.7 4-1 0.2-0.9 0.2h1l0.8 0.2c0 1-1 8-1.6 8.4zm13.95-8.282c-5-0.4-7-0.4-7.1-0.2 2 0.2 5 0.3 7.2 0.2zm-30 7.5c-4-0.1-8-0.3-8.4-0.4l2-8.4 6.2 0.2c0.5-0.07 0.9-0.1 1.4-0.2-2 0.08-5-0.09-7.4-0.5l1-4.1 1-4h4.4c0-0.2-1-0.2-2.2-0.2h-2.1l0.1-0.7 1.9-7.2c0.1-0.2 17 0.4 17 0.5-0.4 2-0.8 4-1.2 6.5l-0.3 1.4-5.8-0.2c-2 0-5-0.07-7-0.2 4 0.6 8 0.9 12.6 0.8l-0.8 4.1-0.8 4-2.2-0.1c-2 0-2 0-2.2 0.2s0.7 0.2 2.2 0.2c2 0 2 0 2 0.5l-1 4.3-0.7 3.8h-0.7zm-15-0.5c-4-0.09-8-0.3-12.4-0.6-0.2-0.1 2-8 2.3-8.2 0.2-0.2 14 0.2 16.6 0.5l1.4 0.1-1 4.2-1.2 4.2h-1.8l-4-0.2zm-24.2-0.9c-2-4e-3 -5-0.1-7.4-0.4l1.2-4.1 1.4-4.2h4.6c0-0.2-4-0.4-4.4-0.2 0.4-2 0.9-3 1.3-4.6l1.2-3.9 2.3 0.2c2 0 2 0 2-0.1-0.2-0.2-1-0.3-2.2-0.3-2 0-2 0-1.8-0.5l1.3-4 1.1-3.5h2.3c0.7 0.1 1 0.1 2.2 0 0-0.1-1-0.2-2.2-0.2h-2.1l0.2-0.7 1.3-3.8 1-3.3h4.4l-2-0.1-2-0.3c0.6-3 1-5 2.4-7.7 0.6-2 1-5 2.3-7.3l1 0.2c5 0.4 10 0.6 15.5 0.7l-2 7.2-4.6-0.2c-3-0.02-5-0.09-7.6-0.2 0.3 0.2 3 0.4 11.5 0.6 0.5 0 0.4 0.6-0.1 2.4l-1 3.3-0.5 1.7h-2.2l-2.2 0.1 2 0.1c1 0 2 0.2 2.2 0.3l-1 3.8-1 3.7h-6.6c-7-0.2-7-0.1 1.2 0.2l5 0.3c0.2 0-2 6-2 7.5-0.1 0.3-0.4 0.4-0.6 0.3l-12.6-0.3s3 0.3 6.5 0.4l6.4 0.3-1.1 4-1.2 4h-4.6c-3 0.05-6 0.02-8.7-0.1 0 0.1 2 0.3 5.5 0.4 7 0.2 8 0.3 7.6 0.8l-1.4 4-1 3.8h-1.8l-9.1-0.4zm16-33.3c-3-0.4-5-0.5-8-0.4 0 0.1 2 0.3 3.5 0.4 1-9e-3 3-9e-3 4.4 0zm-6.2-8.2c-1-0.1-3-0.2-3.4 0 0 0.1 0.9 0.2 2 0.2 1 0 2-0.1 1.4-0.2zm-30 40.8-6.7-0.3c0-0.1 3-8 3.2-8.4 0.1-0.2 15 0.3 16.9 0.5l1.2 0.1-2.6 8.3h-2.6c-2 0-6 0-9.3-0.2zm-17.5-0.7c-3 0-6-0.2-6.9-0.3l-1.6-0.2 1.6-4c2-4 2-5 2.2-4.5l5.8 0.3c3 0.01 6 0.1 8.9 0.4 2 0 3 0 3 0.2l-0.8 2.6-1.6 4.2-0.6 1.7-2.3-0.1zm6.7-3.8-0.3 0.4-0.6 1.6c0 0.3 0.1 0.1 0.3-0.4 0.3-0.5 0.5-1 0.6-1.6zm-25.8 3.1c-3 0-6-0.2-7.2-0.3l-1.7-0.2 0.4-1 2-4.2 1.4-3.3 2.1 0.1c4 0.06 7 0.2 10.8 0.4l5.2 0.3c0.1 0.1-0.6 2-1.5 4.4l-1.7 4.1h-2.2zm212.4-0.7c-2-0.02-4-0.1-5.7-0.4v-8.2h4.2c0-0.2-1-0.3-2.2-0.3h-2l0.1-8h2.6l14.5 0.6 0.3 4 0.1 4h-2.7c3 0.2 3-0.2 2.8 4.5v4h-3.2c-2 0-6 0-8.7-0.2zm6.1-8.4-4.2-0.2h-2.9l3 0.2 4.2 0.2h1.2zm-20.3 8-7.8-0.4-2.4-0.2 0.2-2.6 0.2-4.2v-1.4l5.7 0.2c3 0 7 0.2 8.8 0.3l3 0.1v8.2l-1.2 0.1c-0.7 0-4 0-6.5-0.2zm-234-4.8v-4.3l2.4 0.1 2.6 0.3c-1 3-3 6-4.6 8.4-0.4 0-0.4-0.1-0.4-4.4zm205.4 3c0.3-3 0.5-5 0.7-7.7h1.2c7 0-2 0.02 16.3 0.5l-0.1 2.6-0.2 4.2v1.6h-1.7s-16-0.7-16.2-1.2zm-18.7-0.2 0.4-2 0.5-4.2 0.1-2.1 17.69 0.466-0.6892 8.434h-1.8c-11-0.5-15-0.6-16.2-0.6zm-73.7-3c-5-0.2-6-0.3-6-0.6s2-8 2.2-8l17.6 0.7-2 8h-2.8c-2 0.1-6 0-9-0.1zm-37.8-1.5-6-0.4 1.4-4.2 1.5-4 1.7 0.1c5 0.4 11 0.6 16 0.8l-1.2 4-1.3 4h-3.1zm0.6-6.2c0-0.2-0.2 0.2-0.4 0.9l-0.5 1.5c0 0.2 0.2-0.1 0.5-0.8zm-17.6 5.5c-3 0-6-0.3-6.6-0.4l-1.5-0.1 3.3-8h2.4c2 0 2 0 2-0.1l-2.2-0.2c-2 0-2-0.1-1.9-0.4l1-2.8 1.5-3.7 0.5-1.2 4.5 0.2c10 0.3 12 0.4 12.7 0.5 0.4 0.1 0.4 0.3-1 4.1l-1.5 4-2.3-0.1h-1.5c0.4 0.2 1 0.3 2.2 0.3 1 0 2 0 1.4 0.4-0.8 2-2 4-2.3 6.3l-0.6 1.5h-2.5zm6.8-8.4-4.3-0.1h-2.5l1.9 0.1 4.3 0.2h2.4zm-26.6 7.7c-4-0.1-7-0.3-7.1-0.4-0.2-0.1 1-3 2.4-5.7l0.8-2.1c0-0.2 0.4-0.3 1-0.3l17 0.8-1.4 4-1.6 4h-2l-9-0.3zm-25.5-0.9c-4-0.1-7-0.3-6.6-0.4 0-0.2 4-8 4-8.1 0.2-0.2 18 0.5 17.9 0.7l-1.2 3-1.8 4-0.5 1.1h-2.6zm219 0-7.4-0.4v-0.9l0.3-4 0.1-3h2.4l2.3-0.1-4.6-0.3v-2.8l0.3-4 0.1-1h1.6c0.9 0.1 4 0.3 6.7 0.3s6 0.2 6.8 0.3l1.7 0.1v7.7l-12.4-0.2 6 0.3c3 0.1 6 0.3 6.3 0.4v4l-0.2 4-1.3-0.1zm-229.2-0.3-2.7-0.2v-8.5l4.6 0.1 4.7 0.3-4 8.3-2.7-0.1zm203.7-0.9 0.1-3.5 0.3-3.9c0-0.5 0-0.5 2.3-0.4 3 0.06-1-0.04-2-0.3v-1l0.3-4c0.2-2 0.3-3 0.7-2.8l13.27 0.347c0.1-0.1-13-0.7-13.17-0.747s-0.6-0.1-0.6-0.3c0.1-0.2 0.3-2 0.4-3.7l0.4-3.4c0-0.1 14 0.4 15.2 0.6h1.3v1.2c0 0.7 0 2-0.2 3.7l-0.1 2.6-3.233 0.047 3.333 0.153-0.2 3.4c-0.2 5 0 4-2.6 4.4l-12.8-0.2 12.6 0.4c1 0 2 0.2 2.3 0.3v4l-0.2 3.8h-2.4c-5 0.1-10-0.3-15-0.7zm-18.4-0.7c-0.1-0.1 0.3-4 0.8-7.1l0.1-0.8h4.7l-2.3-0.2c-2-0.2-2-0.2-2.2-0.8 0.1-2 0.8-7 0.8-7l4 0.1c7 0.3 9 0.3 8.5 0.2 0-0.1-3-0.3-6.2-0.4-2-0.03-4-0.1-6.2-0.3 0-0.1 0.8-7 1-7.4l16.6 0.7c-0.05 2-0.2 5-0.6 6.9 0 0.5-0.2 0.5-2.2 0.5-2 0.1-3 0.1-0.1 0.1l2 0.3c0.1 0.1 0 2-0.1 3.6-0.2 1-0.3 3-0.4 3.8 0 0.3-0.1 0.4-0.6 0.3l-6.4-0.2c-10-0.3 4 0.4 6.9 0.6l-0.2 3.4-0.4 4c0 1-17-0.3-17.5-0.3zm-12-0.3-6.3-0.5c-0.2 0 0.7-6 1-7.3 0.2-0.5 0.3-0.5 2.2-0.5 3 0 3-0.2 0-0.3-1 0-2 0-2-0.2l0.4-2.6 0.6-3.8c0.1-1 0.2-1 1-1.3 0.7 0 0.7 0 0-0.2-0.8-0.1-0.8 0.4 0-4.9l0.5-2.5 1.5-0.1 1.6-0.2h-1.5c-0.9 0-2-0.1-1.5-0.2l1-6.5c0.2-0.5 0.3-0.6 2-0.6l1.9-0.1h-1.9l-1.8-0.2 1.2-6.8c0.2-0.2 14 0.3 15.3 0.5 0.6 0.1 0.8 0.2 0.8 0.7 0 1-0.8 6-1 6.2-2-0.02-4-0.02-6 0l6 0.5-0.3 3.7-0.5 3.5h-2.2l1 0.1c1 0.1 1-0.2 0.7 4.3l-0.4 3.3h-4.4l2.1 0.2c2 0 2 0.1 2.1 0.4-0.2 3-0.6 5-1.2 7.8 0.2 0.1 0.2 0.9-0.1 3l-0.5 4-0.1 1h-2.5zm9.8-8h-2.6zm-4.5-0.2c-0.5-0.2-6-0.3-6.2-0.1l3.2 0.2h3zm1.6-8h-2.5zm3.6-7.7h-2.5zm-5.5-0.3h-2c-0.6 0-0.2 0.1 1 0.1h1zm-22.2 23.4-7.3-0.5 0.6-4c0.6-3 0.9-4 1.1-3.9l16.5 0.8c0.5 0 0.5 0-0.1 4l-0.7 4s-3 0-10.1-0.4zm-36.5-1.5c-4-0.1-9-0.3-12.9-0.6 0 0 1-5 2-7l0.2-0.9 4.2 0.2c4 0.2 9 0.4 13 0.6l-0.6 3.2c-1 4-1 5-1.4 4.7zm-38.4-1.4-11.5-0.6s3-8 2.9-7.7c0.1-0.2 9 0 15.2 0.5l2.3 0.1-1.1 3.3-1.3 4c-0.3 0.7 0.3 0.7-6.4 0.4zm-32.8-1.4-8.3-0.3-7.9-0.5c0-0.2 2-5 3-6.7l0.7-1.3 1 0.1 8.6 0.5c5 0.2 8 0.3 7.7 0.5l-1.5 3.5c-0.5 1-1 3-1.5 3.8-0.2 0.5-0.8 0.7-2 0.4zm200.8-0.4c-4 0-7-0.2-7.8-0.3l-1.3-0.1v-7.8l4 0.2 8.4 0.3 4.4 0.1 0.2 2.2c0.2 4 0.2 6-0.1 5.5h-7.8zm-103.3 0.5248 2.366-9.919zm-127.5-1.325-10.5-0.4c0.4-1 1-3 1.7-4l2-4.1 3.9 0.2c5 0.2 9 0.3 13.7 0.5l-1.6 4-1.8 3.9h-3.6zm-16.7-0.6-3.9-0.2c-0.5 0-0.5 0-0.5-4.1v-4.2l1.8 0.2c4 0.3 8 0.4 11.6 0.5l-1.8 4-2 4h-0.9c-0.5 0-2 0-4.3-0.2zm159.2-2c-3-0.3-7-0.5-10.5-0.7 0 0 0.1-1 0.5-3 0.3-2 0.5-3 0.4-3.2 0-0.1 0-0.3 0.2-0.3l0.2-0.7c0-0.5 0.1-0.5 1.5-0.3 5 0.4 10 0.6 15.6 0.7l-0.6 3.7-0.6 3.8zm-24.9-1.2-6.4-0.2c-3 0-3 0.4-1.5-4.4 0.8-3 0.9-3 1.4-3.4l0.5-0.1c0-0.1-0.2-0.2-0.5-0.2-0.4 0-0.5-0.2-0.4-0.5l1-3.7 0.7-3.4 1 0.2c0.5 0 3 0.2 3.3 0.1l-3.4-0.4c-0.4 0-0.7-0.1-0.7-0.2 0.5-2 1-5 1.7-7h2c5 0.3 10 0.5 14.3 0.8l-0.5 3c-0.4 2-0.7 3-0.6 3.4 0 0.5 0 0.5-2.6 0.5-2 0-2 0-0.8 0.2l2 0.2h1l-0.7 3.7-0.8 3.7h-3.3c0.5 0.2 2 0.3 2.1 0.3 1 0 1 0 1 0.5l-0.8 3.8-0.7 3.3h-2.1c-1 0-4 0-6.2-0.2zm3-7.9-5.7-0.1h-3.2l3.4 0.1 5.8 0.2h2.4l-2.6-0.2zm0.3-7.6h1.8c-3-0.2-9-0.1-6-0.1zm-24.6 14.8-5.6-0.3c-0.2-0.1 2-7 2.1-7.4s4-0.1 8.5 0c6 0.3 8 0.5 8.3 0.7l-0.6 3.2c-0.4 2-0.8 3-0.8 3.5l-0.2 0.6h-3zm-33.8-1.3c-3-0.1-5-0.3-8.2-0.5l0.7-2.3 1.3-3.7 0.5-1.6 5 0.2c6 0.2 8 0.3 7.7 0.7 0.1 0.2 0.2 0.1 0.2-0.2v-0.4c-4-0.3-8-0.5-12.4-0.7 0-0.1 0.4-2 1.1-3.7l1.3-3.6 5 0.2c2 0.01 5 0.04 7.2 0.1l-5.8-0.3-5.6-0.4-0.6-0.1 2.6-7c10 0.3 0.3 0.03 16.6 0.7-0.7 2-1 5-2.3 7.1l-4 0.1h1.9l2 0.3-1.2 3.7-1.1 3.5-4.6 0.3h4.3l-0.2 0.7c0 0.4-0.6 2-1.2 4-1 3-1 3-1.6 3.2zm-1.8-6.3c-0.5 0.9-0.9 2-1.1 3l0.6-1.3c0.3-0.9 0.6-2 0.5-1.7zm-18.6 5.4-6.2-0.4c-0.2 0 3-7 3-7.5h1.8c5 0.3 10 0.6 15.2 0.7 0.2 0-0.2 1-1.1 3.8l-1.4 3.8h-2.6zm-15.7-0.7c-2-0.07-4-0.2-6.7-0.3l-2.2-0.2 1.1-2.7c0.5-1 0.9-2 1.1-3 0-0.2 0-0.5 0.3-0.6 0.2 0 0.4-0.4 0.6-0.7 0.2-0.6 0.2-0.7 1.8-0.5 5 0.4 10 0.6 15.5 0.8 0.1 0.1-0.5 2-1.3 3.8l-1.5 3.7h-2zm203.9 0-6.2-0.1h-2.4v-7.6l6.2 0.2c4 0 7 0.2 8.5 0.3l2.2 0.1v7.4h-2.2l-6.1-0.2zm-18.3-0.5-7.8-0.5v-3.6l0.3-3.6 4.6-0.1-4.5-0.2 0.1-3.7 0.2-3.7 13.9 0.6 2.5 0.1v7.2h-2.5c-3-2e-3 -6-0.07-9.6-0.2l12 0.6v3.7l-0.1 3.7h-0.7l-8.4-0.2zm-211.3-0.5-7.3-0.3 1.9-4 2-3.8 2.3 0.1c5 0.4 10 0.6 14.9 0.8l-1.6 3.7-1.7 3.7h-1.7c-0.9 0-5 0-8.8-0.2zm-15.2-0.6-5.5-0.2h-1.1v-8l3.5 0.1 13.6 0.6c0.4 0 0 0.8-1.5 3.9l-1.9 3.8h-1.4zm154.5-1.8c-2-0.1-4-0.3-6.4-0.5-0.1-0.1 1-7 1.4-7.1 6-0.04 11 0.2 16.6 0.6l-0.5 3.7-0.6 3.7h-2.1zm-34.4-1.5-6-0.2c-7-0.2-7-0.2-6.6-0.7 0.6-3 1-5 2.2-7.4l0.9-3.3c0.5-2 0.8-3 0.8-3.3 0-0.4 0.3-0.4 4.4-0.3 12 0.5 12 0.5 12.2 0.9l-0.7 3.5-0.8 3.1-4.1 0.3h2c2 0 2 0.1 1.9 0.5-0.6 2-1 4-1.5 5.8l-0.4 1.3h-2.1c-0.7-0.03-1-0.1-2.2-0.2zm2.2-7.5c0-0.2-0.2-0.2-0.4-0.2l-5.8-0.1-5.3-0.2 5 0.3c2 0.05 4 0.1 6.5 0.2zm-55.6 5.1c-0.1-0.3-0.2-0.3-0.3 0-4 0.2-8 0.1-12.7-0.3 0-0.2 0.5-2 1.3-3.8l1.5-3.6h1.3l15.6 1-1.3 3.6-1.3 3.5h-2c-2 0-2 0-2.1-0.4zm-21-0.6c-3-0.1-6-0.2-9.2-0.4-1 0-1 0 0.1-2.8l1.5-3.2 0.6-1.6 4 0.2c2 0.1 4 0.3 4 0.5h0.3c0-0.2 0.2-0.3 0.3-0.3 3 0.3 6 0.3 8.4 0.5l-1.1 3-1.5 3.7c-0.3 0.7-0.3 0.7-2 0.6-1 0-3 0-5.4-0.2zm194.9 0c-2 0-4-0.2-4.2-0.2v-7.2l3.3-0.2h-3.2v-7h1.7l14.4 0.5 0.4 7-13-0.3 6.4 0.3 6.4 0.4v7h-4zm-216.8-1-11.8-0.5 3.4-7.4h4.3l-2-0.2c-2 0-2 0.3 0-4.2 0 0 1-3 3.3-6.9l1.6-3.3h1.3c1-0.1 15 0.6 15.2 0.7 0 0.1-1 3-2.4 5.6l-0.9187 1.1-16.05-0.2922c3 0 16 0.5 16.36 0.5136l-2.19 4.579-1.1 2.6c-3-0.05-6-0.1-8.3-0.1l8.096 0.3449-2.796 6.155c-0.3 0.9-0.6 1-1 1.3zm186-0.1-8.2-0.4c0.1-2 0.3-5 0.7-7 0-0.2 1-0.3 3-0.2h3.1l-6-0.4c-0.1-0.2 0.5-7 0.6-6.9l16 0.7v3.5l-0.2 3.4-4.1 0.1 4 0.2-0.2 3.5c0 2-0.2 4-0.3 3.7l-8.3-0.2zm3.1-7.5h-2.6c-1 0.1 2 0.1 2.6 0.1zm-211.1 6.9-8-0.5c1-2 2-4 3.3-6.6l0.3-0.7h2.2c3 0 15 0.6 15 0.8l-1.6 3.8c-2 4-2 4-2.5 3.6zm193.8 0.1-10.2-0.4c-1 0-1 0-0.5-4.3l0.4-3 3.8 0.1 8 0.3c3 0.2 4 0.3 4.5 0.5 0 0.2 0 2-0.2 3.7l-0.3 3.4h-0.9zm-38.8-1.6-7.1-0.4c0.3-2 0.7-5 1.3-7h1.9l1.8-0.1c0-0.2-0.8-0.3-1.7-0.3h-1.8c0-0.2 1-7 1.3-6.8s16 0.5 16 0.7l-0.2 2.5-0.5 3.3-0.2 1h-3c-3-0.1-6-0.3-9.6-0.4 4 0.08 8 0.3 12.4 0.8l-0.4 3.7-0.6 3.4h-1.2zm-163.4-3.5v-3c0.9-8e-3 2-0.02 2.6 0.1 0.5 0.2 0.5 0.2-0.5 2l-1.6 3-0.5 1zm63.4-0.7s0.5-2 1.3-3.6l1.4-3.4h1.3c3-0.04 12 0.3 15.06 0.3277-3-0.2-13-0.7-16.16-0.8277 0 0 3-6 2.8-6.7l16.3 0.6-3.9 10.8-1.2 3.5h-1.7zm-17.9-0.9 1.5-3.5 1.6-3.5h2.6c3 0.1 14 0.6 14 0.8l-1.2 3.6-1.4 3.5h-1.5s-12-0.7-15.6-0.9zm187.6 0.2-7-0.3c-0.2 0 0.2-7 0.4-6.8h5.5l7.6 0.3c3 0 3 0 3 1.6l-0.1 3.4-0.2 2.2h-1.1zm-35-1.3c-3-0.1-6-0.3-6.1-0.4s0.5-6 0.7-6.7h2c1 0 2 0 1.9 0.2s0 0.2 0.2 0c0.1-0.2 2-0.2 6 0 3 0.1 6 0.3 5.9 0.4l-0.1 3.5-0.3 3.3h-2l-8.1-0.3zm-187.6-0.4-6.1-0.3c-0.2 0 3-7 3.6-6.9 6 0.3 11 0.5 16.8 0.6 0.1 0.1-0.6 2-1.5 3.6l-1.7 3.5-2.6-0.1zm-10.5-3.9v-4c6 0.3 5 0.2 6.9 0.4 0.1 0.1-3 6-3.4 6.8-1 0.5-2 0.3-3.5 0.3zm140 2c-1 0.05-3-0.05-4.3-0.3 0 0 0.2-2 0.7-3.5l0.8-3.3h1.6l6 0.3c4 0.1 4 0.2 4.4 0.5 0.1 0.4 0.1 0.4 0.1 0 0-0.3 0.3-0.4 2-0.2l2 0.2-1 5.4-0.3 1.2h-4zm-15.1-0.6c-2-0.03-4-0.1-6.5-0.3 0-0.1 0.3-2 1.5-5.6l0.4-1.4 2 0.1c1 0.1 2 0.3 2 0.5 0.2 0.1 0.2 0.1 0.2-0.1 0-0.3 0.6-0.3 2.9-0.2 3 0.2 6 0.3 9.1 0.5l-0.8 3.5-0.8 3.4h-1.9zm-80.3-0.4 1.3-2.8c-0.4 0.8-0.8 2-1.3 2.8zm56.7-0.6c-0.2 0 2-6 2-6.9 0.2-0.2 16 0.5 16.2 0.7l-0.9 3.4-1 3.3h-2c-5 0.04-10-0.3-14.3-0.5zm-17.5-0.8c-0.1 0 2-7 2.5-6.8 4 0 9 0.4 16.2 0.6l-1 3.5-1.2 3.5c-3-0.1-3-0.1-16.5-0.8zm-25.4-1.1c-4-0.2-6-0.4-7.5-0.4-1 0-2 0-2.1-0.2l1.4-3.2 1.1-2.6 0.5-1h1.8c1 0.2 4 0.3 6 0.4 4 0.1 4 0.1 4 0.6 0 0.5 0 0.5 0.3 0 0.3-0.4 0.6-0.5 1-0.4h1.9c0.8 0.1 1 0.2 1.3 0.4l-1.3 3.4-1.3 3.2c-2-5e-3 -5-0.1-7-0.2zm-12.5-0.8c0.3-1 0.9-2 1.4-2.9-0.3 0.9-0.7 2-1.4 2.9zm-31-1.2c-4-0.1-6-0.3-6.5-0.4l1.6-3.5 1.8-3.3h2.4c5 0.2 9 0.6 14.1 1l-1.6 3.4-1.5 3.2h-2zm-14.9-0.6-0.2566-6.872c4 0.4 7 0.1 11.06 0.2723 0 0-0.6 2-1.6 3.4l-1.7 3.3c-3-0.02-5 0.08-7.5-0.1z" fill="none" stroke="#b9b9b9" stroke-linecap="round" stroke-linejoin="round" style="paint-order:normal"/>
</svg>
