<?xml version="1.0" encoding="UTF-8" standalone="no"?>
<!DOCTYPE svg PUBLIC "-//W3C//DTD SVG 20010904//EN" "http://www.w3.org/TR/2001/REC-SVG-20010904/DTD/svg10.dtd">
<svg xmlns="http://www.w3.org/2000/svg" width="62.7639in" height="25.7778in" viewBox="0 0 4519 1856"> 
	<path id="Center Top" fill="#ffb03c" stroke="black" stroke-width="0" d="M 251.03,891.5 C 214.81,574.63 363.95,325.27 676.44,266.13 988.92,222.86 1206.56,412.78 1263.38,607.50 1263.38,607.5 1262.99,607.77 1204.88,627.94 1142.20,383.81 901,257 660,302.67 437.14,360.67 285.53,536.34 333.5,868.66 295.47,878.97 331.19,869.13 251.03,891.50 Z" /> 
	<path id="Center Bottom" fill="#f4923c" stroke="black" stroke-width="0" d="M 333.39,867.90 C 365.12,1055.75 583,1283 932,1177 1301.30,1035.65 1202.92,626.70 1204.87,626.7 1206.69,626.13 1263.03,606.53 1263.03,606.53 1263.03,606.53 1405.50,1083.00 990.17,1284.81 515.58,1457.36 279.99,1084.03 250.99,890.7 330.5,868 329.34,868.81 333.39,867.9 Z" /> 
	<path id="Left side" fill="#5E78B7" stroke="black" stroke-width="0" d="M 891.86,1653.70 C 438.76,1714.52 6.49,1346.95 50.76,878.9 118.46,260.12 668.63,189.68 668.63,189.68 668.63,189.68 669.34,188.96 671.47,224.3 511.67,237.64 177.71,424.07 176.73,817.75 207.98,1492.06 864.32,1410.63 864.32,1410.63 864.32,1410.63 864.32,1410.25 891.86,1653.70 Z M 777.73,588 C 739.07,588 709.08,602.3 687.77,630.91 666.45,659.50 655.8,699.76 655.8,751.67 655.8,803.36 666.45,843.51 687.77,872.11 709.08,900.7 739.07,915 777.73,915 816.63,915.00 846.73,900.7 868.05,872.11 889.36,843.51 900.02,803.36 900,751.67 900.02,699.76 889.36,659.50 868.05,630.91 846.73,602.30 816.63,588.00 777.73,588.00 Z M 777.75,496.00 C 856.85,496 918.82,518.66 963.64,563.97 1008.46,609.27 1030.88,671.84 1030.88,751.67 1030.88,831.28 1008.46,893.73 963.64,939.05 918.82,984.35 856.85,1007 777.75,1007.00 698.86,1007.00 636.95,984.35 592.02,939.05 547.09,893.73 524.62,831.28 524.62,751.67 524.62,671.84 547.09,609.27 592,563.97 636.95,518.66 698.86,496.00 777.75,496.00 Z M 1517.78,684 C 1497.04,684 1480.95,691.70 1469.52,707.09 1458.09,722.48 1452.38,744.15 1452.38,772.09 1452.38,799.92 1458.09,821.53 1469.52,836.92 1480.95,852.31 1497.04,860 1517.78,860 1538.63,860 1554.77,852.31 1566.20,836.92 1577.64,821.53 1583.36,799.92 1583.36,772.09 1583.36,744.15 1577.64,722.48 1566.20,707.09 1554.77,691.7 1538.63,684 1517.78,684 Z M 1517.78,635 C 1560.21,635.00 1593.44,647.15 1617.47,671.44 1641.51,695.73 1653.53,729.28 1653.53,772.09 1653.53,814.78 1641.51,848.27 1617.47,872.56 1593.44,896.86 1560.21,909 1517.78,909 1475.48,909 1442.27,896.86 1418.17,872.56 1394.08,848.27 1382.03,814.78 1382.03,772.09 1382.03,729.28 1394.08,695.73 1418.17,671.44 1442.27,647.15 1475.48,635.00 1517.78,635 Z M 1701.41,629 C 1701.41,629 1764.69,629 1764.69,629 1764.69,629 1764.69,904 1764.69,904 1764.69,904.00 1701.41,904 1701.41,904 1701.41,904.00 1701.41,629.00 1701.41,629.00 Z M 1959.09,870 C 1950.38,881.69 1940.77,890.28 1930.28,895.77 1919.79,901.26 1907.66,904.00 1893.88,904.00 1869.72,904.00 1849.74,894.51 1833.95,875.52 1818.16,856.52 1810.27,832.31 1810.27,802.91 1810.27,773.39 1818.16,749.19 1833.95,730.31 1849.74,711.44 1869.72,702.00 1893.88,702.00 1907.66,702.00 1919.79,704.73 1930.28,710.19 1940.77,715.65 1950.38,724.25 1959.09,736.00 1959.09,736.00 1959.09,706.00 1959.09,706.00 1959.09,706.00 2022.72,706.00 2022.72,706.00 2022.72,706.00 2022.72,883.78 2022.72,883.78 2022.72,915.63 2012.67,939.97 1992.58,956.78 1972.49,973.59 1943.36,982.00 1905.19,982.00 1892.81,982.00 1880.85,981.02 1869.30,979.05 1857.75,977.08 1846.15,974.06 1834.48,970.00 1834.48,970.00 1834.48,921.00 1834.48,921.00 1845.55,927.39 1856.39,932.16 1867.00,935.30 1877.61,938.43 1888.28,940.00 1899.00,940.00 1919.74,940.00 1934.94,935.46 1944.59,926.39 1954.26,917.32 1959.09,903.12 1959.09,883.78 1959.09,883.78 1959.09,870.00 1959.09,870.00 Z M 1917.38,748.00 C 1904.30,748.00 1894.11,752.80 1886.80,762.39 1879.49,771.98 1875.84,785.54 1875.84,803.09 1875.84,821.11 1879.38,834.76 1886.44,844.06 1893.51,853.36 1903.82,858.00 1917.38,858.00 1930.57,858.00 1940.82,853.21 1948.12,843.62 1955.44,834.03 1959.09,820.52 1959.09,803.09 1959.09,785.54 1955.44,771.98 1948.12,762.39 1940.82,752.80 1930.57,748.00 1917.38,748.00 Z M 2080.28,826.75 C 2080.28,826.75 2080.28,706.00 2080.28,706.00 2080.28,706.00 2143.92,706.00 2143.92,706.00 2143.92,706.00 2143.92,725.77 2143.92,725.77 2143.92,736.48 2143.86,749.92 2143.73,766.11 2143.62,782.29 2143.56,793.09 2143.56,798.50 2143.56,814.40 2143.97,825.84 2144.80,832.84 2145.62,839.84 2147.04,844.93 2149.05,848.11 2151.64,852.23 2155.02,855.42 2159.20,857.66 2163.39,859.89 2168.19,861.00 2173.61,861.00 2186.80,861.00 2197.18,855.95 2204.72,845.83 2212.26,835.70 2216.03,821.64 2216.03,803.62 2216.03,803.62 2216.03,706.00 2216.03,706.00 2216.03,706.00 2279.31,706.00 2279.31,706.00 2279.31,706.00 2279.31,904.00 2279.31,904.00 2279.31,904.00 2216.03,904.00 2216.03,904.00 2216.03,904.00 2216.03,875.00 2216.03,875.00 2206.49,886.62 2196.38,895.20 2185.72,900.72 2175.05,906.24 2163.30,909.00 2150.45,909.00 2127.59,909.00 2110.18,901.98 2098.22,887.95 2086.26,873.92 2080.28,853.52 2080.28,826.75 Z M 2339.41,706.00 C 2339.41,706.00 2402.69,706.00 2402.69,706.00 2402.69,706.00 2402.69,904.00 2402.69,904.00 2402.69,904.00 2339.41,904.00 2339.41,904.00 2339.41,904.00 2339.41,706.00 2339.41,706.00 Z M 2339.41,629.00 C 2339.41,629.00 2402.69,629.00 2402.69,629.00 2402.69,629.00 2402.69,681.00 2402.69,681.00 2402.69,681.00 2339.41,681.00 2339.41,681.00 2339.41,681.00 2339.41,629.00 2339.41,629.00 Z M 2531.52,650.00 C 2531.52,650.00 2531.52,706.00 2531.52,706.00 2531.52,706.00 2596.73,706.00 2596.73,706.00 2596.73,706.00 2596.73,751.00 2596.73,751.00 2596.73,751.00 2531.52,751.00 2531.52,751.00 2531.52,751.00 2531.52,835.38 2531.52,835.38 2531.52,844.62 2533.34,850.87 2536.98,854.12 2540.64,857.38 2547.89,859.00 2558.73,859.00 2558.73,859.00 2591.27,859.00 2591.27,859.00 2591.27,859.00 2591.27,904.00 2591.27,904.00 2591.27,904.00 2537.00,904.00 2537.00,904.00 2512.02,904.00 2494.31,898.80 2483.88,888.39 2473.45,877.98 2468.23,860.31 2468.23,835.38 2468.23,835.38 2468.23,751.00 2468.23,751.00 2468.23,751.00 2436.77,751.00 2436.77,751.00 2436.77,751.00 2436.77,706.00 2436.77,706.00 2436.77,706.00 2468.23,706.00 2468.23,706.00 2468.23,706.00 2468.23,650.00 2468.23,650.00 2468.23,650.00 2531.52,650.00 2531.52,650.00 Z M 2832.02,804.00 C 2832.02,804.00 2832.02,822.00 2832.02,822.00 2832.02,822.00 2684.08,822.00 2684.08,822.00 2685.61,837.00 2690.97,848.25 2700.16,855.75 2709.35,863.25 2722.20,867.00 2738.70,867.00 2752.02,867.00 2765.65,865.02 2779.61,861.05 2793.58,857.08 2807.93,851.06 2822.66,843.00 2822.66,843.00 2822.66,892.00 2822.66,892.00 2807.69,897.61 2792.72,901.84 2777.75,904.70 2762.79,907.57 2747.83,909.00 2732.86,909.00 2697.04,909.00 2669.20,899.89 2649.34,881.67 2629.49,863.45 2619.56,837.90 2619.56,805.00 2619.56,772.69 2629.31,747.28 2648.81,728.77 2668.31,710.26 2695.15,701.00 2729.33,701.00 2760.43,701.00 2785.32,710.35 2804.00,729.05 2822.68,747.73 2832.02,772.72 2832.02,804.00 Z M 2766.97,783.00 C 2766.97,771.02 2763.46,761.36 2756.45,754.02 2749.44,746.67 2740.28,743.00 2728.97,743.00 2716.72,743.00 2706.76,746.44 2699.09,753.31 2691.44,760.18 2686.66,770.07 2684.78,783.00 2684.78,783.00 2766.97,783.00 2766.97,783.00 Z M 3039.38,711.00 C 3039.38,711.00 3039.38,763.00 3039.38,763.00 3030.77,757.22 3022.13,752.95 3013.47,750.17 3004.81,747.39 2995.83,746.00 2986.52,746.00 2968.84,746.00 2955.08,751.18 2945.23,761.55 2935.40,771.91 2930.48,786.40 2930.48,805.00 2930.48,823.61 2935.40,838.09 2945.23,848.45 2955.08,858.82 2968.84,864.00 2986.52,864.00 2996.42,864.00 3005.82,862.48 3014.72,859.45 3023.61,856.42 3031.83,851.94 3039.38,846.00 3039.38,846.00 3039.38,898.00 3039.38,898.00 3029.48,901.67 3019.43,904.41 3009.23,906.25 2999.05,908.08 2988.83,909.00 2978.58,909.00 2942.87,909.00 2914.94,899.84 2894.78,881.50 2874.63,863.17 2864.56,837.67 2864.56,805.00 2864.56,772.34 2874.63,746.84 2894.78,728.50 2914.94,710.17 2942.87,701.00 2978.58,701.00 2988.94,701.00 2999.16,701.84 3009.23,703.50 3019.30,705.17 3029.35,707.67 3039.38,711.00 Z M 3292.44,783.47 C 3292.44,783.47 3292.44,904.00 3292.44,904.00 3292.44,904.00 3228.80,904.00 3228.80,904.00 3228.80,904.00 3228.80,812.09 3228.80,812.09 3228.80,794.77 3228.41,782.87 3227.64,776.39 3226.88,769.91 3225.55,765.14 3223.67,762.08 3221.19,757.95 3217.83,754.75 3213.59,752.45 3209.35,750.15 3204.52,749.00 3199.11,749.00 3185.91,749.00 3175.54,754.10 3168.00,764.30 3160.46,774.48 3156.69,788.59 3156.69,806.61 3156.69,806.61 3156.69,904.00 3156.69,904.00 3156.69,904.00 3093.41,904.00 3093.41,904 3093.41,904.00 3093.41,629.00 3093.41,629.00 3093.41,629.00 3156.69,629.00 3156.69,629 3156.69,629.00 3156.69,735.00 3156.69,735.00 3166.23,723.38 3176.36,714.80 3187.08,709.28 3197.80,703.76 3209.66,701.00 3222.62,701.00 3245.48,701.00 3262.83,708.04 3274.67,722.11 3286.52,736.17 3292.44,756.62 3292.44,783.47 Z M 3630.06,712.00 C 3630.06,712.00 3630.06,760.00 3630.06,760.00 3616.51,754.34 3603.43,750.09 3590.81,747.25 3578.21,744.42 3566.31,743.00 3555.12,743.00 3543.10,743.00 3534.18,744.51 3528.34,747.53 3522.51,750.54 3519.59,755.19 3519.59,761.47 3519.59,766.55 3521.80,770.46 3526.22,773.19 3530.64,775.91 3538.57,777.92 3550.00,779.22 3550.00,779.22 3561.12,780.83 3561.12,780.83 3593.53,784.95 3615.33,791.73 3626.53,801.16 3637.73,810.59 3643.33,825.38 3643.33,845.53 3643.33,866.62 3635.55,882.48 3619.98,893.09 3604.43,903.70 3581.22,909.00 3550.34,909.00 3537.26,909.00 3523.73,908.00 3509.77,906.00 3495.80,904.00 3481.46,901.00 3466.73,897.00 3466.73,897.00 3466.73,849.00 3466.73,849.00 3479.34,855.00 3492.27,859.50 3505.53,862.50 3518.79,865.50 3532.25,867.00 3545.92,867.00 3558.30,867.00 3567.60,865.30 3573.84,861.91 3580.09,858.51 3583.22,853.48 3583.22,846.80 3583.22,841.17 3581.07,836.98 3576.77,834.23 3572.47,831.48 3563.91,829.34 3551.06,827.81 3551.06,827.81 3539.92,826.39 3539.92,826.39 3511.75,822.84 3492.02,816.28 3480.70,806.70 3469.39,797.13 3463.73,782.59 3463.73,763.08 3463.73,742.03 3470.92,726.42 3485.30,716.25 3499.67,706.09 3521.71,701.00 3551.41,701.00 3563.07,701.00 3575.33,701.89 3588.17,703.67 3601.02,705.45 3614.98,708.22 3630.06,712.00 Z M 3695.94,836.00 C 3695.94,836.00 3759.58,836.00 3759.58,836.00 3759.58,836.00 3759.58,904.00 3759.58,904.00 3759.58,904.00 3695.94,904.00 3695.94,904.00 3695.94,904.00 3695.94,836.00 3695.94,836.00 Z M 3915.14,815.00 C 3901.94,815.00 3892.01,817.23 3885.34,821.70 3878.69,826.16 3875.36,832.74 3875.36,841.44 3875.36,849.43 3878.04,855.69 3883.41,860.22 3888.77,864.74 3896.22,867.00 3905.77,867.00 3917.67,867.00 3927.69,862.74 3935.81,854.22 3943.95,845.70 3948.02,835.04 3948.02,822.23 3948.02,822.23 3948.02,815.00 3948.02,815.00 3948.02,815.00 3915.14,815.00 3915.14,815.00 Z M 4011.83,790.92 C 4011.83,790.92 4011.83,904.00 4011.83,904.00 4011.83,904.00 3948.02,904.00 3948.02,904.00 3948.02,904.00 3948.02,875.00 3948.02,875.00 3939.54,886.86 3929.99,895.48 3919.38,900.89 3908.77,906.30 3895.87,909.00 3880.67,909.00 3860.17,909.00 3843.52,903.02 3830.73,891.05 3817.95,879.07 3811.56,863.53 3811.56,844.42 3811.56,821.18 3819.55,804.14 3835.52,793.28 3851.48,782.43 3876.55,777.00 3910.72,777.00 3910.72,777.00 3948.02,777.00 3948.02,777.00 3948.02,777.00 3948.02,771.95 3948.02,771.95 3948.02,761.95 3944.07,754.63 3936.17,749.98 3928.27,745.33 3915.96,743.00 3899.23,743.00 3885.68,743.00 3873.07,744.34 3861.41,747.00 3849.74,749.67 3838.89,753.67 3828.88,759.00 3828.88,759.00 3828.88,711.00 3828.88,711.00 3842.43,707.73 3856.04,705.25 3869.70,703.55 3883.38,701.85 3897.05,701.00 3910.72,701.00 3946.43,701.00 3972.20,708.05 3988.05,722.16 4003.90,736.26 4011.83,759.18 4011.83,790.92 Z M 4075.94,836.00 C 4075.94,836.00 4139.58,836.00 4139.58,836.00 4139.58,836.00 4139.58,904.00 4139.58,904 4139.58,904.00 4075.94,904.00 4075.94,904.00 4075.94,904.00 4075.94,836.00 4075.94,836.00 Z M 4361.06,712.00 C 4361.06,712.00 4361.06,760.00 4361.06,760.00 4347.51,754.34 4334.43,750.09 4321.81,747.25 4309.21,744.42 4297.31,743.00 4286.12,743.00 4274.10,743.00 4265.18,744.51 4259.34,747.53 4253.51,750.54 4250.59,755.19 4250.59,761.47 4250.59,766.55 4252.80,770.46 4257.22,773.19 4261.64,775.91 4269.57,777.92 4281.00,779.22 4281.00,779.22 4292.12,780.83 4292.12,780.83 4324.53,784.95 4346.33,791.73 4357.53,801.16 4368.73,810.59 4374.33,825.38 4374.33,845.53 4374.33,866.62 4366.55,882.48 4350.98,893.09 4335.43,903.70 4312.22,909.00 4281.34,909.00 4268.26,909.00 4254.73,908.00 4240.77,906.00 4226.80,904.00 4212.46,901.00 4197.73,897.00 4197.73,897.00 4197.73,849.00 4197.73,849.00 4210.34,855.00 4223.27,859.50 4236.53,862.50 4249.79,865.50 4263.25,867.00 4276.92,867.00 4289.30,867.00 4298.60,865.30 4304.84,861.91 4311.09,858.51 4314.22,853.48 4314.22,846.80 4314.22,841.17 4312.07,836.98 4307.77,834.23 4303.47,831.48 4294.91,829.34 4282.06,827.81 4282.06,827.81 4270.92,826.39 4270.92,826.39 4242.75,822.84 4223.02,816.28 4211.70,806.70 4200.39,797.13 4194.73,782.59 4194.73,763.08 4194.73,742.03 4201.92,726.42 4216.30,716.25 4230.67,706.09 4252.71,701.00 4282.41,701.00 4294.07,701.00 4306.33,701.89 4319.17,703.67 4332.02,705.45 4345.98,708.22 4361.06,712.00 Z M 4426.94,836.00 C 4426.94,836.00 4490.58,836.00 4490.58,836.00 4490.58,836.00 4490.58,904.00 4490.58,904.00 4490.58,904.00 4426.94,904.00 4426.94,904.00 4426.94,904.00 4426.94,836.00 4426.94,836.00 Z" /> 
</svg>
