<svg xmlns="http://www.w3.org/2000/svg" width="6025.334" height="2474.669" viewBox="0 0 4519 1856"><path fill="#ffb03c" d="M251.03 891.5c-36.22-316.87 112.92-566.23 425.41-625.37 312.48-43.27 530.12 146.65 586.94 341.37 0 0-.39.27-58.5 20.44C1142.2 383.81 901 257 660 302.67c-222.86 58-374.47 233.67-326.5 565.99-38.03 10.31-2.31.47-82.47 22.84Z"/><path fill="#f4923c" d="M333.39 867.9C365.12 1055.75 583 1283 932 1177c369.3-141.35 270.92-550.3 272.87-550.3 1.82-.57 58.16-20.17 58.16-20.17S1405.5 1083 990.17 1284.81c-474.59 172.55-710.18-200.78-739.18-394.11 79.51-22.7 78.35-21.89 82.4-22.8Z"/><path fill="#5687b7" d="M891.86 1653.7c-453.1 60.82-885.37-306.75-841.1-774.8 67.7-618.78 617.87-689.22 617.87-689.22s.71-.72 2.84 34.62c-159.8 13.34-493.76 199.77-494.74 593.45 31.25 674.31 687.59 592.88 687.59 592.88s0-.38 27.54 243.07ZM777.73 588c-38.66 0-68.65 14.3-89.96 42.91-21.32 28.59-31.97 68.85-31.97 120.76 0 51.69 10.65 91.84 31.97 120.44 21.31 28.59 51.3 42.89 89.96 42.89 38.9 0 69-14.3 90.32-42.89 21.31-28.6 31.97-68.75 31.95-120.44.02-51.91-10.64-92.17-31.95-120.76C846.73 602.3 816.63 588 777.73 588Zm.02-92c79.1 0 141.07 22.66 185.89 67.97 44.82 45.3 67.24 107.87 67.24 187.7 0 79.61-22.42 142.06-67.24 187.38-44.82 45.3-106.79 67.95-185.89 67.95-78.89 0-140.8-22.65-185.73-67.95-44.93-45.32-67.4-107.77-67.4-187.38 0-79.83 22.47-142.4 67.38-187.7C636.95 518.66 698.86 496 777.75 496Zm740.03 188c-20.74 0-36.83 7.7-48.26 23.09s-17.14 37.06-17.14 65c0 27.83 5.71 49.44 17.14 64.83s27.52 23.08 48.26 23.08c20.85 0 36.99-7.69 48.42-23.08 11.44-15.39 17.16-37 17.16-64.83 0-27.94-5.72-49.61-17.16-65-11.43-15.39-27.57-23.09-48.42-23.09Zm0-49c42.43 0 75.66 12.15 99.69 36.44 24.04 24.29 36.06 57.84 36.06 100.65 0 42.69-12.02 76.18-36.06 100.47-24.03 24.3-57.26 36.44-99.69 36.44-42.3 0-75.51-12.14-99.61-36.44-24.09-24.29-36.14-57.78-36.14-100.47 0-42.81 12.05-76.36 36.14-100.65 24.1-24.29 57.31-36.44 99.61-36.44Zm183.63-6h63.28v275h-63.28V629Zm257.68 241c-8.71 11.69-18.32 20.28-28.81 25.77-10.49 5.49-22.62 8.23-36.4 8.23-24.16 0-44.14-9.49-59.93-28.48-15.79-19-23.68-43.21-23.68-72.61 0-29.52 7.89-53.72 23.68-72.6 15.79-18.87 35.77-28.31 59.93-28.31 13.78 0 25.91 2.73 36.4 8.19 10.49 5.46 20.1 14.06 28.81 25.81v-30h63.63v177.78c0 31.85-10.05 56.19-30.14 73-20.09 16.81-49.22 25.22-87.39 25.22-12.38 0-24.34-.98-35.89-2.95-11.55-1.97-23.15-4.99-34.82-9.05v-49c11.07 6.39 21.91 11.16 32.52 14.3 10.61 3.13 21.28 4.7 32 4.7 20.74 0 35.94-4.54 45.59-13.61 9.67-9.07 14.5-23.27 14.5-42.61V870Zm-41.71-122c-13.08 0-23.27 4.8-30.58 14.39-7.31 9.59-10.96 23.15-10.96 40.7 0 18.02 3.54 31.67 10.6 40.97 7.07 9.3 17.38 13.94 30.94 13.94 13.19 0 23.44-4.79 30.74-14.38 7.32-9.59 10.97-23.1 10.97-40.53 0-17.55-3.65-31.11-10.97-40.7-7.3-9.59-17.55-14.39-30.74-14.39Zm162.9 78.75V706h63.64v19.77c0 10.71-.06 24.15-.19 40.34-.11 16.18-.17 26.98-.17 32.39 0 15.9.41 27.34 1.24 34.34.82 7 2.24 12.09 4.25 15.27 2.59 4.12 5.97 7.31 10.15 9.55 4.19 2.23 8.99 3.34 14.41 3.34 13.19 0 23.57-5.05 31.11-15.17 7.54-10.13 11.31-24.19 11.31-42.21V706h63.28v198h-63.28v-29c-9.54 11.62-19.65 20.2-30.31 25.72-10.67 5.52-22.42 8.28-35.27 8.28-22.86 0-40.27-7.02-52.23-21.05-11.96-14.03-17.94-34.43-17.94-61.2ZM2339.41 706h63.28v198h-63.28V706Zm0-77h63.28v52h-63.28v-52Zm192.11 21v56h65.21v45h-65.21v84.38c0 9.24 1.82 15.49 5.46 18.74 3.66 3.26 10.91 4.88 21.75 4.88h32.54v45H2537c-24.98 0-42.69-5.2-53.12-15.61s-15.65-28.08-15.65-53.01V751h-31.46v-45h31.46v-56h63.29Zm300.5 154v18h-147.94c1.53 15 6.89 26.25 16.08 33.75 9.19 7.5 22.04 11.25 38.54 11.25 13.32 0 26.95-1.98 40.91-5.95 13.97-3.97 28.32-9.99 43.05-18.05v49c-14.97 5.61-29.94 9.84-44.91 12.7-14.96 2.87-29.92 4.3-44.89 4.3-35.82 0-63.66-9.11-83.52-27.33-19.85-18.22-29.78-43.77-29.78-76.67 0-32.31 9.75-57.72 29.25-76.23 19.5-18.51 46.34-27.77 80.52-27.77 31.1 0 55.99 9.35 74.67 28.05 18.68 18.68 28.02 43.67 28.02 74.95Zm-65.05-21c0-11.98-3.51-21.64-10.52-28.98-7.01-7.35-16.17-11.02-27.48-11.02-12.25 0-22.21 3.44-29.88 10.31-7.65 6.87-12.43 16.76-14.31 29.69h82.19Zm272.41-72v52c-8.61-5.78-17.25-10.05-25.91-12.83-8.66-2.78-17.64-4.17-26.95-4.17-17.68 0-31.44 5.18-41.29 15.55-9.83 10.36-14.75 24.85-14.75 43.45 0 18.61 4.92 33.09 14.75 43.45 9.85 10.37 23.61 15.55 41.29 15.55 9.9 0 19.3-1.52 28.2-4.55 8.89-3.03 17.11-7.51 24.66-13.45v52c-9.9 3.67-19.95 6.41-30.15 8.25-10.18 1.83-20.4 2.75-30.65 2.75-35.71 0-63.64-9.16-83.8-27.5-20.15-18.33-30.22-43.83-30.22-76.5 0-32.66 10.07-58.16 30.22-76.5 20.16-18.33 48.09-27.5 83.8-27.5 10.36 0 20.58.84 30.65 2.5 10.07 1.67 20.12 4.17 30.15 7.5Zm253.06 72.47V904h-63.64v-91.91c0-17.32-.39-29.22-1.16-35.7-.76-6.48-2.09-11.25-3.97-14.31-2.48-4.13-5.84-7.33-10.08-9.63-4.24-2.3-9.07-3.45-14.48-3.45-13.2 0-23.57 5.1-31.11 15.3-7.54 10.18-11.31 24.29-11.31 42.31V904h-63.28V629h63.28v106c9.54-11.62 19.67-20.2 30.39-25.72 10.72-5.52 22.58-8.28 35.54-8.28 22.86 0 40.21 7.04 52.05 21.11 11.85 14.06 17.77 34.51 17.77 61.36ZM3630.06 712v48c-13.55-5.66-26.63-9.91-39.25-12.75-12.6-2.83-24.5-4.25-35.69-4.25-12.02 0-20.94 1.51-26.78 4.53-5.83 3.01-8.75 7.66-8.75 13.94 0 5.08 2.21 8.99 6.63 11.72 4.42 2.72 12.35 4.73 23.78 6.03l11.12 1.61c32.41 4.12 54.21 10.9 65.41 20.33 11.2 9.43 16.8 24.22 16.8 44.37 0 21.09-7.78 36.95-23.35 47.56-15.55 10.61-38.76 15.91-69.64 15.91-13.08 0-26.61-1-40.57-3-13.97-2-28.31-5-43.04-9v-48c12.61 6 25.54 10.5 38.8 13.5 13.26 3 26.72 4.5 40.39 4.5 12.38 0 21.68-1.7 27.92-5.09 6.25-3.4 9.38-8.43 9.38-15.11 0-5.63-2.15-9.82-6.45-12.57-4.3-2.75-12.86-4.89-25.71-6.42l-11.14-1.42c-28.17-3.55-47.9-10.11-59.22-19.69-11.31-9.57-16.97-24.11-16.97-43.62 0-21.05 7.19-36.66 21.57-46.83 14.37-10.16 36.41-15.25 66.11-15.25 11.66 0 23.92.89 36.76 2.67 12.85 1.78 26.81 4.55 41.89 8.33Zm65.88 124h63.64v68h-63.64v-68Zm219.2-21c-13.2 0-23.13 2.23-29.8 6.7-6.65 4.46-9.98 11.04-9.98 19.74 0 7.99 2.68 14.25 8.05 18.78 5.36 4.52 12.81 6.78 22.36 6.78 11.9 0 21.92-4.26 30.04-12.78 8.14-8.52 12.21-19.18 12.21-31.99V815h-32.88Zm96.69-24.08V904h-63.81v-29c-8.48 11.86-18.03 20.48-28.64 25.89s-23.51 8.11-38.71 8.11c-20.5 0-37.15-5.98-49.94-17.95-12.78-11.98-19.17-27.52-19.17-46.63 0-23.24 7.99-40.28 23.96-51.14 15.96-10.85 41.03-16.28 75.2-16.28h37.3v-5.05c0-10-3.95-17.32-11.85-21.97-7.9-4.65-20.21-6.98-36.94-6.98-13.55 0-26.16 1.34-37.82 4-11.67 2.67-22.52 6.67-32.53 12v-48c13.55-3.27 27.16-5.75 40.82-7.45 13.68-1.7 27.35-2.55 41.02-2.55 35.71 0 61.48 7.05 77.33 21.16 15.85 14.1 23.78 37.02 23.78 68.76Zm64.11 45.08h63.64v68h-63.64v-68Zm285.12-124v48c-13.55-5.66-26.63-9.91-39.25-12.75-12.6-2.83-24.5-4.25-35.69-4.25-12.02 0-20.94 1.51-26.78 4.53-5.83 3.01-8.75 7.66-8.75 13.94 0 5.08 2.21 8.99 6.63 11.72 4.42 2.72 12.35 4.73 23.78 6.03l11.12 1.61c32.41 4.12 54.21 10.9 65.41 20.33 11.2 9.43 16.8 24.22 16.8 44.37 0 21.09-7.78 36.95-23.35 47.56-15.55 10.61-38.76 15.91-69.64 15.91-13.08 0-26.61-1-40.57-3-13.97-2-28.31-5-43.04-9v-48c12.61 6 25.54 10.5 38.8 13.5 13.26 3 26.72 4.5 40.39 4.5 12.38 0 21.68-1.7 27.92-5.09 6.25-3.4 9.38-8.43 9.38-15.11 0-5.63-2.15-9.82-6.45-12.57-4.3-2.75-12.86-4.89-25.71-6.42l-11.14-1.42c-28.17-3.55-47.9-10.11-59.22-19.69-11.31-9.57-16.97-24.11-16.97-43.62 0-21.05 7.19-36.66 21.57-46.83 14.37-10.16 36.41-15.25 66.11-15.25 11.66 0 23.92.89 36.76 2.67 12.85 1.78 26.81 4.55 41.89 8.33Zm65.88 124h63.64v68h-63.64v-68Z"/></svg>